<svg width="37" height="37" viewBox="0 0 37 37" fill="none" xmlns="http://www.w3.org/2000/svg">
<path opacity="0.4" d="M18.185 21.5052L13.28 26.4102C12.74 25.9302 12.215 25.4352 11.705 24.9252C10.16 23.3652 8.765 21.7302 7.52 20.0202C6.29 18.3102 5.3 16.6002 4.58 14.9052C3.86 13.1952 3.5 11.5602 3.5 10.0002C3.5 8.98019 3.68 8.00519 4.04 7.10519C4.4 6.19019 4.97 5.35019 5.765 4.60019C6.725 3.65519 7.775 3.19019 8.885 3.19019C9.305 3.19019 9.725 3.28019 10.1 3.46019C10.49 3.64019 10.835 3.91019 11.105 4.30019L14.585 9.20519C14.855 9.58019 15.05 9.92519 15.185 10.2552C15.32 10.5702 15.395 10.8852 15.395 11.1702C15.395 11.5302 15.29 11.8902 15.08 12.2352C14.885 12.5802 14.6 12.9402 14.24 13.3002L13.1 14.4852C12.935 14.6502 12.86 14.8452 12.86 15.0852C12.86 15.2052 12.875 15.3102 12.905 15.4302C12.95 15.5502 12.995 15.6402 13.025 15.7302C13.295 16.2252 13.76 16.8702 14.42 17.6502C15.095 18.4302 15.815 19.2252 16.595 20.0202C17.135 20.5452 17.66 21.0552 18.185 21.5052Z" fill="url(#paint0_linear_615_1297)"/>
<path d="M33.4549 27.6852C33.4549 28.1052 33.3799 28.5402 33.2299 28.9602C33.1849 29.0802 33.1399 29.2002 33.0799 29.3202C32.8249 29.8602 32.4949 30.3702 32.0599 30.8502C31.3249 31.6602 30.5149 32.2452 29.5999 32.6202C29.5849 32.6202 29.5699 32.6352 29.5549 32.6352C28.6699 32.9952 27.7099 33.1902 26.6749 33.1902C25.1449 33.1902 23.5099 32.8302 21.7849 32.0952C20.0599 31.3602 18.3349 30.3702 16.6249 29.1252C16.0399 28.6902 15.4549 28.2552 14.8999 27.7902L19.8049 22.8852C20.2249 23.2002 20.5999 23.4402 20.9149 23.6052C20.9899 23.6352 21.0799 23.6802 21.1849 23.7252C21.3049 23.7702 21.4249 23.7852 21.5599 23.7852C21.8149 23.7852 22.0099 23.6952 22.1749 23.5302L23.3149 22.4052C23.6899 22.0302 24.0499 21.7452 24.3949 21.5652C24.7399 21.3552 25.0849 21.2502 25.4599 21.2502C25.7449 21.2502 26.0449 21.3102 26.3749 21.4452C26.7049 21.5802 27.0499 21.7752 27.4249 22.0302L32.3899 25.5552C32.7799 25.8252 33.0499 26.1402 33.2149 26.5152C33.3649 26.8902 33.4549 27.2652 33.4549 27.6852Z" fill="url(#paint1_linear_615_1297)"/>
<defs>
<linearGradient id="paint0_linear_615_1297" x1="3.50503" y1="14.8065" x2="18.1825" y2="14.8065" gradientUnits="userSpaceOnUse">
<stop stop-color="#29295B"/>
<stop offset="1" stop-color="#029D96"/>
</linearGradient>
<linearGradient id="paint1_linear_615_1297" x1="14.9063" y1="27.2235" x2="33.4517" y2="27.2235" gradientUnits="userSpaceOnUse">
<stop stop-color="#29295B"/>
<stop offset="1" stop-color="#029D96"/>
</linearGradient>
</defs>
</svg>
