<svg width="37" height="37" viewBox="0 0 37 37" fill="none" xmlns="http://www.w3.org/2000/svg">
<path opacity="0.4" d="M26 30.9402H11C6.5 30.9402 3.5 28.6902 3.5 23.4402V12.9402C3.5 7.69019 6.5 5.44019 11 5.44019H26C30.5 5.44019 33.5 7.69019 33.5 12.9402V23.4402C33.5 28.6902 30.5 30.9402 26 30.9402Z" fill="url(#paint0_linear_615_1300)"/>
<path d="M18.5002 19.4951C17.2402 19.4951 15.9652 19.1051 14.9902 18.3101L10.2952 14.5601C9.81515 14.1701 9.72516 13.4651 10.1152 12.9851C10.5052 12.5051 11.2102 12.4151 11.6902 12.8051L16.3851 16.5551C17.5251 17.4701 19.4601 17.4701 20.6001 16.5551L25.2952 12.8051C25.7752 12.4151 26.4952 12.4901 26.8702 12.9851C27.2602 13.4651 27.1852 14.1851 26.6902 14.5601L21.9952 18.3101C21.0352 19.1051 19.7602 19.4951 18.5002 19.4951Z" fill="url(#paint1_linear_615_1300)"/>
<defs>
<linearGradient id="paint0_linear_615_1300" x1="3.51027" y1="18.1971" x2="33.4949" y2="18.1971" gradientUnits="userSpaceOnUse">
<stop stop-color="#29295B"/>
<stop offset="1" stop-color="#029D96"/>
</linearGradient>
<linearGradient id="paint1_linear_615_1300" x1="9.877" y1="16.0276" x2="27.116" y2="16.0276" gradientUnits="userSpaceOnUse">
<stop stop-color="#29295B"/>
<stop offset="1" stop-color="#029D96"/>
</linearGradient>
</defs>
</svg>
