<svg width="37" height="37" viewBox="0 0 37 37" fill="none" xmlns="http://www.w3.org/2000/svg">
<path opacity="0.4" d="M31.4301 12.8652C29.8551 5.93519 23.8101 2.81519 18.5001 2.81519C18.5001 2.81519 18.5001 2.81519 18.4851 2.81519C13.1901 2.81519 7.13014 5.92019 5.55514 12.8502C3.80014 20.5902 8.54014 27.1452 12.8301 31.2702C14.4201 32.8002 16.4601 33.5652 18.5001 33.5652C20.5401 33.5652 22.5801 32.8002 24.1551 31.2702C28.4451 27.1452 33.1851 20.6052 31.4301 12.8652Z" fill="url(#paint0_linear_615_1303)"/>
<path d="M18.4999 20.3802C21.1094 20.3802 23.2249 18.2647 23.2249 15.6552C23.2249 13.0456 21.1094 10.9302 18.4999 10.9302C15.8904 10.9302 13.7749 13.0456 13.7749 15.6552C13.7749 18.2647 15.8904 20.3802 18.4999 20.3802Z" fill="url(#paint1_linear_615_1303)"/>
<defs>
<linearGradient id="paint0_linear_615_1303" x1="5.18929" y1="18.1985" x2="31.8006" y2="18.1985" gradientUnits="userSpaceOnUse">
<stop stop-color="#29295B"/>
<stop offset="1" stop-color="#029D96"/>
</linearGradient>
<linearGradient id="paint1_linear_615_1303" x1="13.7781" y1="15.6577" x2="23.2233" y2="15.6577" gradientUnits="userSpaceOnUse">
<stop stop-color="#29295B"/>
<stop offset="1" stop-color="#029D96"/>
</linearGradient>
</defs>
</svg>
