<svg width="51" height="51" viewBox="0 0 51 51" fill="none" xmlns="http://www.w3.org/2000/svg">
<mask id="mask0_903_3913" style="mask-type:luminance" maskUnits="userSpaceOnUse" x="2" y="2" width="47" height="47">
<path d="M25.4998 46.3334C28.2748 46.337 31.023 45.7997 33.5867 44.7525C36.1504 43.7053 38.479 42.1688 40.4386 40.2313C42.4033 38.299 43.9614 36.0028 45.0234 33.4747C46.0853 30.9466 46.6302 28.2365 46.6266 25.5001C46.6301 22.7637 46.0853 20.0536 45.0233 17.5255C43.9614 14.9975 42.4033 12.7013 40.4386 10.7688C38.479 8.83138 36.1504 7.29489 33.5867 6.24769C31.023 5.20049 28.2748 4.66322 25.4998 4.66677C22.7249 4.66328 19.9766 5.20057 17.413 6.24777C14.8493 7.29497 12.5207 8.83142 10.5611 10.7688C8.59638 12.7013 7.03828 14.9975 5.97633 17.5255C4.91439 20.0536 4.36953 22.7637 4.37306 25.5001C4.36947 28.2365 4.9143 30.9466 5.97625 33.4747C7.0382 36.0028 8.59633 38.299 10.5611 40.2313C12.5207 42.1688 14.8493 43.7052 17.413 44.7524C19.9766 45.7996 22.7249 46.3369 25.4998 46.3334Z" fill="white" stroke="white" stroke-width="4" stroke-linejoin="round"/>
<path d="M17.0488 25.5L23.3869 31.75L36.0629 19.25" stroke="black" stroke-width="4" stroke-linecap="round" stroke-linejoin="round"/>
</mask>
<g mask="url(#mask0_903_3913)">
<path d="M0.147461 0.5H50.8517V50.5H0.147461V0.5Z" fill="url(#paint0_linear_903_3913)"/>
</g>
<defs>
<linearGradient id="paint0_linear_903_3913" x1="0.164817" y1="25.5135" x2="50.843" y2="25.5135" gradientUnits="userSpaceOnUse">
<stop stop-color="#29295B"/>
<stop offset="1" stop-color="#029D96"/>
</linearGradient>
</defs>
</svg>
