<svg width="37" height="37" viewBox="0 0 37 37" fill="none" xmlns="http://www.w3.org/2000/svg">
<path opacity="0.58" d="M36.5 0.190186H0.5V36.1902H36.5V0.190186Z" fill="white"/>
<path opacity="0.4" d="M10.91 31.1351C13.145 32.4401 15.74 33.1901 18.5 33.1901C26.945 33.1901 33.9649 25.7351 33.4699 17.3051C32.9599 8.60513 25.0549 1.90013 15.9499 3.40013C9.67994 4.43513 4.65495 9.52013 3.67995 15.7901C3.10995 19.4201 3.85998 22.8551 5.49498 25.6901L4.15996 30.6551C3.85996 31.7801 4.89493 32.8001 6.00493 32.4851L10.91 31.1351Z" fill="url(#paint0_linear_615_1294)"/>
<path d="M26 22.9451C26 23.2151 25.94 23.5002 25.805 23.7702C25.67 24.0402 25.505 24.2952 25.295 24.5352C24.92 24.9402 24.515 25.2402 24.065 25.4202C23.615 25.6152 23.12 25.7052 22.595 25.7052C21.83 25.7052 21.005 25.5252 20.15 25.1502C19.28 24.7752 18.425 24.2802 17.57 23.6652C16.7 23.0352 15.89 22.3302 15.11 21.5652C14.33 20.7852 13.64 19.9602 13.01 19.1052C12.395 18.2502 11.9 17.3952 11.54 16.5402C11.18 15.6852 11 14.8602 11 14.0802C11 13.5702 11.09 13.0752 11.27 12.6252C11.45 12.1602 11.735 11.7401 12.14 11.3651C12.62 10.8851 13.145 10.6602 13.7 10.6602C13.91 10.6602 14.12 10.7052 14.315 10.7952C14.51 10.8852 14.69 11.0201 14.825 11.2151L16.55 13.6902C16.685 13.8852 16.79 14.0501 16.85 14.2151C16.925 14.3801 16.955 14.5302 16.955 14.6802C16.955 14.8602 16.895 15.0401 16.79 15.2201C16.685 15.4001 16.55 15.5801 16.37 15.7601L15.8 16.3601C15.71 16.4501 15.68 16.5402 15.68 16.6602C15.68 16.7202 15.695 16.7801 15.71 16.8401C15.74 16.9001 15.755 16.9451 15.77 16.9901C15.905 17.2451 16.145 17.5601 16.475 17.9501C16.82 18.3401 17.18 18.7451 17.57 19.1351C17.975 19.5401 18.365 19.9002 18.77 20.2452C19.16 20.5752 19.49 20.8002 19.745 20.9352C19.79 20.9502 19.835 20.9802 19.88 20.9952C19.94 21.0252 20 21.0252 20.075 21.0252C20.21 21.0252 20.3 20.9802 20.39 20.8902L20.96 20.3201C21.155 20.1251 21.335 19.9902 21.5 19.9002C21.68 19.7952 21.845 19.7351 22.04 19.7351C22.19 19.7351 22.34 19.7651 22.505 19.8401C22.67 19.9151 22.85 20.0052 23.03 20.1402L25.52 21.9102C25.715 22.0452 25.85 22.2102 25.94 22.3902C25.955 22.5552 26 22.7351 26 22.9451Z" fill="url(#paint1_linear_615_1294)"/>
<defs>
<linearGradient id="paint0_linear_615_1294" x1="3.50099" y1="18.1979" x2="33.4895" y2="18.1979" gradientUnits="userSpaceOnUse">
<stop stop-color="#29295B"/>
<stop offset="1" stop-color="#029D96"/>
</linearGradient>
<linearGradient id="paint1_linear_615_1294" x1="11.0051" y1="18.1867" x2="25.9974" y2="18.1867" gradientUnits="userSpaceOnUse">
<stop stop-color="#29295B"/>
<stop offset="1" stop-color="#029D96"/>
</linearGradient>
</defs>
</svg>
