<svg width="36" height="37" viewBox="0 0 36 37" fill="none" xmlns="http://www.w3.org/2000/svg">
<g clip-path="url(#clip0_581_406)">
<path fill-rule="evenodd" clip-rule="evenodd" d="M6 18.1904C6 11.563 11.3726 6.19043 18 6.19043C24.6275 6.19043 30 11.563 30 18.1904C30 24.3098 25.4195 29.3594 19.5 30.0976V21.1904H22.5C23.3284 21.1904 24 20.5189 24 19.6904C24 18.862 23.3284 18.1904 22.5 18.1904H19.5V15.1904C19.5 14.362 20.1716 13.6904 21 13.6904H21.75C22.5784 13.6904 23.25 13.0188 23.25 12.1904C23.25 11.362 22.5784 10.6904 21.75 10.6904H21C18.5147 10.6904 16.5 12.7052 16.5 15.1904V18.1904H13.5C12.6716 18.1904 12 18.862 12 19.6904C12 20.5189 12.6716 21.1904 13.5 21.1904H16.5V30.0976C10.5805 29.3594 6 24.3098 6 18.1904ZM18 33.1904C26.2842 33.1904 33 26.4746 33 18.1904C33 9.90615 26.2842 3.19043 18 3.19043C9.71572 3.19043 3 9.90615 3 18.1904C3 26.4746 9.71572 33.1904 18 33.1904Z" fill="#032E47"/>
</g>
<defs>
<clipPath id="clip0_581_406">
<rect width="36" height="36" fill="white" transform="translate(0 0.19043)"/>
</clipPath>
</defs>
</svg>
