<svg width="36" height="37" viewBox="0 0 36 37" fill="none" xmlns="http://www.w3.org/2000/svg">
<g clip-path="url(#clip0_581_412)">
<path fill-rule="evenodd" clip-rule="evenodd" d="M24 4.69043C28.1421 4.69043 31.5 8.0483 31.5 12.1904V24.1904C31.5 28.3325 28.1421 31.6904 24 31.6904H12C7.85787 31.6904 4.5 28.3325 4.5 24.1904V12.1904C4.5 8.0483 7.85787 4.69043 12 4.69043H24ZM24 7.69043H12C9.51473 7.69043 7.5 9.70515 7.5 12.1904V24.1904C7.5 26.6758 9.51473 28.6904 12 28.6904H24C26.4853 28.6904 28.5 26.6758 28.5 24.1904V12.1904C28.5 9.70515 26.4853 7.69043 24 7.69043ZM18 12.1904C21.3137 12.1904 24 14.8767 24 18.1904C24 21.5041 21.3137 24.1904 18 24.1904C14.6863 24.1904 12 21.5041 12 18.1904C12 14.8767 14.6863 12.1904 18 12.1904ZM18 15.1904C16.3431 15.1904 15 16.5335 15 18.1904C15 19.8473 16.3431 21.1904 18 21.1904C19.6569 21.1904 21 19.8473 21 18.1904C21 16.5335 19.6569 15.1904 18 15.1904ZM24.75 9.94043C25.5784 9.94043 26.25 10.612 26.25 11.4404C26.25 12.2688 25.5784 12.9404 24.75 12.9404C23.9216 12.9404 23.25 12.2688 23.25 11.4404C23.25 10.612 23.9216 9.94043 24.75 9.94043Z" fill="#032E47"/>
</g>
<defs>
<clipPath id="clip0_581_412">
<rect width="36" height="36" fill="white" transform="translate(0 0.19043)"/>
</clipPath>
</defs>
</svg>
