<svg width="36" height="37" viewBox="0 0 36 37" fill="none" xmlns="http://www.w3.org/2000/svg">
<g clip-path="url(#clip0_581_418)">
<path fill-rule="evenodd" clip-rule="evenodd" d="M26.7257 10.6737C26.1962 9.9113 24.7803 8.84133 22.4865 9.30206C21.1491 9.57071 20.3489 10.2338 19.8404 11.1061C19.2986 12.0352 19.0368 13.2998 19.0368 14.7719C19.0368 15.6003 18.3653 16.2718 17.5368 16.2718C13.9877 16.2718 10.6098 15.2179 7.76729 12.3656C7.58294 13.3917 7.45432 14.6109 7.51532 15.8751C7.59392 17.5041 7.98346 19.1385 8.90584 20.538C9.81247 21.9136 11.3058 23.1738 13.801 23.9647C14.2985 24.1224 14.6783 24.5274 14.8037 25.0339C14.9292 25.5405 14.7823 26.076 14.4159 26.4477C13.5295 27.3468 12.6379 28.0212 11.7219 28.555C13.313 28.7196 14.8457 28.7316 16.2671 28.603C19.1465 28.3426 21.4404 27.5185 22.875 26.3544C25.8939 23.9046 27.5106 20.254 27.2091 14.1376C27.1596 13.131 28.1289 12.0474 28.5971 11.2244C27.8907 11.3565 27.1827 11.3318 26.7257 10.6737ZM6.89063 7.66587C7.44436 7.60133 7.9882 7.84917 8.30275 8.30942C10.5158 11.5476 13.1739 12.8947 16.1234 13.2012C16.2681 11.9394 16.6086 10.6927 17.2487 9.59505C18.1875 7.98458 19.7145 6.79892 21.8958 6.3608C24.9099 5.7554 27.2049 6.84695 28.5366 8.18376L31.2243 7.68132C31.7985 7.57401 32.3826 7.80966 32.7216 8.28528C33.0605 8.7609 33.0926 9.39 32.8037 9.89762L30.2244 14.4307C30.4596 20.9728 28.6416 25.5384 24.7655 28.6839C22.7093 30.3523 19.767 31.2987 16.5374 31.5909C13.2825 31.8853 9.60322 31.5292 5.94574 30.4612C5.30407 30.2739 4.86382 29.6845 4.86619 29.0161C4.86854 28.3476 5.31293 27.7614 5.95591 27.5785C7.79524 27.0555 9.19519 26.6032 10.4607 25.8135C8.66297 24.859 7.33838 23.6113 6.4009 22.1889C5.09789 20.2117 4.61473 18.0076 4.5188 16.0197C4.42289 14.0319 4.71014 12.1909 5.01268 10.8622C5.18489 10.1058 5.38604 9.34586 5.6633 8.61993C5.86468 8.09673 6.33692 7.73043 6.89063 7.66587Z" fill="#032E47"/>
</g>
<defs>
<clipPath id="clip0_581_418">
<rect width="36" height="36" fill="white" transform="translate(0 0.19043)"/>
</clipPath>
</defs>
</svg>
