<svg width="36" height="37" viewBox="0 0 36 37" fill="none" xmlns="http://www.w3.org/2000/svg">
<g clip-path="url(#clip0_581_400)">
<path d="M18 3.19043C26.2842 3.19043 33 9.90615 33 18.1904C33 26.4746 26.2842 33.1904 18 33.1904C15.3546 33.1904 12.8656 32.5044 10.7054 31.3L10.2476 31.034L5.69963 32.3717C4.60404 32.694 3.58233 31.7398 3.77981 30.6544L3.81871 30.4907L5.15634 25.9429C3.78758 23.6795 3 21.0248 3 18.1904C3 9.90615 9.71572 3.19043 18 3.19043ZM18 6.19043C11.3726 6.19043 6 11.563 6 18.1904C6 20.5558 6.6828 22.757 7.86147 24.6131C8.15903 25.0818 8.2856 25.6576 8.18478 26.2288L8.12748 26.473L7.465 28.7254L9.71741 28.063C10.3661 27.8722 11.0417 27.9889 11.5773 28.3289C13.4335 29.5076 15.6347 30.1904 18 30.1904C24.6275 30.1904 30 24.8179 30 18.1904C30 11.563 24.6275 6.19043 18 6.19043ZM13.6524 10.9665C13.9762 10.8278 14.3683 10.8532 14.6783 11.0793C15.435 11.6313 16.0357 12.3716 16.5516 13.0956L17.0419 13.8066C17.1197 13.9217 17.1959 14.0344 17.2707 14.1439C17.5445 14.5442 17.5129 15.0763 17.2027 15.4394L17.0891 15.5537L15.704 16.5824C15.5667 16.6844 15.5209 16.8697 15.6033 17.0197C15.9168 17.5901 16.4751 18.439 17.1139 19.0778C17.7535 19.7174 18.6426 20.3119 19.2522 20.6605C19.3839 20.7359 19.544 20.7121 19.6515 20.6139L19.7091 20.5463L20.6103 19.1737C20.9557 18.7139 21.601 18.6134 22.0701 18.938L22.8844 19.5057C23.6936 20.0832 24.4725 20.704 25.0882 21.4925C25.3308 21.8032 25.3668 22.2092 25.2222 22.5467C24.6282 23.9329 23.1248 25.1134 21.561 25.0558L21.3232 25.0421L21.0353 25.0136C20.9833 25.0073 20.9294 25.0003 20.8737 24.9924L20.5171 24.9333C19.1316 24.6716 16.9089 23.8859 14.6074 21.5845C12.306 19.283 11.5202 17.0603 11.2586 15.6747L11.1995 15.3182L11.1619 15.0066L11.1413 14.7433C11.1391 14.7036 11.1374 14.6661 11.1361 14.6309C11.0784 13.0648 12.2653 11.561 13.6524 10.9665Z" fill="#032E47"/>
</g>
<defs>
<clipPath id="clip0_581_400">
<rect width="36" height="36" fill="white" transform="translate(0 0.19043)"/>
</clipPath>
</defs>
</svg>
