<?xml version="1.0" encoding="UTF-8"?>
<svg id="Layer_2" data-name="Layer 2" xmlns="http://www.w3.org/2000/svg" xmlns:xlink="http://www.w3.org/1999/xlink" viewBox="0 0 91.54 118.28">
  <defs>
    <style>
      .cls-1 {
        fill: url(#linear-gradient-2);
      }

      .cls-2 {
        fill: url(#linear-gradient);
      }
    </style>
    <linearGradient id="linear-gradient" x1="5.42" y1="59.14" x2="91.54" y2="59.14" gradientUnits="userSpaceOnUse">
      <stop offset="0" stop-color="#29295b"/>
      <stop offset="1" stop-color="#029d96"/>
    </linearGradient>
    <linearGradient id="linear-gradient-2" x1="0" y1="26.41" x2="10.8" y2="26.41" xlink:href="#linear-gradient"/>
  </defs>
  <g id="Layer_1-2" data-name="Layer 1">
    <g>
      <path class="cls-2" d="m43.53,105.31s.02.02.03.04c0-.02.01-.05.02-.07h-.04s-.02.02-.02.03Zm46.67-63.43s-.05-.03-.11-.08c-.01-.01-.03-.02-.05-.03-.29-.22-.92-.67-1.9-1.27-.1-.06-.22-.14-.32-.2-.12-.08-.24-.15-.37-.23-.05-.03-.12-.08-.18-.11-1.53-.91-3.62-2.06-6.25-3.26-.22-.1-.44-.19-.67-.29-.23-.11-.45-.2-.69-.3-.24-.11-.47-.2-.71-.3-.24-.1-.48-.2-.73-.3-.25-.11-.51-.2-.75-.3-.26-.1-.52-.2-.77-.3-2.04-.77-4.29-1.52-6.74-2.19-.38-.1-.75-.2-1.14-.3-.58-.15-1.16-.3-1.76-.44-.4-.1-.8-.18-1.2-.27-.41-.09-.83-.17-1.24-.26-.22-.04-.42-.09-.63-.13-.18-.03-.35-.06-.54-.1-.67-.13-1.34-.25-2.04-.35-.43-.06-.86-.14-1.3-.19-.24-.04-.46-.08-.71-.11-.45-.05-.9-.12-1.37-.16-.2-.03-.41-.05-.61-.08-.03,0-.05-.01-.09-.01-.28-.03-.56-.05-.84-.09-.37-.03-.73-.06-1.1-.1-.42-.03-.85-.08-1.29-.1-.27-.02-.54-.03-.81-.05-.46-.02-.94-.04-1.41-.06l-.71-.03c-.13,0-.26,0-.39-.01h-.2c-.3-.01-.6-.01-.89-.02-.4,0-.8-.01-1.19-.01s-.79.01-1.18.01c-.3.01-.6.01-.9.02h-.2c-.13.01-.25.01-.38.01-.25.01-.47.02-.71.03-.47.02-.95.04-1.41.06-.28.02-.55.03-.82.05-.43.02-.86.06-1.29.1-.37.03-.73.06-1.1.1-.28.03-.56.05-.84.09-.02,0-.05.01-.08.01-.2.02-.42.04-.62.08-.45.04-.91.11-1.37.16-.24.03-.47.06-.71.11-.44.05-.87.13-1.29.19-.7.11-1.39.23-2.05.35-.18.03-.35.06-.54.1-.2.04-.42.08-.62.13-.42.09-.83.17-1.24.26-.41.09-.82.18-1.22.27-.59.14-1.18.29-1.76.44-.39.1-.76.2-1.14.3v-4.51c0-.85.05-1.7.15-2.53.33-2.81,1.2-5.44,2.52-7.82.24-.43.49-.85.75-1.26h0c.27-.42.55-.82.84-1.22.15-.19.3-.39.45-.57h0c.18-.25.38-.47.58-.7.4-.45.81-.89,1.24-1.31.12-.11.23-.22.34-.32.81-.74,1.67-1.43,2.58-2.05.52-.35,1.05-.68,1.6-.99.14-.08.29-.15.43-.23s.28-.15.42-.23c.29-.14.57-.27.85-.4.03-.01.05-.02.09-.03.13-.06.26-.12.39-.17.23-.1.45-.19.68-.27.23-.09.46-.17.69-.25.16-.05.33-.11.49-.16.3-.1.61-.18.91-.26.15-.04.31-.09.46-.12t.02-.01c.16-.03.31-.08.47-.11.16-.03.32-.06.49-.1.14-.02.28-.05.42-.08.12-.02.25-.04.37-.06.12-.01.23-.02.34-.04.11-.01.22-.03.32-.04.14-.01.28-.03.42-.04.14-.01.29-.03.44-.04h.06c.12-.01.24-.02.35-.02.42-.03.85-.04,1.28-.04s.85.01,1.28.04c.12,0,.25.01.37.02h.02c.16.01.32.02.48.04.14.01.28.03.42.04.11.01.22.03.32.04.11.02.23.03.33.04.13.02.25.04.37.06.15.02.29.05.43.08.16.03.32.06.48.1.16.03.31.08.46.11.02,0,.05.01.08.02.14.03.28.06.42.11.31.08.61.16.91.26.16.05.33.11.49.16.15.05.31.11.46.16.3.11.6.23.9.35.13.05.26.11.39.17.03.01.06.02.09.03.28.12.57.26.85.4.14.08.28.14.43.23.14.06.28.14.42.23.56.31,1.1.63,1.61.99.52.35,1.02.73,1.51,1.13.49.4.96.81,1.41,1.25.43.42.85.86,1.24,1.31.2.23.4.45.58.69t0,.01c.16.18.3.38.45.57.29.4.57.8.84,1.2h0c.27.42.52.84.76,1.27,1.3,2.38,2.17,5.01,2.51,7.82,2.46.61,4.76,1.3,6.88,2.03-.12-6.46-2.41-12.41-6.18-17.12-.14-.17-.28-.34-.43-.52-.14-.17-.29-.34-.43-.51-.15-.17-.3-.33-.45-.49-.3-.33-.61-.66-.94-.97-.16-.16-.32-.31-.48-.46-.16-.15-.32-.3-.49-.45-.14-.13-.29-.26-.43-.39-.23-.19-.46-.39-.69-.57-.13-.11-.26-.2-.39-.3-.24-.19-.47-.37-.72-.55-.12-.09-.24-.17-.37-.26-.02-.02-.05-.04-.09-.06-.16-.12-.32-.23-.49-.33-.42-.28-.84-.55-1.27-.8-.15-.1-.3-.18-.45-.27-.25-.14-.51-.28-.76-.42-.14-.08-.28-.15-.43-.22-.2-.12-.42-.22-.65-.32-.17-.09-.35-.17-.54-.25-.18-.09-.37-.16-.55-.24-.22-.1-.42-.18-.63-.27-.14-.05-.28-.11-.42-.15-.29-.12-.58-.23-.88-.32-.15-.05-.31-.11-.47-.15-.58-.19-1.16-.35-1.75-.49-.17-.05-.33-.09-.51-.13-.23-.05-.45-.1-.68-.15-1.13-.23-2.28-.39-3.45-.47-.46-.03-.93-.06-1.39-.08-.26-.01-.53-.01-.79-.01s-.54,0-.81.01c-.46.01-.91.04-1.36.08-.46.03-.93.09-1.39.14-.22.02-.44.05-.67.09-.46.08-.94.16-1.4.25-.24.05-.46.1-.68.15-.16.03-.32.08-.47.12-.52.12-1.02.26-1.53.42-.14.04-.28.09-.42.14-.59.18-1.16.39-1.72.61-.18.08-.37.15-.54.23-.17.06-.34.15-.52.22-.19.1-.39.18-.58.28-.22.1-.43.2-.63.31-.18.09-.37.18-.54.28-.03.01-.06.02-.09.04-.39.2-.77.43-1.15.66-.19.12-.39.23-.57.35-.19.12-.38.24-.56.37-.17.11-.34.23-.52.34-.02.02-.04.03-.08.05-.17.12-.34.25-.52.38-.17.13-.35.26-.54.4-.17.14-.34.28-.52.42-.17.14-.34.28-.52.43-.26.22-.51.43-.75.67-.25.23-.49.45-.73.69-.63.62-1.25,1.28-1.82,1.97-.14.17-.28.33-.42.51-.23.3-.46.59-.69.89-.11.16-.22.31-.33.46-.11.16-.22.31-.32.47-.11.15-.2.31-.31.47-.17.27-.34.54-.51.81-.09.14-.17.28-.25.42-.15.25-.29.51-.42.76-.14.25-.28.51-.41.76-1.9,3.79-2.97,8.06-2.97,12.57v6.7c-.26.1-.52.2-.77.3-.25.1-.51.19-.75.3-.25.1-.49.2-.73.3-.24.1-.47.19-.71.3-.24.1-.46.19-.69.3-.23.1-.45.19-.67.29-.18.09-.37.17-.55.26-.53.25-1.02.48-1.51.72-.32.16-.65.32-.95.48-.18.09-.37.18-.54.28-.17.09-.34.18-.51.27-.16.09-.33.17-.48.26-1.19.66-2.16,1.25-2.9,1.72-.1.06-.19.12-.29.18-.31.2-.58.39-.8.54-.06.04-.13.08-.18.12-.13.1-.24.17-.32.24-.02.01-.04.02-.05.03-.05.04-.09.06-.11.08l-1.34,1.02v32.32c0,.34.01.69.02,1.03v.03c0,.33.01.66.03.98v.08c.01.28.03.56.05.84,0,.09.01.16.01.24.02.31.05.62.09.94.02.3.05.6.1.91.01.1.02.19.03.29.02.18.04.35.08.54.01.14.03.27.05.41.05.35.11.71.17,1.08.03.23.08.45.12.68.02.1.04.2.06.31.04.23.09.45.14.68.01.06.02.13.04.18.03.19.09.39.13.58.04.2.1.42.15.62.05.23.11.45.17.68.08.29.16.58.25.87.01.08.03.14.05.2.08.25.15.49.23.74.02.06.04.13.06.19.09.29.18.57.28.84.08.24.16.47.25.71.05.15.11.3.16.45.06.16.12.31.18.46.28.72.58,1.43.89,2.13.12.27.25.54.38.81.14.29.28.58.43.87.17.34.35.68.53,1.02.14.24.27.47.4.72.16.28.32.56.49.84.15.26.3.51.45.75.04.05.08.12.12.18.15.23.29.46.45.7.01.01.01.02.03.04.17.26.34.53.53.79l.55.77s.01.01.01.02c.18.26.37.51.56.75.01.02.03.04.04.06.16.2.32.41.47.61.63.8,1.3,1.58,1.99,2.33,2.03,2.23,4.28,4.24,6.74,6,.05.05.13.1.19.14.42.3.85.6,1.29.88.2.14.41.27.6.4.02.01.03.02.05.02.2.14.41.26.61.39.32.2.65.4.98.58.18.11.37.22.56.31.19.11.39.22.58.31.17.1.33.18.51.27.44.24.89.46,1.36.68,2.15,1.02,4.41,1.86,6.74,2.52.08.02.15.04.24.06.14.04.29.08.43.12.25.06.48.13.73.18.03.01.06.01.1.02,2.18.53,4.44.89,6.74,1.06h0c.05.01.12.02.17.02.17.01.34.02.51.03.1.01.18.01.28.02.14,0,.29.01.43.02.14,0,.27.01.4.01.25.01.49.02.73.02.29,0,.57.01.85.01s.57-.01.85-.01c.25,0,.48-.01.73-.02.13,0,.26-.01.4-.01.14-.01.29-.02.43-.02.1-.01.19-.01.28-.02.16-.01.33-.02.49-.03.06,0,.13-.01.18-.01h0c2.31-.18,4.56-.55,6.74-1.08.41-.1.81-.19,1.2-.31.06-.01.13-.03.19-.05.03,0,.06-.01.1-.02,2.33-.66,4.59-1.49,6.74-2.52.23-.11.45-.23.68-.33.44-.22.88-.44,1.31-.68.29-.15.57-.31.86-.47.38-.22.75-.44,1.13-.67.22-.13.43-.26.65-.4.31-.19.62-.4.94-.61.31-.2.62-.42.92-.63.09-.06.17-.12.26-.18,2.45-1.76,4.71-3.77,6.73-6,.15-.16.29-.31.43-.47.11-.12.22-.25.32-.38.33-.39.67-.77.99-1.17.11-.14.22-.28.32-.42.09-.11.16-.2.24-.3.11-.14.22-.28.32-.42.15-.2.3-.41.45-.62.19-.26.38-.52.56-.77.17-.26.35-.53.53-.79.01-.01.02-.03.02-.04.17-.27.34-.53.52-.8.17-.28.34-.56.51-.84.16-.28.33-.55.48-.83t.01-.02c.15-.26.29-.52.43-.77.04-.09.09-.16.13-.24.27-.53.54-1.05.8-1.59.13-.27.26-.54.38-.81.15-.34.3-.68.45-1.02.12-.29.24-.58.35-.87.12-.31.24-.61.35-.92.11-.31.23-.62.32-.94.1-.27.19-.55.28-.84.02-.03.02-.06.03-.1.11-.32.2-.63.29-.96.08-.24.14-.47.2-.71.04-.14.08-.29.12-.44.1-.37.18-.73.27-1.11.05-.19.1-.39.13-.58.02-.06.03-.12.04-.18.05-.23.1-.45.14-.68.02-.11.04-.22.06-.31.04-.23.09-.45.12-.68.06-.37.12-.72.17-1.08.02-.14.04-.27.05-.41.03-.18.05-.35.08-.54.01-.1.02-.19.03-.29.04-.31.08-.61.1-.91.03-.31.06-.62.09-.94,0-.08.01-.16.01-.24.02-.28.04-.56.05-.84v-.08c.02-.32.03-.65.04-.98v-.03c0-.34.01-.69.01-1.03v-32.32l-1.34-1.02Zm-5.4,33.34c0,.35,0,.7-.01,1.05-.01.25-.02.48-.03.73,0,.09-.01.18-.01.27-.01.25-.03.47-.05.71,0,.06-.01.13-.01.18-.02.26-.04.52-.08.77,0,.06-.01.12-.01.18-.02.23-.05.44-.08.67-.01.04-.01.09-.02.12-.02.16-.04.32-.06.47-.01.06-.01.13-.03.18-.01.15-.03.29-.05.43-.04.23-.08.44-.12.67-.02.11-.04.22-.06.32-.04.26-.1.51-.15.75-.13.66-.29,1.3-.46,1.94-.05.22-.12.43-.17.63-.02.08-.04.14-.06.2-.08.26-.15.52-.24.76,0,.02-.01.03-.01.05-.08.2-.14.42-.22.62-.04.15-.1.3-.15.45-.08.22-.16.42-.24.63-.11.28-.22.56-.32.83t-.02.03c-.09.23-.18.45-.28.68-.04.1-.09.19-.13.29-.1.23-.19.44-.3.66-.06.15-.13.29-.2.44-.13.27-.27.54-.4.81-.09.16-.17.33-.26.49-.09.16-.18.32-.27.48-1.45,2.62-3.22,5.04-5.25,7.23h-.01c-.46.51-.96,1-1.45,1.48v.06c-2,1.97-4.27,3.67-6.74,5.03-.05.03-.11.05-.16.09h0c-2.08,1.2-4.27,2.22-6.58,2.99-.49.17-.99.32-1.5.47-.86.25-1.73.46-2.61.66h-.01c-1.34.33-2.71.58-4.12.74-1.1.12-2.22.18-3.36.18s-2.27-.06-3.38-.19c-1.34-.14-2.67-.38-3.96-.7-.01,0-.02,0-.03-.01-.92-.19-1.85-.42-2.75-.68-.17-.05-.33-.1-.51-.15-.16-.05-.33-.11-.49-.16-.17-.05-.33-.11-.49-.16-2.14-.72-4.21-1.65-6.15-2.73,0-.01-.01-.01-.02-.02-.18-.11-.38-.22-.57-.32v.02c-2.46-1.33-4.73-2.99-6.73-4.93-1.4-1.34-2.67-2.83-3.79-4.42-1.09-1.41-2.06-2.91-2.94-4.48-.27-.48-.53-.98-.77-1.48-.1-.2-.2-.42-.3-.62-.23-.48-.45-.98-.66-1.47-.06-.15-.13-.3-.18-.45-.08-.19-.15-.39-.23-.57-.05-.15-.11-.29-.16-.44-.01-.03-.02-.06-.03-.09-.11-.28-.2-.56-.3-.85-.02-.08-.05-.16-.08-.24-.05-.16-.11-.32-.15-.47-.12-.37-.23-.73-.32-1.09-.05-.18-.11-.37-.15-.55-.04-.19-.1-.38-.14-.56-.04-.18-.1-.37-.13-.56-.09-.37-.17-.74-.24-1.12-.08-.38-.15-.75-.2-1.13-.1-.57-.17-1.15-.24-1.73-.03-.18-.05-.38-.06-.57-.04-.39-.08-.79-.1-1.17-.02-.39-.04-.79-.05-1.17-.01-.4-.02-.8-.02-1.19v-28.84c2.82-1.77,9.96-5.75,20.36-8.07.33-.08.68-.14,1.02-.22.37-.08.72-.14,1.09-.22.19-.03.38-.06.56-.1.18-.04.38-.08.57-.11.6-.1,1.2-.2,1.83-.29h.01c.43-.06.87-.13,1.32-.18.45-.06.9-.12,1.37-.16.98-.11,1.98-.2,2.99-.27,1.69-.12,3.42-.18,5.21-.18s3.53.06,5.21.18c1.02.06,2.02.16,3,.27.45.04.9.1,1.36.16.45.05.89.12,1.33.18.62.09,1.24.18,1.84.29.18.03.38.06.56.11.19.03.38.06.56.1.37.08.73.14,1.09.22.34.08.69.14,1.02.22,10.41,2.31,17.54,6.29,20.36,8.07v28.84Zm-11.23,26.24v.06c.51-.5.99-1.01,1.46-1.54-.47.51-.96,1-1.46,1.48Zm1.59-41.94c-.49,0-.98-.19-1.36-.56-24.33-24.3-48.26-3.64-49.27-2.74-.79.7-2.01.63-2.71-.16-.71-.79-.63-2.01.16-2.71.27-.24,27.62-24,54.54,2.9.75.75.75,1.97,0,2.72-.38.38-.87.56-1.36.56Zm-.87,11.17c-.67,0-1.32-.35-1.67-.97-5.2-9.16-12.82-14.83-21.46-15.98-9.24-1.23-18.98,2.8-27.44,11.35-.75.76-1.97.76-2.72.01-.75-.75-.76-1.97-.01-2.72,9.33-9.42,20.22-13.84,30.68-12.45,9.86,1.31,18.49,7.66,24.29,17.89.52.92.2,2.1-.72,2.62-.3.17-.63.25-.95.25Zm-4.5,20.6c-.13,0-.26-.01-.39-.04-1.04-.21-1.71-1.23-1.5-2.27,1.47-7.25.43-13.44-3.1-18.39-3.62-5.07-9.82-8.52-17.01-9.46-11.9-1.55-24.38,13.56-24.5,13.72-.67.82-1.88.95-2.71.28-.82-.67-.95-1.88-.28-2.7.56-.69,13.93-16.96,27.99-15.1,8.24,1.08,15.4,5.11,19.64,11.04,4.12,5.77,5.41,13.16,3.74,21.39-.19.91-.99,1.54-1.88,1.54Zm-22.19,16.66c-.53,0-1.07-.22-1.45-.66-.66-.76-.55-1.94.14-2.67l11.24-11.96c2.34-2.73,3.74-5.99,3.88-9.11.24-5.96-2.83-11.04-8.19-13.57-5.83-2.75-12.78-1.69-17.7,2.7-.04.04-.95.94-10.42,10.2-.76.74-1.98.74-2.73-.02h0c-.74-.76-.73-1.98.03-2.72l10.48-10.26c6.14-5.49,14.74-6.79,21.98-3.37,6.81,3.21,10.7,9.65,10.4,17.21-.24,5.1-2.77,9.08-4.86,11.51l-11.39,12.12c-.38.4-.89.61-1.4.61Zm-6.01-3.31c-.47,0-.93-.17-1.31-.51-.78-.72-.83-1.94-.11-2.72l11.82-12.8c.92-1.07,2.09-2.88,2.19-5.12.11-3.47-1.84-6.67-4.74-7.76-3.14-1.37-7.32-.65-9.84,1.64l-12.11,12.48c-.74.76-1.96.78-2.72.04-.76-.74-.78-1.96-.04-2.72l12.15-12.53s.05-.05.08-.08c3.62-3.33,9.48-4.35,13.93-2.4,4.33,1.62,7.31,6.36,7.14,11.48-.12,2.66-1.21,5.26-3.16,7.53l-11.87,12.86c-.38.41-.9.62-1.41.62Zm-4.53-3.82c-.47,0-.93-.17-1.3-.51-.78-.72-.83-1.94-.11-2.72l11.19-12.17c.42-.45.64-1.01.62-1.6-.02-.59-.26-1.14-.69-1.54-.43-.4-.95-.63-1.58-.6-.59.02-1.14.26-1.54.69l-11.41,12.41c-.72.78-1.94.83-2.72.11-.78-.72-.83-1.94-.11-2.72l11.43-12.42c1.13-1.19,2.63-1.87,4.25-1.91,1.61-.03,3.15.54,4.33,1.65,1.17,1.11,1.85,2.61,1.89,4.23.05,1.62-.54,3.15-1.65,4.33l-11.18,12.15c-.38.41-.9.62-1.42.62Z"/>
      <path class="cls-1" d="m8.13,21.71c.82.48,1.48,1.14,1.95,1.97.48.83.72,1.73.72,2.71s-.24,1.87-.72,2.7c-.48.83-1.13,1.5-1.96,1.99-.83.5-1.75.74-2.74.74s-1.9-.24-2.72-.73c-.83-.49-1.47-1.15-1.95-1.98-.47-.83-.71-1.73-.71-2.7s.24-1.87.72-2.7c.48-.83,1.13-1.5,1.95-1.99.82-.49,1.74-.74,2.74-.74s1.9.24,2.72.73Zm-.59,8.35c.65-.38,1.17-.9,1.55-1.55.38-.65.57-1.36.57-2.12s-.18-1.47-.56-2.11-.88-1.15-1.53-1.53c-.65-.38-1.37-.57-2.15-.57s-1.5.19-2.15.57-1.16.9-1.54,1.55-.57,1.36-.57,2.12.19,1.47.56,2.11c.37.64.88,1.16,1.52,1.53.64.38,1.36.57,2.15.57s1.51-.19,2.16-.57Zm-.1-3.6c-.17.28-.41.5-.73.65l1.13,1.72h-1.32l-.83-1.5h-1.18v1.5h-1.15v-5.18h2.2c.68,0,1.21.16,1.58.47.37.31.56.75.56,1.32,0,.4-.09.75-.26,1.03Zm-2.93-.05h1.05c.33,0,.58-.08.77-.24.18-.16.27-.39.27-.69s-.09-.52-.27-.68-.43-.23-.77-.23h-1.05v1.83Z"/>
    </g>
  </g>
</svg>