<svg width="155" height="60" viewBox="0 0 155 60" fill="none" xmlns="http://www.w3.org/2000/svg">
<g clip-path="url(#clip0_161_8892)">
<path d="M11.9286 24.6064C11.9286 28.363 10.1675 30.2412 6.64539 30.2412C5.14799 30.2412 3.97286 29.8245 3.12 28.9912C2.14995 28.0407 1.66492 26.5986 1.66492 24.665C1.66492 23.3564 1.83094 22.0902 2.16297 20.8662L4.06726 20.5049C3.68966 21.8005 3.50086 23.1253 3.50086 24.4795C3.50086 26.042 3.85893 27.1878 4.57508 27.917C5.14148 28.4964 5.89018 28.7861 6.82117 28.7861C8.99565 28.7861 10.0829 27.432 10.0829 24.7236V16.2178H11.9286V24.6064ZM6.76258 18.1611C6.4631 18.1611 6.20919 18.057 6.00086 17.8486C5.79252 17.6403 5.68836 17.3864 5.68836 17.0869C5.68836 16.7809 5.79252 16.5205 6.00086 16.3057C6.20919 16.0908 6.4631 15.9834 6.76258 15.9834C7.06857 15.9834 7.32898 16.0876 7.54383 16.2959C7.75867 16.5107 7.86609 16.7744 7.86609 17.0869C7.86609 17.3799 7.75867 17.6338 7.54383 17.8486C7.32898 18.057 7.06857 18.1611 6.76258 18.1611ZM15.5711 11.5205H17.4071V24.1572H19.6141V25.6221H15.5711V11.5205ZM19.3211 25.6221V24.1572H20.9032C21.3654 24.1572 21.7528 24.193 22.0653 24.2646C21.0757 23.6396 20.5809 22.5133 20.5809 20.8857C20.5809 19.5055 21.0008 18.3662 21.8407 17.4678C22.7456 16.4912 23.9924 16.0029 25.5809 16.0029C28.4325 16.0029 29.8583 17.4971 29.8583 20.4854V25.6221H19.3211ZM28.0614 20.7979C28.0614 18.5713 27.1825 17.458 25.4247 17.458C24.5002 17.458 23.771 17.764 23.2372 18.376C22.7033 18.9684 22.4364 19.7692 22.4364 20.7783C22.4364 23.0309 23.6506 24.1572 26.079 24.1572H28.0614V20.7979ZM33.0711 12.126H34.9071V25.6221H33.0711V12.126ZM31.3719 9.93848C31.9383 9.93848 32.4103 9.97428 32.7879 10.0459C32.3908 9.84408 32.1922 9.50228 32.1922 9.02051C32.1922 8.5127 32.3876 8.08626 32.7782 7.74121C33.2404 7.34408 33.898 7.14551 34.7508 7.14551C35.1024 7.14551 35.4637 7.17806 35.8348 7.24316L35.6493 8.29785C35.3498 8.23275 35.0178 8.2002 34.6532 8.2002C33.9045 8.2002 33.5301 8.48014 33.5301 9.04004C33.5301 9.639 34.0575 9.93848 35.1122 9.93848H36.2157V11.0029H31.3719V9.93848ZM46.87 25.6221C43.3739 25.6221 41.6258 24.0693 41.6258 20.9639C41.6258 19.5511 42.0392 18.3923 42.8661 17.4873C43.771 16.4977 45.0373 16.0029 46.6649 16.0029C48.1297 16.0029 49.4709 16.2373 50.6883 16.7061V24.1572H52.9051V25.6221H46.87ZM48.8817 17.9268C48.2307 17.6143 47.4266 17.458 46.4696 17.458C45.5451 17.458 44.8159 17.7607 44.2821 18.3662C43.7482 18.9652 43.4813 19.7627 43.4813 20.7588C43.4813 23.0244 44.6955 24.1572 47.1239 24.1572H48.8817V17.9268ZM47.9833 14.3818C47.6838 14.3818 47.4299 14.2809 47.2215 14.0791C47.0132 13.8708 46.909 13.6104 46.909 13.2979C46.909 13.0114 47.0132 12.764 47.2215 12.5557C47.4299 12.3473 47.6838 12.2432 47.9833 12.2432C48.2762 12.2432 48.5236 12.3441 48.7254 12.5459C48.9273 12.7542 49.0282 13.0049 49.0282 13.2979C49.0282 13.6038 48.9273 13.861 48.7254 14.0693C48.5236 14.2777 48.2762 14.3818 47.9833 14.3818ZM45.0243 14.3818C44.7248 14.3818 44.4741 14.2809 44.2723 14.0791C44.0705 13.8708 43.9696 13.6104 43.9696 13.2979C43.9696 13.0114 44.0705 12.764 44.2723 12.5557C44.4741 12.3473 44.7248 12.2432 45.0243 12.2432C45.3172 12.2432 45.5679 12.3441 45.7762 12.5459C45.9846 12.7542 46.0887 13.0049 46.0887 13.2979C46.0887 13.5973 45.9846 13.8545 45.7762 14.0693C45.5679 14.2777 45.3172 14.3818 45.0243 14.3818ZM60.1903 25.6221C57.8661 25.6221 56.3264 24.9938 55.5711 23.7373C55.2196 24.9938 54.2007 25.6221 52.5145 25.6221H52.2118V24.1572C53.0191 24.1572 53.6115 23.9456 53.9891 23.5225C54.4448 23.0146 54.6727 22.1357 54.6727 20.8857C54.6727 19.5055 55.0894 18.3662 55.9227 17.4678C56.8342 16.4912 58.0842 16.0029 59.6727 16.0029C62.5243 16.0029 63.9501 17.4971 63.9501 20.4854V24.1572H65.952V25.6221H60.1903ZM62.1532 20.7979C62.1532 18.5713 61.2743 17.458 59.5165 17.458C58.592 17.458 57.8628 17.764 57.329 18.376C56.7951 18.9684 56.5282 19.7692 56.5282 20.7783C56.5282 23.0309 57.7424 24.1572 60.1708 24.1572H62.1532V20.7979ZM65.6493 24.1572H68.5301V16.2178H70.3661V16.999C70.3661 18.3792 70.2945 19.5739 70.1512 20.583H70.1708C70.6265 19.1312 71.3687 17.9919 72.3973 17.165C73.3739 16.3903 74.4579 16.0029 75.6493 16.0029C76.9318 16.0029 77.9214 16.4033 78.618 17.2041C79.3081 17.9919 79.6532 19.1051 79.6532 20.5439C79.6532 22.0869 79.1975 23.2913 78.286 24.1572H81.1669V25.6221H65.6493V24.1572ZM74.0087 24.1572C76.5021 24.1572 77.7489 22.9984 77.7489 20.6807C77.7489 18.5322 76.9351 17.458 75.3075 17.458C74.0119 17.458 72.8823 18.1709 71.9188 19.5967C71.0399 20.8923 70.5093 22.4124 70.327 24.1572H74.0087ZM80.7665 24.1572H83.6864V16.2178H85.5223V25.6221H80.7665V24.1572ZM83.2665 29.7041C82.967 29.7041 82.7131 29.5999 82.5047 29.3916C82.2899 29.1833 82.1825 28.9261 82.1825 28.6201C82.1825 28.3206 82.2899 28.0667 82.5047 27.8584C82.7131 27.6501 82.967 27.5459 83.2665 27.5459C83.5725 27.5459 83.8296 27.6468 84.0379 27.8486C84.2593 28.057 84.37 28.3141 84.37 28.6201C84.37 28.9196 84.2593 29.1768 84.0379 29.3916C83.8231 29.5999 83.5659 29.7041 83.2665 29.7041Z" fill="white"/>
<path d="M147.202 15.651L129.624 5.66257C128.871 5.22835 128.019 5 127.153 5C126.286 5 125.434 5.22835 124.681 5.66257L107.136 15.6677C106.375 16.1233 105.746 16.774 105.312 17.5541C104.878 18.3343 104.655 19.2164 104.665 20.1116V20.4701C104.661 27.2668 106.435 33.9434 109.806 39.8215C113.177 45.6996 118.025 50.5698 123.858 53.9372L124.616 54.3708C125.375 54.7838 126.224 55 127.087 55C127.949 55 128.798 54.7838 129.558 54.3708L130.307 53.9372C136.174 50.5904 141.057 45.727 144.458 39.844C147.859 33.9611 149.656 27.2696 149.665 20.4535V20.0949C149.676 19.2006 149.454 18.319 149.022 17.5389C148.589 16.7588 147.962 16.1077 147.202 15.651Z" fill="white"/>
<path d="M151.332 12.7812L129.981 0.795085C129.066 0.274014 128.032 0 126.979 0C125.927 0 124.892 0.274014 123.978 0.795085L102.667 12.8012C101.742 13.348 100.978 14.1288 100.451 15.065C99.9238 16.0012 99.6529 17.0597 99.6653 18.1339V18.5642C99.6606 26.7201 101.815 34.732 105.91 41.7858C110.004 48.8395 115.893 54.6838 122.977 58.7247L123.898 59.2449C124.821 59.7406 125.852 60 126.899 60C127.947 60 128.978 59.7406 129.901 59.2449L130.811 58.7247C137.937 54.7085 143.868 48.8724 147.999 41.8129C152.13 34.7533 154.312 26.7235 154.323 18.5441V18.1139C154.337 17.0407 154.067 15.9828 153.542 15.0467C153.017 14.1106 152.255 13.3292 151.332 12.7812ZM131.802 10.1799C131.84 10.076 131.898 9.98054 131.973 9.89912C132.048 9.81769 132.138 9.75185 132.238 9.70538C132.339 9.6589 132.447 9.6327 132.558 9.62828C132.668 9.62386 132.779 9.64131 132.882 9.67962C135.781 10.752 138.338 12.5834 140.286 14.9823C140.425 15.1562 140.49 15.3782 140.465 15.5995C140.441 15.8209 140.33 16.0235 140.156 16.1629C140.008 16.2885 139.82 16.356 139.626 16.353C139.501 16.3514 139.379 16.3228 139.267 16.2693C139.154 16.2158 139.055 16.1385 138.975 16.0429C137.222 13.8705 134.912 12.2142 132.292 11.2504C132.086 11.1718 131.92 11.0156 131.828 10.8154C131.736 10.6152 131.727 10.387 131.802 10.1799ZM140.216 22.5862C140.263 22.7954 140.23 23.0148 140.122 23.2003C140.015 23.3858 139.841 23.5239 139.636 23.5867H139.406C139.221 23.5883 139.041 23.5281 138.894 23.4157C138.747 23.3034 138.642 23.1453 138.595 22.9664C138.048 21.1177 136.881 19.5138 135.29 18.4243C133.7 17.3347 131.782 16.8259 129.861 16.9833H129.421C129.198 17.0019 128.977 16.9312 128.806 16.7867C128.635 16.6422 128.529 16.4359 128.51 16.213C128.492 15.9901 128.562 15.7689 128.707 15.5982C128.851 15.4274 129.058 15.3211 129.281 15.3025H129.721C132.042 15.1163 134.357 15.7403 136.27 17.0682C138.184 18.3962 139.578 20.3461 140.216 22.5862ZM128.83 21.8058C127.86 21.8032 126.93 21.4165 126.244 20.7304C125.558 20.0442 125.171 19.1143 125.168 18.1439V14.5721C125.191 14.3637 125.29 14.1711 125.446 14.0311C125.602 13.8912 125.804 13.8138 126.014 13.8138C126.223 13.8138 126.426 13.8912 126.582 14.0311C126.738 14.1711 126.837 14.3637 126.859 14.5721V18.1439C126.859 18.6746 127.07 19.1836 127.445 19.5589C127.821 19.9341 128.33 20.145 128.86 20.145C130.856 20.1476 132.769 20.9408 134.181 22.351C135.593 23.7611 136.389 25.6733 136.394 27.6688V31.6208C136.394 31.8437 136.306 32.0575 136.148 32.2151C135.99 32.3727 135.777 32.4612 135.554 32.4612C135.331 32.4612 135.117 32.3727 134.959 32.2151C134.802 32.0575 134.713 31.8437 134.713 31.6208V27.6488C134.712 26.8785 134.559 26.116 134.262 25.4051C133.965 24.6941 133.531 24.0488 132.985 23.5059C132.438 22.9631 131.79 22.5335 131.077 22.2417C130.364 21.95 129.601 21.8019 128.83 21.8058ZM130.311 26.8884C130.032 26.8884 129.765 26.7777 129.568 26.5807C129.371 26.3837 129.261 26.1165 129.261 25.8379C129.261 25.5592 129.371 25.292 129.568 25.095C129.765 24.898 130.032 24.7873 130.311 24.7873C130.59 24.7873 130.857 24.898 131.054 25.095C131.251 25.292 131.362 25.5592 131.362 25.8379C131.362 26.1165 131.251 26.3837 131.054 26.5807C130.857 26.7777 130.59 26.8884 130.311 26.8884ZM129.311 11.7107C129.573 11.7362 129.816 11.8585 129.993 12.0536C130.17 12.2487 130.268 12.5027 130.268 12.7662C130.268 13.0297 130.17 13.2837 129.993 13.4788C129.816 13.6739 129.573 13.7962 129.311 13.8217C129.048 13.7917 128.807 13.665 128.633 13.4664C128.46 13.2679 128.366 13.0118 128.371 12.748C128.376 12.4843 128.479 12.2318 128.66 12.04C128.841 11.8482 129.088 11.7308 129.351 11.7107H129.311ZM118.495 16.5731C118.216 16.5731 117.949 16.4625 117.752 16.2654C117.555 16.0684 117.444 15.8012 117.444 15.5226C117.444 15.244 117.555 14.9768 117.752 14.7798C117.949 14.5827 118.216 14.4721 118.495 14.4721C118.774 14.4721 119.041 14.5827 119.238 14.7798C119.435 14.9768 119.546 15.244 119.546 15.5226C119.546 15.8012 119.435 16.0684 119.238 16.2654C119.041 16.4625 118.774 16.5731 118.495 16.5731ZM109.871 28.8694C109.871 28.8694 109.871 28.8194 109.871 28.7994V28.5993V25.7178C109.873 22.8331 110.608 19.9963 112.009 17.4743C113.409 14.9522 115.427 12.8276 117.875 11.3004C118.062 11.18 118.289 11.1386 118.507 11.1855C118.724 11.2324 118.914 11.3637 119.035 11.5506C119.155 11.7405 119.195 11.9702 119.147 12.1895C119.098 12.4089 118.964 12.6 118.775 12.7212C115.415 14.8457 113.006 18.1867 112.052 22.0459C113.231 20.4031 114.822 19.0989 116.664 18.264C116.765 18.2187 116.874 18.1937 116.985 18.1906C117.096 18.1874 117.206 18.2061 117.31 18.2456C117.414 18.2851 117.508 18.3446 117.589 18.4207C117.67 18.4968 117.734 18.588 117.78 18.6892C117.825 18.7904 117.85 18.8995 117.853 19.0103C117.856 19.1211 117.838 19.2315 117.798 19.3351C117.759 19.4387 117.699 19.5335 117.623 19.6141C117.547 19.6946 117.456 19.7595 117.354 19.8048C115.655 20.5703 114.209 21.8039 113.184 23.3613C112.16 24.9187 111.601 26.7356 111.571 28.5993V28.7293C111.571 28.9595 111.571 29.1996 111.571 29.4297V29.6098C111.585 29.8322 111.511 30.0512 111.365 30.2195C111.219 30.3879 111.013 30.4923 110.791 30.5103H110.731C110.518 30.5108 110.313 30.4305 110.157 30.2857C110.001 30.1408 109.906 29.9422 109.891 29.7299V29.5498C109.871 29.3196 109.871 29.0895 109.871 28.8694ZM113.402 42.4363C112.89 42.3377 112.411 42.112 112.009 41.7798C111.607 41.4476 111.295 41.0197 111.101 40.5354C110.303 38.537 109.895 36.4041 109.901 34.2522C109.901 34.0293 109.989 33.8155 110.147 33.6579C110.304 33.5003 110.518 33.4117 110.741 33.4117C110.964 33.4117 111.178 33.5003 111.335 33.6579C111.493 33.8155 111.581 34.0293 111.581 34.2522C111.581 34.7724 111.581 35.2527 111.662 35.803C111.923 35.6926 112.146 35.5074 112.303 35.2706C112.459 35.0339 112.543 34.7561 112.542 34.4723V32.7214C112.546 30.6258 113.104 28.5685 114.158 26.7572C115.212 24.946 116.725 23.4451 118.545 22.4061C119.48 21.8672 120.258 21.0917 120.799 20.1574C121.339 19.2231 121.625 18.163 121.627 17.0834V13.8918C121.626 12.5149 122.166 11.1927 123.129 10.2089C124.092 9.22502 125.403 8.65788 126.779 8.62908H126.979C127.202 8.62908 127.416 8.71763 127.574 8.87524C127.731 9.03285 127.82 9.24662 127.82 9.46951C127.82 9.69241 127.731 9.90618 127.574 10.0638C127.416 10.2214 127.202 10.3099 126.979 10.3099H126.779C125.845 10.3334 124.957 10.7212 124.305 11.3903C123.652 12.0595 123.287 12.9572 123.287 13.8918V17.0834C123.287 18.4588 122.923 19.8096 122.233 20.9991C121.542 22.1886 120.55 23.1745 119.355 23.8569C117.798 24.7549 116.504 26.0466 115.603 27.6024C114.702 29.1582 114.226 30.9236 114.223 32.7214V34.4723C114.221 35.1542 113.996 35.8167 113.583 36.3588C113.169 36.9008 112.589 37.2924 111.932 37.4738C112.111 38.3021 112.355 39.1151 112.662 39.905C112.748 40.1192 112.883 40.3099 113.057 40.4613C113.231 40.6127 113.439 40.7204 113.663 40.7755C113.885 40.82 114.115 40.8065 114.33 40.7364C114.546 40.6664 114.74 40.542 114.893 40.3753C115.681 39.5309 116.117 38.4183 116.114 37.2637V33.4017C116.112 32.1453 116.359 30.9009 116.839 29.7399C117.319 28.5788 118.024 27.5238 118.912 26.6354C119.801 25.747 120.856 25.0425 122.017 24.5622C123.178 24.082 124.422 23.8355 125.679 23.8368H126.739C126.962 23.8368 127.176 23.9254 127.333 24.083C127.491 24.2406 127.58 24.4544 127.58 24.6773C127.58 24.9002 127.491 25.1139 127.333 25.2715C127.176 25.4292 126.962 25.5177 126.739 25.5177H125.729C124.693 25.5164 123.668 25.7195 122.712 26.1153C121.755 26.5112 120.886 27.0921 120.154 27.8245C119.423 28.557 118.843 29.4268 118.449 30.3838C118.054 31.3409 117.852 32.3665 117.855 33.4017V37.2737C117.856 38.8563 117.255 40.3801 116.174 41.5359C115.896 41.8462 115.557 42.0953 115.178 42.2676C114.8 42.4398 114.389 42.5314 113.973 42.5364C113.78 42.5232 113.588 42.4897 113.402 42.4363ZM137.345 47.719H134.593C132.486 47.7235 130.425 47.1038 128.67 45.9381C128.638 45.9166 128.599 45.9051 128.56 45.9051C128.521 45.9051 128.483 45.9166 128.45 45.9381C128.416 45.9539 128.387 45.9794 128.368 46.0115C128.348 46.0435 128.339 46.0807 128.34 46.1182V49.62C129.818 49.4971 131.271 49.16 132.652 48.6195C132.857 48.5473 133.082 48.5572 133.28 48.6471C133.477 48.737 133.632 48.9 133.713 49.1017C133.793 49.3035 133.792 49.5286 133.71 49.7296C133.628 49.9307 133.471 50.0922 133.273 50.1803C131.269 50.97 129.133 51.3674 126.979 51.3509C124.972 51.3484 122.981 50.9928 121.096 50.3004H121.046C120.399 50.0595 119.768 49.7788 119.155 49.4599C119.05 49.4114 118.956 49.3416 118.878 49.2549C118.801 49.1681 118.743 49.0664 118.707 48.956C118.671 48.8456 118.659 48.7289 118.67 48.6134C118.682 48.4979 118.717 48.386 118.774 48.2848C118.83 48.1836 118.908 48.0952 119 48.0253C119.093 47.9554 119.199 47.9055 119.312 47.8786C119.425 47.8518 119.542 47.8487 119.657 47.8694C119.771 47.8902 119.879 47.9343 119.976 47.9992C120.396 48.2193 120.836 48.4094 121.276 48.5895C122.158 47.7331 122.857 46.7078 123.333 45.575C123.81 44.4421 124.053 43.2249 124.048 41.9961V38.0641C124.048 37.8412 124.136 37.6274 124.294 37.4698C124.452 37.3122 124.665 37.2237 124.888 37.2237C125.111 37.2237 125.325 37.3122 125.483 37.4698C125.64 37.6274 125.729 37.8412 125.729 38.0641V41.9961C125.713 44.63 124.734 47.1672 122.977 49.1298C124.169 49.4515 125.395 49.6295 126.629 49.66V46.1082C126.622 45.7562 126.712 45.409 126.892 45.1058C127.071 44.8026 127.331 44.5555 127.643 44.3922C127.955 44.2289 128.306 44.156 128.657 44.1816C129.009 44.2073 129.346 44.3305 129.631 44.5374C131.113 45.5209 132.854 46.0431 134.633 46.0382H137.385C137.608 46.0382 137.821 46.1267 137.979 46.2843C138.137 46.4419 138.225 46.6557 138.225 46.8786C138.225 47.1015 138.137 47.3153 137.979 47.4729C137.821 47.6305 137.608 47.719 137.385 47.719H137.345ZM124.888 32.7114C125.167 32.7114 125.434 32.8221 125.631 33.0191C125.828 33.2161 125.939 33.4833 125.939 33.7619C125.939 34.0405 125.828 34.3077 125.631 34.5048C125.434 34.7018 125.167 34.8124 124.888 34.8124C124.65 34.7652 124.435 34.6367 124.281 34.4487C124.126 34.2608 124.042 34.0251 124.042 33.7819C124.042 33.5387 124.126 33.3031 124.281 33.1151C124.435 32.9272 124.65 32.7986 124.888 32.7514V32.7114ZM141.057 43.8271H133.783C132.041 43.8271 130.371 43.1359 129.138 41.9053C127.906 40.6747 127.212 39.0053 127.209 37.2637V33.1816C127.209 32.8728 127.149 32.5671 127.03 32.2819C126.912 31.9966 126.739 31.7374 126.521 31.5191C126.302 31.3007 126.043 31.1275 125.758 31.0094C125.473 30.8912 125.167 30.8304 124.858 30.8304C124.55 30.8304 124.244 30.8912 123.959 31.0094C123.673 31.1275 123.414 31.3007 123.196 31.5191C122.977 31.7374 122.804 31.9966 122.686 32.2819C122.568 32.5671 122.507 32.8728 122.507 33.1816V40.4053C122.51 42.1444 121.824 43.8139 120.6 45.0493C119.376 46.2847 117.713 46.9855 115.974 46.9987C115.751 46.9987 115.537 46.9101 115.379 46.7525C115.222 46.5949 115.133 46.3811 115.133 46.1582C115.133 45.9353 115.222 45.7216 115.379 45.564C115.537 45.4064 115.751 45.3178 115.974 45.3178C117.269 45.3125 118.509 44.7951 119.424 43.8784C120.339 42.9617 120.854 41.7203 120.856 40.4253V33.1816C120.856 32.1096 121.282 31.0815 122.04 30.3234C122.798 29.5654 123.826 29.1396 124.898 29.1396C125.97 29.1396 126.998 29.5654 127.756 30.3234C128.514 31.0815 128.94 32.1096 128.94 33.1816V37.2637C128.943 38.5578 129.458 39.7981 130.373 40.7132C131.288 41.6283 132.529 42.1435 133.823 42.1462H141.097C141.319 42.1462 141.533 42.2347 141.691 42.3923C141.848 42.55 141.937 42.7637 141.937 42.9866C141.937 43.2095 141.848 43.4233 141.691 43.5809C141.533 43.7385 141.319 43.8271 141.097 43.8271H141.057ZM144.058 34.2522C144.074 36.3248 143.711 38.383 142.988 40.3253C142.925 40.4843 142.817 40.6208 142.676 40.7172C142.535 40.8136 142.368 40.8652 142.197 40.8655C142.094 40.865 141.992 40.8446 141.897 40.8055C141.794 40.7667 141.7 40.7079 141.62 40.6324C141.54 40.5569 141.476 40.4662 141.431 40.3657C141.386 40.2651 141.362 40.1567 141.359 40.0467C141.357 39.9367 141.377 39.8274 141.417 39.725L141.507 39.4648H135.214C134.113 39.4622 133.059 39.0239 132.28 38.2458C131.502 37.4677 131.064 36.4131 131.061 35.3127V29.1696C131.061 28.9467 131.15 28.7329 131.308 28.5753C131.465 28.4177 131.679 28.3291 131.902 28.3291C132.125 28.3291 132.339 28.4177 132.496 28.5753C132.654 28.7329 132.742 28.9467 132.742 29.1696V35.3127C132.745 35.9664 133.006 36.5924 133.47 37.0537C133.933 37.515 134.56 37.774 135.214 37.774H141.987C142.077 37.3637 142.157 36.9435 142.227 36.5233H138.825C138.482 36.5249 138.145 36.433 137.85 36.2576C137.555 36.0822 137.314 35.8298 137.151 35.5275C136.989 35.2253 136.912 34.8845 136.928 34.5417C136.945 34.199 137.054 33.8671 137.245 33.5818C138.232 32.1003 138.757 30.3595 138.755 28.5793V25.8379C138.755 25.615 138.844 25.4012 139.002 25.2436C139.159 25.086 139.373 24.9974 139.596 24.9974C139.819 24.9974 140.032 25.086 140.19 25.2436C140.348 25.4012 140.436 25.615 140.436 25.8379V28.5893C140.437 30.6971 139.814 32.7581 138.645 34.5123C138.624 34.545 138.612 34.5832 138.612 34.6224C138.612 34.6615 138.624 34.6997 138.645 34.7324C138.663 34.7673 138.69 34.7963 138.724 34.8159C138.758 34.8354 138.796 34.8447 138.835 34.8425H142.387C142.387 34.6424 142.387 34.4523 142.387 34.2522V25.7278C142.387 25.5049 142.476 25.2912 142.633 25.1335C142.791 24.9759 143.005 24.8874 143.228 24.8874C143.451 24.8874 143.664 24.9759 143.822 25.1335C143.98 25.2912 144.068 25.5049 144.068 25.7278L144.058 34.2522Z" fill="url(#paint0_linear_161_8892)"/>
<path d="M30.7804 48.4041C30.7804 50.6424 29.7311 51.7615 27.6325 51.7615C26.7403 51.7615 26.0401 51.5133 25.5319 51.0167C24.9539 50.4504 24.6649 49.5911 24.6649 48.439C24.6649 47.6593 24.7638 46.9048 24.9617 46.1755L26.0963 45.9602C25.8713 46.7322 25.7588 47.5216 25.7588 48.3284C25.7588 49.2595 25.9722 49.9422 26.3989 50.3767C26.7364 50.7219 27.1825 50.8945 27.7372 50.8945C29.0329 50.8945 29.6807 50.0877 29.6807 48.4739V43.4058H30.7804V48.4041ZM27.7023 44.5637C27.5239 44.5637 27.3726 44.5016 27.2484 44.3775C27.1243 44.2534 27.0622 44.1021 27.0622 43.9236C27.0622 43.7413 27.1243 43.5861 27.2484 43.4581C27.3726 43.3301 27.5239 43.2661 27.7023 43.2661C27.8846 43.2661 28.0398 43.3282 28.1678 43.4523C28.2958 43.5803 28.3598 43.7374 28.3598 43.9236C28.3598 44.0982 28.2958 44.2495 28.1678 44.3775C28.0398 44.5016 27.8846 44.5637 27.7023 44.5637Z" fill="white"/>
<path d="M32.9509 40.6069H34.0448V48.1364H35.3598V49.0092H32.9509V40.6069Z" fill="white"/>
<path d="M35.1853 49.0093V48.1365H36.1279C36.4033 48.1365 36.6341 48.1579 36.8203 48.2005C36.2307 47.8281 35.9359 47.157 35.9359 46.1872C35.9359 45.3648 36.1861 44.686 36.6865 44.1507C37.2257 43.5688 37.9686 43.2778 38.9151 43.2778C40.6142 43.2778 41.4637 44.1681 41.4637 45.9487V49.0093H35.1853ZM40.3931 46.1349C40.3931 44.8082 39.8694 44.1448 38.822 44.1448C38.2712 44.1448 37.8367 44.3272 37.5186 44.6918C37.2005 45.0448 37.0415 45.522 37.0415 46.1232C37.0415 47.4654 37.7649 48.1365 39.2119 48.1365H40.3931V46.1349Z" fill="white"/>
<path d="M43.3781 40.9676H44.472V49.0091H43.3781V40.9676ZM42.3656 39.6642C42.7031 39.6642 42.9844 39.6855 43.2094 39.7282C42.9727 39.6079 42.8544 39.4043 42.8544 39.1172C42.8544 38.8146 42.9708 38.5605 43.2036 38.3549C43.479 38.1183 43.8708 38 44.3789 38C44.5884 38 44.8037 38.0194 45.0248 38.0582L44.9143 38.6866C44.7358 38.6478 44.538 38.6284 44.3208 38.6284C43.8747 38.6284 43.6516 38.7952 43.6516 39.1288C43.6516 39.4857 43.9658 39.6642 44.5942 39.6642H45.2518V40.2984H42.3656V39.6642Z" fill="white"/>
<path d="M54.1661 50.7839C54.1661 50.9623 54.106 51.1136 53.9858 51.2377C53.8655 51.3658 53.72 51.4298 53.5494 51.4298C53.367 51.4298 53.2138 51.3677 53.0897 51.2436C52.9655 51.1194 52.9035 50.9662 52.9035 50.7839C52.9035 50.6093 52.9655 50.4619 53.0897 50.3416C53.2177 50.2175 53.3709 50.1554 53.5494 50.1554C53.72 50.1554 53.8655 50.2156 53.9858 50.3358C54.106 50.4561 54.1661 50.6054 54.1661 50.7839ZM52.4147 50.7839C52.4147 50.9623 52.3526 51.1136 52.2285 51.2377C52.1044 51.3658 51.9569 51.4298 51.7863 51.4298C51.6039 51.4298 51.4527 51.3677 51.3324 51.2436C51.2121 51.1233 51.152 50.9701 51.152 50.7839C51.152 50.6093 51.2121 50.4619 51.3324 50.3416C51.4565 50.2175 51.6078 50.1554 51.7863 50.1554C51.9569 50.1554 52.1044 50.2156 52.2285 50.3358C52.3526 50.4561 52.4147 50.6054 52.4147 50.7839ZM64.8436 46.1347C64.8436 44.808 64.3199 44.1446 63.2725 44.1446C62.7217 44.1446 62.2872 44.327 61.9691 44.6916C61.651 45.0446 61.492 45.5218 61.492 46.123C61.492 47.4652 62.2155 48.1363 63.6624 48.1363H64.8436V46.1347ZM57.768 49.0091V46.0299C57.768 45.3549 57.6361 44.872 57.3723 44.581C57.1124 44.2901 56.6799 44.1446 56.0747 44.1446C55.7489 44.1446 55.4152 44.1776 55.0739 44.2436V49.0091H52.8569C51.3828 49.0091 50.3083 48.7143 49.6333 48.1247C48.9932 47.5661 48.6732 46.7049 48.6732 45.5411C48.6732 44.7886 48.8051 44.1291 49.0689 43.5628L50.2326 43.3591C49.9301 43.9759 49.7788 44.6606 49.7788 45.4131C49.7788 46.3597 50.0018 47.0405 50.4479 47.4555C50.9406 47.9094 51.7863 48.1363 52.9849 48.1363H53.9974V43.5046C54.6995 43.3533 55.4269 43.2776 56.1794 43.2776C57.1376 43.2776 57.83 43.5085 58.2568 43.9701C58.6447 44.389 58.8386 45.0272 58.8386 45.8845V48.1363H60.5784C60.8539 48.1363 61.0847 48.1577 61.2709 48.2003C60.6812 47.8279 60.3864 47.1568 60.3864 46.187C60.3864 45.3646 60.6366 44.6858 61.1371 44.1505C61.6763 43.5686 62.4191 43.2776 63.3656 43.2776C65.0647 43.2776 65.9143 44.1679 65.9143 45.9485V49.0091H57.768ZM62.7779 41.9219C62.6538 41.7977 62.5917 41.6464 62.5917 41.468C62.5917 41.2857 62.6538 41.1305 62.7779 41.0025C62.906 40.8745 63.0573 40.8105 63.2318 40.8105C63.4141 40.8105 63.5693 40.8725 63.6973 40.9967C63.8253 41.1247 63.8893 41.2818 63.8893 41.468C63.8893 41.6464 63.8253 41.7977 63.6973 41.9219C63.5693 42.046 63.4141 42.1081 63.2318 42.1081C63.0534 42.1081 62.9021 42.046 62.7779 41.9219Z" fill="white"/>
<path d="M71.9833 39.4549L74.6541 39.0708V39.74L71.9833 40.1182V39.4549Z" fill="white"/>
<path d="M78.7157 48.1365H80.0424V49.0093H78.7157V51.8431C77.4123 51.9478 76.2136 52.0002 75.1197 52.0002C73.2887 52.0002 71.9659 51.7131 71.1513 51.139C70.3483 50.5688 69.9468 49.6533 69.9468 48.3926C69.9468 47.6439 70.0457 46.9049 70.2436 46.1756L71.3782 45.9603C71.1532 46.7323 71.0407 47.5023 71.0407 48.2704C71.0407 49.3061 71.3608 50.0412 72.0008 50.4757C72.6409 50.914 73.7271 51.1332 75.2593 51.1332C75.977 51.1332 76.7528 51.1002 77.5869 51.0343V49.0093H76.4406C74.3613 49.0093 73.3217 48.0842 73.3217 46.2338C73.3217 45.392 73.5661 44.7015 74.0549 44.1623C74.5979 43.5727 75.3544 43.2778 76.3242 43.2778C77.197 43.2778 77.9942 43.4175 78.7157 43.6968V48.1365ZM77.645 44.4241C77.2571 44.2379 76.7761 44.1448 76.202 44.1448C75.6589 44.1448 75.2264 44.3252 74.9044 44.686C74.5863 45.0429 74.4273 45.5181 74.4273 46.1116C74.4273 47.4615 75.1507 48.1365 76.5977 48.1365H77.645V44.4241ZM75.3466 42.3119C75.1682 42.3119 75.0169 42.2518 74.8928 42.1315C74.7725 42.0074 74.7124 41.8522 74.7124 41.666C74.7124 41.4954 74.7725 41.3479 74.8928 41.2238C75.0169 41.0997 75.1682 41.0376 75.3466 41.0376C75.5212 41.0376 75.6686 41.0977 75.7889 41.218C75.913 41.3421 75.9751 41.4915 75.9751 41.666C75.9751 41.8445 75.913 41.9977 75.7889 42.1257C75.6647 42.2499 75.5173 42.3119 75.3466 42.3119ZM77.1097 42.3119C76.9274 42.3119 76.7761 42.2518 76.6559 42.1315C76.5278 42.0074 76.4638 41.8522 76.4638 41.666C76.4638 41.4954 76.5278 41.3479 76.6559 41.2238C76.78 41.0997 76.9313 41.0376 77.1097 41.0376C77.2843 41.0376 77.4298 41.0977 77.5461 41.218C77.6664 41.3421 77.7265 41.4915 77.7265 41.666C77.7265 41.8484 77.6664 42.0016 77.5461 42.1257C77.4259 42.2499 77.2804 42.3119 77.1097 42.3119Z" fill="white"/>
<path d="M79.8619 48.1364H81.6017V43.4058H82.6957V49.0092H79.8619V48.1364ZM81.3515 51.4415C81.1731 51.4415 81.0218 51.3794 80.8976 51.2553C80.7696 51.1312 80.7056 50.9779 80.7056 50.7956C80.7056 50.6172 80.7696 50.4659 80.8976 50.3417C81.0218 50.2176 81.1731 50.1555 81.3515 50.1555C81.5338 50.1555 81.6871 50.2157 81.8112 50.3359C81.9431 50.4601 82.009 50.6133 82.009 50.7956C82.009 50.9741 81.9431 51.1273 81.8112 51.2553C81.6832 51.3794 81.53 51.4415 81.3515 51.4415Z" fill="white"/>
<path d="M84.8777 40.6069H85.9716V49.0092H84.8777V40.6069Z" fill="white"/>
</g>
<defs>
<linearGradient id="paint0_linear_161_8892" x1="125.478" y1="53.5099" x2="167.939" y2="5.94804" gradientUnits="userSpaceOnUse">
<stop stop-color="#0047BB"/>
<stop offset="1" stop-color="#4AB4FB"/>
</linearGradient>
<clipPath id="clip0_161_8892">
<rect width="154" height="60" fill="white" transform="translate(0.664917)"/>
</clipPath>
</defs>
</svg>
