<?xml version="1.0" encoding="UTF-8"?>
<svg id="Layer_2" data-name="Layer 2" xmlns="http://www.w3.org/2000/svg" viewBox="0 0 1021.28 313.44">
  <defs>
    <style>
      .cls-1 {
        fill: #fff;
      }
    </style>
  </defs>
  <g id="Layer_1-2" data-name="Layer 1">
    <g>
      <path class="cls-1" d="m320.62,218.49c-2.44-.78-4.6-1.17-6.46-1.17-2.08,0-3.72.39-4.93,1.17-1.21.78-1.82,1.86-1.82,3.24,0,1.26.42,2.3,1.27,3.15.84.84,1.9,1.54,3.18,2.08,1.28.54,3.02,1.14,5.23,1.79,3.07.91,5.59,1.82,7.56,2.73,1.97.91,3.65,2.25,5.03,4.02,1.38,1.77,2.08,4.11,2.08,7.01s-.75,5.18-2.24,7.24c-1.49,2.06-3.55,3.62-6.17,4.71-2.62,1.08-5.61,1.62-8.99,1.62-3.55,0-7.01-.66-10.39-1.98-3.38-1.32-6.32-3.08-8.83-5.29l3.64-7.4c2.29,2.12,4.87,3.79,7.73,5,2.85,1.21,5.52,1.82,7.98,1.82s4.33-.46,5.71-1.4c1.38-.93,2.08-2.2,2.08-3.8,0-1.3-.42-2.37-1.27-3.21-.84-.84-1.91-1.53-3.21-2.05s-3.07-1.1-5.32-1.75c-3.07-.91-5.58-1.8-7.53-2.66-1.95-.87-3.61-2.17-5-3.93-1.38-1.75-2.08-4.06-2.08-6.91,0-2.64.7-4.94,2.11-6.91,1.41-1.97,3.4-3.49,5.97-4.58,2.57-1.08,5.55-1.62,8.93-1.62,2.94,0,5.85.43,8.73,1.3,2.88.87,5.44,2.03,7.69,3.51l-3.51,7.59c-2.34-1.43-4.73-2.53-7.17-3.31Zm66.95-8.37v7.59h-24.6v11.23h22.07v7.59h-22.07v11.42h25.38v7.59h-34.08v-45.44h33.3Zm51.12,8.76c-2.19-1.04-4.4-1.56-6.65-1.56-2.81,0-5.39.67-7.73,2.01-2.34,1.34-4.18,3.19-5.52,5.55-1.34,2.36-2.01,4.94-2.01,7.76s.67,5.4,2.01,7.76c1.34,2.36,3.18,4.22,5.52,5.58,2.34,1.36,4.91,2.05,7.73,2.05,2.16,0,4.34-.48,6.52-1.43,2.18-.95,4.12-2.27,5.81-3.96l5.13,5.71c-2.38,2.42-5.15,4.34-8.31,5.75-3.16,1.41-6.36,2.11-9.61,2.11-4.37,0-8.37-1.04-12.01-3.12-3.64-2.08-6.49-4.9-8.57-8.47-2.08-3.57-3.12-7.52-3.12-11.85s1.06-8.26,3.18-11.81c2.12-3.55,5.01-6.34,8.67-8.37,3.66-2.03,7.71-3.05,12.17-3.05,3.24,0,6.43.65,9.54,1.95,3.12,1.3,5.78,3.09,7.98,5.39l-5.06,6.36c-1.6-1.86-3.49-3.31-5.68-4.35Zm43.13,26.42c2.03,2.03,4.76,3.05,8.18,3.05s6.11-1.02,8.08-3.05c1.97-2.03,2.95-4.85,2.95-8.44v-26.74h8.7v26.74c0,3.94-.8,7.37-2.4,10.29-1.6,2.92-3.88,5.16-6.85,6.72-2.96,1.56-6.46,2.34-10.48,2.34s-7.61-.78-10.61-2.34c-3.01-1.56-5.31-3.8-6.91-6.72-1.6-2.92-2.4-6.35-2.4-10.29v-26.74h8.7v26.74c0,3.59,1.02,6.4,3.05,8.44Zm80.88,10.26l-7.85-13.44c-.35.04-.89.06-1.62.06h-10.25v13.37h-8.7v-45.44h18.95c5.88,0,10.43,1.36,13.63,4.09,3.2,2.73,4.8,6.58,4.8,11.55,0,3.55-.77,6.58-2.31,9.09-1.54,2.51-3.78,4.39-6.72,5.65l10,15.06h-9.93Zm-19.73-21.03h10.25c3.29,0,5.8-.71,7.53-2.14,1.73-1.43,2.6-3.55,2.6-6.36s-.87-4.85-2.6-6.23c-1.73-1.38-4.24-2.08-7.53-2.08h-10.25v16.81Zm61.21-24.41v45.44h-8.7v-45.44h8.7Zm57.44,0v7.72h-14.15v37.71h-8.76v-37.71h-14.15v-7.72h37.06Zm40.44,30.57v14.86h-8.7v-14.54l-16.94-30.9h8.83l12.4,21.36,12.2-21.36h8.76l-16.55,30.57Zm100.12-26.48c3.14,2.73,4.71,6.58,4.71,11.55s-1.57,9.23-4.71,12.11c-3.14,2.88-7.56,4.32-13.27,4.32h-9.93v13.37h-8.7v-45.44h18.63c5.71,0,10.14,1.36,13.27,4.09Zm-6.17,18.17c1.75-1.43,2.63-3.55,2.63-6.36s-.88-4.85-2.63-6.23c-1.75-1.38-4.27-2.08-7.56-2.08h-9.48v16.81h9.48c3.29,0,5.81-.71,7.56-2.14Zm60.79,23.17l-7.85-13.44c-.35.04-.89.06-1.62.06h-10.25v13.37h-8.7v-45.44h18.95c5.88,0,10.43,1.36,13.63,4.09,3.2,2.73,4.8,6.58,4.8,11.55,0,3.55-.77,6.58-2.31,9.09-1.54,2.51-3.78,4.39-6.72,5.65l10,15.06h-9.93Zm-19.73-21.03h10.25c3.29,0,5.8-.71,7.53-2.14,1.73-1.43,2.6-3.55,2.6-6.36s-.87-4.85-2.6-6.23c-1.73-1.38-4.24-2.08-7.53-2.08h-10.25v16.81Zm61.21-24.41v45.44h-8.7v-45.44h8.7Zm65.56,0v45.44h-8.24l-23.37-31.29v31.29h-8.5v-45.44h8.24l23.43,31.35v-31.35h8.44Zm57.45,0v7.72h-14.15v37.71h-8.76v-37.71h-14.15v-7.72h37.06Z"/>
      <path class="cls-1" d="m115.35,279.06s.05.06.08.1c.02-.06.04-.12.05-.18h-.09s-.05.06-.04.08Zm123.67-168.09c-.06-.03-.14-.09-.29-.2-.03-.03-.09-.06-.14-.09-.77-.57-2.45-1.77-5.04-3.36-.26-.17-.57-.37-.85-.54-.31-.2-.63-.4-.97-.6-.14-.09-.31-.2-.48-.29-4.05-2.42-9.6-5.47-16.56-8.64-.57-.26-1.17-.51-1.77-.77-.6-.28-1.2-.54-1.82-.8-.63-.29-1.25-.54-1.88-.8-.63-.26-1.28-.54-1.94-.8-.66-.29-1.34-.54-1.99-.8-.68-.26-1.37-.54-2.05-.8-5.41-2.05-11.37-4.02-17.87-5.81-1-.26-1.99-.54-3.02-.8-1.54-.4-3.08-.8-4.67-1.17-1.05-.26-2.11-.48-3.19-.71-1.08-.23-2.19-.46-3.28-.68-.57-.11-1.11-.23-1.68-.34-.48-.09-.94-.17-1.42-.26-1.77-.34-3.56-.66-5.41-.94-1.14-.17-2.28-.37-3.45-.51-.63-.11-1.23-.2-1.88-.29-1.2-.14-2.39-.31-3.62-.43-.54-.09-1.08-.14-1.62-.2-.09,0-.14-.03-.23-.03-.74-.09-1.48-.14-2.22-.23-.97-.09-1.94-.17-2.91-.26-1.11-.09-2.25-.2-3.42-.26-.71-.06-1.42-.09-2.14-.14-1.23-.06-2.48-.11-3.73-.17-.63-.03-1.25-.06-1.88-.09-.34,0-.68,0-1.03-.03h-.54c-.8-.03-1.6-.03-2.37-.06-1.05,0-2.11-.03-3.16-.03s-2.08.03-3.14.03c-.8.03-1.6.03-2.39.06h-.54c-.34.03-.66.03-1,.03-.66.03-1.25.06-1.88.09-1.25.06-2.51.11-3.73.17-.74.06-1.45.09-2.17.14-1.14.06-2.28.17-3.42.26-.97.09-1.94.17-2.91.26-.74.09-1.48.14-2.22.23-.06,0-.14.03-.2.03-.54.06-1.11.11-1.65.2-1.2.11-2.42.28-3.62.43-.63.09-1.25.17-1.88.29-1.17.14-2.31.34-3.42.51-1.85.28-3.68.6-5.44.94-.48.09-.94.17-1.42.26-.54.11-1.11.2-1.65.34-1.11.23-2.19.46-3.28.68-1.08.23-2.17.48-3.22.71-1.57.37-3.14.77-4.67,1.17-1.03.26-2.02.54-3.02.8v-11.94c0-2.25.14-4.5.4-6.7.88-7.44,3.19-14.42,6.67-20.72.63-1.14,1.31-2.25,1.99-3.33v-.03c.71-1.08,1.45-2.14,2.22-3.19.4-.51.8-1.03,1.2-1.51v-.03c.48-.63,1-1.23,1.54-1.82,1.05-1.2,2.14-2.37,3.28-3.48.31-.28.6-.57.91-.85,2.14-1.97,4.42-3.79,6.84-5.44,1.37-.94,2.79-1.8,4.25-2.62.37-.2.77-.4,1.14-.6.37-.2.74-.4,1.11-.6.77-.37,1.51-.71,2.25-1.05.09-.03.14-.06.23-.09.34-.17.68-.31,1.03-.46.6-.26,1.2-.51,1.8-.71.6-.23,1.23-.46,1.82-.66.43-.14.88-.29,1.31-.43.8-.26,1.62-.48,2.42-.68.4-.11.83-.23,1.23-.31t.06-.03c.43-.09.83-.2,1.25-.28.43-.09.85-.17,1.31-.26.37-.06.74-.14,1.11-.2.31-.06.66-.11.97-.17.31-.03.6-.06.91-.11.28-.03.57-.09.85-.11.37-.03.74-.09,1.11-.11.37-.03.77-.09,1.17-.11h.17c.31-.03.63-.06.94-.06,1.11-.09,2.25-.11,3.39-.11s2.25.03,3.39.11c.31,0,.66.03.97.06h.06c.43.03.86.06,1.28.11.37.03.74.09,1.11.11.29.03.57.09.86.11.29.06.6.09.88.11.34.06.66.11.97.17.4.06.77.14,1.14.2.43.09.86.17,1.28.26.43.09.83.2,1.23.28.06,0,.14.03.2.06.37.09.74.17,1.11.28.83.2,1.62.43,2.42.68.43.14.88.29,1.31.43.4.14.83.28,1.23.43.8.29,1.6.6,2.39.94.34.14.68.29,1.03.46.09.03.17.06.23.09.74.31,1.51.68,2.25,1.05.37.2.74.37,1.14.6.37.17.74.37,1.11.6,1.48.83,2.91,1.68,4.27,2.62,1.37.94,2.71,1.94,3.99,2.99,1.31,1.05,2.54,2.14,3.73,3.31,1.14,1.11,2.25,2.28,3.28,3.48.54.6,1.05,1.2,1.54,1.82t0,.03c.43.48.8,1,1.2,1.51.77,1.05,1.51,2.11,2.22,3.19v.03c.71,1.08,1.37,2.19,2.02,3.33,3.45,6.3,5.76,13.28,6.64,20.72,6.53,1.62,12.63,3.45,18.24,5.39-.31-17.13-6.38-32.89-16.39-45.37-.37-.46-.74-.91-1.14-1.37-.37-.46-.77-.91-1.14-1.34-.4-.46-.8-.88-1.2-1.31-.8-.88-1.62-1.74-2.48-2.57-.43-.43-.85-.83-1.28-1.23-.43-.4-.86-.8-1.31-1.2-.37-.34-.77-.68-1.14-1.03-.6-.51-1.23-1.03-1.82-1.51-.34-.28-.68-.54-1.03-.8-.63-.51-1.25-.97-1.91-1.45-.31-.23-.63-.46-.97-.68-.06-.06-.14-.11-.23-.17-.43-.31-.86-.6-1.31-.88-1.11-.74-2.22-1.45-3.36-2.11-.4-.26-.8-.48-1.2-.71-.66-.37-1.34-.74-2.02-1.11-.37-.2-.74-.4-1.14-.57-.54-.31-1.11-.57-1.71-.85-.46-.23-.94-.46-1.42-.66-.48-.23-.97-.43-1.45-.63-.57-.26-1.11-.48-1.68-.71-.37-.14-.74-.29-1.11-.4-.77-.31-1.54-.6-2.34-.85-.4-.14-.83-.29-1.25-.4-1.54-.51-3.08-.94-4.65-1.31-.46-.14-.88-.23-1.34-.34-.6-.14-1.2-.26-1.8-.4-2.99-.6-6.04-1.03-9.15-1.25-1.23-.09-2.45-.17-3.68-.2-.68-.03-1.4-.03-2.08-.03s-1.42,0-2.14.03c-1.23.03-2.42.11-3.59.2-1.23.09-2.45.23-3.68.37-.57.06-1.17.14-1.77.23-1.23.2-2.48.43-3.7.66-.63.14-1.23.26-1.8.4-.43.09-.85.2-1.25.31-1.37.31-2.71.68-4.05,1.11-.37.11-.74.23-1.11.37-1.57.48-3.08,1.03-4.56,1.62-.48.2-.97.4-1.42.6-.46.17-.91.4-1.37.57-.51.26-1.03.48-1.54.74-.57.26-1.14.54-1.68.83-.48.23-.97.48-1.42.74-.09.03-.17.06-.23.11-1.03.54-2.05,1.14-3.05,1.74-.51.31-1.03.6-1.51.94-.51.31-1,.63-1.48.97-.46.28-.91.6-1.37.91-.06.06-.11.09-.2.14-.46.31-.91.66-1.37,1-.46.34-.94.68-1.42,1.05-.46.37-.91.74-1.37,1.11-.46.37-.91.74-1.37,1.14-.68.57-1.34,1.14-2,1.77-.66.6-1.31,1.2-1.94,1.82-1.68,1.65-3.31,3.39-4.82,5.22-.37.46-.74.88-1.11,1.34-.6.8-1.23,1.57-1.82,2.37-.28.43-.57.83-.88,1.23-.28.43-.57.83-.85,1.25-.29.4-.54.83-.83,1.25-.46.71-.91,1.42-1.34,2.14-.23.37-.46.74-.66,1.11-.4.66-.77,1.34-1.11,2.02-.37.66-.74,1.34-1.08,2.02-5.04,10.03-7.87,21.35-7.87,33.32v17.76c-.68.26-1.37.54-2.05.8-.66.26-1.34.51-1.99.8-.66.26-1.31.54-1.94.8-.63.26-1.25.51-1.88.8-.63.26-1.23.51-1.82.8-.6.26-1.2.51-1.77.77-.48.23-.97.46-1.45.68-1.4.66-2.71,1.28-3.99,1.91-.85.43-1.71.86-2.51,1.28-.48.23-.97.48-1.42.74-.46.23-.91.48-1.34.71-.43.23-.88.46-1.28.68-3.16,1.74-5.73,3.31-7.7,4.56-.26.17-.51.31-.77.48-.83.54-1.54,1.03-2.11,1.42-.17.11-.34.2-.48.31-.34.26-.63.46-.86.63-.06.03-.11.06-.14.09-.14.11-.23.17-.28.2l-3.56,2.71v85.64c0,.91.03,1.82.06,2.74v.09c0,.88.03,1.74.09,2.59v.2c.03.74.09,1.48.14,2.22,0,.23.03.43.03.63.06.83.14,1.65.23,2.48.06.8.14,1.6.26,2.42.03.26.06.51.09.77.06.48.11.94.2,1.42.03.37.09.71.14,1.08.14.94.29,1.88.46,2.85.09.6.2,1.2.31,1.8.06.26.11.54.17.83.11.6.23,1.2.37,1.8.03.17.06.34.11.48.09.51.23,1.03.34,1.54.11.54.26,1.11.4,1.65.14.6.29,1.2.46,1.8.2.77.43,1.54.66,2.31.03.2.09.37.14.54.2.66.4,1.31.6,1.97.06.17.11.34.17.51.23.77.48,1.51.74,2.22.2.63.43,1.25.66,1.88.14.4.28.8.43,1.2.17.43.31.83.48,1.23.74,1.91,1.54,3.79,2.37,5.64.31.71.66,1.42,1,2.14.37.77.74,1.54,1.14,2.31.46.91.94,1.8,1.4,2.71.37.63.71,1.25,1.05,1.91.43.74.86,1.48,1.31,2.22.4.68.8,1.34,1.2,1.99.11.14.2.31.31.48.4.6.77,1.23,1.2,1.85.03.03.03.06.09.11.46.68.91,1.4,1.4,2.08l1.45,2.05s.03.03.03.06c.48.68.97,1.34,1.48,1.99.03.06.09.11.11.17.43.54.86,1.08,1.25,1.62,1.68,2.11,3.45,4.19,5.27,6.18,5.39,5.9,11.34,11.23,17.87,15.9.14.14.34.26.51.37,1.11.8,2.25,1.6,3.42,2.34.54.37,1.08.71,1.6,1.05.06.03.09.06.14.06.54.37,1.08.68,1.62,1.03.86.54,1.71,1.05,2.59,1.54.48.28.97.57,1.48.83.51.29,1.03.57,1.54.83.46.26.88.48,1.34.71,1.17.63,2.37,1.23,3.59,1.8,5.7,2.71,11.69,4.93,17.87,6.67.2.06.4.11.63.17.37.11.77.2,1.14.31.66.17,1.28.34,1.94.48.09.03.17.03.26.06,5.79,1.4,11.77,2.37,17.87,2.82v.03c.14,0,.31.03.46.03.46.03.91.06,1.34.09.26.03.48.03.74.06.37,0,.77.03,1.14.06.37,0,.71.03,1.05.03.66.03,1.31.06,1.94.06.77,0,1.51.03,2.25.03s1.51-.03,2.25-.03c.66,0,1.28-.03,1.94-.06.34,0,.68-.03,1.05-.03.37-.03.77-.06,1.14-.06.26-.03.51-.03.74-.06.43-.03.88-.06,1.31-.09.17,0,.34-.03.48-.03v-.03c6.13-.46,12.08-1.42,17.87-2.82,1.08-.26,2.14-.51,3.19-.83.17-.03.34-.09.51-.14.09,0,.17-.03.26-.06,6.18-1.74,12.17-3.96,17.87-6.67.6-.28,1.2-.6,1.8-.88,1.17-.57,2.34-1.17,3.48-1.8.77-.4,1.51-.83,2.28-1.25,1-.57,1.99-1.17,2.99-1.77.57-.34,1.14-.68,1.71-1.05.83-.51,1.65-1.05,2.48-1.62.83-.54,1.65-1.11,2.45-1.68.23-.17.46-.31.68-.48,6.5-4.67,12.48-10,17.84-15.9.4-.43.77-.83,1.14-1.25.28-.31.57-.66.86-1,.88-1.03,1.77-2.05,2.62-3.11.28-.37.57-.74.86-1.11.23-.28.43-.54.63-.8.28-.37.57-.74.86-1.11.4-.54.8-1.08,1.2-1.65.51-.68,1-1.37,1.48-2.05.46-.68.94-1.4,1.4-2.08.03-.03.06-.09.06-.11.46-.71.91-1.4,1.37-2.11.46-.74.91-1.48,1.34-2.22.43-.74.88-1.45,1.28-2.19t.03-.06c.4-.68.77-1.37,1.14-2.05.11-.23.23-.43.34-.63.71-1.4,1.42-2.79,2.11-4.22.34-.71.68-1.42,1-2.14.4-.91.8-1.8,1.2-2.71.31-.77.63-1.54.94-2.31.31-.83.63-1.62.94-2.45.28-.83.6-1.65.85-2.48.26-.71.51-1.45.74-2.22.06-.09.06-.17.09-.26.29-.85.54-1.68.77-2.54.2-.63.37-1.25.54-1.88.11-.37.2-.77.31-1.17.26-.97.48-1.94.71-2.94.14-.51.26-1.03.34-1.54.06-.17.09-.31.11-.48.14-.6.26-1.2.37-1.8.06-.29.11-.57.17-.83.11-.6.23-1.2.31-1.8.17-.97.31-1.91.46-2.85.06-.37.11-.71.14-1.08.09-.48.14-.94.2-1.42.03-.26.06-.51.09-.77.11-.83.2-1.62.26-2.42.09-.83.17-1.65.23-2.48,0-.2.03-.43.03-.63.06-.74.11-1.48.14-2.22v-.2c.06-.86.09-1.71.11-2.59v-.09c0-.91.03-1.82.03-2.74v-85.64l-3.56-2.71Zm-14.31,88.35c0,.94,0,1.85-.03,2.79-.03.66-.06,1.28-.09,1.94,0,.23-.03.48-.03.71-.03.66-.09,1.25-.14,1.88,0,.17-.03.34-.03.48-.06.68-.11,1.37-.2,2.05,0,.17-.03.31-.03.48-.06.6-.14,1.17-.2,1.77-.03.11-.03.23-.06.31-.06.43-.11.85-.17,1.25-.03.17-.03.34-.09.48-.03.4-.09.77-.14,1.14-.11.6-.2,1.17-.31,1.77-.06.28-.11.57-.17.85-.11.68-.26,1.34-.4,1.99-.34,1.74-.77,3.45-1.23,5.13-.14.57-.31,1.14-.46,1.68-.06.2-.11.37-.17.54-.2.68-.4,1.37-.63,2.02,0,.06-.03.09-.03.14-.2.54-.37,1.11-.57,1.65-.11.4-.26.8-.4,1.2-.2.57-.43,1.11-.63,1.68-.28.74-.57,1.48-.86,2.19q-.03.06-.06.09c-.23.6-.48,1.2-.74,1.8-.11.26-.23.51-.34.77-.26.6-.51,1.17-.8,1.74-.17.4-.34.77-.54,1.17-.34.71-.71,1.42-1.05,2.14-.23.43-.46.88-.68,1.31-.23.43-.48.86-.71,1.28-3.85,6.95-8.52,13.37-13.91,19.15h-.03c-1.23,1.34-2.54,2.65-3.85,3.93v.17c-5.3,5.22-11.31,9.72-17.87,13.34-.14.09-.28.14-.43.23v.03c-5.5,3.16-11.31,5.84-17.44,7.89-1.31.46-2.62.85-3.96,1.25-2.28.66-4.59,1.23-6.93,1.74h-.03c-3.56.88-7.18,1.54-10.92,1.97-2.91.31-5.87.48-8.89.48s-6.01-.17-8.95-.51c-3.56-.37-7.07-1-10.49-1.85-.03,0-.06,0-.09-.03-2.45-.51-4.9-1.11-7.3-1.8-.46-.14-.88-.26-1.34-.4-.43-.14-.88-.28-1.31-.43-.46-.14-.88-.29-1.31-.43-5.67-1.91-11.14-4.36-16.3-7.24,0-.03-.03-.03-.06-.06-.48-.29-1-.57-1.51-.85v.06c-6.53-3.53-12.54-7.92-17.84-13.05-3.71-3.56-7.07-7.5-10.03-11.71-2.88-3.73-5.47-7.72-7.78-11.88-.71-1.28-1.4-2.59-2.05-3.93-.26-.54-.54-1.11-.8-1.65-.6-1.28-1.2-2.59-1.74-3.9-.17-.4-.34-.8-.48-1.2-.2-.51-.4-1.03-.6-1.51-.14-.4-.28-.77-.43-1.17-.03-.09-.06-.17-.09-.23-.29-.74-.54-1.48-.8-2.25-.06-.2-.14-.43-.2-.63-.14-.43-.28-.86-.4-1.25-.31-.97-.6-1.94-.86-2.88-.14-.48-.29-.97-.4-1.45-.11-.51-.26-1-.37-1.48-.11-.48-.26-.97-.34-1.48-.23-.97-.46-1.97-.63-2.96-.2-1-.4-1.99-.54-2.99-.26-1.51-.46-3.05-.63-4.59-.09-.48-.14-1-.17-1.51-.11-1.03-.2-2.08-.26-3.11-.06-1.03-.11-2.08-.14-3.11-.03-1.05-.06-2.11-.06-3.16v-76.44c7.47-4.7,26.39-15.25,53.95-21.37.88-.2,1.8-.37,2.71-.57.97-.2,1.91-.37,2.88-.57.51-.09,1-.17,1.48-.26.48-.11,1-.2,1.51-.29,1.6-.26,3.19-.54,4.84-.77h.03c1.14-.17,2.31-.34,3.51-.48,1.2-.17,2.39-.31,3.62-.43,2.59-.28,5.24-.54,7.92-.71,4.47-.31,9.06-.48,13.79-.48s9.35.17,13.79.48c2.71.17,5.36.43,7.95.71,1.2.11,2.39.26,3.59.43,1.2.14,2.37.31,3.53.48,1.65.23,3.28.48,4.87.77.48.09,1,.17,1.48.29.51.09,1,.17,1.48.26.97.2,1.94.37,2.88.57.91.2,1.82.37,2.71.57,27.59,6.13,46.48,16.67,53.95,21.37v76.44Zm-29.76,69.54v.17c1.34-1.32,2.62-2.68,3.86-4.09-1.25,1.34-2.54,2.65-3.86,3.92Zm4.22-111.14c-1.3,0-2.61-.5-3.6-1.49-64.48-64.4-127.9-9.63-130.56-7.27-2.1,1.86-5.32,1.68-7.19-.43-1.87-2.1-1.68-5.32.42-7.19.72-.64,73.19-63.59,144.54,7.68,1.99,1.99,1.99,5.22,0,7.21-1,1-2.3,1.5-3.61,1.5Zm-2.3,29.61c-1.77,0-3.5-.93-4.44-2.58-13.78-24.26-33.97-39.3-56.86-42.34-24.48-3.27-50.29,7.43-72.71,30.07-1.98,2-5.21,2.01-7.21.03-2-1.98-2.02-5.21-.03-7.21,24.72-24.96,53.59-36.69,81.3-33,26.13,3.47,48.99,20.31,64.38,47.41,1.39,2.45.53,5.56-1.91,6.95-.8.45-1.66.67-2.51.67Zm-11.94,54.59c-.34,0-.68-.03-1.02-.1-2.76-.56-4.54-3.25-3.98-6.01,3.9-19.22,1.14-35.62-8.22-48.72-9.59-13.44-26.02-22.58-45.07-25.08-31.53-4.1-64.6,35.95-64.93,36.35-1.78,2.18-4.99,2.51-7.17.73-2.18-1.77-2.51-4.98-.74-7.16,1.49-1.84,36.9-44.94,74.17-40.03,21.84,2.87,40.81,13.53,52.04,29.26,10.91,15.28,14.34,34.88,9.91,56.68-.49,2.41-2.62,4.08-4.99,4.08Zm-58.81,44.15c-1.41,0-2.83-.58-3.85-1.76-1.76-2.02-1.46-5.13.38-7.08l29.78-31.69c6.19-7.24,9.9-15.87,10.28-24.14.63-15.8-7.49-29.25-21.71-35.97-15.46-7.29-33.86-4.49-46.91,7.15-.1.11-2.53,2.48-27.61,27.02-2.01,1.97-5.26,1.95-7.23-.06h0c-1.97-2.01-1.93-5.24.08-7.21l27.78-27.18c16.28-14.54,39.07-17.99,58.24-8.94,18.05,8.52,28.35,25.57,27.55,45.62-.62,13.53-7.35,24.06-12.88,30.51l-30.17,32.12c-1,1.07-2.36,1.61-3.71,1.61Zm-15.92-8.78c-1.24,0-2.48-.45-3.46-1.35-2.07-1.91-2.2-5.13-.29-7.2l31.32-33.93c2.43-2.84,5.53-7.63,5.8-13.57.3-9.19-4.86-17.68-12.56-20.57-8.33-3.63-19.4-1.72-26.08,4.34l-32.08,33.08c-1.96,2.02-5.18,2.07-7.2.11-2.02-1.96-2.07-5.18-.11-7.2l32.19-33.19c.07-.07.14-.14.21-.2,9.6-8.83,25.13-11.52,36.91-6.37,11.48,4.3,19.36,16.85,18.92,30.41-.32,7.06-3.22,13.93-8.37,19.95l-31.45,34.07c-1.01,1.09-2.37,1.64-3.75,1.64Zm-12.01-10.12c-1.23,0-2.47-.44-3.45-1.35-2.07-1.91-2.21-5.13-.3-7.2l29.66-32.25c1.12-1.19,1.69-2.67,1.64-4.23-.04-1.56-.69-3.01-1.83-4.08-1.13-1.07-2.52-1.66-4.18-1.59-1.56.04-3.01.69-4.08,1.83l-30.25,32.87c-1.91,2.08-5.13,2.21-7.2.3-2.07-1.91-2.21-5.13-.3-7.2l30.3-32.93c2.99-3.16,6.97-4.95,11.25-5.07,4.27-.07,8.35,1.44,11.46,4.38,3.11,2.94,4.89,6.92,5.01,11.2.12,4.28-1.43,8.35-4.38,11.46l-29.62,32.2c-1,1.09-2.38,1.65-3.75,1.65Z"/>
      <path class="cls-1" d="m563.81,189.74h0v.16h-.12v-.16h.12Zm448.08-15.32c-2.7,0-4.95.91-6.72,2.73-1.78,1.82-2.66,4.13-2.66,6.94s.89,5.13,2.66,7c1.77,1.87,4.02,2.8,6.72,2.8s4.95-.93,6.73-2.8c1.77-1.87,2.66-4.19,2.66-7s-.89-5.12-2.66-6.94c-1.78-1.82-4.01-2.73-6.73-2.73Zm-353.7-92.79c2.45,0,4.5-.84,6.11-2.52,1.61-1.71,2.4-3.83,2.4-6.36s-.79-4.65-2.4-6.28c-1.61-1.66-3.66-2.48-6.11-2.48s-4.48.82-6.09,2.48c-1.6,1.63-2.4,3.75-2.4,6.28s.8,4.65,2.4,6.36c1.61,1.68,3.63,2.52,6.09,2.52Zm22.13,0c2.46,0,4.48-.84,6.11-2.52,1.61-1.71,2.42-3.83,2.42-6.36s-.81-4.65-2.42-6.28c-1.63-1.66-3.66-2.48-6.11-2.48s-4.48.82-6.08,2.48c-1.61,1.63-2.41,3.75-2.41,6.28s.81,4.65,2.41,6.36c1.6,1.68,3.63,2.52,6.08,2.52Zm94.6,62.82c-.05-1.36-.61-2.63-1.6-3.57-.96-.91-2.22-1.4-3.58-1.4h-.09c-1.37.04-2.64.61-3.6,1.62l-8.73,9.48c-.34.39-.53.89-.51,1.41.03.53.25,1.02.63,1.37.39.35.9.54,1.41.52.53-.03,1.01-.25,1.36-.63l8.71-9.46c.21-.24.51-.37.84-.38.32,0,.6.09.83.32.23.23.37.51.38.83,0,.32-.11.62-.35.87l-8.53,9.28c-.36.39-.55.9-.53,1.41.03.53.25,1.02.63,1.37.37.33.83.52,1.33.52.55,0,1.07-.23,1.45-.63l8.52-9.27c.94-.99,1.44-2.29,1.4-3.66Zm246.37-47.29v68.09h-150.02c-8.51,0-15.28-2.02-20.32-6.03-4.58,4.01-11.34,6.03-20.31,6.03h-7.98c-5.45,0-12.27-.27-16.6-2-.06.06-.09.12-.14.18-.15.21-.26.37-.39.53-.13.19-.26.37-.42.55l-.47.61c-.32.4-.63.77-.95,1.14l-.46.51c-.09.12-.21.24-.3.34-1.47,1.6-3.05,3.08-4.71,4.44l-.13.09c-.47.38-.97.75-1.45,1.11l-.46.32c-.28.21-.58.41-.88.61-.3.2-.6.4-.92.6-.18.12-.39.26-.6.38-.38.24-.74.44-1.11.65-.22.12-.49.27-.77.43-.47.26-.89.46-1.31.67-.17.09-.35.17-.51.26l-.14.07c-2.06.97-4.18,1.78-6.36,2.39l-.23.09-.27.06c-.37.09-.78.21-1.18.3-2.07.5-4.25.85-6.45,1.03h-.2c-.2.03-.4.05-.59.05l-.29.02c-.12,0-.25,0-.38.02l-1.86.04-1.86-.04c-.13,0-.25,0-.38-.02h-.17s-.09,0-.15-.02c-.18,0-.37-.02-.56-.04h-.13c-2.19-.18-4.36-.52-6.46-1.03l-.61-.14c-.07-.02-.13-.05-.2-.07l-.4-.1c-.1-.02-.22-.06-.33-.09-2.24-.63-4.44-1.46-6.52-2.44-.41-.19-.84-.41-1.28-.62l-.48-.26c-.16-.08-.33-.17-.5-.26l-.1-.06c-.19-.1-.37-.2-.54-.31-.29-.16-.62-.36-.96-.56-.12-.08-.26-.15-.4-.25l-.47-.24-.17-.17c-.07-.04-.12-.09-.2-.13-.41-.26-.79-.53-1.19-.8l-.23-.17c-2.37-1.7-4.56-3.66-6.52-5.81l-1.1-1.26c-.28-.33-.55-.66-.81-.98l-.55-.73c-.17-.22-.33-.43-.49-.64l-.82-1.18s-.02-.04-.03-.06l-.2-.21-.19-.39s-.02-.03-.04-.05c-2.75,2.57-10.89,3.67-13.4,3.67h-8.5c-11.48,0-19.4-3.31-23.68-9.96-3.36,1.61-7,2.88-10.93,3.85-3.92,1-7.69,1.49-11.35,1.49-6.61,0-12.73-1.5-18.34-4.55-5.59-3.05-10.08-7.18-13.39-12.47-3.32-5.29-4.97-11.05-4.97-17.31s1.65-12.13,4.97-17.36c3.31-5.24,7.8-9.38,13.39-12.46,5.61-3.07,11.67-4.64,18.22-4.64h18.06v-3.51h16.1v48.48c0,4.95.95,8.43,2.79,10.43,1.88,2.03,5.34,3.03,10.38,3.03h7.24c2.97,0,5.33-.71,7.05-2.17.12-.09.37-.37.57-.61-.03-.1-.05-.22-.07-.32-.02-.1-.04-.2-.06-.29l-.12-.69c-.07-.36-.12-.7-.17-1.06-.02-.12-.05-.27-.06-.44-.03-.16-.05-.3-.07-.46l-.14-1.32c-.03-.26-.05-.52-.08-.79,0-.06,0-.17,0-.28,0-.12-.02-.23-.03-.33l-.02-.09v-.45c-.02-.29-.03-.59-.04-.88v-.04c0-.32,0-.65,0-.97v-30.22l3.08-2.31c.09-.08.2-.15.32-.25l.21-.14c.18-.12.44-.29.73-.48.06-.04.11-.07.17-.1l.17-.11c.67-.43,1.61-1,2.75-1.62l.56-.31c.09-.04.16-.09.26-.13.21-.12.43-.24.66-.34l.78-.4c.44-.23.92-.44,1.4-.68.19-.09.38-.16.57-.26l.69-.31c.18-.08.36-.15.55-.24.15-.07.3-.12.46-.2l.3-.12c.19-.09.39-.16.59-.25.24-.09.49-.19.74-.28l.62-.24c.33-.13,1.33-.54,6.98-2.23l.36-.1c.53-.14,1.06-.26,1.61-.4l1.14-.26c.36-.09.73-.16,1.11-.24.22-.05.44-.09.67-.13l.38-.08c.7-.12,1.32-.24,1.95-.33.37-.07.76-.12,1.14-.17.26-.05.53-.09.79-.11.34-.05.77-.09,1.2-.15l2.46-.25c.39-.03.76-.06,1.14-.08.26-.02.51-.04.76-.05.36-.04.75-.05,1.14-.07h.12c.19-.02.43-.03.67-.03l1.32-.03c.79-.02,1.5-.02,2.23,0h.8s.2,0,.2,0l.33.02c.26,0,.49,0,.75.03h.07c.39.02.79.03,1.17.07.22,0,.46.03.73.05.39.02.79.05,1.18.08l2.42.25c.43.05.85.1,1.28.16.18.02.44.07.68.09.39.06.8.11,1.19.18.61.09,1.23.21,1.85.31l1.08.22c.39.08.78.16,1.16.25.21.04.47.1.76.16l.3.08c.62.15,1.15.27,1.68.42.32.09.69.18,1.05.27,2.14.6,4.23,1.28,6.24,2.04l.75.29c.19.08.43.16.66.25.12.07.26.11.41.17l.88.37c.15.07.29.13.44.19l.81.37c2.1.96,4.07,1.98,5.9,3.07l.83.5c.74.46,1.28.83,1.63,1.09l.47.33,2.86,2.16v30.22c0,.29,0,.6,0,.88l.03.52-.08.73c0,.26-.02.49-.04.74h0s-.05.53-.05.53c-.02.22-.03.44-.06.64-.02.23-.05.53-.08.82l-.05.25h.02c-.04.2-.06.4-.09.6,0,.12-.03.25-.05.37-.04.33-.1.66-.16,1-.03.17-.06.35-.09.53l-.09.44c-.05.26-.09.49-.15.72l-.05.2c-.04.2-.09.41-.14.61-.06.27-.12.59-.21.9,1.72.5,3.67.76,5.81.76h5.33s.08,0,.1,0h5.64c5.04,0,8.5-1,10.37-3.02,1.86-2.01,2.8-5.49,2.8-10.44v-32.78h16.11v32.92c0,4.11-.44,7.81-1.27,11.06,2.71,1.5,6.44,2.25,11.21,2.25h.14c1.77-8.97,5.09-17.72,9.94-26.27,4.85-8.54,11.41-15.64,19.68-21.3,8.26-5.64,17.95-8.47,29.07-8.47,9.24,0,17.03,2.03,23.39,6.09,6.35,4.07,11.07,9.56,14.14,16.46,3.08,6.92,4.63,14.57,4.63,22.97v10.51h13.97s6.73,0,6.76,0h14.84v-53.1h16.11Zm-333.95,43.28c-.09-.74-.15-1.91-.15-3.49v-30.12h-18.06c-3.75,0-7.19.86-10.3,2.58-3.15,1.73-5.6,4.1-7.43,7.09-1.83,2.99-2.72,6.26-2.72,9.79s.87,6.79,2.65,9.67c1.78,2.9,4.27,5.2,7.5,6.93,3.22,1.73,6.84,2.6,10.86,2.6,5.79,0,11.67-1.67,17.65-5.05Zm112.09-24.03c-2.88-1.57-7.81-3.84-14.35-5.3-.27-.06-.53-.11-.79-.16l-.11-.03c-.27-.06-.53-.11-.79-.16l-.96-.17c-.38-.07-.77-.12-1.15-.19l-.35-.05c-.24-.04-.47-.07-.73-.09l-.33-.06c-.31-.04-.68-.08-1.06-.11-.81-.1-1.62-.17-2.44-.22-2.78-.2-5.7-.2-8.46,0-.83.06-1.65.13-2.45.23-.37.04-.75.08-1.11.12l-.3.05c-.09,0-.17.02-.27.03l-2.7.44-.22.04c-.25.05-.5.1-.77.16l-.53.11c-.12.03-.25.05-.38.08-6.55,1.46-11.5,3.73-14.36,5.3v22.62c0,.29,0,.6,0,.88,0,.3.03.59.05.88.02.28.03.56.07.84l.02.17c0,.06,0,.11.02.17l.02.17c.05.44.1.87.18,1.29.04.27.09.56.15.83.05.29.09.54.15.79l.05.15c.02.08.03.17.06.26.04.17.09.36.14.56.02.09.05.18.07.26l.05.14c.06.23.13.45.2.69l.1.33c.05.12.09.25.11.36.06.14.1.29.16.43l.49,1.28c.15.38.32.76.5,1.14.07.13.14.28.21.43.19.39.39.78.6,1.15.63,1.14,1.37,2.27,2.2,3.35l.11.14c.81,1.16,1.74,2.24,2.75,3.22.97.94,2.02,1.79,3.14,2.53l2.29,1.35c.06.02.1.06.14.08,1.44.8,2.98,1.49,4.55,2.02.08.02.16.05.26.08l.15.06c.1.03.19.06.28.09l.44.13c.54.16,1.08.29,1.64.43h.12l.52.13c.9.24,1.86.41,2.83.5,1.63.19,3.34.19,4.92,0,1.03-.1,2.03-.28,3.01-.54l.6-.12c.51-.11,1.02-.26,1.54-.4.39-.11.78-.23,1.15-.36.95-.32,1.87-.7,2.8-1.14v-.08l2.26-1.12,2.24-1.4c.66-.46,1.3-.97,1.9-1.51l.9-.9c.38-.36.74-.74,1.1-1.12l.39-.42c1.38-1.54,2.58-3.23,3.57-5.01l.22-.39c.05-.1.09-.2.15-.3l.05-.09c.09-.19.19-.38.28-.57l.17-.37c.09-.15.14-.29.2-.43l.36-.85c.07-.18.14-.34.2-.51.09-.22.14-.36.19-.51l.15-.44c.03-.08.06-.17.09-.25l.05-.17c.07-.2.12-.4.18-.59l.2-.69c.11-.42.24-.9.33-1.38.04-.2.07-.34.1-.49l.05-.29c.05-.22.07-.34.09-.49l.12-.81s0-.09.02-.13c.02-.16.03-.31.05-.45l.09-.94c.02-.16.03-.32.04-.49v-.24c.02-.17.02-.33.03-.51,0-.29,0-.55,0-.79v-22.62Zm154.04,23.34c0-9.8-2.29-17.35-6.86-22.63-4.58-5.26-10.84-7.91-18.77-7.91-6.73,0-13.08,1.83-19.05,5.47-5.97,3.63-11.06,8.62-15.26,14.92-4.21,6.3-7.11,13.19-8.69,20.66h68.63v-10.51Zm-178.71-21.57c-8.15-1.09-16.6,2.35-23.83,9.64-.37.38-.58.87-.58,1.4,0,.51.22,1.01.59,1.38.37.37.86.57,1.38.57h0c.53,0,1.02-.21,1.39-.58,6.35-6.41,13.62-9.44,20.52-8.51,6.43.85,12.12,5.09,16.02,11.94.34.61,1,.99,1.7.99.34,0,.67-.09.97-.26.45-.26.79-.67.93-1.18.13-.51.07-1.04-.19-1.49-4.51-7.95-11.22-12.89-18.9-13.9Zm-23.06,2.72c-.81.71-.89,1.97-.17,2.77.73.8,1.97.88,2.77.15.76-.66,18.68-16.14,36.92,2.08.38.37.87.58,1.4.58s1.02-.21,1.39-.58c.76-.77.76-2.02,0-2.78-20.85-20.82-42.1-2.41-42.31-2.22Zm28.35,23.51c.12-4.13-2.25-7.92-5.76-9.23-3.56-1.56-8.25-.75-11.15,1.93l-9.36,9.63c-.37.38-.56.87-.55,1.4,0,.53.22,1.01.6,1.38.37.37.83.59,1.4.56.52,0,1.01-.23,1.38-.6l9.21-9.52c1.8-1.62,4.79-2.11,7.01-1.14,2.02.75,3.37,3,3.29,5.43-.08,1.66-1,2.97-1.53,3.6l-9.03,9.77c-.74.79-.68,2.04.11,2.78.37.33.83.52,1.32.52.55,0,1.08-.23,1.45-.63l9.07-9.82c1.56-1.83,2.43-3.92,2.54-6.06Zm-2.72-13.56c-5.7-2.68-12.51-1.64-17.34,2.68l-8,7.82c-.77.76-.79,2.01-.03,2.78.37.37.87.59,1.39.59h.02c.52,0,1-.2,1.38-.56l.4-.4c7.1-6.95,7.53-7.37,7.54-7.38,3.6-3.22,8.69-3.99,12.96-1.98,3.92,1.85,6.15,5.54,5.98,9.89-.11,2.27-1.12,4.64-2.84,6.63l-8.57,9.13c-.72.77-.78,1.96-.12,2.71.38.44.92.68,1.49.68s1.06-.23,1.43-.62l8.7-9.27c1.66-1.91,3.65-5.04,3.84-9.08.24-5.98-2.85-11.07-8.22-13.61Zm-5.15-7.04c-11-1.46-21.38,11.17-21.82,11.71-.33.41-.48.91-.43,1.43.05.53.3.99.72,1.33.4.33.91.48,1.43.43.52-.05.99-.31,1.33-.72.09-.1,9.46-11.44,18.24-10.28,5.35.7,9.96,3.26,12.64,7.02,2.62,3.65,3.38,8.25,2.29,13.64-.11.52,0,1.03.28,1.48.29.44.73.74,1.25.84.12.03.26.04.4.04.92,0,1.73-.66,1.91-1.57,1.31-6.42.29-12.2-2.92-16.72-3.32-4.64-8.91-7.78-15.33-8.63Zm-397.07-12.22l-15.45,8.54c1.63,3.71,2.96,8.02,4,12.95,1.04,4.93,1.56,9.47,1.56,13.62,0,5.88-1.06,11.09-3.19,15.66-2.12,4.56-5.17,8.13-9.15,10.71-3.98,2.58-8.59,3.86-13.83,3.86s-9.85-1.29-13.83-3.86c-3.98-2.58-7.03-6.15-9.15-10.71-2.13-4.56-3.19-9.74-3.19-15.52,0-5.15.68-10.35,2.03-15.59l-16-8c-2.53,8.22-3.8,15.95-3.8,23.18,0,8.68,1.78,16.58,5.35,23.72,3.57,7.14,8.68,12.79,15.32,16.94,6.64,4.16,14.39,6.24,23.25,6.24s16.61-2.08,23.25-6.24c6.64-4.16,11.75-9.81,15.32-16.94,3.57-7.14,5.35-15.09,5.35-23.86,0-5.78-.7-11.77-2.1-17.96-1.4-6.19-3.32-11.77-5.76-16.74Zm-36.6-8.4c2.8,0,5.15-.97,7.05-2.91,1.9-1.94,2.85-4.36,2.85-7.25s-.93-5.42-2.78-7.32c-1.85-1.9-4.23-2.85-7.12-2.85s-5.13.95-6.98,2.85c-1.85,1.9-2.78,4.34-2.78,7.32s.93,5.31,2.78,7.25c1.85,1.94,4.18,2.91,6.98,2.91Zm229.84,21.28c3.84,9.76,5.53,20.42,5.08,31.99-6.24,2.89-12.99,5.08-20.27,6.57-7.28,1.49-13.85,2.24-19.72,2.24-8.77,0-17.31-1.9-25.62-5.69-4.52,3.8-10.21,5.69-17.08,5.69h-87.44v-100.99h17.62v84.59h15.86s0,0,0,0h51.78c2.8,0,4.99-.68,6.57-2.03,1.58-1.36,2.6-3.48,3.05-6.37l.41-3.52c.9-7.05,2.19-13.6,3.86-19.66,1.67-6.05,4.72-11.66,9.15-16.81,4.43-5.15,10.57-7.73,18.44-7.73s15.47,2.85,22.3,8.54c6.82,5.69,12.15,13.42,16,23.18Zm-13.08,21.01c-.72-6.42-2.35-12.4-4.88-17.96-2.53-5.56-5.54-9.98-9.01-13.28-3.48-3.3-6.98-4.95-10.51-4.95s-6.28,1.61-8.27,4.81c-1.99,3.21-3.37,6.85-4.13,10.91-.77,4.07-1.47,8.95-2.1,14.64-.09,1.18-.18,2.17-.27,2.98-.09.81-.18,1.49-.27,2.03,3.07,1.45,6.01,2.51,8.81,3.19,2.8.68,5.78,1.02,8.95,1.02,6.69,0,13.92-1.13,21.69-3.39Zm41.07-99.57c-.81-.86-1.22-1.83-1.22-2.91,0-1.17.54-2.19,1.63-3.05,1.08-.86,2.58-1.29,4.47-1.29,1.08,0,2.26.14,3.52.41,1.26.27,2.26.63,2.98,1.08l4.34-9.49c-1.45-.72-3.19-1.31-5.22-1.76-2.03-.45-3.95-.68-5.76-.68-4.52,0-8.25,1.29-11.18,3.86-2.94,2.58-4.41,5.94-4.41,10.1,0,1.9.32,3.62.95,5.15h-2.71v10.17h29.55v-10.17h-13.83c-1.27-.09-2.31-.56-3.12-1.42Zm-6.64,119.36h17.62v-100.99h-17.62v100.99Z"/>
      <path class="cls-1" d="m21.54,57.54c2.18,1.28,3.91,3.03,5.18,5.22,1.27,2.2,1.9,4.6,1.9,7.18s-.63,4.96-1.9,7.17c-1.27,2.21-3,3.97-5.2,5.28-2.2,1.31-4.63,1.97-7.27,1.97s-5.03-.65-7.21-1.95c-2.19-1.3-3.91-3.04-5.16-5.24-1.25-2.2-1.88-4.58-1.88-7.14s.63-4.96,1.9-7.17c1.27-2.21,2.99-3.97,5.18-5.28,2.18-1.31,4.6-1.97,7.25-1.97s5.02.64,7.21,1.92Zm-1.56,22.13c1.73-1.01,3.1-2.38,4.1-4.1,1-1.72,1.5-3.59,1.5-5.62s-.49-3.9-1.48-5.6c-.99-1.7-2.34-3.06-4.06-4.06-1.72-1-3.62-1.5-5.71-1.5s-3.99.51-5.71,1.52-3.08,2.38-4.08,4.1-1.5,3.6-1.5,5.62.49,3.9,1.48,5.6c.99,1.71,2.33,3.06,4.04,4.06,1.7,1,3.6,1.5,5.69,1.5s3.99-.51,5.73-1.52Zm-.28-9.53c-.45.75-1.1,1.32-1.95,1.71l3.01,4.56h-3.51l-2.2-3.97h-3.13v3.97h-3.05v-13.74h5.84c1.8,0,3.2.42,4.18,1.25.99.83,1.48,1.99,1.48,3.49,0,1.07-.23,1.98-.68,2.72Zm-7.77-.14h2.79c.87,0,1.55-.21,2.03-.64.48-.42.72-1.02.72-1.82s-.24-1.39-.72-1.8c-.48-.41-1.15-.61-2.03-.61h-2.79v4.86Z"/>
    </g>
  </g>
</svg>