<svg width="216" height="60" viewBox="0 0 216 60" fill="none" xmlns="http://www.w3.org/2000/svg">
<g clip-path="url(#clip0_159_2874)">
<path d="M47.5367 15.651L29.9587 5.66257C29.2058 5.22835 28.3542 5 27.4876 5C26.621 5 25.7694 5.22835 25.0165 5.66257L7.47146 15.6677C6.71011 16.1233 6.08083 16.774 5.647 17.5541C5.21318 18.3343 4.99013 19.2164 5.00033 20.1116V20.4701C4.99649 27.2668 6.77015 33.9434 10.1411 39.8215C13.512 45.6996 18.3601 50.5698 24.1928 53.9372L24.9506 54.3708C25.7103 54.7838 26.5593 55 27.4217 55C28.2841 55 29.1331 54.7838 29.8928 54.3708L30.6424 53.9372C36.5088 50.5904 41.392 45.727 44.7929 39.844C48.1939 33.9611 49.9907 27.2696 49.9996 20.4535V20.0949C50.0107 19.2006 49.7888 18.319 49.3565 17.5389C48.9242 16.7588 48.2965 16.1077 47.5367 15.651Z" fill="white"/>
<path d="M51.6668 12.7812L30.3159 0.795085C29.4013 0.274014 28.3669 0 27.3143 0C26.2618 0 25.2274 0.274014 24.3128 0.795085L3.00194 12.8012C2.07717 13.348 1.31282 14.1288 0.785875 15.065C0.258934 16.0012 -0.0119859 17.0597 0.000406852 18.1339V18.5642C-0.00426137 26.7201 2.15009 34.732 6.24457 41.7858C10.339 48.8395 16.2277 54.6838 23.3123 58.7247L24.2328 59.2449C25.1556 59.7406 26.1868 60 27.2343 60C28.2818 60 29.313 59.7406 30.2358 59.2449L31.1463 58.7247C38.2718 54.7085 44.2031 48.8724 48.3341 41.8129C52.465 34.7533 54.6475 26.7235 54.6583 18.5441V18.1139C54.6717 17.0407 54.4023 15.9828 53.8772 15.0467C53.352 14.1106 52.5897 13.3292 51.6668 12.7812ZM32.1368 10.1799C32.1747 10.076 32.2328 9.98054 32.3077 9.89912C32.3826 9.81769 32.4728 9.75185 32.5732 9.70538C32.6736 9.6589 32.7822 9.6327 32.8927 9.62828C33.0033 9.62386 33.1136 9.64131 33.2174 9.67962C36.1158 10.752 38.6728 12.5834 40.6211 14.9823C40.7603 15.1562 40.8248 15.3782 40.8004 15.5995C40.776 15.8209 40.6647 16.0235 40.4911 16.1629C40.3432 16.2885 40.1548 16.356 39.9608 16.353C39.8364 16.3514 39.7139 16.3228 39.6016 16.2693C39.4893 16.2158 39.39 16.1385 39.3105 16.0429C37.557 13.8705 35.2472 12.2142 32.6271 11.2504C32.4214 11.1718 32.2548 11.0156 32.1631 10.8154C32.0714 10.6152 32.062 10.387 32.1368 10.1799ZM40.5511 22.5862C40.5984 22.7954 40.5648 23.0148 40.4572 23.2003C40.3496 23.3858 40.1759 23.5239 39.9708 23.5867H39.7407C39.5558 23.5883 39.3757 23.5281 39.2289 23.4157C39.0822 23.3034 38.977 23.1453 38.9303 22.9664C38.3829 21.1177 37.2158 19.5138 35.6252 18.4243C34.0346 17.3347 32.1174 16.8259 30.1958 16.9833H29.7556C29.5327 17.0019 29.3116 16.9312 29.1408 16.7867C28.9701 16.6422 28.8637 16.4359 28.8451 16.213C28.8266 15.9901 28.8973 15.7689 29.0418 15.5982C29.1862 15.4274 29.3926 15.3211 29.6155 15.3025H30.0558C32.3775 15.1163 34.6919 15.7403 36.6054 17.0682C38.5189 18.3962 39.9132 20.3461 40.5511 22.5862ZM29.1653 21.8058C28.1949 21.8032 27.265 21.4165 26.5789 20.7304C25.8927 20.0442 25.5061 19.1143 25.5034 18.1439V14.5721C25.5261 14.3637 25.625 14.1711 25.781 14.0311C25.937 13.8912 26.1393 13.8138 26.3489 13.8138C26.5585 13.8138 26.7607 13.8912 26.9167 14.0311C27.0727 14.1711 27.1716 14.3637 27.1943 14.5721V18.1439C27.1943 18.6746 27.4051 19.1836 27.7804 19.5589C28.1556 19.9341 28.6646 20.145 29.1953 20.145C31.1909 20.1476 33.1041 20.9408 34.5161 22.351C35.9281 23.7611 36.7239 25.6733 36.7292 27.6688V31.6208C36.7292 31.8437 36.6406 32.0575 36.483 32.2151C36.3254 32.3727 36.1116 32.4612 35.8887 32.4612C35.6658 32.4612 35.4521 32.3727 35.2945 32.2151C35.1368 32.0575 35.0483 31.8437 35.0483 31.6208V27.6488C35.047 26.8785 34.8936 26.116 34.597 25.4051C34.3004 24.6941 33.8664 24.0488 33.3199 23.5059C32.7733 22.9631 32.125 22.5335 31.412 22.2417C30.6991 21.95 29.9356 21.8019 29.1653 21.8058ZM30.6461 26.8884C30.3674 26.8884 30.1002 26.7777 29.9032 26.5807C29.7062 26.3837 29.5955 26.1165 29.5955 25.8379C29.5955 25.5592 29.7062 25.292 29.9032 25.095C30.1002 24.898 30.3674 24.7873 30.6461 24.7873C30.9247 24.7873 31.1919 24.898 31.3889 25.095C31.5859 25.292 31.6966 25.5592 31.6966 25.8379C31.6966 26.1165 31.5859 26.3837 31.3889 26.5807C31.1919 26.7777 30.9247 26.8884 30.6461 26.8884ZM29.6455 11.7107C29.9078 11.7362 30.1511 11.8585 30.3281 12.0536C30.5051 12.2487 30.6032 12.5027 30.6032 12.7662C30.6032 13.0297 30.5051 13.2837 30.3281 13.4788C30.1511 13.6739 29.9078 13.7962 29.6455 13.8217C29.3835 13.7917 29.142 13.665 28.9683 13.4664C28.7946 13.2679 28.7011 13.0118 28.7061 12.748C28.7111 12.4843 28.8142 12.2318 28.9953 12.04C29.1764 11.8482 29.4225 11.7308 29.6856 11.7107H29.6455ZM18.83 16.5731C18.5514 16.5731 18.2842 16.4625 18.0872 16.2654C17.8902 16.0684 17.7795 15.8012 17.7795 15.5226C17.7795 15.244 17.8902 14.9768 18.0872 14.7798C18.2842 14.5827 18.5514 14.4721 18.83 14.4721C19.1086 14.4721 19.3758 14.5827 19.5729 14.7798C19.7699 14.9768 19.8806 15.244 19.8806 15.5226C19.8806 15.8012 19.7699 16.0684 19.5729 16.2654C19.3758 16.4625 19.1086 16.5731 18.83 16.5731ZM10.2056 28.8694C10.2056 28.8694 10.2056 28.8194 10.2056 28.7994V28.5993V25.7178C10.2077 22.8331 10.9434 19.9963 12.3436 17.4743C13.7438 14.9522 15.7624 12.8276 18.2097 11.3004C18.3968 11.18 18.6241 11.1386 18.8417 11.1855C19.0593 11.2324 19.2494 11.3637 19.3703 11.5506C19.4904 11.7405 19.5304 11.9702 19.4817 12.1895C19.4329 12.4089 19.2994 12.6 19.1102 12.7212C15.75 14.8457 13.341 18.1867 12.3867 22.0459C13.5664 20.4031 15.1569 19.0989 16.9991 18.264C17.1003 18.2187 17.2094 18.1937 17.3202 18.1906C17.431 18.1874 17.5413 18.2061 17.6449 18.2456C17.7485 18.2851 17.8433 18.3446 17.9239 18.4207C18.0045 18.4968 18.0693 18.588 18.1147 18.6892C18.16 18.7904 18.1849 18.8995 18.1881 19.0103C18.1913 19.1211 18.1726 19.2315 18.1331 19.3351C18.0936 19.4387 18.0341 19.5335 17.958 19.6141C17.8819 19.6946 17.7906 19.7595 17.6894 19.8048C15.9899 20.5703 14.5435 21.8039 13.5194 23.3613C12.4953 24.9187 11.9359 26.7356 11.9065 28.5993V28.7293C11.9065 28.9595 11.9065 29.1996 11.9065 29.4297V29.6098C11.9203 29.8322 11.8463 30.0512 11.7004 30.2195C11.5544 30.3879 11.3482 30.4923 11.1261 30.5103H11.0661C10.8532 30.5108 10.648 30.4305 10.492 30.2857C10.336 30.1408 10.2408 29.9422 10.2256 29.7299V29.5498C10.2056 29.3196 10.2056 29.0895 10.2056 28.8694ZM13.7374 42.4363C13.2253 42.3377 12.7461 42.112 12.344 41.7798C11.9419 41.4476 11.6298 41.0197 11.4362 40.5354C10.638 38.537 10.2304 36.4041 10.2356 34.2522C10.2356 34.0293 10.3242 33.8155 10.4818 33.6579C10.6394 33.5003 10.8532 33.4117 11.0761 33.4117C11.299 33.4117 11.5127 33.5003 11.6703 33.6579C11.8279 33.8155 11.9165 34.0293 11.9165 34.2522C11.9165 34.7724 11.9165 35.2527 11.9965 35.803C12.2581 35.6926 12.4811 35.5074 12.6378 35.2706C12.7944 35.0339 12.8776 34.7561 12.877 34.4723V32.7214C12.8813 30.6258 13.4386 28.5685 14.4927 26.7572C15.5467 24.946 17.0601 23.4451 18.88 22.4061C19.8155 21.8672 20.5927 21.0917 21.1336 20.1574C21.6745 19.2231 21.96 18.163 21.9616 17.0834V13.8918C21.9613 12.5149 22.5006 11.1927 23.4639 10.2089C24.4272 9.22502 25.7377 8.65788 27.1142 8.62908H27.3143C27.5372 8.62908 27.751 8.71763 27.9086 8.87524C28.0662 9.03285 28.1548 9.24662 28.1548 9.46951C28.1548 9.69241 28.0662 9.90618 27.9086 10.0638C27.751 10.2214 27.5372 10.3099 27.3143 10.3099H27.1142C26.18 10.3334 25.2919 10.7212 24.6395 11.3903C23.9872 12.0595 23.6222 12.9572 23.6225 13.8918V17.0834C23.6221 18.4588 23.2582 19.8096 22.5677 20.9991C21.8772 22.1886 20.8846 23.1745 19.6905 23.8569C18.133 24.7549 16.839 26.0466 15.9381 27.6024C15.0373 29.1582 14.5613 30.9236 14.5578 32.7214V34.4723C14.5562 35.1542 14.3313 35.8167 13.9176 36.3588C13.5038 36.9008 12.924 37.2924 12.2667 37.4738C12.4459 38.3021 12.6902 39.1151 12.997 39.905C13.0826 40.1192 13.218 40.3099 13.392 40.4613C13.566 40.6127 13.7736 40.7204 13.9976 40.7755C14.2198 40.82 14.4497 40.8065 14.6652 40.7364C14.8808 40.6664 15.0746 40.542 15.2282 40.3753C16.0157 39.5309 16.4522 38.4183 16.4488 37.2637V33.4017C16.4475 32.1453 16.694 30.9009 17.1742 29.7399C17.6544 28.5788 18.3589 27.5238 19.2474 26.6354C20.1358 25.747 21.1907 25.0425 22.3518 24.5622C23.5129 24.082 24.7572 23.8355 26.0137 23.8368H27.0742C27.2971 23.8368 27.5109 23.9254 27.6685 24.083C27.8261 24.2406 27.9147 24.4544 27.9147 24.6773C27.9147 24.9002 27.8261 25.1139 27.6685 25.2715C27.5109 25.4292 27.2971 25.5177 27.0742 25.5177H26.0637C25.0285 25.5164 24.0031 25.7195 23.0466 26.1153C22.09 26.5112 21.221 27.0921 20.4895 27.8245C19.7579 28.557 19.1782 29.4268 18.7835 30.3838C18.3889 31.3409 18.1871 32.3665 18.1897 33.4017V37.2737C18.1908 38.8563 17.5899 40.3801 16.5088 41.5359C16.2314 41.8462 15.8924 42.0953 15.5135 42.2676C15.1345 42.4398 14.7239 42.5314 14.3077 42.5364C14.1146 42.5232 13.9235 42.4897 13.7374 42.4363ZM37.6796 47.719H34.9282C32.8213 47.7235 30.7603 47.1038 29.0052 45.9381C28.9725 45.9166 28.9343 45.9051 28.8952 45.9051C28.856 45.9051 28.8178 45.9166 28.7851 45.9381C28.751 45.9539 28.7224 45.9794 28.7028 46.0115C28.6832 46.0435 28.6735 46.0807 28.675 46.1182V49.62C30.1533 49.4971 31.6059 49.16 32.9872 48.6195C33.192 48.5473 33.4168 48.5572 33.6145 48.6471C33.8122 48.737 33.9674 48.9 34.0476 49.1017C34.1278 49.3035 34.1268 49.5286 34.0447 49.7296C33.9627 49.9307 33.806 50.0922 33.6076 50.1803C31.6042 50.97 29.4677 51.3674 27.3143 51.3509C25.3069 51.3484 23.3156 50.9928 21.4313 50.3004H21.3813C20.7343 50.0595 20.1027 49.7788 19.4904 49.4599C19.3849 49.4114 19.2906 49.3416 19.2134 49.2549C19.1363 49.1681 19.0779 49.0664 19.0421 48.956C19.0062 48.8456 18.9936 48.7289 19.0051 48.6134C19.0165 48.4979 19.0518 48.386 19.1086 48.2848C19.1655 48.1836 19.2427 48.0952 19.3354 48.0253C19.428 47.9554 19.5342 47.9055 19.6471 47.8786C19.7601 47.8518 19.8774 47.8487 19.9916 47.8694C20.1058 47.8902 20.2145 47.9343 20.3108 47.9992C20.731 48.2193 21.1712 48.4094 21.6114 48.5895C22.4927 47.7331 23.1923 46.7078 23.6685 45.575C24.1446 44.4421 24.3876 43.2249 24.3829 41.9961V38.0641C24.3829 37.8412 24.4714 37.6274 24.629 37.4698C24.7866 37.3122 25.0004 37.2237 25.2233 37.2237C25.4462 37.2237 25.6599 37.3122 25.8176 37.4698C25.9752 37.6274 26.0637 37.8412 26.0637 38.0641V41.9961C26.0475 44.63 25.069 47.1672 23.3123 49.1298C24.5041 49.4515 25.7301 49.6295 26.9642 49.66V46.1082C26.9566 45.7562 27.0475 45.409 27.2266 45.1058C27.4057 44.8026 27.6659 44.5555 27.9779 44.3922C28.2899 44.2289 28.6413 44.156 28.9925 44.1816C29.3437 44.2073 29.6808 44.3305 29.9657 44.5374C31.4483 45.5209 33.1891 46.0431 34.9683 46.0382H37.7197C37.9426 46.0382 38.1563 46.1267 38.3139 46.2843C38.4715 46.4419 38.5601 46.6557 38.5601 46.8786C38.5601 47.1015 38.4715 47.3153 38.3139 47.4729C38.1563 47.6305 37.9426 47.719 37.7197 47.719H37.6796ZM25.2233 32.7114C25.5019 32.7114 25.7691 32.8221 25.9661 33.0191C26.1631 33.2161 26.2738 33.4833 26.2738 33.7619C26.2738 34.0405 26.1631 34.3077 25.9661 34.5048C25.7691 34.7018 25.5019 34.8124 25.2233 34.8124C24.9847 34.7652 24.7699 34.6367 24.6156 34.4487C24.4612 34.2608 24.3768 34.0251 24.3768 33.7819C24.3768 33.5387 24.4612 33.3031 24.6156 33.1151C24.7699 32.9272 24.9847 32.7986 25.2233 32.7514V32.7114ZM41.3915 43.8271H34.1178C32.3762 43.8271 30.7057 43.1359 29.4733 41.9053C28.2408 40.6747 27.5471 39.0053 27.5445 37.2637V33.1816C27.5445 32.8728 27.4837 32.5671 27.3655 32.2819C27.2473 31.9966 27.0741 31.7374 26.8558 31.5191C26.6375 31.3007 26.3783 31.1275 26.093 31.0094C25.8078 30.8912 25.502 30.8304 25.1933 30.8304C24.8845 30.8304 24.5788 30.8912 24.2935 31.0094C24.0082 31.1275 23.749 31.3007 23.5307 31.5191C23.3124 31.7374 23.1392 31.9966 23.021 32.2819C22.9029 32.5671 22.8421 32.8728 22.8421 33.1816V40.4053C22.8448 42.1444 22.1592 43.8139 20.9351 45.0493C19.711 46.2847 18.0478 46.9855 16.3087 46.9987C16.0858 46.9987 15.8721 46.9101 15.7145 46.7525C15.5568 46.5949 15.4683 46.3811 15.4683 46.1582C15.4683 45.9353 15.5568 45.7216 15.7145 45.564C15.8721 45.4064 16.0858 45.3178 16.3087 45.3178C17.6038 45.3125 18.8441 44.7951 19.7589 43.8784C20.6737 42.9617 21.1886 41.7203 21.1912 40.4253V33.1816C21.1912 32.1096 21.6171 31.0815 22.3751 30.3234C23.1332 29.5654 24.1613 29.1396 25.2333 29.1396C26.3053 29.1396 27.3334 29.5654 28.0915 30.3234C28.8495 31.0815 29.2753 32.1096 29.2753 33.1816V37.2637C29.278 38.5578 29.7932 39.7981 30.7083 40.7132C31.6234 41.6283 32.8637 42.1435 34.1578 42.1462H41.4316C41.6545 42.1462 41.8682 42.2347 42.0258 42.3923C42.1834 42.55 42.272 42.7637 42.272 42.9866C42.272 43.2095 42.1834 43.4233 42.0258 43.5809C41.8682 43.7385 41.6545 43.8271 41.4316 43.8271H41.3915ZM44.3931 34.2522C44.4092 36.3248 44.0464 38.383 43.3225 40.3253C43.2602 40.4843 43.1515 40.6208 43.0106 40.7172C42.8696 40.8136 42.7029 40.8652 42.5321 40.8655C42.4291 40.865 42.3272 40.8446 42.232 40.8055C42.129 40.7667 42.0348 40.7079 41.9548 40.6324C41.8748 40.5569 41.8105 40.4662 41.7659 40.3657C41.7212 40.2651 41.6969 40.1567 41.6945 40.0467C41.6921 39.9367 41.7115 39.8274 41.7517 39.725L41.8418 39.4648H35.5486C34.4482 39.4622 33.3936 39.0239 32.6155 38.2458C31.8374 37.4677 31.3991 36.4131 31.3964 35.3127V29.1696C31.3964 28.9467 31.485 28.7329 31.6426 28.5753C31.8002 28.4177 32.014 28.3291 32.2369 28.3291C32.4598 28.3291 32.6735 28.4177 32.8311 28.5753C32.9887 28.7329 33.0773 28.9467 33.0773 29.1696V35.3127C33.0799 35.9664 33.3415 36.5924 33.8046 37.0537C34.2678 37.515 34.8949 37.774 35.5486 37.774H42.322C42.4121 37.3637 42.4921 36.9435 42.5621 36.5233H39.1604C38.8172 36.5249 38.4801 36.433 38.1852 36.2576C37.8903 36.0822 37.6487 35.8298 37.4862 35.5275C37.3238 35.2253 37.2466 34.8845 37.2631 34.5417C37.2795 34.199 37.3889 33.8671 37.5796 33.5818C38.5666 32.1003 39.0923 30.3595 39.0904 28.5793V25.8379C39.0904 25.615 39.1789 25.4012 39.3365 25.2436C39.4941 25.086 39.7079 24.9974 39.9308 24.9974C40.1537 24.9974 40.3674 25.086 40.5251 25.2436C40.6827 25.4012 40.7712 25.615 40.7712 25.8379V28.5893C40.7721 30.6971 40.1489 32.7581 38.9803 34.5123C38.9588 34.545 38.9473 34.5832 38.9473 34.6224C38.9473 34.6615 38.9588 34.6997 38.9803 34.7324C38.9978 34.7673 39.0251 34.7963 39.0589 34.8159C39.0927 34.8354 39.1314 34.8447 39.1704 34.8425H42.7222C42.7222 34.6424 42.7222 34.4523 42.7222 34.2522V25.7278C42.7222 25.5049 42.8108 25.2912 42.9684 25.1335C43.126 24.9759 43.3397 24.8874 43.5626 24.8874C43.7855 24.8874 43.9993 24.9759 44.1569 25.1335C44.3145 25.2912 44.4031 25.5049 44.4031 25.7278L44.3931 34.2522Z" fill="url(#paint0_linear_159_2874)"/>
<path d="M73.06 25.26C71.7133 25.26 70.5667 24.9533 69.62 24.34C68.6867 23.7267 68.0333 22.8867 67.66 21.82L69.64 20.66C70.2 22.2333 71.36 23.02 73.12 23.02C73.9867 23.02 74.6333 22.8533 75.06 22.52C75.5 22.1733 75.72 21.7267 75.72 21.18C75.72 20.6067 75.4867 20.1733 75.02 19.88C74.5533 19.5733 73.7267 19.24 72.54 18.88C71.8733 18.68 71.3333 18.4933 70.92 18.32C70.5067 18.1467 70.0667 17.9067 69.6 17.6C69.1467 17.28 68.8067 16.8867 68.58 16.42C68.3533 15.9533 68.24 15.4067 68.24 14.78C68.24 13.54 68.68 12.56 69.56 11.84C70.44 11.1067 71.5 10.74 72.74 10.74C73.86 10.74 74.84 11.0133 75.68 11.56C76.52 12.1067 77.1667 12.86 77.62 13.82L75.68 14.94C75.0933 13.6333 74.1133 12.98 72.74 12.98C72.0733 12.98 71.54 13.14 71.14 13.46C70.74 13.7667 70.54 14.1867 70.54 14.72C70.54 15.24 70.74 15.6533 71.14 15.96C71.5533 16.2533 72.2933 16.5667 73.36 16.9C73.8933 17.0733 74.28 17.2067 74.52 17.3C74.7733 17.38 75.12 17.5133 75.56 17.7C76.0133 17.8867 76.3533 18.0733 76.58 18.26C76.8067 18.4467 77.0467 18.68 77.3 18.96C77.5667 19.24 77.7533 19.56 77.86 19.92C77.9667 20.28 78.02 20.6867 78.02 21.14C78.02 22.4067 77.56 23.4133 76.64 24.16C75.7333 24.8933 74.54 25.26 73.06 25.26ZM82.2039 22.8H88.4039V25H79.9039V11H88.3039V13.2H82.2039V16.84H87.8039V19.02H82.2039V22.8ZM97.0122 25.26C94.9055 25.26 93.1589 24.5667 91.7722 23.18C90.3855 21.78 89.6922 20.0533 89.6922 18C89.6922 15.9467 90.3855 14.2267 91.7722 12.84C93.1589 11.44 94.9055 10.74 97.0122 10.74C98.2789 10.74 99.4455 11.04 100.512 11.64C101.592 12.24 102.432 13.0533 103.032 14.08L101.032 15.24C100.659 14.5467 100.112 14 99.3922 13.6C98.6855 13.1867 97.8922 12.98 97.0122 12.98C95.5189 12.98 94.3055 13.4533 93.3722 14.4C92.4522 15.3467 91.9922 16.5467 91.9922 18C91.9922 19.4533 92.4522 20.6533 93.3722 21.6C94.3055 22.5467 95.5189 23.02 97.0122 23.02C97.8922 23.02 98.6922 22.82 99.4122 22.42C100.132 22.0067 100.672 21.4533 101.032 20.76L103.032 21.9C102.446 22.9267 101.612 23.7467 100.532 24.36C99.4655 24.96 98.2922 25.26 97.0122 25.26ZM113.923 23.94C112.936 24.82 111.663 25.26 110.103 25.26C108.543 25.26 107.27 24.82 106.283 23.94C105.296 23.0467 104.803 21.8533 104.803 20.36V11H107.103V20.22C107.103 21.0733 107.35 21.7533 107.843 22.26C108.35 22.7667 109.103 23.02 110.103 23.02C111.103 23.02 111.85 22.7667 112.343 22.26C112.85 21.7533 113.103 21.0733 113.103 20.22V11H115.403V20.36C115.403 21.8533 114.91 23.0467 113.923 23.94ZM126.028 25L123.068 19.9H120.348V25H118.048V11H123.648C124.902 11 125.962 11.44 126.828 12.32C127.708 13.1867 128.148 14.2467 128.148 15.5C128.148 16.3933 127.888 17.2133 127.368 17.96C126.862 18.6933 126.195 19.2267 125.368 19.56L128.548 25H126.028ZM120.348 13.16V17.84H123.648C124.262 17.84 124.782 17.6133 125.208 17.16C125.635 16.7067 125.848 16.1533 125.848 15.5C125.848 14.8467 125.635 14.2933 125.208 13.84C124.782 13.3867 124.262 13.16 123.648 13.16H120.348ZM130.314 11H132.614V25H130.314V11ZM144.512 11V13.2H140.572V25H138.272V13.2H134.312V11H144.512ZM156.973 11L152.093 19.44V25H149.793V19.44L144.913 11H147.533L150.953 17.2L154.353 11H156.973ZM168.638 11C169.958 11 171.058 11.44 171.938 12.32C172.831 13.2 173.278 14.2933 173.278 15.6C173.278 16.8933 172.831 17.9867 171.938 18.88C171.058 19.76 169.958 20.2 168.638 20.2H165.778V25H163.478V11H168.638ZM168.638 18.04C169.318 18.04 169.878 17.8133 170.318 17.36C170.758 16.8933 170.978 16.3067 170.978 15.6C170.978 14.8933 170.758 14.3133 170.318 13.86C169.878 13.3933 169.318 13.16 168.638 13.16H165.778V18.04H168.638ZM183.255 25L180.295 19.9H177.575V25H175.275V11H180.875C182.128 11 183.188 11.44 184.055 12.32C184.935 13.1867 185.375 14.2467 185.375 15.5C185.375 16.3933 185.115 17.2133 184.595 17.96C184.088 18.6933 183.422 19.2267 182.595 19.56L185.775 25H183.255ZM177.575 13.16V17.84H180.875C181.488 17.84 182.008 17.6133 182.435 17.16C182.862 16.7067 183.075 16.1533 183.075 15.5C183.075 14.8467 182.862 14.2933 182.435 13.84C182.008 13.3867 181.488 13.16 180.875 13.16H177.575ZM187.541 11H189.841V25H187.541V11ZM201.038 11H203.338V25H201.538L194.938 15.5V25H192.638V11H194.438L201.038 20.5V11ZM215.234 11V13.2H211.294V25H208.994V13.2H205.034V11H215.234Z" fill="white"/>
<path d="M70.8789 47.6849C69.9642 47.6849 69.1802 47.4703 68.5269 47.0409C67.8829 46.6116 67.4302 46.0236 67.1689 45.2769L68.2889 44.6329C68.6715 45.8183 69.5442 46.4109 70.9069 46.4109C71.5789 46.4109 72.0922 46.2756 72.4469 46.0049C72.8015 45.7249 72.9789 45.3563 72.9789 44.8989C72.9789 44.4323 72.8015 44.0823 72.4469 43.8489C72.0922 43.6156 71.4995 43.3683 70.6689 43.1069C70.2582 42.9763 69.9455 42.8736 69.7309 42.7989C69.5162 42.7149 69.2455 42.5936 68.9189 42.4349C68.6015 42.2669 68.3635 42.0989 68.2049 41.9309C68.0462 41.7536 67.9015 41.5249 67.7709 41.2449C67.6495 40.9649 67.5889 40.6476 67.5889 40.2929C67.5889 39.4436 67.8875 38.7716 68.4849 38.2769C69.0822 37.7729 69.8102 37.5209 70.6689 37.5209C71.4435 37.5209 72.1155 37.7169 72.6849 38.1089C73.2635 38.5009 73.6975 39.0189 73.9869 39.6629L72.8949 40.2929C72.4749 39.2849 71.7329 38.7809 70.6689 38.7809C70.1369 38.7809 69.7075 38.9116 69.3809 39.1729C69.0542 39.4343 68.8909 39.7889 68.8909 40.2369C68.8909 40.6663 69.0449 40.9929 69.3529 41.2169C69.6609 41.4409 70.1929 41.6743 70.9489 41.9169C71.2195 42.0009 71.4109 42.0616 71.5229 42.0989C71.6349 42.1363 71.8075 42.2016 72.0409 42.2949C72.2835 42.3883 72.4609 42.4629 72.5729 42.5189C72.6849 42.5749 72.8342 42.6543 73.0209 42.7569C73.2169 42.8596 73.3615 42.9576 73.4549 43.0509C73.5482 43.1443 73.6555 43.2609 73.7769 43.4009C73.9075 43.5316 74.0009 43.6669 74.0569 43.8069C74.1129 43.9469 74.1595 44.1103 74.1969 44.2969C74.2435 44.4743 74.2669 44.6656 74.2669 44.8709C74.2669 45.7296 73.9542 46.4156 73.3289 46.9289C72.7035 47.4329 71.8869 47.6849 70.8789 47.6849ZM79.2855 41.6789H77.4235V45.4729C77.4235 45.8183 77.4889 46.0656 77.6195 46.2149C77.7595 46.3549 77.9695 46.4296 78.2495 46.4389C78.5295 46.4389 78.8749 46.4296 79.2855 46.4109V47.5029C78.2215 47.6429 77.4422 47.5589 76.9475 47.2509C76.4529 46.9336 76.2055 46.3409 76.2055 45.4729V41.6789H74.8195V40.5029H76.2055V38.9069L77.4235 38.5429V40.5029H79.2855V41.6789ZM86.1681 40.5029H87.3861V47.5029H86.1681V46.2989C85.5614 47.2229 84.6794 47.6849 83.5221 47.6849C82.5421 47.6849 81.7067 47.3303 81.0161 46.6209C80.3254 45.9023 79.9801 45.0296 79.9801 44.0029C79.9801 42.9763 80.3254 42.1083 81.0161 41.3989C81.7067 40.6803 82.5421 40.3209 83.5221 40.3209C84.6794 40.3209 85.5614 40.7829 86.1681 41.7069V40.5029ZM83.6761 46.5089C84.3854 46.5089 84.9781 46.2709 85.4541 45.7949C85.9301 45.3096 86.1681 44.7123 86.1681 44.0029C86.1681 43.2936 85.9301 42.7009 85.4541 42.2249C84.9781 41.7396 84.3854 41.4969 83.6761 41.4969C82.9761 41.4969 82.3881 41.7396 81.9121 42.2249C81.4361 42.7009 81.1981 43.2936 81.1981 44.0029C81.1981 44.7123 81.4361 45.3096 81.9121 45.7949C82.3881 46.2709 82.9761 46.5089 83.6761 46.5089ZM94.1174 40.5029H95.4194L92.5634 47.9369C92.2648 48.7303 91.8448 49.3323 91.3034 49.7429C90.7714 50.1629 90.1554 50.3496 89.4554 50.3029V49.1689C90.3141 49.2343 90.9441 48.7583 91.3454 47.7409L91.4714 47.4749L88.4194 40.5029H89.7214L92.1014 45.9909L94.1174 40.5029ZM103.227 47.6849C102.312 47.6849 101.528 47.4703 100.875 47.0409C100.231 46.6116 99.7778 46.0236 99.5165 45.2769L100.637 44.6329C101.019 45.8183 101.892 46.4109 103.255 46.4109C103.927 46.4109 104.44 46.2756 104.795 46.0049C105.149 45.7249 105.327 45.3563 105.327 44.8989C105.327 44.4323 105.149 44.0823 104.795 43.8489C104.44 43.6156 103.847 43.3683 103.017 43.1069C102.606 42.9763 102.293 42.8736 102.079 42.7989C101.864 42.7149 101.593 42.5936 101.267 42.4349C100.949 42.2669 100.711 42.0989 100.553 41.9309C100.394 41.7536 100.249 41.5249 100.119 41.2449C99.9972 40.9649 99.9365 40.6476 99.9365 40.2929C99.9365 39.4436 100.235 38.7716 100.833 38.2769C101.43 37.7729 102.158 37.5209 103.017 37.5209C103.791 37.5209 104.463 37.7169 105.033 38.1089C105.611 38.5009 106.045 39.0189 106.335 39.6629L105.243 40.2929C104.823 39.2849 104.081 38.7809 103.017 38.7809C102.485 38.7809 102.055 38.9116 101.729 39.1729C101.402 39.4343 101.239 39.7889 101.239 40.2369C101.239 40.6663 101.393 40.9929 101.701 41.2169C102.009 41.4409 102.541 41.6743 103.297 41.9169C103.567 42.0009 103.759 42.0616 103.871 42.0989C103.983 42.1363 104.155 42.2016 104.389 42.2949C104.631 42.3883 104.809 42.4629 104.921 42.5189C105.033 42.5749 105.182 42.6543 105.369 42.7569C105.565 42.8596 105.709 42.9576 105.803 43.0509C105.896 43.1443 106.003 43.2609 106.125 43.4009C106.255 43.5316 106.349 43.6669 106.405 43.8069C106.461 43.9469 106.507 44.1103 106.545 44.2969C106.591 44.4743 106.615 44.6656 106.615 44.8709C106.615 45.7296 106.302 46.4156 105.677 46.9289C105.051 47.4329 104.235 47.6849 103.227 47.6849ZM113.99 40.5029H115.208V47.5029H113.99V46.2989C113.384 47.2229 112.502 47.6849 111.344 47.6849C110.364 47.6849 109.529 47.3303 108.838 46.6209C108.148 45.9023 107.802 45.0296 107.802 44.0029C107.802 42.9763 108.148 42.1083 108.838 41.3989C109.529 40.6803 110.364 40.3209 111.344 40.3209C112.502 40.3209 113.384 40.7829 113.99 41.7069V40.5029ZM111.498 46.5089C112.208 46.5089 112.8 46.2709 113.276 45.7949C113.752 45.3096 113.99 44.7123 113.99 44.0029C113.99 43.2936 113.752 42.7009 113.276 42.2249C112.8 41.7396 112.208 41.4969 111.498 41.4969C110.798 41.4969 110.21 41.7396 109.734 42.2249C109.258 42.7009 109.02 43.2936 109.02 44.0029C109.02 44.7123 109.258 45.3096 109.734 45.7949C110.21 46.2709 110.798 46.5089 111.498 46.5089ZM120.652 38.6969C119.42 38.5943 118.804 39.1263 118.804 40.2929V40.5029H120.652V41.6789H118.804V47.5029H117.586V41.6789H116.466V40.5029H117.586V40.2929C117.586 39.3503 117.847 38.6363 118.37 38.1509C118.902 37.6656 119.662 37.4556 120.652 37.5209V38.6969ZM122.05 44.5629C122.172 45.1883 122.456 45.6736 122.904 46.0189C123.362 46.3643 123.922 46.5369 124.584 46.5369C125.508 46.5369 126.18 46.1963 126.6 45.5149L127.636 46.1029C126.955 47.1576 125.928 47.6849 124.556 47.6849C123.446 47.6849 122.54 47.3396 121.84 46.6489C121.15 45.9489 120.804 45.0669 120.804 44.0029C120.804 42.9483 121.145 42.0709 121.826 41.3709C122.508 40.6709 123.39 40.3209 124.472 40.3209C125.499 40.3209 126.334 40.6849 126.978 41.4129C127.632 42.1316 127.958 42.9996 127.958 44.0169C127.958 44.1943 127.944 44.3763 127.916 44.5629H122.05ZM124.472 41.4689C123.819 41.4689 123.278 41.6556 122.848 42.0289C122.419 42.3929 122.153 42.8829 122.05 43.4989H126.726C126.624 42.8363 126.362 42.3323 125.942 41.9869C125.522 41.6416 125.032 41.4689 124.472 41.4689Z" fill="white"/>
</g>
<defs>
<linearGradient id="paint0_linear_159_2874" x1="25.8135" y1="53.5099" x2="68.2737" y2="5.94806" gradientUnits="userSpaceOnUse">
<stop stop-color="#0047BB"/>
<stop offset="1" stop-color="#4AB4FB"/>
</linearGradient>
<clipPath id="clip0_159_2874">
<rect width="216" height="60" fill="white"/>
</clipPath>
</defs>
</svg>
