<svg width="193" height="60" viewBox="0 0 193 60" fill="none" xmlns="http://www.w3.org/2000/svg">
<path d="M58.6286 41.8254C58.1598 41.6758 57.7483 41.601 57.3917 41.601C56.9952 41.601 56.6785 41.6758 56.4465 41.8254C56.2146 41.9751 56.0999 42.182 56.0999 42.4464C56.0999 42.6858 56.1797 42.8878 56.3418 43.0499C56.5039 43.212 56.7059 43.3441 56.9503 43.4464C57.1947 43.5511 57.5288 43.6633 57.9503 43.788C58.5388 43.9626 59.0201 44.1372 59.3967 44.3092C59.7732 44.4838 60.0949 44.7406 60.3593 45.0798C60.6236 45.419 60.7558 45.8678 60.7558 46.4214C60.7558 46.9751 60.6136 47.414 60.3268 47.808C60.0401 48.202 59.6485 48.5012 59.1473 48.7082C58.646 48.9152 58.0725 49.0199 57.4266 49.0199C56.7483 49.0199 56.0849 48.8928 55.4391 48.6409C54.7932 48.389 54.2296 48.0499 53.7483 47.6284L54.4441 46.212C54.883 46.6185 55.3767 46.9377 55.9229 47.1696C56.469 47.4015 56.9777 47.5187 57.4515 47.5187C57.9254 47.5187 58.2795 47.4289 58.5438 47.2519C58.8081 47.0748 58.9403 46.8304 58.9403 46.5262C58.9403 46.2768 58.8605 46.0723 58.6984 45.9102C58.5363 45.7481 58.3318 45.6185 58.0825 45.5187C57.8331 45.419 57.4939 45.3067 57.0625 45.182C56.474 45.0075 55.9952 44.8379 55.6211 44.6733C55.2495 44.5087 54.9303 44.2569 54.6635 43.9227C54.3992 43.586 54.267 43.1471 54.267 42.5985C54.267 42.0923 54.4017 41.6534 54.671 41.2743C54.9403 40.8978 55.3219 40.606 55.8131 40.399C56.3069 40.192 56.8755 40.0873 57.5214 40.0873C58.085 40.0873 58.6411 40.1696 59.1922 40.3367C59.7433 40.5012 60.2346 40.7257 60.6635 41.0075L59.9927 42.4613C59.5463 42.187 59.0874 41.9776 58.6186 41.8279L58.6286 41.8254ZM71.4465 40.2219V41.6758H66.7383V43.8254H70.9628V45.2793H66.7383V47.4663H71.5962V48.9202H65.0725V40.2219H71.4465ZM81.2321 41.9002C80.8131 41.7007 80.3892 41.601 79.9578 41.601C79.4191 41.601 78.9254 41.7307 78.479 41.985C78.0326 42.2419 77.6785 42.596 77.4241 43.0474C77.1672 43.4988 77.0401 43.995 77.0401 44.5312C77.0401 45.0673 77.1672 45.5636 77.4241 46.015C77.681 46.4663 78.0326 46.8229 78.479 47.0823C78.9254 47.3441 79.4191 47.4738 79.9578 47.4738C80.3717 47.4738 80.7882 47.3815 81.2071 47.1995C81.6261 47.0175 81.9952 46.7656 82.3194 46.4414L83.3019 47.5337C82.8456 47.9975 82.3169 48.3641 81.7109 48.6334C81.1074 48.9027 80.4939 49.0374 79.873 49.0374C79.0351 49.0374 78.2695 48.8379 77.5737 48.4414C76.878 48.0449 76.3318 47.5037 75.9328 46.8204C75.5338 46.1372 75.3368 45.3815 75.3368 44.5536C75.3368 43.7257 75.5388 42.9726 75.9453 42.2918C76.3518 41.6135 76.9029 41.0773 77.6037 40.6883C78.3044 40.2993 79.08 40.1047 79.9328 40.1047C80.5538 40.1047 81.1623 40.2294 81.7583 40.4763C82.3543 40.7257 82.863 41.0698 83.2869 41.5087L82.3169 42.7257C82.0101 42.3691 81.6485 42.0923 81.2296 41.8928L81.2321 41.9002ZM89.4889 46.9576C89.878 47.3466 90.3992 47.5411 91.055 47.5411C91.7109 47.5411 92.2246 47.3466 92.6012 46.9576C92.9777 46.5686 93.1672 46.0299 93.1672 45.3416V40.2219H94.8331V45.3416C94.8331 46.0948 94.6785 46.7531 94.3742 47.3117C94.0675 47.8703 93.6311 48.2993 93.0625 48.5985C92.4939 48.8978 91.8256 49.0449 91.055 49.0449C90.2845 49.0449 89.5987 48.8953 89.0226 48.5985C88.4465 48.2993 88.0052 47.8728 87.6984 47.3117C87.3917 46.7531 87.2396 46.0973 87.2396 45.3416V40.2219H88.9054V45.3416C88.9054 46.0299 89.0999 46.5686 89.4889 46.9576ZM104.97 48.9202L103.466 46.3491C103.399 46.3566 103.297 46.3616 103.155 46.3616H101.192V48.9202H99.5263V40.2219H103.155C104.282 40.2219 105.15 40.4838 105.763 41.005C106.377 41.5262 106.683 42.2643 106.683 43.217C106.683 43.8953 106.536 44.4763 106.242 44.9576C105.948 45.4389 105.519 45.798 104.955 46.0399L106.868 48.9227H104.968L104.97 48.9202ZM101.192 44.8953H103.155C103.783 44.8953 104.264 44.7581 104.596 44.4863C104.928 44.212 105.092 43.808 105.092 43.2693C105.092 42.7307 104.925 42.3416 104.596 42.0773C104.264 41.813 103.783 41.6808 103.155 41.6808H101.192V44.8978V44.8953ZM112.91 40.2244V48.9227H111.245V40.2244H112.91ZM123.908 40.2244V41.7032H121.2V48.9227H119.521V41.7032H116.813V40.2244H123.908ZM131.649 46.0773V48.9227H129.983V46.1397L126.741 40.2244H128.432L130.806 44.3117L133.142 40.2244H134.821L131.651 46.0773H131.649ZM150.816 41.0075C151.417 41.5287 151.716 42.2668 151.716 43.2194C151.716 44.1721 151.417 44.985 150.816 45.5362C150.215 46.0873 149.367 46.3616 148.274 46.3616H146.374V48.9202H144.708V40.2219H148.274C149.367 40.2219 150.215 40.4838 150.816 41.005V41.0075ZM149.636 44.4863C149.97 44.212 150.14 43.808 150.14 43.2693C150.14 42.7307 149.973 42.3416 149.636 42.0773C149.299 41.813 148.818 41.6808 148.187 41.6808H146.374V44.8978H148.187C148.816 44.8978 149.299 44.7606 149.636 44.4888V44.4863ZM161.272 48.9227L159.768 46.3516C159.701 46.3591 159.599 46.3641 159.457 46.3641H157.494V48.9227H155.828V40.2244H159.457C160.584 40.2244 161.452 40.4863 162.065 41.0075C162.678 41.5287 162.985 42.2668 162.985 43.2194C162.985 43.8978 162.838 44.4788 162.544 44.9601C162.25 45.4414 161.821 45.8005 161.257 46.0424L163.17 48.9252H161.269L161.272 48.9227ZM157.494 44.8978H159.457C160.085 44.8978 160.566 44.7606 160.898 44.4888C161.23 44.2145 161.394 43.8105 161.394 43.2718C161.394 42.7332 161.227 42.3441 160.898 42.0798C160.566 41.8155 160.085 41.6833 159.457 41.6833H157.494V44.9002V44.8978ZM169.212 40.2269V48.9252H167.546V40.2269H169.212ZM181.761 40.2269V48.9252H180.182L175.708 42.9352V48.9252H174.08V40.2269H175.659L180.145 46.2294V40.2269H181.761ZM192.758 40.2269V41.7057H190.05V48.9252H188.372V41.7057H185.663V40.2269H192.758Z" fill="white"/>
<path d="M19.3342 53.4215C19.3342 53.4215 19.3442 53.4339 19.3492 53.4389C19.3517 53.4265 19.3567 53.4165 19.3592 53.404H19.3417C19.3417 53.404 19.3317 53.4165 19.3342 53.419V53.4215ZM43.0076 21.2444C43.0076 21.2444 42.9801 21.227 42.9527 21.207C42.9477 21.202 42.9352 21.197 42.9253 21.1896C42.7781 21.0798 42.4564 20.8504 41.9602 20.5462C41.9103 20.5138 41.8504 20.4763 41.7956 20.4414C41.7357 20.404 41.6759 20.3641 41.611 20.3267C41.5836 20.3093 41.5512 20.2893 41.5188 20.2719C40.7432 19.808 39.6809 19.2245 38.3492 18.6185C38.2395 18.5686 38.1248 18.5212 38.01 18.4714C37.8953 18.4165 37.7806 18.3666 37.6609 18.3192C37.5412 18.2644 37.4215 18.2145 37.3018 18.1671C37.1821 18.1172 37.0574 18.0624 36.9302 18.015C36.8056 17.9601 36.6734 17.9103 36.5487 17.8629C36.4165 17.813 36.2869 17.7581 36.1547 17.7108C35.1173 17.3167 33.9776 16.9427 32.7332 16.5985C32.5412 16.5487 32.3517 16.4938 32.1547 16.4464C31.8604 16.3691 31.5662 16.2943 31.2594 16.222C31.0574 16.1721 30.8554 16.1297 30.6484 16.0848C30.4415 16.0424 30.2295 15.9975 30.02 15.9527C29.9103 15.9302 29.8081 15.9078 29.6983 15.8878C29.6061 15.8704 29.5188 15.8554 29.4265 15.8379C29.0874 15.7731 28.7457 15.7133 28.3891 15.6584C28.1696 15.626 27.9527 15.5886 27.7283 15.5611C27.6085 15.5387 27.4938 15.5237 27.3691 15.5063C27.1397 15.4788 26.9103 15.4464 26.6759 15.424C26.5711 15.4065 26.4689 15.3965 26.3642 15.3866C26.3467 15.3866 26.3367 15.3816 26.3193 15.3816C26.1771 15.3641 26.035 15.3541 25.8928 15.3367C25.7083 15.3192 25.5213 15.3043 25.3367 15.2868C25.1248 15.2694 24.9053 15.2494 24.6809 15.2369C24.5437 15.227 24.409 15.2195 24.2719 15.2095C24.0375 15.1995 23.7981 15.1871 23.5562 15.1771C23.4365 15.1721 23.3168 15.1671 23.1971 15.1596C23.1322 15.1596 23.0649 15.1596 23.0001 15.1546H22.8953C22.7432 15.1497 22.5886 15.1497 22.4415 15.1447C22.2395 15.1447 22.0375 15.1397 21.8355 15.1397C21.6335 15.1397 21.4365 15.1447 21.2345 15.1447C21.0824 15.1497 20.9302 15.1497 20.7756 15.1546H20.6709C20.6061 15.1596 20.5462 15.1596 20.4789 15.1596C20.3542 15.1646 20.2395 15.1696 20.1198 15.1771C19.8804 15.1871 19.641 15.1995 19.4041 15.2095C19.2619 15.2195 19.1248 15.227 18.9901 15.2369C18.7706 15.2469 18.5537 15.2694 18.3342 15.2868C18.1497 15.3043 17.9627 15.3192 17.7781 15.3367C17.636 15.3541 17.4938 15.3641 17.3517 15.3816C17.3417 15.3816 17.3243 15.3866 17.3143 15.3866C17.2095 15.3965 17.1023 15.409 16.9976 15.424C16.7682 15.4464 16.5337 15.4788 16.3043 15.5063C16.1846 15.5237 16.0649 15.5387 15.9452 15.5611C15.7208 15.5886 15.5038 15.626 15.2893 15.6584C14.9352 15.7133 14.5861 15.7731 14.247 15.8379C14.1547 15.8554 14.0674 15.8704 13.9751 15.8878C13.8704 15.9103 13.7632 15.9252 13.6584 15.9527C13.4465 15.9975 13.2395 16.0399 13.03 16.0848C12.823 16.1297 12.616 16.1771 12.414 16.222C12.1148 16.2918 11.813 16.3691 11.5188 16.4464C11.3218 16.4963 11.1322 16.5512 10.9402 16.5985V14.3118C10.9402 13.8803 10.9677 13.4489 11.0175 13.03C11.1871 11.606 11.6285 10.2694 12.2943 9.06487C12.414 8.84791 12.5462 8.63345 12.6759 8.42647V8.42148C12.813 8.2145 12.9552 8.0125 13.1023 7.81051C13.1796 7.71325 13.2544 7.6135 13.3317 7.52123V7.51624C13.424 7.39654 13.5238 7.28183 13.626 7.16712C13.828 6.93769 14.035 6.71325 14.2544 6.50128C14.3143 6.44642 14.3691 6.39156 14.429 6.33669C14.838 5.96013 15.2744 5.61101 15.7382 5.2943C16.0001 5.11475 16.2719 4.95016 16.5512 4.79305C16.621 4.75565 16.6983 4.71575 16.7706 4.67834C16.843 4.64093 16.9128 4.60103 16.9826 4.56363C17.1297 4.4938 17.2719 4.42647 17.414 4.36163C17.4315 4.35664 17.4415 4.35166 17.4589 4.34417C17.5238 4.31176 17.5911 4.28432 17.6559 4.25689C17.7706 4.20702 17.8854 4.15964 18.0001 4.11974C18.1148 4.07485 18.2345 4.03245 18.3492 3.99505C18.4315 3.96762 18.5188 3.94018 18.6011 3.91275C18.7532 3.86288 18.9128 3.82048 19.0649 3.78058C19.1422 3.75814 19.222 3.7357 19.2993 3.72073C19.2993 3.72073 19.3026 3.71907 19.3093 3.71575C19.3916 3.69829 19.4664 3.67834 19.5487 3.66088C19.631 3.64343 19.7133 3.62846 19.8006 3.61101C19.8704 3.60103 19.9427 3.58358 20.0125 3.5736C20.0724 3.56363 20.1372 3.55116 20.1971 3.54118C20.2569 3.53619 20.3118 3.53121 20.3716 3.51874C20.4265 3.51375 20.4814 3.50128 20.5362 3.49629C20.6061 3.49131 20.6784 3.47884 20.7482 3.47385C20.818 3.46886 20.8953 3.45639 20.9726 3.45141H21.0051C21.0649 3.44642 21.1248 3.44143 21.1846 3.44143C21.3966 3.42397 21.616 3.41899 21.833 3.41899C22.0499 3.41899 22.2644 3.42397 22.4814 3.44143C22.5412 3.44143 22.6061 3.44642 22.6659 3.45141H22.6759C22.7582 3.45639 22.8405 3.46138 22.9203 3.47385C22.9901 3.47884 23.0624 3.49131 23.1322 3.49629C23.1871 3.50128 23.242 3.51375 23.2968 3.51874C23.3517 3.52871 23.4115 3.53619 23.4664 3.54118C23.5312 3.55116 23.5911 3.56363 23.6509 3.5736C23.7282 3.58358 23.7981 3.60103 23.8704 3.61101C23.9527 3.62846 24.035 3.64343 24.1148 3.66088C24.1971 3.67834 24.2719 3.69829 24.3492 3.71575C24.3592 3.71575 24.3766 3.72073 24.3866 3.72572C24.4564 3.74318 24.5287 3.75814 24.5986 3.78058C24.7557 3.81799 24.9103 3.86288 25.0624 3.91275C25.1447 3.94018 25.232 3.96762 25.3143 3.99505C25.3916 4.02248 25.4714 4.04991 25.5487 4.07734C25.7008 4.1322 25.8529 4.19205 26.0076 4.25689C26.0724 4.28432 26.1397 4.31176 26.2046 4.34417C26.222 4.34916 26.237 4.35415 26.247 4.36163C26.3891 4.42148 26.5362 4.4938 26.6784 4.56363C26.7482 4.60103 26.8205 4.63345 26.8978 4.67834C26.9677 4.71076 27.04 4.74816 27.1098 4.79305C27.3941 4.95016 27.6659 5.11475 27.9277 5.2943C28.1896 5.47385 28.4465 5.66587 28.6908 5.86787C28.9427 6.06986 29.1771 6.27684 29.4066 6.50128C29.626 6.71325 29.838 6.93769 30.035 7.16712C30.1397 7.28183 30.237 7.39654 30.3292 7.51624C30.3292 7.51624 30.3292 7.51791 30.3292 7.52123C30.4115 7.6135 30.4814 7.71325 30.5587 7.81051C30.7058 8.0125 30.8479 8.2145 30.9851 8.42148V8.42647C31.1223 8.63345 31.247 8.84542 31.3716 9.06487C32.0325 10.2694 32.4739 11.606 32.6435 13.03C33.8928 13.3417 35.0599 13.6908 36.1347 14.0599C36.0749 10.7806 34.9128 7.76313 32.9976 5.3741C32.9278 5.28682 32.8554 5.19954 32.7781 5.11225C32.7083 5.02497 32.631 4.93769 32.5587 4.8554C32.4814 4.76811 32.4066 4.68582 32.3292 4.60353C32.1771 4.43395 32.0175 4.27186 31.8554 4.11225C31.7731 4.02996 31.6908 3.95515 31.611 3.87784C31.5287 3.80053 31.4465 3.72572 31.3592 3.64841C31.2893 3.58358 31.212 3.51624 31.1397 3.45141C31.025 3.35415 30.9053 3.2544 30.7906 3.16213C30.7258 3.10727 30.6584 3.05739 30.5936 3.01001C30.4739 2.91275 30.3542 2.82547 30.227 2.73071C30.1672 2.68582 30.1073 2.64343 30.0425 2.59854C30.0325 2.58856 30.015 2.57609 30.0001 2.56612C29.9178 2.50627 29.8355 2.45141 29.7482 2.39654C29.5362 2.2544 29.3218 2.11724 29.1048 1.99255C29.0275 1.94268 28.9527 1.90028 28.8754 1.8554C28.7507 1.78557 28.6185 1.71325 28.4888 1.64343C28.419 1.60602 28.3467 1.56612 28.2694 1.5337C28.1647 1.47385 28.0574 1.42398 27.9427 1.36911C27.8554 1.32422 27.7632 1.28183 27.6709 1.24442C27.5786 1.20203 27.4864 1.16213 27.3916 1.12472C27.2819 1.07485 27.1796 1.03245 27.0699 0.987566C27.0001 0.960135 26.9277 0.932703 26.8579 0.910259C26.7108 0.850409 26.5637 0.795546 26.4115 0.745671C26.3342 0.718239 26.2544 0.690808 26.1721 0.668364C25.8779 0.571107 25.5836 0.488813 25.2819 0.416494C25.1946 0.389062 25.1123 0.3741 25.025 0.351656C24.9103 0.324225 24.7956 0.301781 24.6809 0.274349C24.1073 0.159636 23.5238 0.0773417 22.9302 0.0349477C22.6958 0.0174914 22.4614 0.00252877 22.227 -0.00245876C22.0948 -0.00744629 21.9602 -0.00744629 21.828 -0.00744629C21.6958 -0.00744629 21.5562 -0.00744629 21.419 -0.00245876C21.1846 0.00252877 20.9552 0.0199851 20.7307 0.0349477C20.4963 0.0524041 20.2619 0.0773417 20.0275 0.104773C19.9178 0.114748 19.8031 0.132205 19.6883 0.147167C19.4539 0.184574 19.2145 0.229461 18.9801 0.271855C18.8604 0.299287 18.7457 0.321731 18.636 0.349162C18.5537 0.366619 18.4714 0.386569 18.3966 0.409013C18.1347 0.468863 17.8779 0.541182 17.621 0.620983C17.5512 0.643426 17.4789 0.66587 17.409 0.690808C17.1098 0.783077 16.8205 0.887816 16.5362 1.00253C16.444 1.03994 16.3517 1.07984 16.2644 1.11724C16.1771 1.14966 16.0898 1.19455 16.0026 1.22697C15.9053 1.27684 15.8056 1.31924 15.7083 1.36911C15.5986 1.41899 15.4888 1.47385 15.3866 1.52622C15.2943 1.57111 15.2021 1.61849 15.1148 1.66836C15.0973 1.67335 15.0824 1.67834 15.0699 1.69081C14.8729 1.79555 14.6759 1.91026 14.4864 2.02248C14.3891 2.08233 14.2893 2.13719 14.1971 2.20203C14.0998 2.26188 14.0051 2.32173 13.9128 2.38657C13.8255 2.44143 13.7382 2.50128 13.6509 2.56113C13.641 2.57111 13.6285 2.57859 13.6135 2.58856C13.5263 2.64841 13.439 2.71325 13.3517 2.78058C13.2644 2.84542 13.1721 2.91275 13.0799 2.98258C12.9926 3.0524 12.9053 3.12472 12.818 3.19455C12.7307 3.26437 12.6435 3.33669 12.5562 3.41151C12.424 3.52123 12.2993 3.63096 12.1746 3.75066C12.0499 3.86537 11.9228 3.98009 11.8031 4.09979C11.4814 4.41649 11.1696 4.74816 10.8804 5.09729C10.8105 5.18457 10.7382 5.26687 10.6684 5.35415C10.5537 5.50627 10.434 5.6534 10.3193 5.80802C10.2644 5.89031 10.2095 5.96512 10.1497 6.04243C10.0948 6.12472 10.04 6.19954 9.98511 6.28183C9.93025 6.35914 9.88037 6.43894 9.828 6.52123C9.74072 6.65839 9.65344 6.79305 9.57114 6.93021C9.52626 7.00004 9.48386 7.07235 9.44646 7.14218C9.36915 7.26687 9.29932 7.39904 9.23448 7.52871C9.16466 7.6534 9.09234 7.78557 9.0275 7.91525C8.06242 9.83545 7.52127 12.0025 7.52127 14.2918V17.6908C7.3891 17.7407 7.25942 17.7955 7.12725 17.8429C7.00256 17.8928 6.87039 17.9402 6.74571 17.995C6.62102 18.0449 6.49384 18.0998 6.37413 18.1472C6.25443 18.197 6.13473 18.2444 6.01503 18.2993C5.89533 18.3492 5.78062 18.3965 5.66591 18.4514C5.55119 18.5013 5.43648 18.5487 5.32675 18.5985C5.23448 18.6434 5.14221 18.6858 5.04745 18.7307C4.78062 18.8554 4.52875 18.9751 4.28436 19.0973C4.11977 19.1796 3.95768 19.2619 3.80306 19.3417C3.71079 19.3866 3.61852 19.4339 3.53124 19.4838C3.44396 19.5287 3.35668 19.5761 3.27438 19.621C3.19209 19.6659 3.10481 19.7083 3.03 19.7532C2.42401 20.0848 1.93274 20.3866 1.55618 20.626C1.5063 20.6584 1.45892 20.6858 1.40905 20.7182C1.25194 20.823 1.11478 20.9152 1.00506 20.9901C0.972639 21.0125 0.94022 21.0275 0.912788 21.0499C0.84795 21.0998 0.793087 21.1372 0.7482 21.1696C0.738225 21.1746 0.725756 21.1796 0.720768 21.1871C0.693337 21.2095 0.678374 21.2195 0.665905 21.2245L-0.0148926 21.7432V38.1372C-0.0148926 38.3118 -0.00990505 38.4863 -0.00491752 38.6609V38.6783C-0.00491752 38.8479 7.00159e-05 39.01 0.0125388 39.1746V39.212C0.0175264 39.3541 0.0299952 39.4963 0.0399703 39.6384C0.0399703 39.6833 0.0449578 39.7207 0.0449578 39.7581C0.0549329 39.9152 0.0723892 40.0748 0.0873518 40.232C0.0973269 40.3841 0.114783 40.5387 0.137227 40.6958C0.142215 40.7457 0.147202 40.793 0.154683 40.8429C0.164659 40.9352 0.177127 41.0225 0.19209 41.1147C0.197077 41.1846 0.209546 41.2519 0.219521 41.3217C0.246953 41.5013 0.274384 41.6808 0.306803 41.8679C0.32426 41.9826 0.34421 42.0973 0.366654 42.212C0.376629 42.2619 0.389097 42.3167 0.399072 42.3691C0.421516 42.4838 0.441467 42.5985 0.468898 42.7132C0.473885 42.7457 0.478873 42.7781 0.491342 42.8055C0.508798 42.9028 0.53623 43.0025 0.55618 43.0998C0.578624 43.2045 0.606055 43.3118 0.633486 43.4165C0.660918 43.5312 0.688349 43.6459 0.720768 43.7606C0.758175 43.9078 0.803063 44.0549 0.845457 44.202C0.850444 44.2394 0.862913 44.2719 0.872888 44.3068C0.910294 44.4315 0.950195 44.5586 0.987601 44.6833C0.997576 44.7157 1.01005 44.7482 1.02002 44.7806C1.06491 44.9277 1.11229 45.0699 1.16216 45.207C1.19957 45.3267 1.24446 45.4464 1.28685 45.5661C1.31428 45.6434 1.34172 45.7182 1.36915 45.7955C1.40157 45.8778 1.429 45.9527 1.46142 46.03C1.60356 46.3965 1.75568 46.7556 1.91528 47.1098C1.97513 47.2469 2.03997 47.3816 2.1073 47.5187C2.17713 47.6659 2.24945 47.813 2.32675 47.9601C2.41404 48.1347 2.5063 48.3043 2.59359 48.4788C2.66341 48.5985 2.73074 48.7182 2.79558 48.8454C2.87788 48.9876 2.96017 49.1297 3.04745 49.2719C3.12476 49.404 3.19957 49.5287 3.27688 49.6534C3.29932 49.6808 3.31428 49.7132 3.33673 49.7457C3.41404 49.8604 3.48386 49.9801 3.56615 50.0998C3.57114 50.1048 3.57114 50.1098 3.58361 50.1222C3.67089 50.2544 3.75817 50.3891 3.85044 50.5212L4.12975 50.9152C4.12975 50.9152 4.13473 50.9202 4.13473 50.9252C4.227 51.0574 4.31927 51.1821 4.41902 51.3068C4.42401 51.3167 4.43648 51.3292 4.44147 51.3392C4.52376 51.4439 4.60606 51.5462 4.68087 51.6509C5.00256 52.0549 5.34172 52.4539 5.69084 52.8354C6.72077 53.9651 7.86291 54.9851 9.11229 55.8803C9.13972 55.9078 9.17713 55.9302 9.20955 55.9502C9.42152 56.1023 9.64097 56.2569 9.86541 56.3965C9.97015 56.4664 10.0724 56.5337 10.1696 56.5985C10.1796 56.6035 10.1871 56.6085 10.1971 56.6085C10.3018 56.6783 10.4041 56.7407 10.5088 56.8055C10.6734 56.9103 10.8355 57.0075 11.0051 57.0998C11.0973 57.1546 11.1896 57.2095 11.2893 57.2569C11.3866 57.3118 11.4864 57.3666 11.5836 57.414C11.6709 57.4639 11.7532 57.5063 11.8405 57.5512C12.0649 57.6709 12.2943 57.7856 12.5287 57.8953C13.621 58.414 14.7657 58.8379 15.9502 59.1721C15.9876 59.1821 16.0275 59.1945 16.0699 59.2045C16.1397 59.227 16.217 59.2419 16.2893 59.2644C16.414 59.2968 16.5337 59.3292 16.6609 59.3566C16.6784 59.3616 16.6933 59.3616 16.7108 59.3666C17.818 59.6334 18.9652 59.8205 20.1322 59.9078V59.9128C20.1597 59.9128 20.1921 59.9177 20.2195 59.9177C20.3068 59.9227 20.3941 59.9277 20.4764 59.9352C20.5263 59.9402 20.5686 59.9402 20.6185 59.9452C20.6883 59.9452 20.7657 59.9502 20.8355 59.9551C20.9053 59.9551 20.9726 59.9601 21.0375 59.9601C21.1622 59.9651 21.2893 59.9701 21.409 59.9701C21.5562 59.9701 21.6983 59.9751 21.8405 59.9751C21.9826 59.9751 22.1297 59.9701 22.2719 59.9701C22.3966 59.9701 22.5163 59.9651 22.6435 59.9601C22.7083 59.9601 22.7756 59.9551 22.8455 59.9551C22.9153 59.9502 22.9926 59.9452 23.0649 59.9452C23.1148 59.9402 23.1622 59.9402 23.2071 59.9352C23.2893 59.9302 23.3766 59.9252 23.4589 59.9177C23.4913 59.9177 23.5238 59.9128 23.5512 59.9128V59.9078C24.7233 59.8205 25.8654 59.6359 26.9726 59.3666C27.1796 59.3167 27.3816 59.2694 27.5836 59.2095C27.616 59.2045 27.6484 59.1921 27.6809 59.1821C27.6983 59.1821 27.7133 59.1771 27.7307 59.1721C28.9153 58.8404 30.0599 58.414 31.1522 57.8953C31.2669 57.8404 31.3816 57.7806 31.4963 57.7257C31.7208 57.616 31.9427 57.5013 32.1622 57.3816C32.3093 57.3043 32.4514 57.2245 32.5986 57.1422C32.7906 57.0325 32.9801 56.9177 33.1721 56.803C33.2819 56.7382 33.3891 56.6709 33.4988 56.601C33.6559 56.5038 33.8155 56.399 33.9726 56.2893C34.1297 56.1846 34.2893 56.0773 34.4415 55.9676C34.4839 55.9352 34.5287 55.9078 34.5736 55.8753C35.818 54.9801 36.9627 53.9601 37.9901 52.8305C38.0674 52.7482 38.1372 52.6734 38.2095 52.5911C38.2644 52.5312 38.3193 52.4664 38.3741 52.399C38.5437 52.202 38.7133 52.005 38.8754 51.8055C38.9302 51.7357 38.9851 51.6634 39.04 51.5935C39.0824 51.5387 39.1223 51.4888 39.1597 51.4414C39.2145 51.3716 39.2694 51.2993 39.3243 51.2295C39.4016 51.1247 39.4764 51.0225 39.5537 50.9128C39.6509 50.7806 39.7457 50.6509 39.838 50.5187C39.9253 50.3866 40.0175 50.2519 40.1048 50.1197C40.1098 50.1147 40.1148 50.1023 40.1148 50.0973C40.2021 49.9601 40.2893 49.8305 40.3766 49.6933C40.4639 49.5512 40.5512 49.409 40.6335 49.2669C40.7158 49.1247 40.8031 48.9876 40.8779 48.8479C40.8779 48.8479 40.8795 48.8446 40.8829 48.8379C40.9602 48.7058 41.03 48.5761 41.1023 48.4439C41.1248 48.399 41.1447 48.3616 41.1672 48.3242C41.3043 48.0574 41.439 47.7906 41.5711 47.5162C41.636 47.3791 41.7033 47.2444 41.7632 47.1073C41.8405 46.9327 41.9153 46.7631 41.9926 46.5886C42.0524 46.4414 42.1123 46.2943 42.1721 46.1472C42.232 45.9901 42.2918 45.8354 42.3517 45.6783C42.4066 45.5212 42.4664 45.3616 42.5163 45.2045C42.5662 45.0674 42.6135 44.9252 42.6584 44.7781C42.6684 44.7606 42.6684 44.7457 42.6759 44.7282C42.7307 44.5636 42.7806 44.4065 42.823 44.2419C42.8604 44.1222 42.8928 44.0025 42.9277 43.8828C42.9502 43.813 42.9652 43.7357 42.9876 43.6584C43.0375 43.4739 43.0799 43.2868 43.1248 43.0973C43.1522 43 43.1746 42.9003 43.1896 42.803C43.1996 42.7706 43.2071 42.7432 43.212 42.7108C43.2395 42.596 43.2619 42.4813 43.2819 42.3666C43.2918 42.3118 43.3043 42.2569 43.3143 42.2095C43.3367 42.0948 43.3567 41.9801 43.3741 41.8654C43.4066 41.6808 43.434 41.4988 43.4614 41.3192C43.4714 41.2494 43.4839 41.1821 43.4888 41.1123C43.5063 41.02 43.5163 40.9327 43.5263 40.8404C43.5312 40.7906 43.5362 40.7432 43.5437 40.6933C43.5662 40.5362 43.5811 40.3816 43.5936 40.2295C43.611 40.0724 43.626 39.9128 43.636 39.7556C43.636 39.7182 43.641 39.6734 43.641 39.6359C43.6509 39.4938 43.6634 39.3517 43.6684 39.2095V39.1721C43.6784 39.0075 43.6859 38.8454 43.6908 38.6758V38.6584C43.6908 38.4838 43.6958 38.3093 43.6958 38.1347V21.7407L43.015 21.222L43.0076 21.2444ZM40.2694 38.1571C40.2694 38.3367 40.2694 38.5113 40.2644 38.6908C40.2594 38.8155 40.2544 38.9352 40.247 39.0624C40.247 39.1073 40.242 39.1546 40.242 39.1995C40.237 39.3242 40.2245 39.4389 40.2145 39.5586C40.2145 39.5911 40.2095 39.6235 40.2095 39.6509C40.1996 39.7831 40.1871 39.9128 40.1721 40.0449C40.1721 40.0773 40.1672 40.1048 40.1672 40.1372C40.1572 40.2519 40.1397 40.3616 40.1297 40.4763C40.1248 40.4988 40.1248 40.5212 40.1198 40.5362C40.1098 40.6185 40.0973 40.7008 40.0874 40.7756C40.0824 40.808 40.0824 40.8404 40.0699 40.8679C40.0649 40.9452 40.0524 41.015 40.0425 41.0873C40.02 41.202 40.0051 41.3118 39.9826 41.4265C39.9726 41.4813 39.9602 41.5362 39.9502 41.5911C39.9277 41.7232 39.9003 41.8479 39.8729 41.9726C39.8081 42.3043 39.7258 42.6334 39.6385 42.9551C39.611 43.0649 39.5786 43.1746 39.5512 43.2768C39.5412 43.3142 39.5287 43.3467 39.5188 43.3816C39.4814 43.5138 39.4415 43.6434 39.3991 43.7681C39.3991 43.7781 39.3941 43.7856 39.3941 43.7955C39.3567 43.9003 39.3243 44.0075 39.2844 44.1123C39.2619 44.1896 39.2345 44.2644 39.2071 44.3417C39.1696 44.4514 39.1248 44.5536 39.0874 44.6634C39.0325 44.8055 38.9776 44.9477 38.9228 45.0823C38.9228 45.0823 38.9194 45.0881 38.9128 45.0998C38.8679 45.2145 38.8205 45.3292 38.7706 45.4439C38.7482 45.4938 38.7258 45.5412 38.7058 45.5911C38.6559 45.7058 38.6086 45.8155 38.5537 45.9227C38.5213 46 38.4888 46.0699 38.4489 46.1472C38.3841 46.2843 38.3118 46.419 38.247 46.5561C38.2046 46.6384 38.1597 46.7257 38.1148 46.808C38.0724 46.8903 38.0225 46.9726 37.9776 47.0524C37.242 48.3841 36.3467 49.611 35.3143 50.7182H35.3093C35.0749 50.9751 34.823 51.2245 34.5736 51.4714V51.5038C33.5587 52.5013 32.4066 53.3641 31.1522 54.0574C31.1248 54.0748 31.0973 54.0848 31.0699 54.0998V54.1048C30.0175 54.7108 28.9028 55.222 27.7307 55.616C27.4789 55.7033 27.2295 55.7806 26.9726 55.8554C26.5362 55.9801 26.0948 56.0898 25.646 56.1871H25.641C24.9602 56.3566 24.2669 56.4813 23.5512 56.5636C22.9951 56.6235 22.4265 56.6559 21.8479 56.6559C21.2694 56.6559 20.6958 56.6235 20.1347 56.5586C19.4539 56.4888 18.7806 56.3666 18.1273 56.2045C18.1223 56.2045 18.1173 56.2045 18.1098 56.1995C17.641 56.1023 17.1721 55.9876 16.7133 55.8554C16.626 55.828 16.5437 55.8055 16.4564 55.7781C16.3741 55.7507 16.2869 55.7232 16.2046 55.6958C16.1173 55.6684 16.035 55.6409 15.9527 55.6135C14.8679 55.2469 13.8205 54.7781 12.833 54.227C12.833 54.222 12.828 54.222 12.823 54.217C12.7307 54.1621 12.631 54.1073 12.5337 54.0524V54.0624C11.2844 53.3866 10.1322 52.5462 9.11728 51.5636C8.40905 50.8828 7.76316 50.1297 7.19708 49.3217C6.64596 48.606 6.1497 47.8429 5.7083 47.0474C5.57114 46.803 5.44147 46.5512 5.31428 46.2943C5.26441 46.1896 5.20955 46.0823 5.16217 45.9776C5.04745 45.7332 4.93274 45.4813 4.83049 45.2295C4.79808 45.1522 4.76566 45.0773 4.73822 45C4.70082 44.9028 4.66092 44.803 4.62351 44.7108C4.59608 44.6334 4.56865 44.5636 4.54122 44.4863C4.53623 44.4689 4.53124 44.4539 4.52376 44.4414C4.4689 44.2993 4.41902 44.1571 4.37164 44.01C4.36167 43.9726 4.34421 43.9277 4.33423 43.8903C4.3068 43.808 4.27937 43.7257 4.25693 43.6509C4.19708 43.4664 4.14221 43.2793 4.09234 43.0998C4.06491 43.0075 4.03748 42.9152 4.01503 42.8205C3.99259 42.7232 3.96516 42.6285 3.94521 42.5362C3.92276 42.4439 3.89533 42.3517 3.88037 42.2519C3.83798 42.0674 3.79309 41.8753 3.76067 41.6833C3.72326 41.4913 3.68336 41.3018 3.65593 41.1098C3.60606 40.8205 3.56865 40.5262 3.53623 40.232C3.51877 40.1397 3.5088 40.0399 3.50381 39.9427C3.48137 39.7457 3.4664 39.5437 3.45394 39.3492C3.44396 39.1522 3.43149 38.9502 3.4265 38.7556C3.42152 38.5536 3.41653 38.3517 3.41653 38.1497V23.5187C4.84546 22.6185 8.4689 20.601 13.7432 19.4265C13.9128 19.3891 14.0874 19.3566 14.2619 19.3167C14.4465 19.2793 14.6285 19.2469 14.813 19.207C14.9103 19.1896 15.0051 19.1746 15.0973 19.1571C15.1896 19.1347 15.2893 19.1197 15.3866 19.1023C15.6933 19.0524 15.9976 18.9975 16.3143 18.9551H16.3193C16.5387 18.9227 16.7607 18.8903 16.9901 18.8629C17.2195 18.8305 17.4489 18.803 17.6834 18.7806C18.1796 18.7257 18.6883 18.6758 19.1996 18.6434C20.0549 18.5836 20.9352 18.5512 21.8405 18.5512C22.7457 18.5512 23.631 18.5836 24.4814 18.6434C25.0001 18.6758 25.5063 18.7257 26.0026 18.7806C26.232 18.803 26.4614 18.8305 26.6908 18.8629C26.9203 18.8903 27.1447 18.9227 27.3667 18.9551C27.6834 19 27.9951 19.0474 28.2993 19.1023C28.3916 19.1197 28.4913 19.1347 28.5836 19.1571C28.6809 19.1746 28.7756 19.1896 28.8679 19.207C29.0524 19.2444 29.2395 19.2768 29.419 19.3167C29.5936 19.3541 29.7682 19.3866 29.9377 19.4265C35.2195 20.5985 38.8355 22.6185 40.2644 23.5187V38.1497L40.2694 38.1571ZM34.5736 51.4689V51.5013C34.8305 51.2494 35.0749 50.9876 35.3118 50.7182C35.0724 50.9751 34.8255 51.2245 34.5736 51.4689ZM35.3816 30.1945C35.1322 30.1945 34.8829 30.0998 34.6933 29.9103C22.3492 17.5811 10.2095 28.0674 9.70082 28.5187C9.29683 28.8753 8.68087 28.8404 8.32426 28.4364C7.96765 28.0349 8.00256 27.419 8.40406 27.0599C8.54122 26.9377 22.414 14.8878 36.0724 28.5287C36.4539 28.9103 36.4539 29.5262 36.0724 29.9078C35.8829 30.0998 35.631 30.1945 35.3816 30.1945ZM34.9427 35.8629C34.6036 35.8629 34.2719 35.6858 34.0923 35.3691C31.4539 30.7257 27.5886 27.8454 23.2071 27.2644C18.5213 26.6384 13.5811 28.6858 9.28685 33.02C8.9078 33.404 8.28935 33.4065 7.9078 33.0275C7.52625 32.6484 7.52127 32.03 7.90032 31.6484C12.6335 26.8704 18.1572 24.626 23.4614 25.3317C28.4639 25.995 32.8405 29.2195 35.7856 34.4065C36.0524 34.8753 35.8879 35.4714 35.419 35.7357C35.2669 35.823 35.1023 35.8629 34.9377 35.8629H34.9427ZM32.6584 46.3142C32.5936 46.3142 32.5287 46.3093 32.4639 46.2943C31.9352 46.1871 31.5961 45.6709 31.7033 45.1447C32.4514 41.4664 31.9228 38.3267 30.1297 35.818C28.2943 33.2444 25.1497 31.4963 21.5038 31.0175C15.4689 30.2344 9.13723 37.8978 9.07488 37.9751C8.73324 38.3916 8.11977 38.4564 7.70331 38.1147C7.28685 37.7756 7.22201 37.1621 7.56117 36.7432C7.84546 36.3916 14.626 28.1397 21.7582 29.0798C25.9402 29.6285 29.5711 31.6709 31.7208 34.6808C33.8105 37.606 34.4664 41.3591 33.6185 45.5312C33.5238 45.9926 33.1173 46.3118 32.6634 46.3118L32.6584 46.3142ZM21.4016 54.7656C21.1322 54.7656 20.8604 54.6534 20.6634 54.429C20.3268 54.0424 20.3841 53.4464 20.7357 53.0724L26.4365 47.005C27.621 45.6185 28.3317 43.9676 28.4041 42.3841C28.5238 39.3591 26.9701 36.7856 24.247 35.4988C21.2869 34.1023 17.7632 34.6409 15.2669 36.8679C15.247 36.8878 14.7831 37.3417 9.98012 42.0399C9.59608 42.4165 8.97264 42.414 8.59608 42.0275C8.21952 41.6434 8.227 41.025 8.61104 40.6484L13.9278 35.4464C17.045 32.6634 21.4066 32.0025 25.0774 33.7357C28.5312 35.3666 30.5038 38.631 30.3517 42.4689C30.232 45.0574 28.9452 47.0748 27.8854 48.3093L22.1098 54.4589C21.9178 54.6634 21.6584 54.7656 21.3991 54.7656H21.4016ZM18.3542 53.0848C18.1173 53.0848 17.8804 53 17.6933 52.8255C17.2968 52.4589 17.2719 51.8429 17.6385 51.4464L23.636 44.9502C24.0998 44.4065 24.6933 43.4888 24.7457 42.3517C24.8031 40.5911 23.8155 38.9676 22.3417 38.414C20.7482 37.7207 18.6285 38.0848 17.3492 39.2444L11.2071 45.5761C10.833 45.9626 10.2145 45.9726 9.828 45.5985C9.44147 45.2245 9.43149 44.606 9.80556 44.2195L15.9677 37.8654C15.9801 37.8529 15.9926 37.8379 16.0076 37.8255C17.8455 36.1347 20.818 35.621 23.0724 36.606C25.2694 37.429 26.7781 39.8305 26.6933 42.429C26.631 43.7806 26.0774 45.0973 25.0898 46.2469L19.0699 52.7681C18.8779 52.9751 18.616 53.0823 18.3517 53.0823L18.3542 53.0848ZM16.0549 51.1472C15.818 51.1472 15.5811 51.0624 15.3941 50.8903C14.9976 50.5262 14.9726 49.9078 15.3367 49.5113L21.015 43.3367C21.2295 43.1098 21.3367 42.8255 21.3292 42.5262C21.3218 42.227 21.1971 41.9502 20.9801 41.7457C20.7632 41.5412 20.4963 41.429 20.1796 41.4414C19.8804 41.4489 19.6036 41.5736 19.3991 41.7906L13.6085 48.0848C13.2445 48.4813 12.626 48.5063 12.2295 48.1422C11.833 47.7781 11.8081 47.1596 12.1721 46.7631L17.9726 40.4614C18.5437 39.8554 19.3068 39.5137 20.1273 39.4913C20.9452 39.4788 21.7258 39.7656 22.3218 40.3292C22.9178 40.8928 23.2594 41.6534 23.2819 42.4739C23.3043 43.2943 23.0076 44.0723 22.444 44.6684L16.7756 50.833C16.5836 51.0424 16.3193 51.1472 16.0574 51.1472H16.0549Z" fill="url(#paint0_linear_609_3392)"/>
<path d="M105.18 36.3217V36.3516H105.155V36.3217H105.18ZM190.955 33.389C190.439 33.389 190.007 33.5636 189.668 33.9127C189.327 34.2619 189.16 34.7033 189.16 35.2394C189.16 35.7756 189.329 36.222 189.668 36.5786C190.007 36.9352 190.436 37.1147 190.955 37.1147C191.474 37.1147 191.903 36.9352 192.242 36.5786C192.581 36.222 192.751 35.7756 192.751 35.2394C192.751 34.7033 192.579 34.2594 192.242 33.9127C191.9 33.5636 191.474 33.389 190.955 33.389ZM123.247 15.6259C123.716 15.6259 124.11 15.4639 124.416 15.1422C124.726 14.8155 124.878 14.409 124.878 13.9252C124.878 13.4414 124.726 13.0349 124.416 12.7232C124.107 12.4065 123.716 12.2469 123.247 12.2469C122.778 12.2469 122.389 12.404 122.08 12.7232C121.773 13.0349 121.618 13.4414 121.618 13.9252C121.618 14.409 121.773 14.8155 122.08 15.1422C122.389 15.4639 122.773 15.6259 123.247 15.6259ZM127.484 15.6259C127.953 15.6259 128.342 15.4639 128.653 15.1422C128.963 14.8155 129.115 14.409 129.115 13.9252C129.115 13.4414 128.96 13.0349 128.653 12.7232C128.342 12.4065 127.953 12.2469 127.484 12.2469C127.015 12.2469 126.626 12.404 126.319 12.7232C126.01 13.0349 125.858 13.4414 125.858 13.9252C125.858 14.409 126.012 14.8155 126.319 15.1422C126.626 15.4639 127.012 15.6259 127.484 15.6259ZM145.593 27.6509C145.583 27.389 145.479 27.1471 145.287 26.9676C145.105 26.793 144.86 26.7008 144.601 26.7008H144.584C144.322 26.7082 144.077 26.818 143.895 27.01L142.224 28.8254C142.16 28.9003 142.122 28.995 142.127 29.0948C142.132 29.197 142.175 29.2893 142.249 29.3566C142.324 29.424 142.421 29.4589 142.519 29.4564C142.621 29.4514 142.713 29.409 142.78 29.3342L144.449 27.5237C144.489 27.4788 144.546 27.4539 144.611 27.4514C144.673 27.4514 144.726 27.4688 144.771 27.5137C144.813 27.5561 144.84 27.611 144.843 27.6733C144.843 27.7357 144.82 27.793 144.776 27.8404L143.142 29.616C143.072 29.6908 143.037 29.788 143.04 29.8853C143.045 29.9875 143.087 30.0798 143.162 30.1471C143.232 30.2095 143.322 30.2469 143.416 30.2469C143.521 30.2469 143.621 30.2045 143.693 30.1247L145.324 28.3491C145.504 28.1596 145.598 27.9102 145.591 27.6484L145.593 27.6509ZM192.756 18.5985V31.6334H164.037C162.406 31.6334 161.112 31.2469 160.147 30.4788C159.272 31.2469 157.975 31.6334 156.259 31.6334H154.733C153.691 31.6334 152.384 31.5811 151.554 31.2519C151.544 31.2619 151.536 31.2743 151.526 31.2868C151.496 31.3267 151.476 31.3566 151.451 31.389C151.426 31.4264 151.401 31.4589 151.372 31.4938L151.282 31.6085C151.219 31.6858 151.16 31.7556 151.1 31.8254L151.01 31.9227C150.992 31.9451 150.97 31.9676 150.953 31.9875C150.671 32.2943 150.369 32.5786 150.05 32.8379L150.025 32.8554C149.935 32.9277 149.84 32.9975 149.748 33.0673L149.658 33.1297C149.603 33.1696 149.549 33.207 149.489 33.2444C149.431 33.2818 149.374 33.3217 149.314 33.3591C149.279 33.3816 149.239 33.409 149.199 33.4314C149.127 33.4763 149.057 33.5162 148.987 33.5561C148.945 33.5786 148.893 33.6085 148.84 33.6384C148.751 33.6883 148.671 33.7282 148.591 33.7681C148.559 33.7855 148.524 33.8005 148.494 33.818L148.466 33.8304C148.072 34.0175 147.666 34.1721 147.249 34.2893L147.207 34.3067L147.157 34.3167C147.087 34.3342 147.007 34.3566 146.93 34.3741C146.534 34.4688 146.117 34.5362 145.696 34.5711H145.658C145.621 34.5761 145.583 34.5811 145.546 34.5811H145.489C145.466 34.586 145.441 34.586 145.416 34.5885L145.06 34.596L144.703 34.5885C144.678 34.5885 144.656 34.5885 144.631 34.586H144.598C144.598 34.586 144.581 34.586 144.569 34.5835C144.534 34.5835 144.499 34.5811 144.461 34.5761H144.436C144.017 34.5412 143.601 34.4763 143.199 34.3791L143.085 34.3516C143.072 34.3491 143.06 34.3417 143.047 34.3392L142.973 34.3192C142.953 34.3167 142.93 34.3092 142.91 34.3018C142.481 34.1796 142.06 34.0225 141.663 33.8354C141.586 33.798 141.501 33.7581 141.419 33.7157L141.327 33.6658C141.297 33.6509 141.264 33.6334 141.229 33.616L141.209 33.606C141.172 33.586 141.14 33.5686 141.107 33.5461C141.05 33.5162 140.987 33.4763 140.925 33.4389C140.903 33.4239 140.875 33.409 140.85 33.3915L140.761 33.3466L140.728 33.3142C140.716 33.3067 140.706 33.2968 140.691 33.2893C140.613 33.2394 140.539 33.187 140.464 33.1347L140.421 33.1023C139.968 32.7756 139.549 32.4015 139.175 31.99L138.965 31.7481C138.91 31.6858 138.86 31.621 138.81 31.5586L138.706 31.419C138.673 31.3766 138.643 31.3367 138.611 31.2968L138.454 31.0698C138.454 31.0698 138.451 31.0624 138.449 31.0599L138.411 31.02L138.374 30.9451C138.374 30.9451 138.372 30.9402 138.367 30.9352C137.84 31.4289 136.282 31.6384 135.803 31.6384H134.177C131.98 31.6384 130.464 31.005 129.643 29.7307C129 30.0374 128.304 30.2818 127.551 30.4688C126.8 30.6609 126.08 30.7531 125.377 30.7531C124.11 30.7531 122.94 30.4663 121.865 29.8828C120.795 29.2993 119.938 28.5087 119.302 27.4963C118.666 26.4838 118.352 25.3816 118.352 24.1821C118.352 22.9826 118.666 21.8604 119.302 20.8579C119.935 19.8554 120.793 19.0624 121.865 18.4738C122.94 17.8853 124.097 17.586 125.354 17.586H128.81V16.9152H131.893V26.1945C131.893 27.1422 132.075 27.808 132.426 28.1895C132.788 28.5786 133.449 28.7681 134.414 28.7681H135.8C136.369 28.7681 136.82 28.6334 137.15 28.3541C137.172 28.3367 137.219 28.2843 137.259 28.2369C137.254 28.217 137.249 28.1945 137.247 28.1746C137.244 28.1546 137.239 28.1372 137.237 28.1172L137.214 27.985C137.202 27.9152 137.192 27.8504 137.182 27.7831C137.179 27.7606 137.172 27.7307 137.172 27.7008C137.167 27.6708 137.162 27.6434 137.16 27.611L137.132 27.3566C137.127 27.3067 137.122 27.2569 137.117 27.2045C137.117 27.1945 137.117 27.1721 137.117 27.1496C137.117 27.1272 137.115 27.1072 137.112 27.0873V27.0698L137.11 26.9826C137.107 26.9252 137.105 26.8703 137.102 26.813V26.8055C137.102 26.7432 137.102 26.6808 137.102 26.6185V20.8329L137.693 20.3915C137.711 20.3766 137.731 20.3616 137.756 20.3441L137.795 20.3167C137.83 20.2943 137.878 20.2594 137.935 20.2244C137.945 20.217 137.958 20.212 137.968 20.2045L138 20.1821C138.13 20.0998 138.307 19.99 138.526 19.8728L138.633 19.813C138.651 19.8055 138.663 19.7955 138.683 19.788C138.723 19.7656 138.766 19.7432 138.81 19.7232L138.96 19.6484C139.045 19.606 139.135 19.5636 139.227 19.5187C139.264 19.5013 139.299 19.4888 139.337 19.4688L139.469 19.409C139.504 19.394 139.539 19.3791 139.574 19.3641C139.603 19.3516 139.631 19.3417 139.663 19.3267L139.721 19.3042C139.758 19.2868 139.795 19.2743 139.833 19.2569C139.878 19.2394 139.928 19.2195 139.975 19.202L140.092 19.1571C140.155 19.1322 140.347 19.0549 141.429 18.7307L141.499 18.7107C141.601 18.6833 141.701 18.6609 141.805 18.6334L142.022 18.5836C142.092 18.5661 142.162 18.5536 142.234 18.5387C142.277 18.5287 142.319 18.5212 142.364 18.5137L142.436 18.4988C142.571 18.4763 142.691 18.4539 142.81 18.4364C142.88 18.424 142.955 18.414 143.03 18.404C143.08 18.394 143.132 18.3865 143.182 18.3816C143.247 18.3716 143.329 18.3641 143.411 18.3516L143.883 18.3042C143.958 18.2993 144.027 18.2943 144.102 18.2893C144.152 18.2868 144.199 18.2818 144.247 18.2793C144.317 18.2718 144.389 18.2693 144.466 18.2668H144.489C144.526 18.2643 144.571 18.2619 144.618 18.2619L144.87 18.2569C145.022 18.2544 145.157 18.2544 145.297 18.2569H145.451H145.489H145.551C145.601 18.2594 145.646 18.2619 145.693 18.2668H145.706C145.781 18.2693 145.855 18.2718 145.93 18.2793C145.973 18.2793 146.02 18.2843 146.07 18.2893C146.145 18.2918 146.222 18.2993 146.297 18.3042L146.761 18.3516C146.843 18.3616 146.923 18.3716 147.005 18.3816C147.04 18.384 147.087 18.394 147.135 18.399C147.209 18.409 147.287 18.4215 147.364 18.4339C147.481 18.4514 147.598 18.4738 147.718 18.4938L147.925 18.5362C148 18.5511 148.075 18.5661 148.147 18.5836C148.187 18.591 148.237 18.6035 148.292 18.6135L148.349 18.6284C148.466 18.6584 148.571 18.6808 148.671 18.7082C148.733 18.7257 148.803 18.7432 148.873 18.7606C149.282 18.8753 149.683 19.005 150.067 19.1521L150.209 19.2095C150.247 19.2244 150.292 19.2394 150.337 19.2569C150.359 19.2693 150.386 19.2793 150.414 19.2893L150.584 19.3591C150.613 19.3716 150.641 19.384 150.668 19.3965L150.823 19.4663C151.224 19.6484 151.601 19.8454 151.953 20.0549L152.112 20.1496C152.254 20.2394 152.357 20.3092 152.424 20.3591L152.514 20.4215L153.06 20.8354V26.621C153.06 26.6783 153.06 26.7357 153.06 26.7905L153.065 26.8903L153.05 27.0299C153.05 27.0798 153.047 27.1247 153.042 27.1721L153.032 27.2743C153.03 27.3167 153.027 27.3566 153.022 27.3965C153.02 27.4389 153.012 27.4988 153.007 27.5536L152.997 27.601H153C152.992 27.6384 152.99 27.6783 152.982 27.7157C152.982 27.7382 152.978 27.7631 152.973 27.7855C152.965 27.8479 152.953 27.9127 152.943 27.9776C152.938 28.01 152.933 28.0449 152.925 28.0798L152.908 28.1621C152.898 28.212 152.89 28.2569 152.878 28.2993L152.868 28.3367C152.86 28.3741 152.85 28.414 152.84 28.4514C152.83 28.5037 152.818 28.5636 152.8 28.6235C153.13 28.7182 153.504 28.7681 153.913 28.7681H154.933C154.933 28.7681 154.948 28.7681 154.953 28.7681H156.032C156.997 28.7681 157.658 28.5761 158.017 28.1895C158.374 27.8055 158.554 27.1397 158.554 26.192V19.9177H161.638V26.2195C161.638 27.005 161.556 27.7132 161.396 28.3367C161.915 28.6234 162.631 28.7681 163.544 28.7681H163.571C163.91 27.0524 164.546 25.3766 165.474 23.7382C166.404 22.1023 167.658 20.7432 169.242 19.6609C170.823 18.5811 172.678 18.0399 174.808 18.0399C176.578 18.0399 178.067 18.4289 179.284 19.207C180.499 19.985 181.404 21.0374 181.992 22.3591C182.583 23.6833 182.878 25.1471 182.878 26.7556V28.7681H185.554C185.554 28.7681 186.84 28.7681 186.848 28.7681H189.688V18.6035H192.773L192.756 18.5985ZM128.828 26.8853C128.81 26.7432 128.798 26.5187 128.798 26.217V20.4514H125.342C124.623 20.4514 123.965 20.616 123.369 20.9451C122.766 21.2768 122.297 21.7282 121.948 22.3018C121.598 22.8728 121.426 23.5013 121.426 24.1771C121.426 24.8529 121.593 25.4763 121.933 26.0274C122.274 26.5811 122.751 27.0225 123.369 27.3541C123.985 27.6858 124.678 27.8529 125.449 27.8529C126.556 27.8529 127.681 27.5312 128.828 26.8853ZM150.287 22.2843C149.736 21.9826 148.79 21.5486 147.539 21.2693C147.489 21.2594 147.436 21.2469 147.386 21.2394L147.364 21.2344C147.314 21.2244 147.262 21.212 147.214 21.2045L147.032 21.1721C146.96 21.1596 146.885 21.1496 146.81 21.1347L146.743 21.1247C146.698 21.1172 146.653 21.1122 146.603 21.1072L146.541 21.0973C146.481 21.0898 146.411 21.0823 146.339 21.0748C146.184 21.0549 146.03 21.0424 145.873 21.0324C145.339 20.995 144.783 20.995 144.254 21.0324C144.095 21.0424 143.94 21.0574 143.785 21.0748C143.716 21.0823 143.643 21.0898 143.574 21.0973L143.516 21.1072C143.499 21.1072 143.484 21.1097 143.466 21.1122L142.95 21.1945L142.908 21.202C142.86 21.212 142.81 21.222 142.761 21.2319L142.658 21.2544C142.636 21.2594 142.611 21.2643 142.586 21.2693C141.332 21.5486 140.386 21.9826 139.838 22.2843V26.6135C139.838 26.6708 139.838 26.7282 139.838 26.7831C139.838 26.8404 139.843 26.8953 139.848 26.9526C139.85 27.0075 139.853 27.0599 139.86 27.1147V27.1471C139.86 27.1471 139.865 27.1696 139.868 27.1796V27.212C139.88 27.2943 139.89 27.3791 139.905 27.4589C139.913 27.5112 139.923 27.5661 139.935 27.6185C139.945 27.6758 139.953 27.7207 139.965 27.7681L139.975 27.798C139.978 27.813 139.98 27.8304 139.985 27.8479C139.992 27.8803 140.002 27.9177 140.012 27.9551C140.015 27.9726 140.022 27.99 140.025 28.005L140.035 28.0324C140.045 28.0748 140.06 28.1197 140.072 28.1646L140.092 28.2269C140.102 28.2494 140.11 28.2743 140.115 28.2968C140.125 28.3242 140.135 28.3541 140.145 28.3791L140.239 28.6235C140.269 28.6958 140.302 28.7681 140.334 28.8404C140.347 28.8653 140.362 28.8953 140.374 28.9227C140.411 28.9975 140.449 29.0723 140.489 29.1446C140.611 29.3616 140.751 29.5786 140.91 29.7855L140.933 29.813C141.087 30.0349 141.267 30.2419 141.459 30.4289C141.643 30.6085 141.845 30.7706 142.06 30.9127L142.499 31.1721C142.499 31.1721 142.519 31.1821 142.526 31.187C142.8 31.3417 143.097 31.4713 143.396 31.5736C143.411 31.5761 143.426 31.5835 143.446 31.5885L143.476 31.5985C143.496 31.6035 143.514 31.6085 143.531 31.616L143.616 31.6409C143.718 31.6708 143.823 31.6983 143.93 31.7232H143.953L144.052 31.7481C144.224 31.793 144.409 31.8254 144.593 31.8429C144.905 31.8803 145.232 31.8803 145.536 31.8429C145.733 31.823 145.925 31.788 146.112 31.7407L146.227 31.7182C146.324 31.6958 146.421 31.6683 146.521 31.6434C146.596 31.621 146.671 31.601 146.743 31.5736C146.925 31.5112 147.102 31.4389 147.279 31.3566V31.3417L147.713 31.1272L148.142 30.8604C148.269 30.7706 148.391 30.6733 148.506 30.5711L148.678 30.399C148.751 30.3292 148.82 30.2569 148.888 30.1845L148.963 30.1047C149.227 29.8105 149.456 29.4863 149.646 29.1446L149.688 29.0698C149.698 29.0499 149.706 29.0324 149.718 29.0125L149.728 28.995C149.746 28.9576 149.766 28.9227 149.783 28.8853L149.815 28.8155C149.833 28.7855 149.843 28.7581 149.853 28.7332L149.923 28.5711C149.935 28.5362 149.95 28.5062 149.96 28.4738C149.978 28.4314 149.987 28.404 149.997 28.3766L150.027 28.2943C150.032 28.2793 150.037 28.2619 150.045 28.2469L150.055 28.2145C150.067 28.1771 150.077 28.1372 150.09 28.1023L150.127 27.9701C150.15 27.8903 150.172 27.798 150.189 27.7057C150.197 27.6683 150.202 27.6409 150.209 27.611L150.219 27.5536C150.229 27.5112 150.232 27.4888 150.237 27.4589L150.259 27.3042C150.259 27.3042 150.259 27.2868 150.262 27.2793C150.264 27.2494 150.267 27.2195 150.272 27.192L150.289 27.0125C150.292 26.9826 150.294 26.9501 150.297 26.9177V26.8728C150.299 26.8404 150.299 26.8105 150.302 26.7756C150.302 26.7182 150.302 26.6708 150.302 26.6235V22.2943L150.287 22.2843ZM179.776 26.7531C179.776 24.8778 179.337 23.4314 178.461 22.4215C177.586 21.414 176.386 20.9077 174.868 20.9077C173.581 20.9077 172.364 21.2569 171.219 21.9551C170.077 22.6509 169.102 23.606 168.299 24.8105C167.494 26.0175 166.94 27.3342 166.636 28.7656H179.773V26.7531H179.776ZM145.566 22.6235C144.007 22.414 142.386 23.0723 141.005 24.4688C140.935 24.5412 140.895 24.6359 140.895 24.7357C140.895 24.8329 140.938 24.9302 141.007 25C141.077 25.0698 141.172 25.1097 141.272 25.1097C141.374 25.1097 141.466 25.0698 141.539 25C142.753 23.7731 144.147 23.192 145.466 23.3691C146.698 23.5312 147.785 24.3441 148.534 25.6559C148.598 25.7731 148.726 25.8454 148.86 25.8454C148.925 25.8454 148.99 25.8279 149.045 25.7955C149.132 25.7456 149.194 25.6658 149.222 25.5686C149.247 25.4713 149.234 25.3691 149.184 25.2818C148.322 23.7606 147.037 22.8155 145.566 22.621V22.6235ZM141.152 23.1446C140.997 23.2793 140.982 23.5212 141.12 23.6758C141.259 23.8304 141.496 23.8454 141.651 23.7057C141.795 23.5786 145.227 20.616 148.718 24.1047C148.79 24.1746 148.885 24.2145 148.985 24.2145C149.085 24.2145 149.18 24.1746 149.252 24.1047C149.396 23.9576 149.396 23.7182 149.252 23.5711C145.259 19.586 141.192 23.1097 141.152 23.1446ZM146.579 27.6459C146.601 26.8554 146.147 26.1297 145.476 25.8778C144.795 25.5786 143.898 25.7357 143.342 26.2469L141.551 28.0898C141.481 28.1621 141.444 28.2569 141.446 28.3566C141.446 28.4589 141.489 28.5511 141.561 28.621C141.631 28.6908 141.721 28.7332 141.828 28.7282C141.928 28.7282 142.022 28.6858 142.092 28.6135L143.855 26.7905C144.199 26.4813 144.771 26.3865 145.197 26.5711C145.583 26.7132 145.843 27.1446 145.828 27.611C145.813 27.9277 145.636 28.1796 145.534 28.2993L143.805 30.1696C143.663 30.3217 143.676 30.5611 143.828 30.7033C143.898 30.7656 143.987 30.803 144.082 30.803C144.187 30.803 144.289 30.7606 144.359 30.6808L146.095 28.8005C146.394 28.4514 146.561 28.0499 146.581 27.6409L146.579 27.6459ZM146.06 25.0499C144.968 24.5362 143.666 24.7357 142.741 25.5636L141.209 27.0624C141.062 27.207 141.06 27.4464 141.204 27.596C141.274 27.6658 141.372 27.7082 141.471 27.7082H141.474C141.574 27.7082 141.666 27.6708 141.738 27.601L141.815 27.5262C143.175 26.1945 143.257 26.1147 143.259 26.1147C143.95 25.4988 144.923 25.3516 145.741 25.7357C146.491 26.0898 146.918 26.798 146.885 27.6284C146.863 28.0624 146.671 28.5162 146.342 28.8978L144.701 30.6459C144.564 30.793 144.551 31.02 144.678 31.1646C144.751 31.2469 144.853 31.2943 144.963 31.2943C145.072 31.2943 145.165 31.2519 145.237 31.1746L146.903 29.399C147.219 29.0324 147.601 28.4339 147.638 27.6609C147.683 26.5162 147.092 25.5412 146.065 25.0549L146.06 25.0499ZM145.075 23.7033C142.968 23.424 140.982 25.8429 140.898 25.9451C140.835 26.0225 140.805 26.1197 140.815 26.2195C140.825 26.3217 140.873 26.409 140.953 26.4738C141.027 26.5362 141.127 26.5661 141.227 26.5561C141.327 26.5461 141.416 26.4963 141.481 26.419C141.499 26.399 143.292 24.2294 144.973 24.4514C145.997 24.586 146.88 25.0773 147.391 25.7955C147.893 26.4938 148.037 27.3741 147.83 28.4065C147.808 28.5062 147.83 28.6035 147.885 28.6883C147.94 28.7706 148.025 28.8304 148.125 28.8504C148.147 28.8554 148.175 28.8579 148.199 28.8579C148.374 28.8579 148.531 28.7307 148.566 28.5561C148.815 27.3267 148.623 26.222 148.007 25.3566C147.372 24.4688 146.302 23.8678 145.072 23.7057L145.075 23.7033ZM69.0648 21.3641L66.1072 23C66.4189 23.7107 66.6733 24.5362 66.8728 25.4788C67.0723 26.4215 67.172 27.2918 67.172 28.0873C67.172 29.212 66.9675 30.212 66.561 31.0848C66.1546 31.9576 65.571 32.6409 64.8104 33.1347C64.0498 33.6284 63.167 33.8753 62.1645 33.8753C61.162 33.8753 60.2793 33.6284 59.5187 33.1347C58.7581 32.6409 58.1745 31.9576 57.768 31.0848C57.3615 30.212 57.1571 29.222 57.1571 28.1147C57.1571 27.1297 57.2867 26.1347 57.5461 25.1297L54.4837 23.5985C53.9999 25.1721 53.7581 26.6509 53.7581 28.0349C53.7581 29.6958 54.0997 31.2095 54.783 32.5761C55.4663 33.9427 56.4438 35.0249 57.7157 35.8205C58.9875 36.616 60.4713 37.015 62.167 37.015C63.8628 37.015 65.3466 36.616 66.6184 35.8205C67.8902 35.0249 68.8678 33.9427 69.5511 32.5761C70.2344 31.2095 70.576 29.6883 70.576 28.01C70.576 26.9028 70.4413 25.7556 70.1745 24.5711C69.9052 23.3865 69.5386 22.3192 69.0723 21.3666L69.0648 21.3641ZM62.0573 19.7556C62.5935 19.7556 63.0423 19.5711 63.4064 19.197C63.7705 18.8254 63.9526 18.3616 63.9526 17.808C63.9526 17.2544 63.7755 16.7706 63.4214 16.4065C63.0673 16.0424 62.6134 15.8604 62.0598 15.8604C61.5062 15.8604 61.0773 16.0424 60.7231 16.4065C60.369 16.7706 60.192 17.2369 60.192 17.808C60.192 18.3791 60.369 18.8254 60.7231 19.197C61.0773 19.5686 61.5236 19.7556 62.0598 19.7556H62.0573ZM106.055 23.8304C106.79 25.6983 107.115 27.7407 107.027 29.9551C105.833 30.5087 104.541 30.9277 103.147 31.2145C101.756 31.4988 100.496 31.6434 99.3715 31.6434C97.6932 31.6434 96.0573 31.2793 94.4663 30.5536C93.6009 31.2793 92.5112 31.6434 91.197 31.6434H74.4588V12.3092H77.8329V28.5013H80.8703H90.783C91.3192 28.5013 91.7381 28.3716 92.0423 28.1122C92.3441 27.8529 92.5386 27.4464 92.6259 26.8928L92.7032 26.217C92.8753 24.8678 93.1221 23.6135 93.4438 22.4539C93.763 21.2943 94.3466 20.222 95.1945 19.2369C96.0423 18.2519 97.2194 17.7581 98.7231 17.7581C100.227 17.7581 101.686 18.3042 102.992 19.394C104.299 20.4838 105.319 21.9626 106.055 23.8304ZM103.551 27.8529C103.411 26.6259 103.1 25.4788 102.616 24.414C102.132 23.3491 101.556 22.5037 100.89 21.8703C100.224 21.2394 99.5536 20.9227 98.8803 20.9227C98.2069 20.9227 97.6783 21.2294 97.2967 21.8429C96.9152 22.4564 96.6508 23.1546 96.5062 23.9327C96.3591 24.7107 96.2244 25.6459 96.1047 26.7357C96.0872 26.9601 96.0698 27.1496 96.0523 27.3067C96.0349 27.4614 96.0174 27.591 96 27.6958C96.5885 27.9726 97.1496 28.1746 97.6857 28.3067C98.2219 28.4364 98.793 28.5013 99.399 28.5013C100.678 28.5013 102.062 28.2843 103.551 27.8529ZM111.414 8.79303C111.259 8.62844 111.18 8.4439 111.18 8.23442C111.18 8.00999 111.284 7.81547 111.491 7.65088C111.698 7.48629 111.985 7.404 112.347 7.404C112.554 7.404 112.778 7.42894 113.022 7.48131C113.264 7.53368 113.454 7.6035 113.593 7.68829L114.424 5.87283C114.147 5.73567 113.813 5.62345 113.424 5.53617C113.035 5.44889 112.666 5.40649 112.322 5.40649C111.456 5.40649 110.743 5.65338 110.182 6.14714C109.618 6.64091 109.339 7.2843 109.339 8.07981C109.339 8.4439 109.399 8.77308 109.521 9.06485H109.002V11.01H114.658V9.06485H112.012C111.771 9.04739 111.571 8.95762 111.416 8.79303H111.414ZM110.142 31.6409H113.516V12.3092H110.142V31.6409Z" fill="white"/>
<path d="M43.8205 13.5236H43.0225V13.0548H45.192V13.5236H44.394V15.5436H43.818V13.5236H43.8205Z" fill="#049894"/>
<path d="M47.768 15.5436V14.0499L47.0323 15.2818H46.773L46.0448 14.0823V15.5436H45.5037V13.0524H45.98L46.9126 14.601L47.8303 13.0524H48.3042L48.3116 15.5436H47.7705H47.768Z" fill="#049894"/>
<defs>
<linearGradient id="paint0_linear_609_3392" x1="7.0016e-05" y1="30" x2="43.6884" y2="30" gradientUnits="userSpaceOnUse">
<stop stop-color="#29295B"/>
<stop offset="1" stop-color="#029D96"/>
</linearGradient>
</defs>
</svg>
