<svg width="193" height="60" viewBox="0 0 193 60" fill="none" xmlns="http://www.w3.org/2000/svg">
<path d="M5.1093 41.8254C4.64048 41.6758 4.229 41.601 3.8724 41.601C3.47589 41.601 3.15918 41.6758 2.92726 41.8254C2.69534 41.9751 2.58063 42.182 2.58063 42.4464C2.58063 42.6858 2.66042 42.8878 2.82252 43.0499C2.98461 43.212 3.18661 43.3441 3.431 43.4464C3.67539 43.5511 4.00955 43.6633 4.431 43.788C5.01953 43.9626 5.50082 44.1372 5.87738 44.3092C6.25394 44.4838 6.57564 44.7406 6.83998 45.0798C7.10431 45.419 7.23649 45.8678 7.23649 46.4214C7.23649 46.9751 7.09434 47.414 6.80756 47.808C6.52078 48.202 6.12925 48.5012 5.62801 48.7082C5.12676 48.9152 4.55319 49.0199 3.90731 49.0199C3.229 49.0199 2.56566 48.8928 1.91978 48.6409C1.27389 48.389 0.710301 48.0499 0.229004 47.6284L0.924767 46.212C1.36367 46.6185 1.85743 46.9377 2.40357 47.1696C2.9497 47.4015 3.45843 47.5187 3.93225 47.5187C4.40606 47.5187 4.76018 47.4289 5.02451 47.2519C5.28885 47.0748 5.42103 46.8304 5.42103 46.5262C5.42103 46.2768 5.34123 46.0723 5.17913 45.9102C5.01704 45.7481 4.81255 45.6185 4.56317 45.5187C4.31379 45.419 3.97464 45.3067 3.54322 45.182C2.95469 45.0075 2.47589 44.8379 2.10182 44.6733C1.73025 44.5087 1.41105 44.2569 1.14422 43.9227C0.879876 43.586 0.747708 43.1471 0.747708 42.5985C0.747708 42.0923 0.88237 41.6534 1.1517 41.2743C1.42102 40.8978 1.80257 40.606 2.29384 40.399C2.78761 40.192 3.35619 40.0873 4.00207 40.0873C4.56566 40.0873 5.12177 40.1696 5.67289 40.3367C6.22402 40.5012 6.71529 40.7257 7.14422 41.0075L6.4734 42.4613C6.02701 42.187 5.56816 41.9776 5.09933 41.8279L5.1093 41.8254ZM17.9273 40.2219V41.6758H13.219V43.8254H17.4435V45.2793H13.219V47.4663H18.0769V48.9202H11.5532V40.2219H17.9273ZM27.7128 41.9002C27.2938 41.7007 26.8699 41.601 26.4385 41.601C25.8998 41.601 25.4061 41.7307 24.9597 41.985C24.5133 42.2419 24.1592 42.596 23.9048 43.0474C23.648 43.4988 23.5208 43.995 23.5208 44.5312C23.5208 45.0673 23.648 45.5636 23.9048 46.015C24.1617 46.4663 24.5133 46.8229 24.9597 47.0823C25.4061 47.3441 25.8998 47.4738 26.4385 47.4738C26.8524 47.4738 27.2689 47.3815 27.6879 47.1995C28.1068 47.0175 28.4759 46.7656 28.8001 46.4414L29.7826 47.5337C29.3263 47.9975 28.7976 48.3641 28.1916 48.6334C27.5881 48.9027 26.9746 49.0374 26.3537 49.0374C25.5158 49.0374 24.7502 48.8379 24.0544 48.4414C23.3587 48.0449 22.8125 47.5037 22.4135 46.8204C22.0145 46.1372 21.8175 45.3815 21.8175 44.5536C21.8175 43.7257 22.0195 42.9726 22.426 42.2918C22.8325 41.6135 23.3836 41.0773 24.0844 40.6883C24.7851 40.2993 25.5607 40.1047 26.4135 40.1047C27.0345 40.1047 27.643 40.2294 28.239 40.4763C28.835 40.7257 29.3437 41.0698 29.7677 41.5087L28.7976 42.7257C28.4908 42.3691 28.1293 42.0923 27.7103 41.8928L27.7128 41.9002ZM35.9697 46.9576C36.3587 47.3466 36.8799 47.5411 37.5357 47.5411C38.1916 47.5411 38.7053 47.3466 39.0819 46.9576C39.4584 46.5686 39.648 46.0299 39.648 45.3416V40.2219H41.3138V45.3416C41.3138 46.0948 41.1592 46.7531 40.8549 47.3117C40.5482 47.8703 40.1118 48.2993 39.5432 48.5985C38.9746 48.8978 38.3063 49.0449 37.5357 49.0449C36.7652 49.0449 36.0794 48.8953 35.5033 48.5985C34.9273 48.2993 34.4859 47.8728 34.1791 47.3117C33.8724 46.7531 33.7203 46.0973 33.7203 45.3416V40.2219H35.3861V45.3416C35.3861 46.0299 35.5806 46.5686 35.9697 46.9576ZM51.451 48.9202L49.9472 46.3491C49.8799 46.3566 49.7776 46.3616 49.6355 46.3616H47.6729V48.9202H46.0071V40.2219H49.6355C50.7627 40.2219 51.6305 40.4838 52.244 41.005C52.8574 41.5262 53.1642 42.2643 53.1642 43.217C53.1642 43.8953 53.017 44.4763 52.7228 44.9576C52.4285 45.4389 51.9996 45.798 51.436 46.0399L53.3487 48.9227H51.4485L51.451 48.9202ZM47.6729 44.8953H49.6355C50.2639 44.8953 50.7452 44.7581 51.0769 44.4863C51.4086 44.212 51.5731 43.808 51.5731 43.2693C51.5731 42.7307 51.4061 42.3416 51.0769 42.0773C50.7452 41.813 50.2639 41.6808 49.6355 41.6808H47.6729V44.8978V44.8953ZM59.3911 40.2244V48.9227H57.7253V40.2244H59.3911ZM70.3886 40.2244V41.7032H67.6804V48.9227H66.0021V41.7032H63.2938V40.2244H70.3886ZM78.1292 46.0773V48.9227H76.4634V46.1397L73.2215 40.2244H74.9123L77.2864 44.3117L79.623 40.2244H81.3013L78.1317 46.0773H78.1292ZM97.2963 41.0075C97.8973 41.5287 98.1966 42.2668 98.1966 43.2194C98.1966 44.1721 97.8973 44.985 97.2963 45.5362C96.6953 46.0873 95.8475 46.3616 94.7552 46.3616H92.8549V48.9202H91.1891V40.2219H94.7552C95.8475 40.2219 96.6953 40.4838 97.2963 41.005V41.0075ZM96.1168 44.4863C96.4509 44.212 96.6205 43.808 96.6205 43.2693C96.6205 42.7307 96.4534 42.3416 96.1168 42.0773C95.7801 41.813 95.2988 41.6808 94.6679 41.6808H92.8549V44.8978H94.6679C95.2963 44.8978 95.7801 44.7606 96.1168 44.4888V44.4863ZM107.753 48.9227L106.249 46.3516C106.182 46.3591 106.079 46.3641 105.937 46.3641H103.975V48.9227H102.309V40.2244H105.937C107.064 40.2244 107.932 40.4863 108.546 41.0075C109.159 41.5287 109.466 42.2668 109.466 43.2194C109.466 43.8978 109.319 44.4788 109.025 44.9601C108.73 45.4414 108.301 45.8005 107.738 46.0424L109.65 48.9252H107.75L107.753 48.9227ZM103.975 44.8978H105.937C106.566 44.8978 107.047 44.7606 107.379 44.4888C107.71 44.2145 107.875 43.8105 107.875 43.2718C107.875 42.7332 107.708 42.3441 107.379 42.0798C107.047 41.8155 106.566 41.6833 105.937 41.6833H103.975V44.9002V44.8978ZM115.693 40.2269V48.9252H114.027V40.2269H115.693ZM128.241 40.2269V48.9252H126.663L122.189 42.9352V48.9252H120.561V40.2269H122.139L126.626 46.2294V40.2269H128.241ZM139.239 40.2269V41.7057H136.531V48.9252H134.852V41.7057H132.144V40.2269H139.239Z" fill="white"/>
<path d="M51.6602 36.3217V36.3516H51.6353V36.3217H51.6602ZM137.436 33.389C136.92 33.389 136.488 33.5636 136.149 33.9127C135.807 34.2619 135.64 34.7033 135.64 35.2394C135.64 35.7756 135.81 36.222 136.149 36.5786C136.488 36.9352 136.917 37.1147 137.436 37.1147C137.954 37.1147 138.383 36.9352 138.723 36.5786C139.062 36.222 139.231 35.7756 139.231 35.2394C139.231 34.7033 139.059 34.2594 138.723 33.9127C138.381 33.5636 137.954 33.389 137.436 33.389ZM69.7275 15.6259C70.1964 15.6259 70.5904 15.4639 70.8971 15.1422C71.2064 14.8155 71.3585 14.409 71.3585 13.9252C71.3585 13.4414 71.2064 13.0349 70.8971 12.7232C70.5879 12.4065 70.1964 12.2469 69.7275 12.2469C69.2587 12.2469 68.8697 12.404 68.5605 12.7232C68.2537 13.0349 68.0991 13.4414 68.0991 13.9252C68.0991 14.409 68.2537 14.8155 68.5605 15.1422C68.8697 15.4639 69.2537 15.6259 69.7275 15.6259ZM73.9645 15.6259C74.4333 15.6259 74.8223 15.4639 75.134 15.1422C75.4433 14.8155 75.5954 14.409 75.5954 13.9252C75.5954 13.4414 75.4408 13.0349 75.134 12.7232C74.8223 12.4065 74.4333 12.2469 73.9645 12.2469C73.4956 12.2469 73.1066 12.404 72.7999 12.7232C72.4906 13.0349 72.3385 13.4414 72.3385 13.9252C72.3385 14.409 72.4931 14.8155 72.7999 15.1422C73.1066 15.4639 73.4931 15.6259 73.9645 15.6259ZM92.0742 27.6509C92.0642 27.389 91.9595 27.1471 91.7674 26.9676C91.5854 26.793 91.341 26.7008 91.0817 26.7008H91.0642C90.8024 26.7082 90.558 26.818 90.3759 27.01L88.7051 28.8254C88.6403 28.9003 88.6029 28.995 88.6078 29.0948C88.6128 29.197 88.6552 29.2893 88.73 29.3566C88.8048 29.424 88.9021 29.4589 88.9994 29.4564C89.1016 29.4514 89.1939 29.409 89.2612 29.3342L90.9295 27.5237C90.9694 27.4788 91.0268 27.4539 91.0916 27.4514C91.154 27.4514 91.2064 27.4688 91.2512 27.5137C91.2936 27.5561 91.3211 27.611 91.3236 27.6733C91.3236 27.7357 91.3011 27.793 91.2562 27.8404L89.6228 29.616C89.553 29.6908 89.5181 29.788 89.5206 29.8853C89.5256 29.9875 89.568 30.0798 89.6428 30.1471C89.7126 30.2095 89.8024 30.2469 89.8971 30.2469C90.0019 30.2469 90.1016 30.2045 90.1739 30.1247L91.8049 28.3491C91.9844 28.1596 92.0792 27.9102 92.0717 27.6484L92.0742 27.6509ZM139.236 18.5985V31.6334H110.518C108.887 31.6334 107.593 31.2469 106.628 30.4788C105.752 31.2469 104.456 31.6334 102.74 31.6334H101.214C100.171 31.6334 98.8647 31.5811 98.0343 31.2519C98.0243 31.2619 98.0168 31.2743 98.0069 31.2868C97.9769 31.3267 97.957 31.3566 97.932 31.389C97.9071 31.4264 97.8822 31.4589 97.8522 31.4938L97.7625 31.6085C97.7001 31.6858 97.6403 31.7556 97.5804 31.8254L97.4906 31.9227C97.4732 31.9451 97.4507 31.9676 97.4333 31.9875C97.1515 32.2943 96.8497 32.5786 96.5305 32.8379L96.5056 32.8554C96.4158 32.9277 96.3211 32.9975 96.2288 33.0673L96.139 33.1297C96.0842 33.1696 96.0293 33.207 95.9694 33.2444C95.9121 33.2818 95.8547 33.3217 95.7949 33.3591C95.76 33.3816 95.7201 33.409 95.6802 33.4314C95.6078 33.4763 95.538 33.5162 95.4682 33.5561C95.4258 33.5786 95.3734 33.6085 95.3211 33.6384C95.2313 33.6883 95.1515 33.7282 95.0717 33.7681C95.0393 33.7855 95.0044 33.8005 94.9744 33.818L94.947 33.8304C94.553 34.0175 94.1465 34.1721 93.73 34.2893L93.6876 34.3067L93.6378 34.3167C93.5679 34.3342 93.4881 34.3566 93.4108 34.3741C93.0143 34.4688 92.5979 34.5362 92.1764 34.5711H92.139C92.1016 34.5761 92.0642 34.5811 92.0268 34.5811H91.9694C91.947 34.586 91.9221 34.586 91.8971 34.5885L91.5405 34.596L91.1839 34.5885C91.159 34.5885 91.1365 34.5885 91.1116 34.586H91.0792C91.0792 34.586 91.0617 34.586 91.0492 34.5835C91.0143 34.5835 90.9794 34.5811 90.942 34.5761H90.9171C90.4981 34.5412 90.0817 34.4763 89.6802 34.3791L89.5655 34.3516C89.553 34.3491 89.5405 34.3417 89.528 34.3392L89.4532 34.3192C89.4333 34.3167 89.4108 34.3092 89.3909 34.3018C88.962 34.1796 88.5405 34.0225 88.144 33.8354C88.0667 33.798 87.9819 33.7581 87.8996 33.7157L87.8073 33.6658C87.7774 33.6509 87.745 33.6334 87.7101 33.616L87.6901 33.606C87.6527 33.586 87.6203 33.5686 87.5879 33.5461C87.5305 33.5162 87.4682 33.4763 87.4058 33.4389C87.3834 33.4239 87.356 33.409 87.331 33.3915L87.2413 33.3466L87.2088 33.3142C87.1964 33.3067 87.1864 33.2968 87.1714 33.2893C87.0941 33.2394 87.0193 33.187 86.9445 33.1347L86.9021 33.1023C86.4482 32.7756 86.0293 32.4015 85.6552 31.99L85.4458 31.7481C85.3909 31.6858 85.341 31.621 85.2911 31.5586L85.1864 31.419C85.154 31.3766 85.1241 31.3367 85.0916 31.2968L84.9345 31.0698C84.9345 31.0698 84.932 31.0624 84.9295 31.0599L84.8921 31.02L84.8547 30.9451C84.8547 30.9451 84.8522 30.9402 84.8472 30.9352C84.3211 31.4289 82.7625 31.6384 82.2837 31.6384H80.6577C78.4607 31.6384 76.9445 31.005 76.1241 29.7307C75.4807 30.0374 74.7849 30.2818 74.0318 30.4688C73.2812 30.6609 72.5605 30.7531 71.8572 30.7531C70.5904 30.7531 69.4208 30.4663 68.346 29.8828C67.2762 29.2993 66.4183 28.5087 65.7824 27.4963C65.1465 26.4838 64.8323 25.3816 64.8323 24.1821C64.8323 22.9826 65.1465 21.8604 65.7824 20.8579C66.4158 19.8554 67.2737 19.0624 68.346 18.4738C69.4208 17.8853 70.5779 17.586 71.8348 17.586H75.2911V16.9152H78.3734V26.1945C78.3734 27.1422 78.5555 27.808 78.9071 28.1895C79.2687 28.5786 79.9295 28.7681 80.8946 28.7681H82.2812C82.8497 28.7681 83.3011 28.6334 83.6303 28.3541C83.6527 28.3367 83.7001 28.2843 83.74 28.2369C83.735 28.217 83.73 28.1945 83.7275 28.1746C83.7251 28.1546 83.7201 28.1372 83.7176 28.1172L83.6951 27.985C83.6827 27.9152 83.6727 27.8504 83.6627 27.7831C83.6602 27.7606 83.6527 27.7307 83.6527 27.7008C83.6477 27.6708 83.6428 27.6434 83.6403 27.611L83.6128 27.3566C83.6079 27.3067 83.6029 27.2569 83.5979 27.2045C83.5979 27.1945 83.5979 27.1721 83.5979 27.1496C83.5979 27.1272 83.5954 27.1072 83.5929 27.0873V27.0698L83.5904 26.9826C83.5879 26.9252 83.5854 26.8703 83.5829 26.813V26.8055C83.5829 26.7432 83.5829 26.6808 83.5829 26.6185V20.8329L84.1739 20.3915C84.1914 20.3766 84.2113 20.3616 84.2363 20.3441L84.2762 20.3167C84.3111 20.2943 84.3585 20.2594 84.4158 20.2244C84.4258 20.217 84.4383 20.212 84.4482 20.2045L84.4807 20.1821C84.6103 20.0998 84.7874 19.99 85.0068 19.8728L85.1141 19.813C85.1315 19.8055 85.144 19.7955 85.164 19.788C85.2039 19.7656 85.2463 19.7432 85.2911 19.7232L85.4408 19.6484C85.5256 19.606 85.6153 19.5636 85.7076 19.5187C85.745 19.5013 85.7799 19.4888 85.8173 19.4688L85.9495 19.409C85.9844 19.394 86.0193 19.3791 86.0542 19.3641C86.0842 19.3516 86.1116 19.3417 86.144 19.3267L86.2014 19.3042C86.2388 19.2868 86.2762 19.2743 86.3136 19.2569C86.3585 19.2394 86.4083 19.2195 86.4557 19.202L86.5729 19.1571C86.6353 19.1322 86.8273 19.0549 87.9096 18.7307L87.9794 18.7107C88.0817 18.6833 88.1814 18.6609 88.2862 18.6334L88.5031 18.5836C88.5729 18.5661 88.6428 18.5536 88.7151 18.5387C88.7575 18.5287 88.7999 18.5212 88.8448 18.5137L88.9171 18.4988C89.0517 18.4763 89.1714 18.4539 89.2911 18.4364C89.361 18.424 89.4358 18.414 89.5106 18.404C89.5605 18.394 89.6128 18.3865 89.6627 18.3816C89.7275 18.3716 89.8098 18.3641 89.8921 18.3516L90.3634 18.3042C90.4383 18.2993 90.5081 18.2943 90.5829 18.2893C90.6328 18.2868 90.6802 18.2818 90.7275 18.2793C90.7974 18.2718 90.8697 18.2693 90.947 18.2668H90.9695C91.0069 18.2643 91.0517 18.2619 91.0991 18.2619L91.351 18.2569C91.5031 18.2544 91.6378 18.2544 91.7774 18.2569H91.932H91.9694H92.0318C92.0817 18.2594 92.1265 18.2619 92.1739 18.2668H92.1864C92.2612 18.2693 92.336 18.2718 92.4108 18.2793C92.4532 18.2793 92.5006 18.2843 92.5505 18.2893C92.6253 18.2918 92.7026 18.2993 92.7774 18.3042L93.2413 18.3516C93.3236 18.3616 93.4034 18.3716 93.4856 18.3816C93.5206 18.384 93.5679 18.394 93.6153 18.399C93.6901 18.409 93.7674 18.4215 93.8448 18.4339C93.962 18.4514 94.0792 18.4738 94.1989 18.4938L94.4059 18.5362C94.4807 18.5511 94.5555 18.5661 94.6278 18.5836C94.6677 18.591 94.7176 18.6035 94.7724 18.6135L94.8298 18.6284C94.947 18.6584 95.0517 18.6808 95.1515 18.7082C95.2138 18.7257 95.2837 18.7432 95.3535 18.7606C95.7625 18.8753 96.164 19.005 96.548 19.1521L96.6901 19.2095C96.7276 19.2244 96.7724 19.2394 96.8173 19.2569C96.8398 19.2693 96.8672 19.2793 96.8946 19.2893L97.0642 19.3591C97.0941 19.3716 97.1216 19.384 97.149 19.3965L97.3036 19.4663C97.7051 19.6484 98.0817 19.8454 98.4333 20.0549L98.5929 20.1496C98.735 20.2394 98.8373 20.3092 98.9046 20.3591L98.9944 20.4215L99.5405 20.8354V26.621C99.5405 26.6783 99.5405 26.7357 99.5405 26.7905L99.5455 26.8903L99.5305 27.0299C99.5305 27.0798 99.5281 27.1247 99.5231 27.1721L99.5131 27.2743C99.5106 27.3167 99.5081 27.3566 99.5031 27.3965C99.5006 27.4389 99.4931 27.4988 99.4881 27.5536L99.4782 27.601H99.4807C99.4732 27.6384 99.4707 27.6783 99.4632 27.7157C99.4632 27.7382 99.4582 27.7631 99.4532 27.7855C99.4457 27.8479 99.4333 27.9127 99.4233 27.9776C99.4183 28.01 99.4133 28.0449 99.4058 28.0798L99.3884 28.1621C99.3784 28.212 99.3709 28.2569 99.3585 28.2993L99.3485 28.3367C99.341 28.3741 99.331 28.414 99.3211 28.4514C99.3111 28.5037 99.2986 28.5636 99.2812 28.6235C99.6103 28.7182 99.9844 28.7681 100.393 28.7681H101.413C101.413 28.7681 101.428 28.7681 101.433 28.7681H102.513C103.478 28.7681 104.139 28.5761 104.498 28.1895C104.855 27.8055 105.034 27.1397 105.034 26.192V19.9177H108.119V26.2195C108.119 27.005 108.037 27.7132 107.877 28.3367C108.396 28.6234 109.112 28.7681 110.024 28.7681H110.052C110.391 27.0524 111.027 25.3766 111.954 23.7382C112.885 22.1023 114.139 20.7432 115.723 19.6609C117.304 18.5811 119.159 18.0399 121.289 18.0399C123.059 18.0399 124.548 18.4289 125.765 19.207C126.979 19.985 127.885 21.0374 128.473 22.3591C129.064 23.6833 129.358 25.1471 129.358 26.7556V28.7681H132.034C132.034 28.7681 133.321 28.7681 133.329 28.7681H136.169V18.6035H139.254L139.236 18.5985ZM75.3086 26.8853C75.2911 26.7432 75.2787 26.5187 75.2787 26.217V20.4514H71.8223C71.1041 20.4514 70.4457 20.616 69.8497 20.9451C69.2462 21.2768 68.7774 21.7282 68.4283 22.3018C68.0792 22.8728 67.9071 23.5013 67.9071 24.1771C67.9071 24.8529 68.0742 25.4763 68.4133 26.0274C68.755 26.5811 69.2313 27.0225 69.8497 27.3541C70.4657 27.6858 71.159 27.8529 71.9295 27.8529C73.0368 27.8529 74.1615 27.5312 75.3086 26.8853ZM96.7675 22.2843C96.2163 21.9826 95.2712 21.5486 94.0193 21.2693C93.9694 21.2594 93.9171 21.2469 93.8672 21.2394L93.8448 21.2344C93.7949 21.2244 93.7425 21.212 93.6951 21.2045L93.5131 21.1721C93.4408 21.1596 93.366 21.1496 93.2911 21.1347L93.2238 21.1247C93.1789 21.1172 93.134 21.1122 93.0842 21.1072L93.0218 21.0973C92.962 21.0898 92.8921 21.0823 92.8198 21.0748C92.6652 21.0549 92.5106 21.0424 92.3535 21.0324C91.8198 20.995 91.2637 20.995 90.735 21.0324C90.5754 21.0424 90.4208 21.0574 90.2662 21.0748C90.1964 21.0823 90.1241 21.0898 90.0542 21.0973L89.9969 21.1072C89.9794 21.1072 89.9645 21.1097 89.947 21.1122L89.4308 21.1945L89.3884 21.202C89.341 21.212 89.2911 21.222 89.2413 21.2319L89.139 21.2544C89.1166 21.2594 89.0916 21.2643 89.0667 21.2693C87.8123 21.5486 86.8672 21.9826 86.3186 22.2843V26.6135C86.3186 26.6708 86.3186 26.7282 86.3186 26.7831C86.3186 26.8404 86.3236 26.8953 86.3285 26.9526C86.331 27.0075 86.3335 27.0599 86.341 27.1147V27.1471C86.341 27.1471 86.346 27.1696 86.3485 27.1796V27.212C86.361 27.2943 86.3709 27.3791 86.3859 27.4589C86.3934 27.5112 86.4034 27.5661 86.4158 27.6185C86.4258 27.6758 86.4333 27.7207 86.4458 27.7681L86.4557 27.798C86.4582 27.813 86.4607 27.8304 86.4657 27.8479C86.4732 27.8803 86.4832 27.9177 86.4931 27.9551C86.4956 27.9726 86.5031 27.99 86.5056 28.005L86.5156 28.0324C86.5256 28.0748 86.5405 28.1197 86.553 28.1646L86.5729 28.2269C86.5829 28.2494 86.5904 28.2743 86.5954 28.2968C86.6053 28.3242 86.6153 28.3541 86.6253 28.3791L86.7201 28.6235C86.75 28.6958 86.7824 28.7681 86.8148 28.8404C86.8273 28.8653 86.8423 28.8953 86.8547 28.9227C86.8921 28.9975 86.9295 29.0723 86.9694 29.1446C87.0916 29.3616 87.2313 29.5786 87.3909 29.7855L87.4133 29.813C87.5679 30.0349 87.7475 30.2419 87.9395 30.4289C88.1241 30.6085 88.326 30.7706 88.5405 30.9127L88.9794 31.1721C88.9794 31.1721 88.9994 31.1821 89.0069 31.187C89.2812 31.3417 89.5779 31.4713 89.8772 31.5736C89.8921 31.5761 89.9071 31.5835 89.927 31.5885L89.957 31.5985C89.9769 31.6035 89.9944 31.6085 90.0118 31.616L90.0966 31.6409C90.1989 31.6708 90.3036 31.6983 90.4108 31.7232H90.4333L90.533 31.7481C90.7051 31.793 90.8896 31.8254 91.0742 31.8429C91.3859 31.8803 91.7126 31.8803 92.0168 31.8429C92.2138 31.823 92.4058 31.788 92.5929 31.7407L92.7076 31.7182C92.8049 31.6958 92.9021 31.6683 93.0019 31.6434C93.0767 31.621 93.1515 31.601 93.2238 31.5736C93.4059 31.5112 93.5829 31.4389 93.76 31.3566V31.3417L94.1939 31.1272L94.6228 30.8604C94.75 30.7706 94.8722 30.6733 94.9869 30.5711L95.159 30.399C95.2313 30.3292 95.3011 30.2569 95.3684 30.1845L95.4433 30.1047C95.7076 29.8105 95.937 29.4863 96.1266 29.1446L96.1689 29.0698C96.1789 29.0499 96.1864 29.0324 96.1989 29.0125L96.2088 28.995C96.2263 28.9576 96.2463 28.9227 96.2637 28.8853L96.2961 28.8155C96.3136 28.7855 96.3236 28.7581 96.3335 28.7332L96.4034 28.5711C96.4158 28.5362 96.4308 28.5062 96.4408 28.4738C96.4582 28.4314 96.4682 28.404 96.4782 28.3766L96.5081 28.2943C96.5131 28.2793 96.5181 28.2619 96.5256 28.2469L96.5355 28.2145C96.548 28.1771 96.558 28.1372 96.5704 28.1023L96.6078 27.9701C96.6303 27.8903 96.6527 27.798 96.6702 27.7057C96.6777 27.6683 96.6827 27.6409 96.6901 27.611L96.7001 27.5536C96.7101 27.5112 96.7126 27.4888 96.7176 27.4589L96.74 27.3042C96.74 27.3042 96.74 27.2868 96.7425 27.2793C96.745 27.2494 96.7475 27.2195 96.7525 27.192L96.7699 27.0125C96.7724 26.9826 96.7749 26.9501 96.7774 26.9177V26.8728C96.7799 26.8404 96.7799 26.8105 96.7824 26.7756C96.7824 26.7182 96.7824 26.6708 96.7824 26.6235V22.2943L96.7675 22.2843ZM126.256 26.7531C126.256 24.8778 125.817 23.4314 124.942 22.4215C124.067 21.414 122.867 20.9077 121.348 20.9077C120.062 20.9077 118.845 21.2569 117.7 21.9551C116.558 22.6509 115.583 23.606 114.78 24.8105C113.974 26.0175 113.421 27.3342 113.117 28.7656H126.254V26.7531H126.256ZM92.0467 22.6235C90.4881 22.414 88.8672 23.0723 87.4856 24.4688C87.4158 24.5412 87.3759 24.6359 87.3759 24.7357C87.3759 24.8329 87.4183 24.9302 87.4881 25C87.558 25.0698 87.6527 25.1097 87.7525 25.1097C87.8547 25.1097 87.947 25.0698 88.0193 25C89.2338 23.7731 90.6278 23.192 91.947 23.3691C93.1789 23.5312 94.2662 24.3441 95.0143 25.6559C95.0792 25.7731 95.2064 25.8454 95.341 25.8454C95.4059 25.8454 95.4707 25.8279 95.5256 25.7955C95.6128 25.7456 95.6752 25.6658 95.7026 25.5686C95.7275 25.4713 95.7151 25.3691 95.6652 25.2818C94.8024 23.7606 93.5181 22.8155 92.0467 22.621V22.6235ZM87.6328 23.1446C87.4782 23.2793 87.4632 23.5212 87.6004 23.6758C87.74 23.8304 87.9769 23.8454 88.1315 23.7057C88.2762 23.5786 91.7076 20.616 95.1989 24.1047C95.2712 24.1746 95.366 24.2145 95.4657 24.2145C95.5655 24.2145 95.6602 24.1746 95.7325 24.1047C95.8772 23.9576 95.8772 23.7182 95.7325 23.5711C91.74 19.586 87.6727 23.1097 87.6328 23.1446ZM93.0592 27.6459C93.0817 26.8554 92.6278 26.1297 91.957 25.8778C91.2762 25.5786 90.3784 25.7357 89.8223 26.2469L88.0318 28.0898C87.962 28.1621 87.9246 28.2569 87.9271 28.3566C87.9271 28.4589 87.9694 28.5511 88.0418 28.621C88.1116 28.6908 88.2014 28.7332 88.3086 28.7282C88.4083 28.7282 88.5031 28.6858 88.5729 28.6135L90.336 26.7905C90.6802 26.4813 91.2512 26.3865 91.6777 26.5711C92.0642 26.7132 92.3236 27.1446 92.3086 27.611C92.2936 27.9277 92.1166 28.1796 92.0143 28.2993L90.2861 30.1696C90.144 30.3217 90.1565 30.5611 90.3086 30.7033C90.3784 30.7656 90.4682 30.803 90.563 30.803C90.6677 30.803 90.7699 30.7606 90.8398 30.6808L92.5754 28.8005C92.8747 28.4514 93.0418 28.0499 93.0617 27.6409L93.0592 27.6459ZM92.5405 25.0499C91.4482 24.5362 90.1465 24.7357 89.2213 25.5636L87.6901 27.0624C87.543 27.207 87.5405 27.4464 87.6852 27.596C87.755 27.6658 87.8522 27.7082 87.952 27.7082H87.9545C88.0542 27.7082 88.1465 27.6708 88.2188 27.601L88.2961 27.5262C89.6552 26.1945 89.7375 26.1147 89.74 26.1147C90.4308 25.4988 91.4034 25.3516 92.2213 25.7357C92.9719 26.0898 93.3984 26.798 93.366 27.6284C93.3435 28.0624 93.1515 28.5162 92.8223 28.8978L91.1814 30.6459C91.0443 30.793 91.0318 31.02 91.159 31.1646C91.2313 31.2469 91.3335 31.2943 91.4433 31.2943C91.553 31.2943 91.6453 31.2519 91.7176 31.1746L93.3834 29.399C93.7001 29.0324 94.0817 28.4339 94.1191 27.6609C94.164 26.5162 93.5729 25.5412 92.5455 25.0549L92.5405 25.0499ZM91.5555 23.7033C89.4482 23.424 87.4632 25.8429 87.3784 25.9451C87.3161 26.0225 87.2861 26.1197 87.2961 26.2195C87.3061 26.3217 87.3535 26.409 87.4333 26.4738C87.5081 26.5362 87.6078 26.5661 87.7076 26.5561C87.8074 26.5461 87.8971 26.4963 87.962 26.419C87.9794 26.399 89.7724 24.2294 91.4532 24.4514C92.4782 24.586 93.361 25.0773 93.8722 25.7955C94.3734 26.4938 94.5181 27.3741 94.3111 28.4065C94.2886 28.5062 94.3111 28.6035 94.366 28.6883C94.4208 28.7706 94.5056 28.8304 94.6053 28.8504C94.6278 28.8554 94.6552 28.8579 94.6802 28.8579C94.8547 28.8579 95.0118 28.7307 95.0468 28.5561C95.2961 27.3267 95.1041 26.222 94.4882 25.3566C93.8522 24.4688 92.7824 23.8678 91.553 23.7057L91.5555 23.7033ZM15.5455 21.3641L12.5879 23C12.8996 23.7107 13.154 24.5362 13.3535 25.4788C13.553 26.4215 13.6527 27.2918 13.6527 28.0873C13.6527 29.212 13.4482 30.212 13.0418 31.0848C12.6353 31.9576 12.0517 32.6409 11.2911 33.1347C10.5305 33.6284 9.64775 33.8753 8.64525 33.8753C7.64276 33.8753 6.75996 33.6284 5.99937 33.1347C5.23877 32.6409 4.65523 31.9576 4.24874 31.0848C3.84226 30.212 3.63777 29.222 3.63777 28.1147C3.63777 27.1297 3.76744 26.1347 4.0268 25.1297L0.964452 23.5985C0.480662 25.1721 0.23877 26.6509 0.23877 28.0349C0.23877 29.6958 0.580412 31.2095 1.2637 32.5761C1.947 33.9427 2.92455 35.0249 4.19637 35.8205C5.46819 36.616 6.95198 37.015 8.64774 37.015C10.3435 37.015 11.8273 36.616 13.0991 35.8205C14.3709 35.0249 15.3485 33.9427 16.0318 32.5761C16.7151 31.2095 17.0567 29.6883 17.0567 28.01C17.0567 26.9028 16.9221 25.7556 16.6552 24.5711C16.3859 23.3865 16.0193 22.3192 15.553 21.3666L15.5455 21.3641ZM8.53802 19.7556C9.07418 19.7556 9.52306 19.5711 9.88715 19.197C10.2512 18.8254 10.4333 18.3616 10.4333 17.808C10.4333 17.2544 10.2562 16.7706 9.90211 16.4065C9.548 16.0424 9.09413 15.8604 8.54051 15.8604C7.9869 15.8604 7.55797 16.0424 7.20386 16.4065C6.84974 16.7706 6.67268 17.2369 6.67268 17.808C6.67268 18.3791 6.84974 18.8254 7.20386 19.197C7.55797 19.5686 8.00435 19.7556 8.54051 19.7556H8.53802ZM52.5355 23.8304C53.2712 25.6983 53.5954 27.7407 53.5081 29.9551C52.3136 30.5087 51.0218 30.9277 49.6278 31.2145C48.2363 31.4988 46.9769 31.6434 45.8522 31.6434C44.1739 31.6434 42.538 31.2793 40.947 30.5536C40.0817 31.2793 38.9919 31.6434 37.6777 31.6434H20.9395V12.3092H24.3136V28.5013H27.351H37.2637C37.7999 28.5013 38.2188 28.3716 38.5231 28.1122C38.8248 27.8529 39.0193 27.4464 39.1066 26.8928L39.1839 26.217C39.356 24.8678 39.6029 23.6135 39.9246 22.4539C40.2438 21.2943 40.8273 20.222 41.6752 19.2369C42.5231 18.2519 43.7001 17.7581 45.2039 17.7581C46.7076 17.7581 48.1665 18.3042 49.4732 19.394C50.7799 20.4838 51.7999 21.9626 52.5355 23.8304ZM50.0318 27.8529C49.8921 26.6259 49.5804 25.4788 49.0966 24.414C48.6128 23.3491 48.0368 22.5037 47.3709 21.8703C46.7051 21.2394 46.0343 20.9227 45.361 20.9227C44.6876 20.9227 44.159 21.2294 43.7774 21.8429C43.3959 22.4564 43.1315 23.1546 42.9869 23.9327C42.8398 24.7107 42.7051 25.6459 42.5854 26.7357C42.5679 26.9601 42.5505 27.1496 42.533 27.3067C42.5156 27.4614 42.4981 27.591 42.4807 27.6958C43.0692 27.9726 43.6303 28.1746 44.1665 28.3067C44.7026 28.4364 45.2737 28.5013 45.8797 28.5013C47.159 28.5013 48.543 28.2843 50.0318 27.8529ZM57.8946 8.79303C57.74 8.62844 57.6602 8.4439 57.6602 8.23442C57.6602 8.00999 57.7649 7.81547 57.9719 7.65088C58.1789 7.48629 58.4657 7.404 58.8273 7.404C59.0343 7.404 59.2587 7.42894 59.5031 7.48131C59.745 7.53368 59.9345 7.6035 60.0742 7.68829L60.9046 5.87283C60.6278 5.73567 60.2936 5.62345 59.9046 5.53617C59.5156 5.44889 59.1465 5.40649 58.8024 5.40649C57.937 5.40649 57.2238 5.65338 56.6627 6.14714C56.0991 6.64091 55.8198 7.2843 55.8198 8.07981C55.8198 8.4439 55.8797 8.77308 56.0019 9.06485H55.4832V11.01H61.139V9.06485H58.4931C58.2512 9.04739 58.0517 8.95762 57.8971 8.79303H57.8946ZM56.6228 31.6409H59.9969V12.3092H56.6228V31.6409Z" fill="white"/>
<path d="M163.603 53.4215C163.603 53.4215 163.613 53.4339 163.618 53.4389C163.62 53.4265 163.625 53.4165 163.628 53.404H163.611C163.611 53.404 163.601 53.4165 163.603 53.419V53.4215ZM187.276 21.2444C187.276 21.2444 187.249 21.227 187.221 21.207C187.217 21.202 187.204 21.197 187.194 21.1896C187.047 21.0798 186.725 20.8504 186.229 20.5462C186.179 20.5138 186.119 20.4763 186.064 20.4414C186.005 20.404 185.945 20.3641 185.88 20.3267C185.852 20.3093 185.82 20.2893 185.788 20.2719C185.012 19.808 183.95 19.2245 182.618 18.6185C182.508 18.5686 182.394 18.5212 182.279 18.4714C182.164 18.4165 182.049 18.3666 181.93 18.3192C181.81 18.2644 181.69 18.2145 181.571 18.1671C181.451 18.1172 181.326 18.0624 181.199 18.015C181.074 17.9601 180.942 17.9103 180.817 17.8629C180.685 17.813 180.556 17.7581 180.423 17.7108C179.386 17.3167 178.246 16.9427 177.002 16.5985C176.81 16.5487 176.62 16.4938 176.423 16.4464C176.129 16.3691 175.835 16.2943 175.528 16.222C175.326 16.1721 175.124 16.1297 174.917 16.0848C174.71 16.0424 174.498 15.9975 174.289 15.9527C174.179 15.9302 174.077 15.9078 173.967 15.8878C173.875 15.8704 173.788 15.8554 173.695 15.8379C173.356 15.7731 173.015 15.7133 172.658 15.6584C172.438 15.626 172.221 15.5886 171.997 15.5611C171.877 15.5387 171.763 15.5237 171.638 15.5063C171.409 15.4788 171.179 15.4464 170.945 15.424C170.84 15.4065 170.738 15.3965 170.633 15.3866C170.616 15.3866 170.606 15.3816 170.588 15.3816C170.446 15.3641 170.304 15.3541 170.162 15.3367C169.977 15.3192 169.79 15.3043 169.606 15.2868C169.394 15.2694 169.174 15.2494 168.95 15.2369C168.813 15.227 168.678 15.2195 168.541 15.2095C168.306 15.1995 168.067 15.1871 167.825 15.1771C167.705 15.1721 167.586 15.1671 167.466 15.1596C167.401 15.1596 167.334 15.1596 167.269 15.1546H167.164C167.012 15.1497 166.857 15.1497 166.71 15.1447C166.508 15.1447 166.306 15.1397 166.104 15.1397C165.902 15.1397 165.705 15.1447 165.503 15.1447C165.351 15.1497 165.199 15.1497 165.044 15.1546H164.94C164.875 15.1596 164.815 15.1596 164.748 15.1596C164.623 15.1646 164.508 15.1696 164.389 15.1771C164.149 15.1871 163.91 15.1995 163.673 15.2095C163.531 15.2195 163.394 15.227 163.259 15.2369C163.039 15.2469 162.822 15.2694 162.603 15.2868C162.418 15.3043 162.231 15.3192 162.047 15.3367C161.905 15.3541 161.763 15.3641 161.62 15.3816C161.611 15.3816 161.593 15.3866 161.583 15.3866C161.478 15.3965 161.371 15.409 161.266 15.424C161.037 15.4464 160.803 15.4788 160.573 15.5063C160.453 15.5237 160.334 15.5387 160.214 15.5611C159.99 15.5886 159.773 15.626 159.558 15.6584C159.204 15.7133 158.855 15.7731 158.516 15.8379C158.423 15.8554 158.336 15.8704 158.244 15.8878C158.139 15.9103 158.032 15.9252 157.927 15.9527C157.715 15.9975 157.508 16.0399 157.299 16.0848C157.092 16.1297 156.885 16.1771 156.683 16.222C156.384 16.2918 156.082 16.3691 155.788 16.4464C155.591 16.4963 155.401 16.5512 155.209 16.5985V14.3118C155.209 13.8803 155.236 13.4489 155.286 13.03C155.456 11.606 155.897 10.2694 156.563 9.06487C156.683 8.84791 156.815 8.63345 156.945 8.42647V8.42148C157.082 8.2145 157.224 8.0125 157.371 7.81051C157.448 7.71325 157.523 7.6135 157.601 7.52123V7.51624C157.693 7.39654 157.793 7.28183 157.895 7.16712C158.097 6.93769 158.304 6.71325 158.523 6.50128C158.583 6.44642 158.638 6.39156 158.698 6.33669C159.107 5.96013 159.543 5.61101 160.007 5.2943C160.269 5.11475 160.541 4.95016 160.82 4.79305C160.89 4.75565 160.967 4.71575 161.039 4.67834C161.112 4.64093 161.182 4.60103 161.251 4.56363C161.399 4.4938 161.541 4.42647 161.683 4.36163C161.7 4.35664 161.71 4.35166 161.728 4.34417C161.793 4.31176 161.86 4.28432 161.925 4.25689C162.039 4.20702 162.154 4.15964 162.269 4.11974C162.384 4.07485 162.503 4.03245 162.618 3.99505C162.7 3.96762 162.788 3.94018 162.87 3.91275C163.022 3.86288 163.182 3.82048 163.334 3.78058C163.411 3.75814 163.491 3.7357 163.568 3.72073C163.568 3.72073 163.571 3.71907 163.578 3.71575C163.66 3.69829 163.735 3.67834 163.817 3.66088C163.9 3.64343 163.982 3.62846 164.069 3.61101C164.139 3.60103 164.212 3.58358 164.281 3.5736C164.341 3.56363 164.406 3.55116 164.466 3.54118C164.526 3.53619 164.581 3.53121 164.64 3.51874C164.695 3.51375 164.75 3.50128 164.805 3.49629C164.875 3.49131 164.947 3.47884 165.017 3.47385C165.087 3.46886 165.164 3.45639 165.241 3.45141H165.274C165.334 3.44642 165.394 3.44143 165.453 3.44143C165.665 3.42397 165.885 3.41899 166.102 3.41899C166.319 3.41899 166.533 3.42397 166.75 3.44143C166.81 3.44143 166.875 3.44642 166.935 3.45141H166.945C167.027 3.45639 167.109 3.46138 167.189 3.47385C167.259 3.47884 167.331 3.49131 167.401 3.49629C167.456 3.50128 167.511 3.51375 167.566 3.51874C167.62 3.52871 167.68 3.53619 167.735 3.54118C167.8 3.55116 167.86 3.56363 167.92 3.5736C167.997 3.58358 168.067 3.60103 168.139 3.61101C168.221 3.62846 168.304 3.64343 168.384 3.66088C168.466 3.67834 168.541 3.69829 168.618 3.71575C168.628 3.71575 168.645 3.72073 168.655 3.72572C168.725 3.74318 168.798 3.75814 168.867 3.78058C169.024 3.81799 169.179 3.86288 169.331 3.91275C169.414 3.94018 169.501 3.96762 169.583 3.99505C169.66 4.02248 169.74 4.04991 169.817 4.07734C169.97 4.1322 170.122 4.19205 170.276 4.25689C170.341 4.28432 170.409 4.31176 170.473 4.34417C170.491 4.34916 170.506 4.35415 170.516 4.36163C170.658 4.42148 170.805 4.4938 170.947 4.56363C171.017 4.60103 171.089 4.63345 171.167 4.67834C171.236 4.71076 171.309 4.74816 171.379 4.79305C171.663 4.95016 171.935 5.11475 172.197 5.2943C172.458 5.47385 172.715 5.66587 172.96 5.86787C173.212 6.06986 173.446 6.27684 173.675 6.50128C173.895 6.71325 174.107 6.93769 174.304 7.16712C174.409 7.28183 174.506 7.39654 174.598 7.51624C174.598 7.51624 174.598 7.51791 174.598 7.52123C174.68 7.6135 174.75 7.71325 174.827 7.81051C174.975 8.0125 175.117 8.2145 175.254 8.42148V8.42647C175.391 8.63345 175.516 8.84542 175.64 9.06487C176.301 10.2694 176.743 11.606 176.912 13.03C178.162 13.3417 179.329 13.6908 180.404 14.0599C180.344 10.7806 179.182 7.76313 177.266 5.3741C177.197 5.28682 177.124 5.19954 177.047 5.11225C176.977 5.02497 176.9 4.93769 176.827 4.8554C176.75 4.76811 176.675 4.68582 176.598 4.60353C176.446 4.43395 176.286 4.27186 176.124 4.11225C176.042 4.02996 175.96 3.95515 175.88 3.87784C175.798 3.80053 175.715 3.72572 175.628 3.64841C175.558 3.58358 175.481 3.51624 175.409 3.45141C175.294 3.35415 175.174 3.2544 175.059 3.16213C174.995 3.10727 174.927 3.05739 174.862 3.01001C174.743 2.91275 174.623 2.82547 174.496 2.73071C174.436 2.68582 174.376 2.64343 174.311 2.59854C174.301 2.58856 174.284 2.57609 174.269 2.56612C174.187 2.50627 174.104 2.45141 174.017 2.39654C173.805 2.2544 173.591 2.11724 173.374 1.99255C173.296 1.94268 173.221 1.90028 173.144 1.8554C173.019 1.78557 172.887 1.71325 172.758 1.64343C172.688 1.60602 172.616 1.56612 172.538 1.5337C172.433 1.47385 172.326 1.42398 172.212 1.36911C172.124 1.32422 172.032 1.28183 171.94 1.24442C171.847 1.20203 171.755 1.16213 171.66 1.12472C171.551 1.07485 171.448 1.03245 171.339 0.987566C171.269 0.960135 171.197 0.932703 171.127 0.910259C170.98 0.850409 170.832 0.795546 170.68 0.745671C170.603 0.718239 170.523 0.690808 170.441 0.668364C170.147 0.571107 169.852 0.488813 169.551 0.416494C169.463 0.389062 169.381 0.3741 169.294 0.351656C169.179 0.324225 169.064 0.301781 168.95 0.274349C168.376 0.159636 167.793 0.0773417 167.199 0.0349477C166.965 0.0174914 166.73 0.00252877 166.496 -0.00245876C166.364 -0.00744629 166.229 -0.00744629 166.097 -0.00744629C165.965 -0.00744629 165.825 -0.00744629 165.688 -0.00245876C165.453 0.00252877 165.224 0.0199851 165 0.0349477C164.765 0.0524041 164.531 0.0773417 164.296 0.104773C164.187 0.114748 164.072 0.132205 163.957 0.147167C163.723 0.184574 163.483 0.229461 163.249 0.271855C163.129 0.299287 163.015 0.321731 162.905 0.349162C162.822 0.366619 162.74 0.386569 162.665 0.409013C162.404 0.468863 162.147 0.541182 161.89 0.620983C161.82 0.643426 161.748 0.66587 161.678 0.690808C161.379 0.783077 161.089 0.887816 160.805 1.00253C160.713 1.03994 160.62 1.07984 160.533 1.11724C160.446 1.14966 160.359 1.19455 160.271 1.22697C160.174 1.27684 160.074 1.31924 159.977 1.36911C159.867 1.41899 159.758 1.47385 159.655 1.52622C159.563 1.57111 159.471 1.61849 159.384 1.66836C159.366 1.67335 159.351 1.67834 159.339 1.69081C159.142 1.79555 158.945 1.91026 158.755 2.02248C158.658 2.08233 158.558 2.13719 158.466 2.20203C158.369 2.26188 158.274 2.32173 158.182 2.38657C158.094 2.44143 158.007 2.50128 157.92 2.56113C157.91 2.57111 157.897 2.57859 157.882 2.58856C157.795 2.64841 157.708 2.71325 157.62 2.78058C157.533 2.84542 157.441 2.91275 157.349 2.98258C157.261 3.0524 157.174 3.12472 157.087 3.19455C157 3.26437 156.912 3.33669 156.825 3.41151C156.693 3.52123 156.568 3.63096 156.443 3.75066C156.319 3.86537 156.192 3.98009 156.072 4.09979C155.75 4.41649 155.438 4.74816 155.149 5.09729C155.079 5.18457 155.007 5.26687 154.937 5.35415C154.822 5.50627 154.703 5.6534 154.588 5.80802C154.533 5.89031 154.478 5.96512 154.418 6.04243C154.364 6.12472 154.309 6.19954 154.254 6.28183C154.199 6.35914 154.149 6.43894 154.097 6.52123C154.01 6.65839 153.922 6.79305 153.84 6.93021C153.795 7.00004 153.753 7.07235 153.715 7.14218C153.638 7.26687 153.568 7.39904 153.503 7.52871C153.433 7.6534 153.361 7.78557 153.296 7.91525C152.331 9.83545 151.79 12.0025 151.79 14.2918V17.6908C151.658 17.7407 151.528 17.7955 151.396 17.8429C151.271 17.8928 151.139 17.9402 151.015 17.995C150.89 18.0449 150.763 18.0998 150.643 18.1472C150.523 18.197 150.404 18.2444 150.284 18.2993C150.164 18.3492 150.049 18.3965 149.935 18.4514C149.82 18.5013 149.705 18.5487 149.596 18.5985C149.503 18.6434 149.411 18.6858 149.316 18.7307C149.049 18.8554 148.798 18.9751 148.553 19.0973C148.389 19.1796 148.226 19.2619 148.072 19.3417C147.98 19.3866 147.887 19.4339 147.8 19.4838C147.713 19.5287 147.625 19.5761 147.543 19.621C147.461 19.6659 147.374 19.7083 147.299 19.7532C146.693 20.0848 146.202 20.3866 145.825 20.626C145.775 20.6584 145.728 20.6858 145.678 20.7182C145.521 20.823 145.384 20.9152 145.274 20.9901C145.241 21.0125 145.209 21.0275 145.182 21.0499C145.117 21.0998 145.062 21.1372 145.017 21.1696C145.007 21.1746 144.995 21.1796 144.99 21.1871C144.962 21.2095 144.947 21.2195 144.935 21.2245L144.254 21.7432V38.1372C144.254 38.3118 144.259 38.4863 144.264 38.6609V38.6783C144.264 38.8479 144.269 39.01 144.281 39.1746V39.212C144.286 39.3541 144.299 39.4963 144.309 39.6384C144.309 39.6833 144.314 39.7207 144.314 39.7581C144.324 39.9152 144.341 40.0748 144.356 40.232C144.366 40.3841 144.384 40.5387 144.406 40.6958C144.411 40.7457 144.416 40.793 144.423 40.8429C144.433 40.9352 144.446 41.0225 144.461 41.1147C144.466 41.1846 144.478 41.2519 144.488 41.3217C144.516 41.5013 144.543 41.6808 144.576 41.8679C144.593 41.9826 144.613 42.0973 144.635 42.212C144.645 42.2619 144.658 42.3167 144.668 42.3691C144.69 42.4838 144.71 42.5985 144.738 42.7132C144.743 42.7457 144.748 42.7781 144.76 42.8055C144.778 42.9028 144.805 43.0025 144.825 43.0998C144.847 43.2045 144.875 43.3118 144.902 43.4165C144.93 43.5312 144.957 43.6459 144.99 43.7606C145.027 43.9078 145.072 44.0549 145.114 44.202C145.119 44.2394 145.132 44.2719 145.142 44.3068C145.179 44.4315 145.219 44.5586 145.256 44.6833C145.266 44.7157 145.279 44.7482 145.289 44.7806C145.334 44.9277 145.381 45.0699 145.431 45.207C145.468 45.3267 145.513 45.4464 145.556 45.5661C145.583 45.6434 145.611 45.7182 145.638 45.7955C145.67 45.8778 145.698 45.9527 145.73 46.03C145.872 46.3965 146.024 46.7556 146.184 47.1098C146.244 47.2469 146.309 47.3816 146.376 47.5187C146.446 47.6659 146.518 47.813 146.596 47.9601C146.683 48.1347 146.775 48.3043 146.862 48.4788C146.932 48.5985 147 48.7182 147.064 48.8454C147.147 48.9876 147.229 49.1297 147.316 49.2719C147.394 49.404 147.468 49.5287 147.546 49.6534C147.568 49.6808 147.583 49.7132 147.606 49.7457C147.683 49.8604 147.753 49.9801 147.835 50.0998C147.84 50.1048 147.84 50.1098 147.852 50.1222C147.94 50.2544 148.027 50.3891 148.119 50.5212L148.399 50.9152C148.399 50.9152 148.404 50.9202 148.404 50.9252C148.496 51.0574 148.588 51.1821 148.688 51.3068C148.693 51.3167 148.705 51.3292 148.71 51.3392C148.793 51.4439 148.875 51.5462 148.95 51.6509C149.271 52.0549 149.611 52.4539 149.96 52.8354C150.99 53.9651 152.132 54.9851 153.381 55.8803C153.409 55.9078 153.446 55.9302 153.478 55.9502C153.69 56.1023 153.91 56.2569 154.134 56.3965C154.239 56.4664 154.341 56.5337 154.438 56.5985C154.448 56.6035 154.456 56.6085 154.466 56.6085C154.571 56.6783 154.673 56.7407 154.778 56.8055C154.942 56.9103 155.104 57.0075 155.274 57.0998C155.366 57.1546 155.458 57.2095 155.558 57.2569C155.655 57.3118 155.755 57.3666 155.852 57.414C155.94 57.4639 156.022 57.5063 156.109 57.5512C156.334 57.6709 156.563 57.7856 156.798 57.8953C157.89 58.414 159.034 58.8379 160.219 59.1721C160.256 59.1821 160.296 59.1945 160.339 59.2045C160.409 59.227 160.486 59.2419 160.558 59.2644C160.683 59.2968 160.803 59.3292 160.93 59.3566C160.947 59.3616 160.962 59.3616 160.98 59.3666C162.087 59.6334 163.234 59.8205 164.401 59.9078V59.9128C164.428 59.9128 164.461 59.9177 164.488 59.9177C164.576 59.9227 164.663 59.9277 164.745 59.9352C164.795 59.9402 164.837 59.9402 164.887 59.9452C164.957 59.9452 165.034 59.9502 165.104 59.9551C165.174 59.9551 165.241 59.9601 165.306 59.9601C165.431 59.9651 165.558 59.9701 165.678 59.9701C165.825 59.9701 165.967 59.9751 166.109 59.9751C166.251 59.9751 166.399 59.9701 166.541 59.9701C166.665 59.9701 166.785 59.9651 166.912 59.9601C166.977 59.9601 167.044 59.9551 167.114 59.9551C167.184 59.9502 167.261 59.9452 167.334 59.9452C167.384 59.9402 167.431 59.9402 167.476 59.9352C167.558 59.9302 167.645 59.9252 167.728 59.9177C167.76 59.9177 167.793 59.9128 167.82 59.9128V59.9078C168.992 59.8205 170.134 59.6359 171.241 59.3666C171.448 59.3167 171.65 59.2694 171.852 59.2095C171.885 59.2045 171.917 59.1921 171.95 59.1821C171.967 59.1821 171.982 59.1771 172 59.1721C173.184 58.8404 174.329 58.414 175.421 57.8953C175.536 57.8404 175.65 57.7806 175.765 57.7257C175.99 57.616 176.212 57.5013 176.431 57.3816C176.578 57.3043 176.72 57.2245 176.867 57.1422C177.059 57.0325 177.249 56.9177 177.441 56.803C177.551 56.7382 177.658 56.6709 177.768 56.601C177.925 56.5038 178.084 56.399 178.241 56.2893C178.399 56.1846 178.558 56.0773 178.71 55.9676C178.753 55.9352 178.798 55.9078 178.842 55.8753C180.087 54.9801 181.231 53.9601 182.259 52.8305C182.336 52.7482 182.406 52.6734 182.478 52.5911C182.533 52.5312 182.588 52.4664 182.643 52.399C182.813 52.202 182.982 52.005 183.144 51.8055C183.199 51.7357 183.254 51.6634 183.309 51.5935C183.351 51.5387 183.391 51.4888 183.428 51.4414C183.483 51.3716 183.538 51.2993 183.593 51.2295C183.67 51.1247 183.745 51.0225 183.822 50.9128C183.92 50.7806 184.015 50.6509 184.107 50.5187C184.194 50.3866 184.286 50.2519 184.374 50.1197C184.379 50.1147 184.384 50.1023 184.384 50.0973C184.471 49.9601 184.558 49.8305 184.645 49.6933C184.733 49.5512 184.82 49.409 184.902 49.2669C184.985 49.1247 185.072 48.9876 185.147 48.8479C185.147 48.8479 185.148 48.8446 185.152 48.8379C185.229 48.7058 185.299 48.5761 185.371 48.4439C185.394 48.399 185.414 48.3616 185.436 48.3242C185.573 48.0574 185.708 47.7906 185.84 47.5162C185.905 47.3791 185.972 47.2444 186.032 47.1073C186.109 46.9327 186.184 46.7631 186.261 46.5886C186.321 46.4414 186.381 46.2943 186.441 46.1472C186.501 45.9901 186.561 45.8354 186.62 45.6783C186.675 45.5212 186.735 45.3616 186.785 45.2045C186.835 45.0674 186.882 44.9252 186.927 44.7781C186.937 44.7606 186.937 44.7457 186.945 44.7282C187 44.5636 187.049 44.4065 187.092 44.2419C187.129 44.1222 187.162 44.0025 187.197 43.8828C187.219 43.813 187.234 43.7357 187.256 43.6584C187.306 43.4739 187.349 43.2868 187.394 43.0973C187.421 43 187.443 42.9003 187.458 42.803C187.468 42.7706 187.476 42.7432 187.481 42.7108C187.508 42.596 187.531 42.4813 187.551 42.3666C187.561 42.3118 187.573 42.2569 187.583 42.2095C187.606 42.0948 187.625 41.9801 187.643 41.8654C187.675 41.6808 187.703 41.4988 187.73 41.3192C187.74 41.2494 187.753 41.1821 187.758 41.1123C187.775 41.02 187.785 40.9327 187.795 40.8404C187.8 40.7906 187.805 40.7432 187.813 40.6933C187.835 40.5362 187.85 40.3816 187.862 40.2295C187.88 40.0724 187.895 39.9128 187.905 39.7556C187.905 39.7182 187.91 39.6734 187.91 39.6359C187.92 39.4938 187.932 39.3517 187.937 39.2095V39.1721C187.947 39.0075 187.955 38.8454 187.96 38.6758V38.6584C187.96 38.4838 187.965 38.3093 187.965 38.1347V21.7407L187.284 21.222L187.276 21.2444ZM184.538 38.1571C184.538 38.3367 184.538 38.5113 184.533 38.6908C184.528 38.8155 184.523 38.9352 184.516 39.0624C184.516 39.1073 184.511 39.1546 184.511 39.1995C184.506 39.3242 184.493 39.4389 184.483 39.5586C184.483 39.5911 184.478 39.6235 184.478 39.6509C184.468 39.7831 184.456 39.9128 184.441 40.0449C184.441 40.0773 184.436 40.1048 184.436 40.1372C184.426 40.2519 184.409 40.3616 184.399 40.4763C184.394 40.4988 184.394 40.5212 184.389 40.5362C184.379 40.6185 184.366 40.7008 184.356 40.7756C184.351 40.808 184.351 40.8404 184.339 40.8679C184.334 40.9452 184.321 41.015 184.311 41.0873C184.289 41.202 184.274 41.3118 184.251 41.4265C184.241 41.4813 184.229 41.5362 184.219 41.5911C184.197 41.7232 184.169 41.8479 184.142 41.9726C184.077 42.3043 183.995 42.6334 183.907 42.9551C183.88 43.0649 183.847 43.1746 183.82 43.2768C183.81 43.3142 183.798 43.3467 183.788 43.3816C183.75 43.5138 183.71 43.6434 183.668 43.7681C183.668 43.7781 183.663 43.7856 183.663 43.7955C183.625 43.9003 183.593 44.0075 183.553 44.1123C183.531 44.1896 183.503 44.2644 183.476 44.3417C183.438 44.4514 183.394 44.5536 183.356 44.6634C183.301 44.8055 183.246 44.9477 183.192 45.0823C183.192 45.0823 183.188 45.0881 183.182 45.0998C183.137 45.2145 183.089 45.3292 183.039 45.4439C183.017 45.4938 182.995 45.5412 182.975 45.5911C182.925 45.7058 182.877 45.8155 182.822 45.9227C182.79 46 182.758 46.0699 182.718 46.1472C182.653 46.2843 182.581 46.419 182.516 46.5561C182.473 46.6384 182.428 46.7257 182.384 46.808C182.341 46.8903 182.291 46.9726 182.246 47.0524C181.511 48.3841 180.616 49.611 179.583 50.7182H179.578C179.344 50.9751 179.092 51.2245 178.842 51.4714V51.5038C177.827 52.5013 176.675 53.3641 175.421 54.0574C175.394 54.0748 175.366 54.0848 175.339 54.0998V54.1048C174.286 54.7108 173.172 55.222 172 55.616C171.748 55.7033 171.498 55.7806 171.241 55.8554C170.805 55.9801 170.364 56.0898 169.915 56.1871H169.91C169.229 56.3566 168.536 56.4813 167.82 56.5636C167.264 56.6235 166.695 56.6559 166.117 56.6559C165.538 56.6559 164.965 56.6235 164.404 56.5586C163.723 56.4888 163.049 56.3666 162.396 56.2045C162.391 56.2045 162.386 56.2045 162.379 56.1995C161.91 56.1023 161.441 55.9876 160.982 55.8554C160.895 55.828 160.813 55.8055 160.725 55.7781C160.643 55.7507 160.556 55.7232 160.473 55.6958C160.386 55.6684 160.304 55.6409 160.221 55.6135C159.137 55.2469 158.089 54.7781 157.102 54.227C157.102 54.222 157.097 54.222 157.092 54.217C157 54.1621 156.9 54.1073 156.803 54.0524V54.0624C155.553 53.3866 154.401 52.5462 153.386 51.5636C152.678 50.8828 152.032 50.1297 151.466 49.3217C150.915 48.606 150.418 47.8429 149.977 47.0474C149.84 46.803 149.71 46.5512 149.583 46.2943C149.533 46.1896 149.478 46.0823 149.431 45.9776C149.316 45.7332 149.202 45.4813 149.099 45.2295C149.067 45.1522 149.034 45.0773 149.007 45C148.97 44.9028 148.93 44.803 148.892 44.7108C148.865 44.6334 148.837 44.5636 148.81 44.4863C148.805 44.4689 148.8 44.4539 148.793 44.4414C148.738 44.2993 148.688 44.1571 148.64 44.01C148.63 43.9726 148.613 43.9277 148.603 43.8903C148.576 43.808 148.548 43.7257 148.526 43.6509C148.466 43.4664 148.411 43.2793 148.361 43.0998C148.334 43.0075 148.306 42.9152 148.284 42.8205C148.261 42.7232 148.234 42.6285 148.214 42.5362C148.192 42.4439 148.164 42.3517 148.149 42.2519C148.107 42.0674 148.062 41.8753 148.029 41.6833C147.992 41.4913 147.952 41.3018 147.925 41.1098C147.875 40.8205 147.837 40.5262 147.805 40.232C147.788 40.1397 147.778 40.0399 147.773 39.9427C147.75 39.7457 147.735 39.5437 147.723 39.3492C147.713 39.1522 147.7 38.9502 147.695 38.7556C147.69 38.5536 147.685 38.3517 147.685 38.1497V23.5187C149.114 22.6185 152.738 20.601 158.012 19.4265C158.182 19.3891 158.356 19.3566 158.531 19.3167C158.715 19.2793 158.897 19.2469 159.082 19.207C159.179 19.1896 159.274 19.1746 159.366 19.1571C159.458 19.1347 159.558 19.1197 159.655 19.1023C159.962 19.0524 160.266 18.9975 160.583 18.9551H160.588C160.808 18.9227 161.029 18.8903 161.259 18.8629C161.488 18.8305 161.718 18.803 161.952 18.7806C162.448 18.7257 162.957 18.6758 163.468 18.6434C164.324 18.5836 165.204 18.5512 166.109 18.5512C167.015 18.5512 167.9 18.5836 168.75 18.6434C169.269 18.6758 169.775 18.7257 170.271 18.7806C170.501 18.803 170.73 18.8305 170.96 18.8629C171.189 18.8903 171.414 18.9227 171.635 18.9551C171.952 19 172.264 19.0474 172.568 19.1023C172.66 19.1197 172.76 19.1347 172.852 19.1571C172.95 19.1746 173.044 19.1896 173.137 19.207C173.321 19.2444 173.508 19.2768 173.688 19.3167C173.862 19.3541 174.037 19.3866 174.207 19.4265C179.488 20.5985 183.104 22.6185 184.533 23.5187V38.1497L184.538 38.1571ZM178.842 51.4689V51.5013C179.099 51.2494 179.344 50.9876 179.581 50.7182C179.341 50.9751 179.094 51.2245 178.842 51.4689ZM179.65 30.1945C179.401 30.1945 179.152 30.0998 178.962 29.9103C166.618 17.5811 154.478 28.0674 153.97 28.5187C153.566 28.8753 152.95 28.8404 152.593 28.4364C152.236 28.0349 152.271 27.419 152.673 27.0599C152.81 26.9377 166.683 14.8878 180.341 28.5287C180.723 28.9103 180.723 29.5262 180.341 29.9078C180.152 30.0998 179.9 30.1945 179.65 30.1945ZM179.212 35.8629C178.872 35.8629 178.541 35.6858 178.361 35.3691C175.723 30.7257 171.857 27.8454 167.476 27.2644C162.79 26.6384 157.85 28.6858 153.556 33.02C153.177 33.404 152.558 33.4065 152.177 33.0275C151.795 32.6484 151.79 32.03 152.169 31.6484C156.902 26.8704 162.426 24.626 167.73 25.3317C172.733 25.995 177.109 29.2195 180.054 34.4065C180.321 34.8753 180.157 35.4714 179.688 35.7357C179.536 35.823 179.371 35.8629 179.207 35.8629H179.212ZM176.927 46.3142C176.862 46.3142 176.798 46.3093 176.733 46.2943C176.204 46.1871 175.865 45.6709 175.972 45.1447C176.72 41.4664 176.192 38.3267 174.399 35.818C172.563 33.2444 169.418 31.4963 165.773 31.0175C159.738 30.2344 153.406 37.8978 153.344 37.9751C153.002 38.3916 152.389 38.4564 151.972 38.1147C151.556 37.7756 151.491 37.1621 151.83 36.7432C152.114 36.3916 158.895 28.1397 166.027 29.0798C170.209 29.6285 173.84 31.6709 175.99 34.6808C178.079 37.606 178.735 41.3591 177.887 45.5312C177.793 45.9926 177.386 46.3118 176.932 46.3118L176.927 46.3142ZM165.67 54.7656C165.401 54.7656 165.129 54.6534 164.932 54.429C164.596 54.0424 164.653 53.4464 165.005 53.0724L170.705 47.005C171.89 45.6185 172.601 43.9676 172.673 42.3841C172.793 39.3591 171.239 36.7856 168.516 35.4988C165.556 34.1023 162.032 34.6409 159.536 36.8679C159.516 36.8878 159.052 37.3417 154.249 42.0399C153.865 42.4165 153.241 42.414 152.865 42.0275C152.488 41.6434 152.496 41.025 152.88 40.6484L158.197 35.4464C161.314 32.6634 165.675 32.0025 169.346 33.7357C172.8 35.3666 174.773 38.631 174.62 42.4689C174.501 45.0574 173.214 47.0748 172.154 48.3093L166.379 54.4589C166.187 54.6634 165.927 54.7656 165.668 54.7656H165.67ZM162.623 53.0848C162.386 53.0848 162.149 53 161.962 52.8255C161.566 52.4589 161.541 51.8429 161.907 51.4464L167.905 44.9502C168.369 44.4065 168.962 43.4888 169.015 42.3517C169.072 40.5911 168.084 38.9676 166.611 38.414C165.017 37.7207 162.897 38.0848 161.618 39.2444L155.476 45.5761C155.102 45.9626 154.483 45.9726 154.097 45.5985C153.71 45.2245 153.7 44.606 154.074 44.2195L160.236 37.8654C160.249 37.8529 160.261 37.8379 160.276 37.8255C162.114 36.1347 165.087 35.621 167.341 36.606C169.538 37.429 171.047 39.8305 170.962 42.429C170.9 43.7806 170.346 45.0973 169.359 46.2469L163.339 52.7681C163.147 52.9751 162.885 53.0823 162.62 53.0823L162.623 53.0848ZM160.324 51.1472C160.087 51.1472 159.85 51.0624 159.663 50.8903C159.266 50.5262 159.241 49.9078 159.606 49.5113L165.284 43.3367C165.498 43.1098 165.606 42.8255 165.598 42.5262C165.591 42.227 165.466 41.9502 165.249 41.7457C165.032 41.5412 164.765 41.429 164.448 41.4414C164.149 41.4489 163.872 41.5736 163.668 41.7906L157.877 48.0848C157.513 48.4813 156.895 48.5063 156.498 48.1422C156.102 47.7781 156.077 47.1596 156.441 46.7631L162.241 40.4614C162.813 39.8554 163.576 39.5137 164.396 39.4913C165.214 39.4788 165.995 39.7656 166.591 40.3292C167.187 40.8928 167.528 41.6534 167.551 42.4739C167.573 43.2943 167.276 44.0723 166.713 44.6684L161.044 50.833C160.852 51.0424 160.588 51.1472 160.326 51.1472H160.324Z" fill="url(#paint0_linear_609_6039)"/>
<path d="M188.09 13.5236H187.292V13.0548H189.461V13.5236H188.663V15.5436H188.087V13.5236H188.09Z" fill="#049894"/>
<path d="M192.037 15.5436V14.0499L191.301 15.2818H191.042L190.314 14.0823V15.5436H189.773V13.0524H190.249L191.182 14.601L192.099 13.0524H192.573L192.581 15.5436H192.04H192.037Z" fill="#049894"/>
<defs>
<linearGradient id="paint0_linear_609_6039" x1="144.269" y1="30" x2="187.957" y2="30" gradientUnits="userSpaceOnUse">
<stop stop-color="#29295B"/>
<stop offset="1" stop-color="#029D96"/>
</linearGradient>
</defs>
</svg>
