<?xml version="1.0" encoding="UTF-8"?>
<svg id="Layer_2" data-name="Layer 2" xmlns="http://www.w3.org/2000/svg" xmlns:xlink="http://www.w3.org/1999/xlink" viewBox="0 0 385.39 118.28">
  <defs>
    <style>
      .cls-1 {
        fill: url(#linear-gradient-2);
      }

      .cls-2 {
        fill: url(#linear-gradient-3);
      }

      .cls-3 {
        fill: url(#linear-gradient);
      }

      .cls-4 {
        fill: url(#linear-gradient-4);
      }
    </style>
    <linearGradient id="linear-gradient" x1="111.37" y1="87.85" x2="385.39" y2="87.85" gradientUnits="userSpaceOnUse">
      <stop offset="0" stop-color="#29295b"/>
      <stop offset=".82" stop-color="#029d96"/>
    </linearGradient>
    <linearGradient id="linear-gradient-2" x1="5.42" y1="59.14" x2="91.54" y2="59.14" gradientUnits="userSpaceOnUse">
      <stop offset="0" stop-color="#29295b"/>
      <stop offset="1" stop-color="#029d96"/>
    </linearGradient>
    <linearGradient id="linear-gradient-3" x1="112.81" y1="58.47" x2="442.52" y2="29.95" gradientUnits="userSpaceOnUse">
      <stop offset=".06" stop-color="#29295b"/>
      <stop offset=".18" stop-color="#272d5d"/>
      <stop offset=".32" stop-color="#223b64"/>
      <stop offset=".47" stop-color="#1b516f"/>
      <stop offset=".62" stop-color="#10707f"/>
      <stop offset=".78" stop-color="#039893"/>
      <stop offset=".79" stop-color="#029d96"/>
    </linearGradient>
    <linearGradient id="linear-gradient-4" x1="0" y1="26.41" x2="10.8" y2="26.41" xlink:href="#linear-gradient-2"/>
  </defs>
  <g id="Layer_1-2" data-name="Layer 1">
    <g>
      <path class="cls-3" d="m120.99,82.45c-.92-.29-1.73-.44-2.44-.44-.78,0-1.4.15-1.86.44s-.69.7-.69,1.22c0,.47.16.87.48,1.19.32.32.72.58,1.2.78.48.2,1.14.43,1.97.67,1.16.34,2.11.69,2.85,1.03.74.34,1.38.85,1.9,1.52.52.67.78,1.55.78,2.65s-.28,1.96-.84,2.73c-.56.78-1.34,1.37-2.33,1.78-.99.41-2.12.61-3.39.61-1.34,0-2.65-.25-3.92-.75-1.27-.5-2.38-1.16-3.33-2l1.37-2.79c.87.8,1.84,1.43,2.92,1.89,1.08.46,2.08.69,3.01.69s1.63-.18,2.16-.53c.52-.35.78-.83.78-1.43,0-.49-.16-.89-.48-1.21-.32-.32-.72-.58-1.21-.77s-1.16-.42-2.01-.66c-1.16-.34-2.11-.68-2.84-1s-1.36-.82-1.89-1.48c-.52-.66-.78-1.53-.78-2.61,0-1,.27-1.87.8-2.61.53-.74,1.28-1.32,2.25-1.73.97-.41,2.09-.61,3.37-.61,1.11,0,2.21.16,3.29.49,1.09.33,2.05.77,2.9,1.32l-1.32,2.87c-.88-.54-1.78-.96-2.71-1.25Zm25.27-3.16v2.87h-9.28v4.24h8.33v2.87h-8.33v4.31h9.58v2.87h-12.86v-17.15h12.57Zm19.29,3.31c-.82-.39-1.66-.59-2.51-.59-1.06,0-2.03.25-2.92.76-.88.51-1.58,1.2-2.08,2.09-.51.89-.76,1.87-.76,2.93s.25,2.04.76,2.93c.51.89,1.2,1.59,2.08,2.11.88.51,1.85.77,2.92.77.82,0,1.64-.18,2.46-.54.82-.36,1.56-.86,2.19-1.49l1.93,2.16c-.9.91-1.94,1.64-3.13,2.17-1.19.53-2.4.8-3.63.8-1.65,0-3.16-.39-4.53-1.18s-2.45-1.85-3.23-3.2c-.78-1.35-1.18-2.84-1.18-4.47s.4-3.12,1.2-4.46c.8-1.34,1.89-2.39,3.27-3.16,1.38-.77,2.91-1.15,4.59-1.15,1.22,0,2.42.24,3.6.73s2.18,1.17,3.01,2.03l-1.91,2.4c-.6-.7-1.32-1.25-2.14-1.64Zm16.28,9.97c.77.77,1.8,1.15,3.09,1.15s2.31-.38,3.05-1.15c.74-.77,1.11-1.83,1.11-3.18v-10.09h3.28v10.09c0,1.49-.3,2.78-.91,3.88-.6,1.1-1.47,1.95-2.58,2.54-1.12.59-2.44.88-3.96.88s-2.87-.29-4-.88c-1.14-.59-2-1.43-2.61-2.54-.6-1.1-.91-2.4-.91-3.88v-10.09h3.28v10.09c0,1.36.38,2.42,1.15,3.18Zm30.52,3.87l-2.96-5.07c-.13.02-.34.02-.61.02h-3.87v5.05h-3.28v-17.15h7.15c2.22,0,3.94.51,5.14,1.54,1.21,1.03,1.81,2.48,1.81,4.36,0,1.34-.29,2.48-.87,3.43-.58.95-1.42,1.66-2.54,2.13l3.77,5.68h-3.75Zm-7.45-7.94h3.87c1.24,0,2.19-.27,2.84-.81.65-.54.98-1.34.98-2.4s-.33-1.83-.98-2.35c-.65-.52-1.6-.78-2.84-.78h-3.87v6.34Zm23.1-9.21v17.15h-3.28v-17.15h3.28Zm21.68,0v2.91h-5.34v14.23h-3.31v-14.23h-5.34v-2.91h13.99Zm15.26,11.54v5.61h-3.28v-5.49l-6.39-11.66h3.33l4.68,8.06,4.61-8.06h3.31l-6.25,11.54Zm37.78-9.99c1.18,1.03,1.78,2.48,1.78,4.36s-.59,3.48-1.78,4.57c-1.18,1.09-2.85,1.63-5.01,1.63h-3.75v5.05h-3.28v-17.15h7.03c2.16,0,3.82.51,5.01,1.54Zm-2.33,6.86c.66-.54.99-1.34.99-2.4s-.33-1.83-.99-2.35c-.66-.52-1.61-.78-2.85-.78h-3.58v6.34h3.58c1.24,0,2.19-.27,2.85-.81Zm22.94,8.74l-2.96-5.07c-.13.02-.34.02-.61.02h-3.87v5.05h-3.28v-17.15h7.15c2.22,0,3.94.51,5.14,1.54,1.21,1.03,1.81,2.48,1.81,4.36,0,1.34-.29,2.48-.87,3.43-.58.95-1.42,1.66-2.54,2.13l3.77,5.68h-3.75Zm-7.45-7.94h3.87c1.24,0,2.19-.27,2.84-.81.65-.54.98-1.34.98-2.4s-.33-1.83-.98-2.35c-.65-.52-1.6-.78-2.84-.78h-3.87v6.34Zm23.1-9.21v17.15h-3.28v-17.15h3.28Zm24.74,0v17.15h-3.11l-8.82-11.81v11.81h-3.21v-17.15h3.11l8.84,11.83v-11.83h3.18Zm21.68,0v2.91h-5.34v14.23h-3.31v-14.23h-5.34v-2.91h13.99Z"/>
      <path class="cls-1" d="m43.53,105.31s.02.02.03.04c0-.02.01-.05.02-.07h-.04s-.02.02-.02.03Zm46.67-63.43s-.05-.03-.11-.08c-.01-.01-.03-.02-.05-.03-.29-.22-.92-.67-1.9-1.27-.1-.06-.22-.14-.32-.2-.12-.08-.24-.15-.37-.23-.05-.03-.12-.08-.18-.11-1.53-.91-3.62-2.06-6.25-3.26-.22-.1-.44-.19-.67-.29-.23-.11-.45-.2-.69-.3-.24-.11-.47-.2-.71-.3-.24-.1-.48-.2-.73-.3-.25-.11-.51-.2-.75-.3-.26-.1-.52-.2-.77-.3-2.04-.77-4.29-1.52-6.74-2.19-.38-.1-.75-.2-1.14-.3-.58-.15-1.16-.3-1.76-.44-.4-.1-.8-.18-1.2-.27-.41-.09-.83-.17-1.24-.26-.22-.04-.42-.09-.63-.13-.18-.03-.35-.06-.54-.1-.67-.13-1.34-.25-2.04-.35-.43-.06-.86-.14-1.3-.19-.24-.04-.46-.08-.71-.11-.45-.05-.9-.12-1.37-.16-.2-.03-.41-.05-.61-.08-.03,0-.05-.01-.09-.01-.28-.03-.56-.05-.84-.09-.37-.03-.73-.06-1.1-.1-.42-.03-.85-.08-1.29-.1-.27-.02-.54-.03-.81-.05-.46-.02-.94-.04-1.41-.06l-.71-.03c-.13,0-.26,0-.39-.01h-.2c-.3-.01-.6-.01-.89-.02-.4,0-.8-.01-1.19-.01s-.79.01-1.18.01c-.3.01-.6.01-.9.02h-.2c-.13.01-.25.01-.38.01-.25.01-.47.02-.71.03-.47.02-.95.04-1.41.06-.28.02-.55.03-.82.05-.43.02-.86.06-1.29.1-.37.03-.73.06-1.1.1-.28.03-.56.05-.84.09-.02,0-.05.01-.08.01-.2.02-.42.04-.62.08-.45.04-.91.11-1.37.16-.24.03-.47.06-.71.11-.44.05-.87.13-1.29.19-.7.11-1.39.23-2.05.35-.18.03-.35.06-.54.1-.2.04-.42.08-.62.13-.42.09-.83.17-1.24.26-.41.09-.82.18-1.22.27-.59.14-1.18.29-1.76.44-.39.1-.76.2-1.14.3v-4.51c0-.85.05-1.7.15-2.53.33-2.81,1.2-5.44,2.52-7.82.24-.43.49-.85.75-1.26h0c.27-.42.55-.82.84-1.22.15-.19.3-.39.45-.57h0c.18-.25.38-.47.58-.7.4-.45.81-.89,1.24-1.31.12-.11.23-.22.34-.32.81-.74,1.67-1.43,2.58-2.05.52-.35,1.05-.68,1.6-.99.14-.08.29-.15.43-.23s.28-.15.42-.23c.29-.14.57-.27.85-.4.03-.01.05-.02.09-.03.13-.06.26-.12.39-.17.23-.1.45-.19.68-.27.23-.09.46-.17.69-.25.16-.05.33-.11.49-.16.3-.1.61-.18.91-.26.15-.04.31-.09.46-.12t.02-.01c.16-.03.31-.08.47-.11.16-.03.32-.06.49-.1.14-.02.28-.05.42-.08.12-.02.25-.04.37-.06.12-.01.23-.02.34-.04.11-.01.22-.03.32-.04.14-.01.28-.03.42-.04.14-.01.29-.03.44-.04h.06c.12-.01.24-.02.35-.02.42-.03.85-.04,1.28-.04s.85.01,1.28.04c.12,0,.25.01.37.02h.02c.16.01.32.02.48.04.14.01.28.03.42.04.11.01.22.03.32.04.11.02.23.03.33.04.13.02.25.04.37.06.15.02.29.05.43.08.16.03.32.06.48.1.16.03.31.08.46.11.02,0,.05.01.08.02.14.03.28.06.42.11.31.08.61.16.91.26.16.05.33.11.49.16.15.05.31.11.46.16.3.11.6.23.9.35.13.05.26.11.39.17.03.01.06.02.09.03.28.12.57.26.85.4.14.08.28.14.43.23.14.06.28.14.42.23.56.31,1.1.63,1.61.99.52.35,1.02.73,1.51,1.13.49.4.96.81,1.41,1.25.43.42.85.86,1.24,1.31.2.23.4.45.58.69t0,.01c.16.18.3.38.45.57.29.4.57.8.84,1.2h0c.27.42.52.84.76,1.27,1.3,2.38,2.17,5.01,2.51,7.82,2.46.61,4.76,1.3,6.88,2.03-.12-6.46-2.41-12.41-6.18-17.12-.14-.17-.28-.34-.43-.52-.14-.17-.29-.34-.43-.51-.15-.17-.3-.33-.45-.49-.3-.33-.61-.66-.94-.97-.16-.16-.32-.31-.48-.46-.16-.15-.32-.3-.49-.45-.14-.13-.29-.26-.43-.39-.23-.19-.46-.39-.69-.57-.13-.11-.26-.2-.39-.3-.24-.19-.47-.37-.72-.55-.12-.09-.24-.17-.37-.26-.02-.02-.05-.04-.09-.06-.16-.12-.32-.23-.49-.33-.42-.28-.84-.55-1.27-.8-.15-.1-.3-.18-.45-.27-.25-.14-.51-.28-.76-.42-.14-.08-.28-.15-.43-.22-.2-.12-.42-.22-.65-.32-.17-.09-.35-.17-.54-.25-.18-.09-.37-.16-.55-.24-.22-.1-.42-.18-.63-.27-.14-.05-.28-.11-.42-.15-.29-.12-.58-.23-.88-.32-.15-.05-.31-.11-.47-.15-.58-.19-1.16-.35-1.75-.49-.17-.05-.33-.09-.51-.13-.23-.05-.45-.1-.68-.15-1.13-.23-2.28-.39-3.45-.47-.46-.03-.93-.06-1.39-.08-.26-.01-.53-.01-.79-.01s-.54,0-.81.01c-.46.01-.91.04-1.36.08-.46.03-.93.09-1.39.14-.22.02-.44.05-.67.09-.46.08-.94.16-1.4.25-.24.05-.46.1-.68.15-.16.03-.32.08-.47.12-.52.12-1.02.26-1.53.42-.14.04-.28.09-.42.14-.59.18-1.16.39-1.72.61-.18.08-.37.15-.54.23-.17.06-.34.15-.52.22-.19.1-.39.18-.58.28-.22.1-.43.2-.63.31-.18.09-.37.18-.54.28-.03.01-.06.02-.09.04-.39.2-.77.43-1.15.66-.19.12-.39.23-.57.35-.19.12-.38.24-.56.37-.17.11-.34.23-.52.34-.02.02-.04.03-.08.05-.17.12-.34.25-.52.38-.17.13-.35.26-.54.4-.17.14-.34.28-.52.42-.17.14-.34.28-.52.43-.26.22-.51.43-.75.67-.25.23-.49.45-.73.69-.63.62-1.25,1.28-1.82,1.97-.14.17-.28.33-.42.51-.23.3-.46.59-.69.89-.11.16-.22.31-.33.46-.11.16-.22.31-.32.47-.11.15-.2.31-.31.47-.17.27-.34.54-.51.81-.09.14-.17.28-.25.42-.15.25-.29.51-.42.76-.14.25-.28.51-.41.76-1.9,3.79-2.97,8.06-2.97,12.57v6.7c-.26.1-.52.2-.77.3-.25.1-.51.19-.75.3-.25.1-.49.2-.73.3-.24.1-.47.19-.71.3-.24.1-.46.19-.69.3-.23.1-.45.19-.67.29-.18.09-.37.17-.55.26-.53.25-1.02.48-1.51.72-.32.16-.65.32-.95.48-.18.09-.37.18-.54.28-.17.09-.34.18-.51.27-.16.09-.33.17-.48.26-1.19.66-2.16,1.25-2.9,1.72-.1.06-.19.12-.29.18-.31.2-.58.39-.8.54-.06.04-.13.08-.18.12-.13.1-.24.17-.32.24-.02.01-.04.02-.05.03-.05.04-.09.06-.11.08l-1.34,1.02v32.32c0,.34.01.69.02,1.03v.03c0,.33.01.66.03.98v.08c.01.28.03.56.05.84,0,.09.01.16.01.24.02.31.05.62.09.94.02.3.05.6.1.91.01.1.02.19.03.29.02.18.04.35.08.54.01.14.03.27.05.41.05.35.11.71.17,1.08.03.23.08.45.12.68.02.1.04.2.06.31.04.23.09.45.14.68.01.06.02.13.04.18.03.19.09.39.13.58.04.2.1.42.15.62.05.23.11.45.17.68.08.29.16.58.25.87.01.08.03.14.05.2.08.25.15.49.23.74.02.06.04.13.06.19.09.29.18.57.28.84.08.24.16.47.25.71.05.15.11.3.16.45.06.16.12.31.18.46.28.72.58,1.43.89,2.13.12.27.25.54.38.81.14.29.28.58.43.87.17.34.35.68.53,1.02.14.24.27.47.4.72.16.28.32.56.49.84.15.26.3.51.45.75.04.05.08.12.12.18.15.23.29.46.45.7.01.01.01.02.03.04.17.26.34.53.53.79l.55.77s.01.01.01.02c.18.26.37.51.56.75.01.02.03.04.04.06.16.2.32.41.47.61.63.8,1.3,1.58,1.99,2.33,2.03,2.23,4.28,4.24,6.74,6,.05.05.13.1.19.14.42.3.85.6,1.29.88.2.14.41.27.6.4.02.01.03.02.05.02.2.14.41.26.61.39.32.2.65.4.98.58.18.11.37.22.56.31.19.11.39.22.58.31.17.1.33.18.51.27.44.24.89.46,1.36.68,2.15,1.02,4.41,1.86,6.74,2.52.08.02.15.04.24.06.14.04.29.08.43.12.25.06.48.13.73.18.03.01.06.01.1.02,2.18.53,4.44.89,6.74,1.06h0c.05.01.12.02.17.02.17.01.34.02.51.03.1.01.18.01.28.02.14,0,.29.01.43.02.14,0,.27.01.4.01.25.01.49.02.73.02.29,0,.57.01.85.01s.57-.01.85-.01c.25,0,.48-.01.73-.02.13,0,.26-.01.4-.01.14-.01.29-.02.43-.02.1-.01.19-.01.28-.02.16-.01.33-.02.49-.03.06,0,.13-.01.18-.01h0c2.31-.18,4.56-.55,6.74-1.08.41-.1.81-.19,1.2-.31.06-.01.13-.03.19-.05.03,0,.06-.01.1-.02,2.33-.66,4.59-1.49,6.74-2.52.23-.11.45-.23.68-.33.44-.22.88-.44,1.31-.68.29-.15.57-.31.86-.47.38-.22.75-.44,1.13-.67.22-.13.43-.26.65-.4.31-.19.62-.4.94-.61.31-.2.62-.42.92-.63.09-.06.17-.12.26-.18,2.45-1.76,4.71-3.77,6.73-6,.15-.16.29-.31.43-.47.11-.12.22-.25.32-.38.33-.39.67-.77.99-1.17.11-.14.22-.28.32-.42.09-.11.16-.2.24-.3.11-.14.22-.28.32-.42.15-.2.3-.41.45-.62.19-.26.38-.52.56-.77.17-.26.35-.53.53-.79.01-.01.02-.03.02-.04.17-.27.34-.53.52-.8.17-.28.34-.56.51-.84.16-.28.33-.55.48-.83t.01-.02c.15-.26.29-.52.43-.77.04-.09.09-.16.13-.24.27-.53.54-1.05.8-1.59.13-.27.26-.54.38-.81.15-.34.3-.68.45-1.02.12-.29.24-.58.35-.87.12-.31.24-.61.35-.92.11-.31.23-.62.32-.94.1-.27.19-.55.28-.84.02-.03.02-.06.03-.1.11-.32.2-.63.29-.96.08-.24.14-.47.2-.71.04-.14.08-.29.12-.44.1-.37.18-.73.27-1.11.05-.19.1-.39.13-.58.02-.06.03-.12.04-.18.05-.23.1-.45.14-.68.02-.11.04-.22.06-.31.04-.23.09-.45.12-.68.06-.37.12-.72.17-1.08.02-.14.04-.27.05-.41.03-.18.05-.35.08-.54.01-.1.02-.19.03-.29.04-.31.08-.61.1-.91.03-.31.06-.62.09-.94,0-.08.01-.16.01-.24.02-.28.04-.56.05-.84v-.08c.02-.32.03-.65.04-.98v-.03c0-.34.01-.69.01-1.03v-32.32l-1.34-1.02Zm-5.4,33.34c0,.35,0,.7-.01,1.05-.01.25-.02.48-.03.73,0,.09-.01.18-.01.27-.01.25-.03.47-.05.71,0,.06-.01.13-.01.18-.02.26-.04.52-.08.77,0,.06-.01.12-.01.18-.02.23-.05.44-.08.67-.01.04-.01.09-.02.12-.02.16-.04.32-.06.47-.01.06-.01.13-.03.18-.01.15-.03.29-.05.43-.04.23-.08.44-.12.67-.02.11-.04.22-.06.32-.04.26-.1.51-.15.75-.13.66-.29,1.3-.46,1.94-.05.22-.12.43-.17.63-.02.08-.04.14-.06.2-.08.26-.15.52-.24.76,0,.02-.01.03-.01.05-.08.2-.14.42-.22.62-.04.15-.1.3-.15.45-.08.22-.16.42-.24.63-.11.28-.22.56-.32.83t-.02.03c-.09.23-.18.45-.28.68-.04.1-.09.19-.13.29-.1.23-.19.44-.3.66-.06.15-.13.29-.2.44-.13.27-.27.54-.4.81-.09.16-.17.33-.26.49-.09.16-.18.32-.27.48-1.45,2.62-3.22,5.04-5.25,7.23h-.01c-.46.51-.96,1-1.45,1.48v.06c-2,1.97-4.27,3.67-6.74,5.03-.05.03-.11.05-.16.09h0c-2.08,1.2-4.27,2.22-6.58,2.99-.49.17-.99.32-1.5.47-.86.25-1.73.46-2.61.66h-.01c-1.34.33-2.71.58-4.12.74-1.1.12-2.22.18-3.36.18s-2.27-.06-3.38-.19c-1.34-.14-2.67-.38-3.96-.7-.01,0-.02,0-.03-.01-.92-.19-1.85-.42-2.75-.68-.17-.05-.33-.1-.51-.15-.16-.05-.33-.11-.49-.16-.17-.05-.33-.11-.49-.16-2.14-.72-4.21-1.65-6.15-2.73,0-.01-.01-.01-.02-.02-.18-.11-.38-.22-.57-.32v.02c-2.46-1.33-4.73-2.99-6.73-4.93-1.4-1.34-2.67-2.83-3.79-4.42-1.09-1.41-2.06-2.91-2.94-4.48-.27-.48-.53-.98-.77-1.48-.1-.2-.2-.42-.3-.62-.23-.48-.45-.98-.66-1.47-.06-.15-.13-.3-.18-.45-.08-.19-.15-.39-.23-.57-.05-.15-.11-.29-.16-.44-.01-.03-.02-.06-.03-.09-.11-.28-.2-.56-.3-.85-.02-.08-.05-.16-.08-.24-.05-.16-.11-.32-.15-.47-.12-.37-.23-.73-.32-1.09-.05-.18-.11-.37-.15-.55-.04-.19-.1-.38-.14-.56-.04-.18-.1-.37-.13-.56-.09-.37-.17-.74-.24-1.12-.08-.38-.15-.75-.2-1.13-.1-.57-.17-1.15-.24-1.73-.03-.18-.05-.38-.06-.57-.04-.39-.08-.79-.1-1.17-.02-.39-.04-.79-.05-1.17-.01-.4-.02-.8-.02-1.19v-28.84c2.82-1.77,9.96-5.75,20.36-8.07.33-.08.68-.14,1.02-.22.37-.08.72-.14,1.09-.22.19-.03.38-.06.56-.1.18-.04.38-.08.57-.11.6-.1,1.2-.2,1.83-.29h.01c.43-.06.87-.13,1.32-.18.45-.06.9-.12,1.37-.16.98-.11,1.98-.2,2.99-.27,1.69-.12,3.42-.18,5.21-.18s3.53.06,5.21.18c1.02.06,2.02.16,3,.27.45.04.9.1,1.36.16.45.05.89.12,1.33.18.62.09,1.24.18,1.84.29.18.03.38.06.56.11.19.03.38.06.56.1.37.08.73.14,1.09.22.34.08.69.14,1.02.22,10.41,2.31,17.54,6.29,20.36,8.07v28.84Zm-11.23,26.24v.06c.51-.5.99-1.01,1.46-1.54-.47.51-.96,1-1.46,1.48Zm1.59-41.94c-.49,0-.98-.19-1.36-.56-24.33-24.3-48.26-3.64-49.27-2.74-.79.7-2.01.63-2.71-.16-.71-.79-.63-2.01.16-2.71.27-.24,27.62-24,54.54,2.9.75.75.75,1.97,0,2.72-.38.38-.87.56-1.36.56Zm-.87,11.17c-.67,0-1.32-.35-1.67-.97-5.2-9.16-12.82-14.83-21.46-15.98-9.24-1.23-18.98,2.8-27.44,11.35-.75.76-1.97.76-2.72.01-.75-.75-.76-1.97-.01-2.72,9.33-9.42,20.22-13.84,30.68-12.45,9.86,1.31,18.49,7.66,24.29,17.89.52.92.2,2.1-.72,2.62-.3.17-.63.25-.95.25Zm-4.5,20.6c-.13,0-.26-.01-.39-.04-1.04-.21-1.71-1.23-1.5-2.27,1.47-7.25.43-13.44-3.1-18.39-3.62-5.07-9.82-8.52-17.01-9.46-11.9-1.55-24.38,13.56-24.5,13.72-.67.82-1.88.95-2.71.28-.82-.67-.95-1.88-.28-2.7.56-.69,13.93-16.96,27.99-15.1,8.24,1.08,15.4,5.11,19.64,11.04,4.12,5.77,5.41,13.16,3.74,21.39-.19.91-.99,1.54-1.88,1.54Zm-22.19,16.66c-.53,0-1.07-.22-1.45-.66-.66-.76-.55-1.94.14-2.67l11.24-11.96c2.34-2.73,3.74-5.99,3.88-9.11.24-5.96-2.83-11.04-8.19-13.57-5.83-2.75-12.78-1.69-17.7,2.7-.04.04-.95.94-10.42,10.2-.76.74-1.98.74-2.73-.02h0c-.74-.76-.73-1.98.03-2.72l10.48-10.26c6.14-5.49,14.74-6.79,21.98-3.37,6.81,3.21,10.7,9.65,10.4,17.21-.24,5.1-2.77,9.08-4.86,11.51l-11.39,12.12c-.38.4-.89.61-1.4.61Zm-6.01-3.31c-.47,0-.93-.17-1.31-.51-.78-.72-.83-1.94-.11-2.72l11.82-12.8c.92-1.07,2.09-2.88,2.19-5.12.11-3.47-1.84-6.67-4.74-7.76-3.14-1.37-7.32-.65-9.84,1.64l-12.11,12.48c-.74.76-1.96.78-2.72.04-.76-.74-.78-1.96-.04-2.72l12.15-12.53s.05-.05.08-.08c3.62-3.33,9.48-4.35,13.93-2.4,4.33,1.62,7.31,6.36,7.14,11.48-.12,2.66-1.21,5.26-3.16,7.53l-11.87,12.86c-.38.41-.9.62-1.41.62Zm-4.53-3.82c-.47,0-.93-.17-1.3-.51-.78-.72-.83-1.94-.11-2.72l11.19-12.17c.42-.45.64-1.01.62-1.6-.02-.59-.26-1.14-.69-1.54-.43-.4-.95-.63-1.58-.6-.59.02-1.14.26-1.54.69l-11.41,12.41c-.72.78-1.94.83-2.72.11-.78-.72-.83-1.94-.11-2.72l11.43-12.42c1.13-1.19,2.63-1.87,4.25-1.91,1.61-.03,3.15.54,4.33,1.65,1.17,1.11,1.85,2.61,1.89,4.23.05,1.62-.54,3.15-1.65,4.33l-11.18,12.15c-.38.41-.9.62-1.42.62Z"/>
      <path class="cls-2" d="m212.76,71.6h0v.06h-.05v-.06h.05Zm169.09-5.78c-1.02,0-1.87.34-2.54,1.03-.67.69-1.01,1.56-1.01,2.62s.33,1.94,1.01,2.64c.67.71,1.52,1.06,2.54,1.06s1.87-.35,2.54-1.06c.67-.71,1.01-1.58,1.01-2.64s-.34-1.93-1.01-2.62c-.67-.69-1.51-1.03-2.54-1.03ZM248.37,30.8c.93,0,1.7-.32,2.31-.95.61-.65.91-1.44.91-2.4s-.3-1.76-.91-2.37c-.61-.63-1.38-.94-2.31-.94s-1.69.31-2.3.94c-.6.62-.91,1.41-.91,2.37s.3,1.76.91,2.4c.61.63,1.37.95,2.3.95Zm8.35,0c.93,0,1.69-.32,2.31-.95.61-.65.91-1.44.91-2.4s-.3-1.76-.91-2.37c-.61-.63-1.38-.94-2.31-.94s-1.69.31-2.3.94c-.61.62-.91,1.41-.91,2.37s.3,1.76.91,2.4c.6.63,1.37.95,2.3.95Zm35.7,23.71c-.02-.51-.23-.99-.6-1.35-.36-.34-.84-.53-1.35-.53h-.03c-.52.01-1,.23-1.36.61l-3.3,3.58c-.13.15-.2.34-.19.53.01.2.09.39.24.52.15.13.34.2.53.2.2-.01.38-.09.51-.24l3.29-3.57c.08-.09.19-.14.32-.14.12,0,.22.04.31.12.09.09.14.19.14.31,0,.12-.04.24-.13.33l-3.22,3.5c-.14.15-.21.34-.2.53.01.2.09.39.24.52.14.12.31.2.5.2.21,0,.4-.09.55-.24l3.22-3.5c.35-.37.54-.86.53-1.38Zm92.97-17.84v25.69h-56.61c-3.21,0-5.77-.76-7.67-2.27-1.73,1.51-4.28,2.27-7.67,2.27h-3.01c-2.06,0-4.63-.1-6.27-.75-.02.02-.04.05-.05.07-.06.08-.1.14-.15.2-.05.07-.1.14-.16.21l-.18.23c-.12.15-.24.29-.36.43l-.18.19s-.08.09-.11.13c-.55.6-1.15,1.16-1.78,1.67l-.05.04c-.18.14-.36.28-.55.42l-.17.12c-.11.08-.22.15-.33.23-.11.07-.22.15-.35.22-.07.05-.15.1-.23.14-.14.09-.28.17-.42.25-.08.05-.19.1-.29.16-.18.1-.34.17-.49.25-.06.04-.13.06-.19.1l-.05.02c-.78.37-1.58.67-2.4.9l-.09.03-.1.02c-.14.04-.29.08-.45.11-.78.19-1.6.32-2.43.39h-.07c-.07.01-.15.02-.22.02h-.11s-.09.01-.14.01h-.7s-.7,0-.7,0c-.05,0-.09,0-.14,0h-.06s-.03,0-.06,0c-.07,0-.14,0-.21-.01h-.05c-.82-.07-1.65-.2-2.44-.39l-.23-.05s-.05-.02-.07-.03l-.15-.04s-.08-.02-.12-.03c-.85-.24-1.67-.55-2.46-.92-.15-.07-.32-.15-.48-.24l-.18-.1c-.06-.03-.12-.06-.19-.1l-.04-.02c-.07-.04-.14-.07-.2-.12-.11-.06-.24-.14-.36-.21-.05-.03-.1-.06-.15-.09l-.18-.09-.06-.06s-.05-.03-.07-.05c-.15-.1-.3-.2-.45-.3l-.09-.06c-.9-.64-1.72-1.38-2.46-2.19l-.41-.47c-.11-.12-.21-.25-.31-.37l-.21-.27c-.06-.08-.12-.16-.19-.24l-.31-.45s0-.01-.01-.02l-.07-.08-.07-.15s0-.01-.01-.02c-1.04.97-4.11,1.39-5.06,1.39h-3.21c-4.33,0-7.32-1.25-8.94-3.76-1.27.61-2.64,1.09-4.12,1.45-1.48.38-2.9.56-4.28.56-2.5,0-4.8-.57-6.92-1.72-2.11-1.15-3.8-2.71-5.05-4.71-1.25-2-1.87-4.17-1.87-6.53s.62-4.58,1.87-6.55c1.25-1.98,2.94-3.54,5.05-4.7,2.12-1.16,4.4-1.75,6.88-1.75h6.82v-1.32h6.08v18.29c0,1.87.36,3.18,1.05,3.93.71.77,2.01,1.14,3.92,1.14h2.73c1.12,0,2.01-.27,2.66-.82.05-.03.14-.14.21-.23-.01-.04-.02-.08-.03-.12,0-.04-.01-.08-.02-.11l-.05-.26c-.03-.14-.05-.26-.06-.4,0-.05-.02-.1-.02-.16-.01-.06-.02-.11-.03-.17l-.05-.5c-.01-.1-.02-.2-.03-.3,0-.02,0-.06,0-.11,0-.05,0-.09-.01-.12v-.04s0-.17,0-.17c0-.11-.01-.22-.01-.33h0c0-.14,0-.26,0-.38v-11.4l1.16-.87s.07-.06.12-.09l.08-.05c.07-.05.16-.11.27-.18.02-.01.04-.03.06-.04l.06-.04c.25-.16.61-.38,1.04-.61l.21-.12s.06-.03.1-.05c.08-.05.16-.09.25-.13l.29-.15c.17-.09.35-.17.53-.26.07-.03.14-.06.21-.1l.26-.12c.07-.03.14-.06.21-.09.06-.03.11-.05.18-.07l.11-.05c.07-.03.15-.06.22-.09.09-.04.19-.07.28-.11l.23-.09c.12-.05.5-.2,2.63-.84l.14-.04c.2-.05.4-.1.61-.15l.43-.1c.14-.03.27-.06.42-.09.08-.02.17-.04.25-.05l.14-.03c.26-.05.5-.09.74-.12.14-.02.29-.05.43-.06.1-.02.2-.03.3-.04.13-.02.29-.04.45-.06l.93-.09c.15-.01.29-.02.43-.03.1,0,.19-.01.29-.02.14-.01.28-.02.43-.03h.05c.07,0,.16-.01.25-.01h.5c.3-.02.57-.02.84-.01h.3s.07,0,.07,0h.12c.1,0,.19.01.28.02h.03c.15,0,.3.01.44.03.08,0,.18.01.27.02.15,0,.3.02.45.03l.91.09c.16.02.32.04.48.06.07,0,.16.02.26.04.15.02.3.04.45.07.23.04.46.08.7.12l.41.08c.15.03.29.06.44.09.08.01.18.04.29.06l.11.03c.23.06.44.1.64.16.12.03.26.07.4.1.81.22,1.6.48,2.35.77l.28.11c.07.03.16.06.25.09.05.02.1.04.15.06l.33.14c.06.03.11.05.17.07l.31.14c.79.36,1.54.75,2.23,1.16l.31.19c.28.17.48.31.61.41l.18.12,1.08.81v11.4c0,.11,0,.22,0,.33v.2s-.02.27-.02.27c0,.1,0,.19-.01.28h0s-.02.2-.02.2c0,.08-.01.16-.02.24,0,.09-.02.2-.03.31l-.02.09h0c-.01.08-.02.15-.04.22,0,.05-.01.09-.02.14-.01.12-.04.25-.06.38-.01.06-.02.13-.03.2l-.03.16c-.02.1-.04.19-.06.27l-.02.07c-.01.07-.03.15-.05.23-.02.1-.05.22-.08.34.65.19,1.39.29,2.19.29h2.01s.03,0,.04,0h2.13c1.9,0,3.21-.38,3.91-1.14.7-.76,1.06-2.07,1.06-3.94v-12.37h6.08v12.42c0,1.55-.16,2.95-.48,4.17,1.02.57,2.43.85,4.23.85h.05c.67-3.38,1.92-6.69,3.75-9.91,1.83-3.22,4.31-5.9,7.43-8.04,3.12-2.13,6.77-3.2,10.97-3.2,3.49,0,6.43.77,8.83,2.3,2.4,1.54,4.18,3.61,5.34,6.21,1.16,2.61,1.75,5.5,1.75,8.67v3.97h5.27s2.54,0,2.55,0h5.6v-20.04h6.08Zm-126.02,16.33c-.04-.28-.06-.72-.06-1.32v-11.37h-6.82c-1.41,0-2.71.32-3.89.97-1.19.65-2.11,1.55-2.8,2.67-.69,1.13-1.03,2.36-1.03,3.7s.33,2.56,1,3.65c.67,1.09,1.61,1.96,2.83,2.62,1.21.65,2.58.98,4.1.98,2.19,0,4.4-.63,6.66-1.91Zm42.3-9.07c-1.09-.59-2.95-1.45-5.42-2-.1-.02-.2-.04-.3-.06h-.04c-.1-.03-.2-.05-.3-.07l-.36-.06c-.14-.03-.29-.05-.44-.07l-.13-.02c-.09-.01-.18-.03-.27-.04l-.12-.02c-.12-.01-.26-.03-.4-.04-.31-.04-.61-.06-.92-.08-1.05-.07-2.15-.07-3.19,0-.31.02-.62.05-.92.09-.14.01-.28.03-.42.05l-.11.02s-.06,0-.1.01l-1.02.16h-.08c-.09.03-.19.05-.29.08l-.2.04s-.09.02-.14.03c-2.47.55-4.34,1.41-5.42,2v8.54c0,.11,0,.22,0,.33,0,.11.01.22.02.33,0,.11.01.21.02.32v.06s.01.04.01.06v.06c.02.16.05.33.07.49.01.1.03.21.06.31.02.11.04.2.06.3l.02.06s.01.06.02.1c.01.06.03.14.05.21,0,.04.02.07.02.1l.02.05c.02.09.05.17.07.26l.04.12s.03.09.04.14c.02.05.04.11.06.16l.19.48c.06.14.12.29.19.43.03.05.05.11.08.16.07.15.15.29.22.44.24.43.52.86.83,1.26l.04.05c.31.44.66.85,1.04,1.21.36.35.76.67,1.19.95l.86.51s.04.02.05.03c.54.3,1.12.56,1.72.76.03,0,.06.02.1.03l.06.02s.07.02.11.03l.17.05c.2.06.41.11.62.16h.05l.2.05c.34.09.7.15,1.07.19.61.07,1.26.07,1.86,0,.39-.04.77-.11,1.14-.2l.22-.05c.19-.04.39-.1.58-.15.15-.04.29-.09.44-.14.36-.12.71-.26,1.06-.43v-.03l.85-.42.85-.53c.25-.17.49-.37.72-.57l.34-.34c.14-.14.28-.28.41-.42l.15-.16c.52-.58.97-1.22,1.35-1.89l.08-.15s.04-.08.06-.11l.02-.04c.04-.07.07-.14.11-.21l.06-.14c.03-.06.05-.11.07-.16l.14-.32c.03-.07.05-.13.07-.19.04-.08.05-.14.07-.19l.06-.16s.02-.06.03-.09l.02-.06c.03-.08.05-.15.07-.22l.07-.26c.04-.16.09-.34.12-.52.01-.07.03-.13.04-.19l.02-.11c.02-.08.02-.13.03-.19l.05-.31s0-.04,0-.05c0-.06.01-.12.02-.17l.03-.35c0-.06.01-.12.01-.19v-.09c0-.06,0-.12.01-.19,0-.11,0-.21,0-.3v-8.54Zm58.13,8.81c0-3.7-.86-6.55-2.59-8.54-1.73-1.99-4.09-2.98-7.08-2.98-2.54,0-4.94.69-7.19,2.06-2.25,1.37-4.17,3.25-5.76,5.63-1.59,2.38-2.68,4.98-3.28,7.8h25.9v-3.97Zm-67.44-8.14c-3.07-.41-6.27.89-8.99,3.64-.14.14-.22.33-.22.53,0,.19.08.38.22.52s.32.21.52.21h0c.2,0,.39-.08.52-.22,2.4-2.42,5.14-3.56,7.74-3.21,2.43.32,4.57,1.92,6.04,4.51.13.23.38.37.64.37.13,0,.25-.03.36-.1.17-.1.3-.25.35-.45.05-.19.02-.39-.07-.56-1.7-3-4.23-4.86-7.13-5.24Zm-8.7,1.03c-.31.27-.34.74-.06,1.05.27.3.74.33,1.05.06.29-.25,7.05-6.09,13.93.79.14.14.33.22.53.22s.39-.08.52-.22c.29-.29.29-.76,0-1.05-7.87-7.86-15.89-.91-15.97-.84Zm10.7,8.87c.05-1.56-.85-2.99-2.17-3.48-1.34-.59-3.11-.28-4.21.73l-3.53,3.63c-.14.14-.21.33-.21.53,0,.2.08.38.22.52.14.14.31.22.53.21.2,0,.38-.09.52-.22l3.47-3.59c.68-.61,1.81-.8,2.65-.43.76.28,1.27,1.13,1.24,2.05-.03.62-.38,1.12-.58,1.36l-3.41,3.69c-.28.3-.26.77.04,1.05.14.12.31.2.5.2.21,0,.41-.09.55-.24l3.42-3.71c.59-.69.92-1.48.96-2.28Zm-1.02-5.12c-2.15-1.01-4.72-.62-6.54,1.01l-3.02,2.95c-.29.29-.3.76-.01,1.05.14.14.33.22.52.22h0c.2,0,.38-.08.52-.21l.15-.15c2.68-2.62,2.84-2.78,2.85-2.78,1.36-1.21,3.28-1.51,4.89-.75,1.48.7,2.32,2.09,2.26,3.73-.04.86-.42,1.75-1.07,2.5l-3.23,3.45c-.27.29-.29.74-.05,1.02.14.16.35.26.56.26s.4-.09.54-.24l3.28-3.5c.62-.72,1.38-1.9,1.45-3.43.09-2.26-1.07-4.18-3.1-5.14Zm-1.94-2.66c-4.15-.55-8.07,4.22-8.23,4.42-.12.15-.18.34-.16.54.02.2.11.37.27.5.15.12.34.18.54.16.2-.02.37-.12.5-.27.03-.04,3.57-4.32,6.88-3.88,2.02.26,3.76,1.23,4.77,2.65.99,1.38,1.27,3.11.86,5.15-.04.2,0,.39.11.56.11.16.27.28.47.32.05.01.1.01.15.01.35,0,.65-.25.72-.59.49-2.42.11-4.6-1.1-6.31-1.25-1.75-3.36-2.93-5.78-3.26Zm-149.84-4.61l-5.83,3.22c.61,1.4,1.12,3.03,1.51,4.89.39,1.86.59,3.57.59,5.14,0,2.22-.4,4.19-1.2,5.91-.8,1.72-1.95,3.07-3.45,4.04-1.5.97-3.24,1.46-5.22,1.46s-3.72-.49-5.22-1.46c-1.5-.97-2.65-2.32-3.45-4.04-.8-1.72-1.2-3.67-1.2-5.86,0-1.94.26-3.9.77-5.88l-6.04-3.02c-.96,3.1-1.43,6.02-1.43,8.75,0,3.27.67,6.26,2.02,8.95,1.35,2.69,3.27,4.83,5.78,6.39,2.51,1.57,5.43,2.35,8.77,2.35s6.27-.78,8.77-2.35c2.51-1.57,4.43-3.7,5.78-6.39,1.35-2.69,2.02-5.69,2.02-9,0-2.18-.26-4.44-.79-6.78-.53-2.34-1.25-4.44-2.17-6.32Zm-13.81-3.17c1.06,0,1.94-.37,2.66-1.1.72-.73,1.07-1.64,1.07-2.74s-.35-2.05-1.05-2.76c-.7-.72-1.59-1.07-2.69-1.07s-1.94.36-2.63,1.07c-.7.72-1.05,1.64-1.05,2.76s.35,2,1.05,2.74c.7.73,1.58,1.1,2.63,1.1Zm86.73,8.03c1.45,3.68,2.09,7.71,1.92,12.07-2.35,1.09-4.9,1.92-7.65,2.48-2.75.56-5.23.84-7.44.84-3.31,0-6.53-.72-9.67-2.15-1.71,1.43-3.85,2.15-6.45,2.15h-32.99V24.26h6.65v31.92h5.99s0,0,0,0h19.54c1.06,0,1.88-.26,2.48-.77.6-.51.98-1.31,1.15-2.4l.15-1.33c.34-2.66.83-5.13,1.46-7.42.63-2.28,1.78-4.4,3.45-6.34,1.67-1.94,3.99-2.92,6.96-2.92s5.84,1.07,8.41,3.22c2.57,2.15,4.59,5.06,6.04,8.75Zm-4.94,7.93c-.27-2.42-.89-4.68-1.84-6.78-.96-2.1-2.09-3.77-3.4-5.01-1.31-1.24-2.63-1.87-3.96-1.87s-2.37.61-3.12,1.82c-.75,1.21-1.27,2.58-1.56,4.12-.29,1.53-.55,3.38-.79,5.52-.03.44-.07.82-.1,1.13-.03.31-.07.56-.1.77,1.16.55,2.27.95,3.32,1.2,1.06.26,2.18.38,3.38.38,2.52,0,5.25-.43,8.18-1.28Zm15.5-37.57c-.31-.32-.46-.69-.46-1.1,0-.44.2-.83.61-1.15.41-.32.97-.49,1.69-.49.41,0,.85.05,1.33.15.48.1.85.24,1.13.41l1.64-3.58c-.55-.27-1.2-.49-1.97-.67-.77-.17-1.49-.26-2.17-.26-1.71,0-3.11.49-4.22,1.46-1.11.97-1.66,2.24-1.66,3.81,0,.72.12,1.36.36,1.94h-1.02v3.84h11.15v-3.84h-5.22c-.48-.03-.87-.21-1.18-.54Zm-2.51,45.04h6.65V24.26h-6.65v38.11Z"/>
      <path class="cls-4" d="m8.13,21.71c.82.48,1.48,1.14,1.95,1.97.48.83.72,1.73.72,2.71s-.24,1.87-.72,2.7c-.48.83-1.13,1.5-1.96,1.99-.83.5-1.75.74-2.74.74s-1.9-.24-2.72-.73c-.83-.49-1.47-1.15-1.95-1.98-.47-.83-.71-1.73-.71-2.7s.24-1.87.72-2.7c.48-.83,1.13-1.5,1.95-1.99.82-.49,1.74-.74,2.74-.74s1.9.24,2.72.73Zm-.59,8.35c.65-.38,1.17-.9,1.55-1.55.38-.65.57-1.36.57-2.12s-.18-1.47-.56-2.11-.88-1.15-1.53-1.53c-.65-.38-1.37-.57-2.15-.57s-1.5.19-2.15.57-1.16.9-1.54,1.55-.57,1.36-.57,2.12.19,1.47.56,2.11c.37.64.88,1.16,1.52,1.53.64.38,1.36.57,2.15.57s1.51-.19,2.16-.57Zm-.1-3.6c-.17.28-.41.5-.73.65l1.13,1.72h-1.32l-.83-1.5h-1.18v1.5h-1.15v-5.18h2.2c.68,0,1.21.16,1.58.47.37.31.56.75.56,1.32,0,.4-.09.75-.26,1.03Zm-2.93-.05h1.05c.33,0,.58-.08.77-.24.18-.16.27-.39.27-.69s-.09-.52-.27-.68-.43-.23-.77-.23h-1.05v1.83Z"/>
    </g>
  </g>
</svg>