<svg width="194" height="75" viewBox="0 0 194 75" fill="none" xmlns="http://www.w3.org/2000/svg">
<g clip-path="url(#clip0_458_201)">
<path d="M19.7114 53.2355C18.2867 55.175 15.3766 56.5671 14.8419 58.9255C15.6946 61.088 18.0837 58.4288 20.4694 55.7731C22.3373 53.6984 24.1985 51.6171 25.3355 51.8401C28.9833 53.124 21.7485 57.9017 20.5777 59.4188C20.1208 60.0811 19.4711 60.6825 18.9128 61.2704C18.0397 62.2875 19.4779 63.6795 20.4795 62.8044C21.5252 61.8617 22.5945 60.9224 23.4912 59.8277C26.398 57.226 32.215 52.1915 26.063 49.6101C25.6908 49.4512 25.3321 49.3803 24.9835 49.3803C22.8821 49.3803 21.2544 51.9989 19.708 53.2355M23.2611 45.3696C19.7621 46.4948 17.5524 49.7891 14.9773 52.2151C14.0568 53.4552 10.8421 55.0398 12.683 56.6955C14.27 57.3679 19.9076 50.2453 21.5319 48.8464C23.8702 47.0928 27.8768 46.7684 29.6297 49.5357C35.274 56.4015 18.7943 62.9936 22.608 65.4365C23.1494 65.5886 23.6875 65.4399 24.1409 65.1358C24.7196 64.7574 25.1595 64.2033 25.5926 63.6762C25.6502 63.6086 25.7077 63.541 25.7652 63.4734C26.3946 62.7335 27.0714 62.0374 27.8091 61.4123C28.5468 60.7906 29.3285 60.2061 30.0493 59.5641C30.6651 59.0134 31.2404 58.4221 31.7142 57.7328C32.3402 56.8239 32.7767 55.7933 32.9967 54.7155C33.2031 53.6849 33.2132 52.6105 33.0305 51.5799C32.8512 50.5629 32.4823 49.583 31.9443 48.7011C31.4096 47.8226 30.7057 47.0523 29.8699 46.4542C28.9935 45.8291 27.9851 45.4101 26.9293 45.2176C26.4522 45.1297 25.9716 45.0892 25.4911 45.0892C24.7365 45.0892 23.9853 45.1871 23.2577 45.3696M22.141 41.244C17.3223 42.6496 14.4866 47.3395 10.8184 50.4716C9.21105 51.3299 9.7897 53.9992 11.6678 52.9281C15.6439 49.6675 18.5507 44.383 23.8601 43.2646C24.6993 43.0787 25.5656 43.0044 26.4318 43.0551C27.7076 43.1362 28.963 43.5011 30.0899 44.1093C31.1863 44.704 32.1507 45.5284 32.9358 46.4948C33.7208 47.4645 34.3198 48.5795 34.692 49.7722C35.0744 50.9819 35.2165 52.2591 35.0913 53.5194C35.0236 54.1647 34.8917 54.8101 34.692 55.4284C34.5939 55.7528 34.4687 56.0636 34.3299 56.3711C34.2623 56.5232 34.1878 56.6684 34.11 56.8171C33.9103 57.2057 33.6971 57.6044 33.4636 57.9862C33.1963 58.4187 32.8918 58.8275 32.55 59.1924C31.8766 59.9155 31.1287 60.5676 30.3944 61.2231C29.4808 62.034 28.5637 62.8382 27.6941 63.6998C27.0105 64.3823 26.283 65.1189 25.8397 65.9907C25.5554 66.5617 25.4607 67.2307 26.0258 67.6598C27.024 68.2477 27.8836 67.1766 28.4859 66.4975C29.227 65.8825 29.8902 65.1966 30.5264 64.4905C34.9154 60.7636 39.108 55.4825 37.2469 49.4039C35.7816 44.2951 30.7768 40.6865 25.5926 40.6865C24.4387 40.6865 23.2713 40.8622 22.1376 41.244M26.1138 36.2636C22.9329 36.3549 19.9449 37.034 17.3392 38.8045C14.4155 40.9264 11.5155 43.518 9.43777 46.4441C9.10953 47.6165 10.6221 48.4241 11.4478 47.4577C14.6422 44.535 17.3223 40.6595 21.6774 39.4364C22.2561 39.2201 22.8517 39.0545 23.454 38.9329C25.4336 38.5376 27.4978 38.6423 29.4435 39.1728C31.3825 39.7033 33.2099 40.6426 34.7698 41.913C36.3095 43.1734 37.5954 44.7682 38.4279 46.586C38.8441 47.505 39.1453 48.4748 39.3111 49.4648C39.4092 50.0594 39.4329 50.6575 39.4837 51.2522C39.5513 52.0225 39.5649 52.8031 39.416 53.5633C39.2908 54.1985 39.1216 54.827 39.081 55.4791C39.0336 56.2258 39.1148 57.1618 39.9743 57.3848C41.4396 57.3983 41.8152 55.8068 41.9235 54.6344C42.0148 53.6647 41.981 52.6882 41.9641 51.7151C41.9302 50.2453 41.7238 48.7721 41.2568 47.3733C40.5564 45.2615 39.3855 43.3186 37.8966 41.6664C36.4043 40.0108 34.5837 38.639 32.5601 37.6929C30.6719 36.8076 28.557 36.2569 26.4657 36.2569C26.3473 36.2569 26.2288 36.2602 26.1138 36.2636ZM11.2177 38.4565L11.2143 38.4531C10.6221 39.1356 9.8946 39.7506 9.46484 40.5514C9.05877 41.4907 10.3007 42.5212 11.15 41.8995C12.2397 40.9974 13.1838 39.9263 14.226 38.9667C16.808 36.7198 19.9618 35.1486 23.3965 34.6756C27.2508 33.9694 31.3352 34.6147 34.7901 36.4022C38.1944 38.1659 40.5834 41.1562 42.4412 44.3526C43.1755 45.204 44.722 44.2782 44.3565 43.2308C43.9504 42.3489 43.5071 41.663 43.0199 40.7406C39.1893 34.956 32.6617 31.9691 26.1273 31.9691C20.6216 31.9691 15.1126 34.091 11.2177 38.4565ZM13.6981 31.0366C12.5713 31.8373 11.3801 32.5773 10.4496 33.6079C9.69495 34.4897 10.8895 36.0474 11.9317 35.3513C13.4985 34.3546 14.957 33.1585 16.6083 32.2665C24.388 28.3706 34.4856 29.435 41.0504 35.2871C41.6663 35.8244 42.2179 36.4393 42.8405 36.9597C43.8388 37.7267 45.189 36.4224 44.3802 35.4189C41.514 32.1482 37.7951 29.7425 33.6362 28.5058C31.3487 27.7456 28.9393 27.3773 26.5164 27.3773C22.0124 27.3773 17.4881 28.6511 13.6947 31.0366M11.2516 63.8113C10.3785 62.97 9.58667 62.0442 8.88619 61.0474C8.20602 60.1622 7.59014 59.2229 7.04195 58.2396C6.87275 57.9355 6.71033 57.6247 6.55467 57.3104C6.49376 57.1786 6.42946 57.0503 6.36855 56.9185C6.22643 56.6144 6.0843 56.3103 5.95571 55.9961C5.91172 55.9014 5.8745 55.8102 5.84066 55.7122C5.79328 55.5906 5.74591 55.4723 5.70192 55.3575C5.66469 55.2662 5.62747 55.1784 5.6004 55.0804C5.59363 55.0635 5.58686 55.0432 5.57671 55.0263C5.50903 54.8506 5.44812 54.6783 5.39398 54.4958C5.38044 54.4485 5.35675 54.3979 5.34322 54.3438C5.30938 54.2458 5.27554 54.1445 5.24847 54.0465C5.17741 53.8235 5.11311 53.5903 5.04882 53.3673C5.01498 53.2524 4.98114 53.1409 4.95407 53.0261C4.92361 52.9078 4.89654 52.7963 4.86609 52.678C4.83563 52.5632 4.81194 52.4483 4.78487 52.33C4.73073 52.1036 4.68335 51.8671 4.63259 51.6272C4.58522 51.3907 4.54461 51.1576 4.50739 50.9177C4.44986 50.5629 4.39572 50.2013 4.35511 49.8398C4.34158 49.7215 4.32466 49.5965 4.31789 49.4749C4.29082 49.2316 4.2739 48.9917 4.26036 48.7451C4.24344 48.4984 4.22991 48.2551 4.22314 48.0051C4.21637 47.7618 4.21299 47.5118 4.21299 47.2651V29.2154C5.9794 28.1037 10.4496 25.6203 16.967 24.1674C17.1768 24.1234 17.3934 24.0761 17.6066 24.0322H17.61C17.8333 23.9849 18.0634 23.941 18.2901 23.9004C18.4086 23.8734 18.5202 23.8565 18.6387 23.8329C18.7571 23.8092 18.8755 23.7889 18.9906 23.772C19.3696 23.7045 19.7486 23.6437 20.1411 23.5896C20.4186 23.5457 20.6961 23.5085 20.977 23.4713C21.2612 23.4375 21.5421 23.4038 21.8297 23.3733C22.4456 23.3058 23.0682 23.2483 23.7112 23.2078C24.7636 23.1301 25.8498 23.0895 26.9665 23.0895C28.0832 23.0895 29.1762 23.1301 30.2286 23.2078C30.8682 23.2483 31.4942 23.3058 32.1033 23.3733C32.3909 23.4071 32.6786 23.4409 32.9561 23.4713C33.2369 23.5085 33.5144 23.5457 33.7885 23.5896C33.7885 23.5862 33.7919 23.5896 33.7953 23.5896C34.181 23.6437 34.5634 23.7045 34.9424 23.772C35.0609 23.7889 35.1793 23.8126 35.2977 23.8329C35.4128 23.8565 35.5278 23.8734 35.6429 23.9004C35.8696 23.941 36.0997 23.9849 36.3231 24.0322H36.3265C36.5396 24.0761 36.7562 24.1234 36.9626 24.1674C43.4835 25.6135 47.9536 28.1003 49.72 29.2154V47.2651C49.72 47.4814 49.7166 47.701 49.7099 47.9206C49.7065 48.0761 49.7031 48.2281 49.6963 48.3768C49.693 48.4342 49.693 48.4984 49.6862 48.5525C49.6794 48.6978 49.6727 48.8464 49.6557 48.9917C49.6557 49.0323 49.649 49.0694 49.649 49.11C49.6388 49.2722 49.6185 49.431 49.605 49.5898C49.6016 49.6269 49.5982 49.6675 49.5914 49.7013C49.5779 49.8432 49.561 49.9851 49.5441 50.1203C49.5407 50.1507 49.5407 50.1743 49.5373 50.198C49.5238 50.2959 49.5068 50.3973 49.4933 50.4919C49.4899 50.5325 49.4865 50.573 49.4764 50.6102C49.4696 50.698 49.4527 50.7893 49.4392 50.8771C49.4155 51.0156 49.3952 51.1542 49.3681 51.2927C49.3546 51.3637 49.341 51.4279 49.3275 51.4988C49.297 51.6576 49.27 51.8097 49.2361 51.9685C49.1482 52.3773 49.0534 52.7794 48.9451 53.1781C48.9079 53.3133 48.8707 53.445 48.8301 53.5768C48.8199 53.6207 48.8064 53.6613 48.7928 53.7052C48.7455 53.864 48.6981 54.0194 48.6473 54.1816C48.6473 54.1884 48.644 54.1985 48.6372 54.212C48.5966 54.3438 48.5492 54.4756 48.5086 54.604C48.4781 54.6952 48.4409 54.7898 48.4105 54.8844C48.3631 55.0162 48.3157 55.148 48.2649 55.2797C48.1973 55.4554 48.1296 55.6311 48.0585 55.8001C48.0585 55.8068 48.0551 55.8136 48.0551 55.8237C47.9942 55.9623 47.9367 56.1042 47.8758 56.2427C47.8487 56.3035 47.825 56.3677 47.7946 56.4285C47.7337 56.5637 47.6728 56.6989 47.6085 56.8374C47.5679 56.9286 47.5273 57.0232 47.4799 57.1145C47.3953 57.2868 47.3141 57.4523 47.2295 57.6213C47.1753 57.7193 47.1212 57.824 47.0636 57.9254C47.0129 58.0267 46.9554 58.1315 46.8978 58.2328C45.9876 59.8716 44.881 61.3887 43.612 62.747C43.612 62.747 43.6098 62.7492 43.6053 62.7537C43.3109 63.0747 43.0063 63.3788 42.6916 63.6795C43.0029 63.3788 43.3109 63.0747 43.6053 62.7537C43.3143 63.0849 43.0097 63.4092 42.6916 63.7201C41.4396 64.9534 40.0217 66.0211 38.4651 66.8726C38.4313 66.8861 38.4042 66.9063 38.367 66.9266C37.0675 67.6801 35.6937 68.3052 34.2453 68.7917C33.934 68.8998 33.6193 68.9945 33.3046 69.0891C32.7666 69.2479 32.2217 69.383 31.6668 69.4979C31.6668 69.5013 31.6634 69.5013 31.66 69.5013C30.8208 69.7141 29.9613 69.8696 29.0848 69.9608C28.3945 70.0419 27.6941 70.0791 26.98 70.0791C26.266 70.0791 25.5554 70.0385 24.8583 69.9608C24.0191 69.8696 23.1934 69.7209 22.3847 69.5216C22.3745 69.5216 22.3678 69.5216 22.3576 69.5182C21.7722 69.3965 21.2003 69.2546 20.6318 69.0924C20.5303 69.062 20.422 69.0316 20.3171 68.9945C20.2088 68.9641 20.1107 68.9336 20.0092 68.8998C19.9009 68.8661 19.7994 68.8323 19.6978 68.7985C18.3578 68.3457 17.0719 67.7747 15.8469 67.0854C15.8435 67.082 15.8402 67.0787 15.8368 67.0787C15.715 67.0111 15.5931 66.9435 15.4747 66.8726V66.8861C13.9249 66.0549 12.507 65.0176 11.2516 63.8046M26.4826 0.214765C26.195 0.224902 25.9107 0.241796 25.6299 0.25869C25.3388 0.282342 25.0512 0.309373 24.767 0.34654C24.6316 0.363435 24.4861 0.383708 24.3507 0.403981C24.0563 0.447906 23.7619 0.498588 23.4709 0.559407C23.3254 0.589817 23.1833 0.616848 23.0445 0.650636C22.9464 0.674288 22.8449 0.69794 22.7501 0.724971C22.4253 0.802684 22.1072 0.890534 21.7891 0.985141C21.7011 1.01555 21.6165 1.0392 21.5252 1.06961C21.1597 1.19125 20.801 1.31965 20.4457 1.46156C20.334 1.5021 20.2257 1.54941 20.1141 1.59671C20.0024 1.64064 19.9009 1.68794 19.7926 1.73187C19.6674 1.78931 19.5422 1.84675 19.4204 1.90419C19.2884 1.96501 19.1564 2.03258 19.0244 2.10016C18.9094 2.1576 18.8045 2.21504 18.6894 2.27586C18.6725 2.28262 18.6488 2.28937 18.6353 2.30627C18.3916 2.43466 18.1514 2.56982 17.9145 2.71511C17.7927 2.78606 17.6742 2.85702 17.5592 2.93473C17.4408 3.01245 17.3189 3.08678 17.2073 3.16449C17.099 3.23545 16.9907 3.30641 16.8858 3.38074C16.8723 3.39088 16.8553 3.40439 16.8418 3.41115C16.7335 3.48886 16.6218 3.56995 16.5169 3.64767C16.4019 3.73214 16.2902 3.81661 16.1819 3.90108C16.0703 3.98555 15.962 4.07678 15.8503 4.16125C15.742 4.2491 15.6337 4.33695 15.5255 4.43156C15.3664 4.56671 15.2107 4.69849 15.0585 4.84378C14.8994 4.98907 14.7505 5.13098 14.5983 5.27965C14.2023 5.66484 13.82 6.08043 13.4579 6.50955C13.3733 6.61767 13.2819 6.71904 13.2007 6.82378C13.0484 7.00962 12.9097 7.19545 12.7676 7.38129C12.6965 7.4759 12.6288 7.57388 12.5577 7.67187C12.4901 7.76985 12.4224 7.86784 12.3547 7.96583C12.287 8.06381 12.2227 8.1618 12.1584 8.25979C12.0468 8.42873 11.9453 8.59767 11.837 8.76999C11.7862 8.85446 11.7355 8.93893 11.6813 9.02678C11.5899 9.18559 11.5054 9.34777 11.4174 9.5032C11.3294 9.66201 11.2482 9.82419 11.1636 9.983C9.97582 12.3516 9.3058 15.0242 9.3058 17.8523V22.0455C9.14337 22.1029 8.98094 22.1671 8.82528 22.2279C8.66962 22.2887 8.50381 22.3529 8.35153 22.4138C8.19587 22.4746 8.04698 22.5421 7.8947 22.5996C7.74242 22.6672 7.59353 22.7246 7.44464 22.7922C7.30251 22.8496 7.15362 22.9172 7.01488 22.9746C6.87614 23.0422 6.73401 23.103 6.59865 23.1672C6.48022 23.2179 6.36178 23.2686 6.2535 23.326C5.92187 23.4781 5.61055 23.6268 5.31276 23.7754C5.10634 23.8768 4.90669 23.9782 4.71719 24.0761C4.59875 24.1336 4.49385 24.1944 4.38218 24.2518C4.27051 24.3059 4.169 24.3667 4.06748 24.4208C3.96596 24.4748 3.86106 24.5323 3.76292 24.5863C3.01169 24.9952 2.40936 25.3601 1.94237 25.6574C1.88485 25.698 1.82055 25.7352 1.76303 25.7757C1.56337 25.9007 1.39418 26.019 1.2622 26.1102C1.22498 26.1372 1.18776 26.1609 1.15053 26.1845C1.06593 26.242 0.994873 26.2927 0.947498 26.3298C0.933962 26.3366 0.920426 26.3433 0.910275 26.3569C0.879819 26.3805 0.859517 26.394 0.842597 26.4042L0 27.036V47.2651C0 47.478 0.00338351 47.6942 0.0101514 47.9037V47.9308C0.0135353 48.1335 0.020303 48.3396 0.0338388 48.539V48.5863C0.0406066 48.762 0.0575257 48.9343 0.0676775 49.1167C0.0676775 49.164 0.0710603 49.2113 0.0744442 49.2586C0.0913639 49.4546 0.104901 49.6506 0.128588 49.8466C0.142124 50.0392 0.165811 50.225 0.186114 50.4176C0.192882 50.4784 0.196266 50.5392 0.209802 50.5967C0.219954 50.7116 0.236875 50.8197 0.253794 50.9379C0.263946 51.0224 0.27748 51.1069 0.291015 51.1913C0.324855 51.4143 0.358696 51.6374 0.399303 51.8637C0.426375 52.0023 0.446676 52.1476 0.473748 52.2895C0.487283 52.3503 0.50082 52.4179 0.514356 52.4821C0.541427 52.624 0.568499 52.7693 0.598954 52.9078C0.609106 52.9517 0.62264 52.9889 0.629408 53.0261C0.656479 53.1477 0.680169 53.2693 0.710624 53.391C0.741079 53.5194 0.76815 53.6478 0.801989 53.7762C0.835828 53.9181 0.876436 54.06 0.913659 54.2019C0.964418 54.3843 1.01179 54.5702 1.06932 54.7493C1.07947 54.7898 1.09301 54.8337 1.10316 54.8743C1.15053 55.0297 1.19791 55.1851 1.24529 55.3439C1.25882 55.3811 1.27235 55.4217 1.28589 55.4622C1.34003 55.6379 1.39756 55.8102 1.45847 55.9859C1.50923 56.1312 1.55999 56.2833 1.61752 56.4319C1.65136 56.5232 1.68858 56.6178 1.71903 56.7158C1.75626 56.8104 1.79348 56.9083 1.8307 56.9996C2.00667 57.4557 2.19278 57.895 2.38905 58.3342C2.46688 58.5065 2.54809 58.6755 2.62593 58.8444C2.71729 59.0235 2.80189 59.2093 2.89326 59.385C3.00493 59.6013 3.11321 59.8108 3.22826 60.0236C3.31286 60.1757 3.39408 60.3244 3.47868 60.473C3.57681 60.6521 3.67833 60.8278 3.78323 61.0035C3.8746 61.1657 3.97611 61.3177 4.07086 61.4732C4.09793 61.5103 4.11824 61.5509 4.14193 61.588C4.23668 61.7333 4.32804 61.882 4.42956 62.0239C4.43294 62.034 4.43971 62.0408 4.44309 62.0543C4.55476 62.2199 4.66305 62.3854 4.77472 62.5476C4.88977 62.7132 5.00144 62.872 5.11988 63.0308C5.12326 63.0342 5.12665 63.0376 5.13003 63.0409C5.24509 63.1997 5.35675 63.3552 5.47858 63.514C5.48534 63.5241 5.4955 63.541 5.50565 63.5478C5.60378 63.6795 5.7053 63.8079 5.80343 63.9363C6.19935 64.4364 6.61558 64.923 7.04534 65.396C8.31769 66.7915 9.73556 68.0484 11.2685 69.1533C11.3091 69.187 11.3531 69.2107 11.3903 69.2411C11.6576 69.4337 11.9283 69.6162 12.2024 69.7952C12.3276 69.8763 12.4528 69.9608 12.5848 70.0419C12.5882 70.0453 12.5984 70.052 12.6119 70.0554C12.7405 70.1365 12.8691 70.2176 12.9977 70.2953C13.2007 70.4203 13.4071 70.542 13.6135 70.6568C13.7286 70.7278 13.8403 70.792 13.9621 70.8562C14.0839 70.9238 14.2057 70.9914 14.3275 71.0522C14.4358 71.113 14.5373 71.1704 14.6423 71.2211C14.9231 71.3664 15.204 71.5117 15.4916 71.6435C16.8418 72.2787 18.2495 72.8092 19.7148 73.2146C19.7655 73.2315 19.8095 73.245 19.8603 73.2586C19.9516 73.2856 20.043 73.3059 20.131 73.3329C20.2866 73.3701 20.4355 73.4106 20.5912 73.4478C20.6081 73.4545 20.6284 73.4579 20.6487 73.4647C22.0158 73.7958 23.4303 74.0222 24.8719 74.1303C24.9091 74.1337 24.9497 74.1371 24.9869 74.1404C25.0884 74.1472 25.1967 74.1573 25.3016 74.1573C25.3591 74.1641 25.4167 74.1641 25.4708 74.1675C25.5622 74.1742 25.6535 74.1776 25.7483 74.1844C25.8295 74.1877 25.9141 74.1877 25.9953 74.1911C26.151 74.1945 26.3033 74.2013 26.4522 74.2013C26.6315 74.2046 26.8142 74.208 26.9868 74.208C27.1594 74.208 27.3421 74.2046 27.5181 74.2013C27.6771 74.2013 27.8226 74.1945 27.9783 74.1911C28.0629 74.1877 28.1441 74.1877 28.2287 74.1844C28.3201 74.1776 28.4081 74.1742 28.5062 74.1675C28.5603 74.1641 28.6213 74.1641 28.6754 74.1573C28.7769 74.1573 28.8818 74.1472 28.9833 74.1404C29.0239 74.1371 29.0645 74.1371 29.1052 74.1303C30.5467 74.0222 31.9578 73.7958 33.3249 73.4647C33.5787 73.4038 33.8291 73.3363 34.0761 73.2653C34.1201 73.2586 34.1641 73.2417 34.2047 73.2315C34.2284 73.2315 34.2453 73.2248 34.2656 73.218C35.7275 72.8058 37.1386 72.2787 38.4854 71.6435C38.6309 71.5759 38.773 71.5083 38.9118 71.4374C39.1893 71.3022 39.4634 71.1603 39.7307 71.015C39.9134 70.9204 40.0961 70.819 40.2687 70.7177C40.5124 70.5825 40.7459 70.4406 40.9827 70.2987C41.1181 70.221 41.2501 70.1331 41.382 70.052C41.5817 69.927 41.778 69.7986 41.9742 69.6668C42.1705 69.5351 42.36 69.4033 42.5529 69.2715C42.607 69.2344 42.6612 69.1972 42.7119 69.16V69.1533C44.2482 68.0518 45.6627 66.7915 46.9351 65.3994C47.023 65.3048 47.111 65.2 47.199 65.1054C47.2701 65.0277 47.3377 64.95 47.4054 64.8689C47.6118 64.6256 47.8183 64.379 48.0213 64.1357C48.0924 64.0478 48.16 63.96 48.2311 63.8755C48.2785 63.8079 48.3259 63.7471 48.3732 63.6829C48.4409 63.5984 48.5086 63.5106 48.5729 63.4227C48.671 63.2944 48.7691 63.1626 48.8639 63.0342C48.979 62.872 49.094 62.7132 49.2057 62.551C49.3207 62.3888 49.4324 62.2233 49.5373 62.0577C49.5441 62.0509 49.5508 62.0408 49.5542 62.0307C49.6659 61.8617 49.7708 61.6995 49.8791 61.5306C49.9874 61.3583 50.0956 61.1826 50.2005 61.0069C50.2987 60.8379 50.4002 60.6622 50.5017 60.4865C50.5017 60.4832 50.5051 60.4798 50.5051 60.4764C50.5965 60.3142 50.6878 60.152 50.7724 59.9932C50.8029 59.9459 50.8232 59.8952 50.8536 59.8479C51.0262 59.5202 51.192 59.1891 51.3545 58.8546C51.4323 58.6856 51.5135 58.5167 51.5846 58.3443C51.6827 58.1349 51.7808 57.922 51.8688 57.7091C51.9467 57.53 52.0143 57.3408 52.0922 57.1618C52.17 56.9692 52.2444 56.7766 52.3121 56.5806C52.3832 56.388 52.4509 56.1954 52.5185 55.9994C52.5761 55.8237 52.6404 55.6514 52.6945 55.4757C52.7047 55.4521 52.708 55.4318 52.7114 55.4149C52.7723 55.2155 52.84 55.0196 52.8942 54.8202C52.9381 54.6682 52.9788 54.5229 53.0194 54.3708C53.0464 54.283 53.0701 54.1918 53.0938 54.1005C53.1513 53.8708 53.2122 53.6376 53.2664 53.4079C53.2968 53.2862 53.3205 53.1646 53.3476 53.0429C53.3578 53.0024 53.3645 52.9652 53.3747 52.9247C53.4085 52.7862 53.4356 52.6409 53.4627 52.499C53.4728 52.4381 53.4897 52.3706 53.4999 52.3064C53.5303 52.1645 53.554 52.0192 53.5743 51.8806C53.6149 51.6542 53.6522 51.4279 53.686 51.2082C53.6995 51.1238 53.7131 51.0393 53.7232 50.9548C53.7368 50.8366 53.7537 50.7284 53.7672 50.6136C53.774 50.5561 53.7807 50.4953 53.7909 50.4345C53.8146 50.2419 53.8349 50.0561 53.8484 49.8635C53.8721 49.6675 53.8857 49.4715 53.8992 49.2755C53.9026 49.2282 53.9059 49.1776 53.9059 49.1336C53.9195 48.9546 53.9364 48.7822 53.9364 48.6031C53.9398 48.5863 53.9432 48.5727 53.9398 48.5558C53.9533 48.3531 53.9567 48.147 53.9669 47.9477V47.9206C53.9736 47.7111 53.9736 47.4949 53.9736 47.282V27.0529L53.131 26.4211C53.131 26.4211 53.0972 26.394 53.0701 26.3738C53.06 26.3636 53.0464 26.3569 53.0329 26.3467C52.8502 26.2116 52.4509 25.9311 51.8451 25.5527C51.7775 25.5088 51.7098 25.4682 51.6353 25.4243C51.5609 25.377 51.4898 25.3331 51.412 25.2858C51.3748 25.2689 51.3342 25.2385 51.2936 25.2148C50.3359 24.6404 49.0229 23.9241 47.3817 23.1841C47.243 23.1233 47.1009 23.0591 46.9587 22.9915C46.82 22.9341 46.6745 22.8665 46.529 22.8091C46.3869 22.7415 46.2346 22.6841 46.0823 22.6165C45.93 22.559 45.7811 22.4915 45.6255 22.4306C45.4664 22.3698 45.3108 22.3056 45.1517 22.2448C44.9927 22.184 44.8303 22.1198 44.6678 22.0624C43.3921 21.5724 41.981 21.1061 40.4447 20.6838C40.2078 20.623 39.9709 20.5588 39.7341 20.4912C39.3686 20.4 39.0031 20.3087 38.6241 20.2209C38.3771 20.1634 38.1233 20.1026 37.8695 20.0519C37.6123 19.9945 37.3518 19.9404 37.0912 19.8864C36.9626 19.8594 36.8307 19.8357 36.6987 19.8087C36.587 19.7816 36.4787 19.7647 36.3637 19.7478C35.9441 19.6668 35.5177 19.5924 35.0812 19.5248C34.8138 19.4843 34.5397 19.4438 34.2724 19.4032C34.1201 19.3863 33.978 19.3593 33.8257 19.3458C33.5415 19.3052 33.2505 19.2681 32.9662 19.2343C32.841 19.2207 32.709 19.2039 32.5804 19.1903C32.5635 19.1903 32.55 19.1903 32.5331 19.187C32.3605 19.1701 32.1845 19.1498 32.0018 19.1329C31.7785 19.1092 31.545 19.0924 31.3182 19.0721C31.0509 19.0484 30.7802 19.0282 30.5095 19.0146C30.3403 19.0011 30.1711 18.991 30.0019 18.9809C29.7109 18.964 29.4131 18.9504 29.1153 18.9369C28.9732 18.9335 28.8209 18.9302 28.6754 18.9234C28.5942 18.92 28.5163 18.92 28.4351 18.9167C28.3911 18.9133 28.3505 18.9133 28.3065 18.9133C28.1204 18.9099 27.9275 18.9031 27.7448 18.9031C27.4944 18.8998 27.2474 18.8998 26.997 18.8998C26.7466 18.8998 26.4995 18.8998 26.2559 18.9031C26.063 18.9031 25.8769 18.9099 25.6942 18.9133C25.6468 18.9133 25.6062 18.9133 25.5656 18.9167C25.4844 18.92 25.4031 18.92 25.3219 18.9234C25.1696 18.9302 25.0275 18.9335 24.8752 18.9369C24.5775 18.9504 24.2831 18.964 23.992 18.9809C23.8228 18.991 23.6503 18.9977 23.4845 19.0146C23.2137 19.0282 22.943 19.0518 22.6757 19.0721C22.449 19.0957 22.2189 19.1126 21.9921 19.1329C21.8128 19.1498 21.6402 19.1701 21.4609 19.187C21.4473 19.1903 21.4304 19.1903 21.4135 19.1903C21.2849 19.2039 21.1563 19.2207 21.0277 19.2343C20.7367 19.2681 20.4491 19.3052 20.1716 19.3458C20.0193 19.3593 19.8738 19.3829 19.7215 19.4032C19.4508 19.4438 19.1801 19.4843 18.9128 19.5248C18.4796 19.5924 18.0532 19.6668 17.6303 19.7478C17.5186 19.7647 17.4069 19.785 17.2952 19.8087C17.1633 19.8323 17.0313 19.856 16.8993 19.8864C16.6388 19.9404 16.3816 19.9945 16.1278 20.0519C15.8706 20.106 15.6168 20.1634 15.3698 20.2209C14.9942 20.3087 14.6219 20.4 14.2633 20.4912C14.0196 20.5588 13.7861 20.6196 13.5492 20.6838V17.8658C13.5492 17.3286 13.5831 16.8049 13.644 16.2812C13.8504 14.5242 14.3986 12.8753 15.2141 11.3886C15.3664 11.1217 15.5255 10.8581 15.6913 10.5979C15.8571 10.3412 16.033 10.0877 16.2158 9.84108C16.3038 9.71945 16.3985 9.59781 16.4966 9.47955C16.6117 9.3275 16.7335 9.18559 16.8621 9.04368C17.1091 8.75986 17.3663 8.48955 17.637 8.226C17.7081 8.15842 17.7791 8.09084 17.8502 8.02327C18.3544 7.55699 18.8958 7.1245 19.4643 6.73931C19.7926 6.51968 20.131 6.31357 20.4728 6.1176C20.5607 6.0703 20.6487 6.02637 20.7367 5.97569C20.8281 5.93176 20.9161 5.88446 21.004 5.84054C21.18 5.75269 21.3593 5.66822 21.5387 5.5905C21.5556 5.58037 21.5725 5.57361 21.5928 5.56685C21.6707 5.5263 21.7519 5.49252 21.8331 5.45873C21.9718 5.40129 22.1173 5.34047 22.2561 5.28978C22.3982 5.23572 22.5471 5.18166 22.6858 5.13436C22.7874 5.10057 22.8923 5.06678 22.9972 5.03637C23.1833 4.97555 23.3795 4.92149 23.5724 4.87081C23.6672 4.8404 23.7653 4.82013 23.8635 4.79647H23.877C23.9751 4.76944 24.0733 4.74579 24.1714 4.72552C24.2729 4.70187 24.3744 4.68159 24.4759 4.6647C24.5639 4.64781 24.6519 4.63091 24.7399 4.6174C24.8177 4.60726 24.8955 4.59036 24.97 4.58023C25.0411 4.57347 25.1087 4.56333 25.1798 4.54982C25.2509 4.53968 25.3152 4.53292 25.3862 4.52279C25.4708 4.51265 25.5622 4.50589 25.6468 4.49238C25.7381 4.48224 25.8295 4.47548 25.9243 4.46535H25.9683C26.0461 4.45521 26.1138 4.45183 26.1882 4.45183C26.4555 4.43494 26.7229 4.4248 26.9902 4.4248C27.2575 4.4248 27.5282 4.43156 27.7922 4.44845C27.87 4.45183 27.9478 4.45859 28.0223 4.46535H28.0324C28.1306 4.46873 28.2355 4.47886 28.3336 4.49238C28.4216 4.50252 28.5062 4.50927 28.5976 4.52279C28.6652 4.52955 28.7295 4.5363 28.8006 4.54982C28.8717 4.55996 28.9393 4.57347 29.0104 4.58023C29.0882 4.59036 29.1661 4.60726 29.2405 4.6174C29.3319 4.63091 29.4165 4.64781 29.5045 4.6647C29.6026 4.68159 29.7075 4.70525 29.809 4.72552C29.9038 4.74241 30.0053 4.76944 30.1 4.7931C30.1136 4.79647 30.1305 4.79985 30.144 4.80323C30.232 4.82688 30.3234 4.84378 30.408 4.87081C30.6042 4.92149 30.7903 4.97217 30.9832 5.03637C31.0847 5.07016 31.1897 5.10395 31.2912 5.13436C31.3859 5.16815 31.4841 5.20194 31.5822 5.23234C31.7683 5.3033 31.9612 5.37426 32.1473 5.45535C32.2285 5.48914 32.3131 5.5263 32.3909 5.56347C32.4079 5.56685 32.4282 5.57361 32.4417 5.58712C32.6211 5.66484 32.797 5.74593 32.973 5.83716C33.0643 5.88108 33.1523 5.92839 33.2403 5.97231C33.3351 6.01961 33.4197 6.06354 33.5076 6.11422C33.8528 6.31019 34.1912 6.51293 34.516 6.73593C34.8443 6.95555 35.159 7.19207 35.4602 7.44549C35.7647 7.68876 36.0625 7.94893 36.3434 8.22262C36.6107 8.48617 36.878 8.75986 37.1183 9.0403C37.2435 9.18221 37.3687 9.3275 37.4838 9.47279C37.5785 9.59443 37.6699 9.71607 37.768 9.83771C37.9474 10.0844 38.1233 10.3378 38.2925 10.5912C38.4583 10.8547 38.6174 11.1149 38.7629 11.3852C39.5886 12.8719 40.13 14.5208 40.3364 16.2778H40.3398C41.8795 16.663 43.321 17.0955 44.6475 17.5482C44.5765 13.5037 43.1349 9.78702 40.7729 6.83729C40.685 6.72917 40.597 6.62105 40.5056 6.51293C40.4176 6.4048 40.3263 6.29668 40.2349 6.19194C40.1435 6.09057 40.0522 5.98583 39.954 5.88446C39.7611 5.67835 39.5683 5.47562 39.3686 5.28303C39.3686 5.28303 39.3686 5.27965 39.3652 5.27965C39.2671 5.18504 39.1656 5.08705 39.064 4.99245C38.9625 4.89784 38.861 4.80661 38.7595 4.70525C38.6647 4.62753 38.5734 4.54306 38.482 4.46535C38.3399 4.34033 38.1944 4.22207 38.0523 4.10381C37.971 4.04299 37.8932 3.97879 37.812 3.91798C37.6665 3.79972 37.5108 3.68821 37.3552 3.57671C37.2807 3.52265 37.2097 3.46859 37.1318 3.41115C37.1081 3.40101 37.0946 3.3875 37.0743 3.37736C36.9762 3.30303 36.8713 3.23545 36.7664 3.16449C36.5092 2.98879 36.2452 2.82323 35.9745 2.66443C35.8832 2.61036 35.7816 2.55292 35.6869 2.49886C35.5278 2.40763 35.3722 2.31978 35.2098 2.23869C35.1218 2.19139 35.0338 2.14408 34.9458 2.10016C34.8105 2.0292 34.6751 1.96501 34.5364 1.90081C34.4247 1.85012 34.313 1.79268 34.198 1.742C34.0863 1.69132 33.9712 1.64402 33.8562 1.59671C33.7242 1.53927 33.5922 1.48183 33.4535 1.43115C33.3655 1.39736 33.2775 1.36019 33.1929 1.33316C33.0102 1.26559 32.8275 1.19801 32.6414 1.13381C32.5432 1.10002 32.4417 1.06623 32.3436 1.03582C31.9815 0.920943 31.616 0.819578 31.2472 0.731728C31.1389 0.701319 31.034 0.674288 30.9257 0.650636C30.7836 0.616848 30.6415 0.589817 30.5027 0.559407C29.7921 0.417496 29.0713 0.312752 28.337 0.25869C28.0528 0.241796 27.7617 0.221523 27.4741 0.214765C27.3083 0.208008 27.1459 0.208008 26.98 0.208008C26.8142 0.208008 26.645 0.208008 26.4758 0.214765" fill="white"/>
<path d="M79.6028 32.1125C79.6028 36.4206 77.6401 38.5154 73.5997 38.5154C71.857 38.5154 70.4019 38.0829 69.2649 37.2315C68.1549 36.3969 67.5932 34.9372 67.5932 32.8897C67.5932 31.5618 67.8639 29.994 68.3918 28.2336L68.5136 27.8248H65.7693L65.7016 28.0545C65.1737 29.9095 64.9064 31.5888 64.9064 33.0451C64.9064 35.8529 65.7591 37.9174 67.4375 39.1777C69.0889 40.4144 71.1633 41.0428 73.5997 41.0428C76.3001 41.0428 78.4522 40.2927 79.9919 38.8128C81.535 37.3328 82.3167 35.0758 82.3167 32.1125V23.3613H79.6028V32.1125Z" fill="white"/>
<path d="M79.6028 32.1125C79.6028 36.4206 77.6401 38.5154 73.5997 38.5154C71.857 38.5154 70.4019 38.0829 69.2649 37.2315C68.1549 36.3969 67.5932 34.9372 67.5932 32.8897C67.5932 31.5618 67.8639 29.994 68.3918 28.2336L68.5136 27.8248H65.7693L65.7016 28.0545C65.1737 29.9095 64.9064 31.5888 64.9064 33.0451C64.9064 35.8529 65.7591 37.9174 67.4375 39.1777C69.0889 40.4143 71.1633 41.0428 73.5997 41.0428C76.3001 41.0428 78.4522 40.2927 79.9919 38.8128C81.535 37.3328 82.3167 35.0758 82.3167 32.1125V23.3613H79.6028V32.1125Z" stroke="white" stroke-width="0.21" stroke-miterlimit="10"/>
<path d="M74.0498 22.8244C74.5337 22.8244 74.95 22.6521 75.2951 22.3108C75.6369 21.9696 75.8095 21.5574 75.8095 21.0911C75.8095 20.6248 75.6369 20.2126 75.2883 19.8781C74.9466 19.5503 74.5303 19.3848 74.0498 19.3848C73.5693 19.3848 73.1531 19.5503 72.7978 19.8747C72.4391 20.2092 72.2563 20.618 72.2563 21.0911C72.2563 21.5641 72.4391 21.973 72.7944 22.3142C73.1463 22.6521 73.5693 22.8244 74.0498 22.8244Z" fill="white"/>
<path d="M74.0498 22.8244C74.5337 22.8244 74.95 22.6521 75.2951 22.3108C75.6369 21.9696 75.8095 21.5574 75.8095 21.0911C75.8095 20.6248 75.6369 20.2126 75.2883 19.8781C74.9466 19.5503 74.5303 19.3848 74.0498 19.3848C73.5693 19.3848 73.1531 19.5503 72.7978 19.8747C72.4391 20.2092 72.2563 20.618 72.2563 21.0911C72.2563 21.5641 72.4391 21.973 72.7944 22.3142C73.1463 22.6521 73.5693 22.8244 74.0498 22.8244Z" stroke="white" stroke-width="0.21" stroke-miterlimit="10"/>
<path d="M190.944 42.0366C190.467 42.0366 190.044 42.2022 189.695 42.5265C189.333 42.8611 189.151 43.2699 189.151 43.7429C189.151 44.216 189.333 44.6248 189.689 44.9661C190.041 45.304 190.464 45.4763 190.944 45.4763C191.425 45.4763 191.844 45.304 192.189 44.9627C192.531 44.6214 192.704 44.2092 192.704 43.7429C192.704 43.2767 192.531 42.8644 192.183 42.5333C191.841 42.2022 191.425 42.0366 190.944 42.0366Z" fill="white"/>
<path d="M190.944 42.0366C190.467 42.0366 190.044 42.2022 189.695 42.5265C189.333 42.8611 189.151 43.2699 189.151 43.7429C189.151 44.216 189.333 44.6248 189.689 44.9661C190.041 45.304 190.464 45.4763 190.944 45.4763C191.425 45.4763 191.844 45.304 192.189 44.9627C192.531 44.6214 192.704 44.2092 192.704 43.7429C192.704 43.2767 192.531 42.8644 192.183 42.5333C191.841 42.2022 191.425 42.0366 190.944 42.0366Z" stroke="white" stroke-width="0.21" stroke-miterlimit="10"/>
<path d="M111.994 26.6964C110.948 26.0545 109.74 25.7301 108.41 25.7301C106.752 25.7301 105.351 26.2335 104.251 27.2269C103.165 28.2068 102.37 29.6327 101.889 31.464C101.723 32.0823 101.585 32.829 101.48 33.6704C101.459 33.7751 101.405 34.1029 101.317 34.6469C101.229 35.1638 101.094 35.6301 100.908 36.0356C100.698 36.4951 100.377 36.8499 99.9163 37.11C99.4561 37.377 98.9113 37.5087 98.3056 37.5087H87.7139V20.3848H85V40.0631H98.6237V40.0462C99.5847 40.0057 100.458 39.7861 101.202 39.3739C101.923 38.9752 102.505 38.4244 102.935 37.7351C103.649 38.4582 104.454 39.0191 105.334 39.411C106.342 39.8604 107.395 40.0902 108.464 40.0902C109.662 40.0902 110.799 39.8063 111.841 39.2455C112.887 38.6846 113.736 37.8703 114.366 36.8228C114.999 35.772 115.317 34.5218 115.317 33.1027C115.317 31.6836 115.022 30.4672 114.444 29.3522C113.862 28.2304 113.036 27.3384 111.994 26.6964ZM112.024 35.5017C111.642 36.164 111.127 36.6742 110.498 37.0154C109.198 37.725 107.513 37.7115 105.943 36.9343C105.172 36.5525 104.461 35.9849 103.832 35.2483L104.048 34.1873C104.173 33.3257 104.343 32.5385 104.552 31.8458C104.911 30.6632 105.408 29.7712 106.031 29.1968C106.644 28.6359 107.419 28.3588 108.41 28.3588C109.693 28.3588 110.687 28.7879 111.452 29.6664C112.217 30.5449 112.603 31.7039 112.603 33.1027C112.603 34.0285 112.41 34.8361 112.024 35.5017Z" fill="white"/>
<path d="M111.994 26.6964C110.948 26.0545 109.74 25.7301 108.41 25.7301C106.752 25.7301 105.351 26.2335 104.251 27.2269C103.165 28.2068 102.37 29.6327 101.889 31.464C101.723 32.0823 101.585 32.829 101.48 33.6704C101.459 33.7751 101.405 34.1029 101.317 34.6469C101.229 35.1638 101.094 35.6301 100.908 36.0356C100.698 36.4951 100.377 36.8499 99.9163 37.11C99.4561 37.377 98.9113 37.5087 98.3056 37.5087H87.7139V20.3848H85V40.0631H98.6237V40.0462C99.5847 40.0057 100.458 39.7861 101.202 39.3739C101.923 38.9752 102.505 38.4244 102.935 37.7351C103.649 38.4582 104.454 39.0191 105.334 39.411C106.342 39.8604 107.395 40.0902 108.464 40.0902C109.662 40.0902 110.799 39.8063 111.841 39.2455C112.887 38.6846 113.736 37.8703 114.366 36.8228C114.999 35.772 115.317 34.5218 115.317 33.1027C115.317 31.6836 115.022 30.4672 114.444 29.3522C113.862 28.2304 113.036 27.3384 111.994 26.6964ZM112.024 35.5017C111.642 36.164 111.127 36.6742 110.498 37.0154C109.198 37.725 107.513 37.7115 105.943 36.9343C105.172 36.5525 104.461 35.9849 103.832 35.2483L104.048 34.1873C104.173 33.3257 104.343 32.5385 104.552 31.8458C104.911 30.6632 105.408 29.7712 106.031 29.1968C106.644 28.6359 107.419 28.3588 108.41 28.3588C109.693 28.3588 110.687 28.7879 111.452 29.6664C112.217 30.5449 112.603 31.7039 112.603 33.1027C112.603 34.0285 112.41 34.8361 112.024 35.5017Z" stroke="white" stroke-width="0.21" stroke-miterlimit="10"/>
<path d="M118.041 18.5399C117.807 18.3473 117.699 18.1176 117.699 17.8135C117.699 17.5567 117.784 17.3641 117.966 17.2086C118.352 16.8775 119.093 16.891 119.773 17.1715L120.034 17.2762L121.12 15.3334L120.809 15.1881C120.105 14.8603 119.415 14.6914 118.758 14.6914C117.804 14.6914 116.985 14.9718 116.328 15.5192C115.652 16.0801 115.307 16.766 115.307 17.5533C115.307 18.0432 115.411 18.4757 115.621 18.844H115.198V21.0098H121.695V18.844H118.975C118.596 18.844 118.291 18.746 118.041 18.5399Z" fill="white"/>
<path d="M118.041 18.5399C117.807 18.3473 117.699 18.1176 117.699 17.8135C117.699 17.5567 117.784 17.3641 117.966 17.2086C118.352 16.8775 119.093 16.891 119.773 17.1715L120.034 17.2762L121.12 15.3334L120.809 15.1881C120.105 14.8603 119.415 14.6914 118.758 14.6914C117.804 14.6914 116.985 14.9718 116.328 15.5192C115.652 16.0801 115.307 16.766 115.307 17.5533C115.307 18.0432 115.411 18.4757 115.621 18.844H115.198V21.0098H121.695V18.844H118.975C118.596 18.844 118.291 18.746 118.041 18.5399Z" stroke="white" stroke-width="0.21" stroke-miterlimit="10"/>
<path d="M119.804 22.1992H117.09V40.0598H119.804V22.1992Z" fill="white"/>
<path d="M119.804 22.1992H117.09V40.0598H119.804V22.1992Z" stroke="white" stroke-width="0.21" stroke-miterlimit="10"/>
<path d="M129.461 21.7736C129.945 21.7736 130.365 21.6013 130.707 21.2601C131.049 20.9154 131.221 20.5066 131.221 20.0403C131.221 19.574 131.049 19.1618 130.7 18.8273C130.358 18.4995 129.942 18.334 129.461 18.334C128.981 18.334 128.565 18.4995 128.209 18.8239C127.851 19.1584 127.668 19.5673 127.668 20.0403C127.668 20.5133 127.851 20.9222 128.206 21.2634C128.558 21.6013 128.981 21.7736 129.461 21.7736Z" fill="white"/>
<path d="M129.461 21.7736C129.945 21.7736 130.365 21.6013 130.707 21.2601C131.049 20.9154 131.221 20.5066 131.221 20.0403C131.221 19.574 131.049 19.1618 130.7 18.8273C130.358 18.4995 129.942 18.334 129.461 18.334C128.981 18.334 128.565 18.4995 128.209 18.8239C127.851 19.1584 127.668 19.5673 127.668 20.0403C127.668 20.5133 127.851 20.9222 128.206 21.2634C128.558 21.6013 128.981 21.7736 129.461 21.7736Z" stroke="white" stroke-width="0.21" stroke-miterlimit="10"/>
<path d="M133.746 21.7736C134.229 21.7736 134.649 21.6013 134.991 21.2601C135.333 20.9188 135.505 20.5066 135.505 20.0403C135.505 19.574 135.333 19.1618 134.984 18.8273C134.642 18.4995 134.226 18.334 133.746 18.334C133.265 18.334 132.845 18.4995 132.493 18.8239C132.135 19.1584 131.955 19.5673 131.955 20.0403C131.955 20.5133 132.135 20.9222 132.49 21.2634C132.842 21.6013 133.265 21.7736 133.746 21.7736Z" fill="white"/>
<path d="M133.746 21.7736C134.229 21.7736 134.649 21.6013 134.991 21.2601C135.333 20.9188 135.505 20.5066 135.505 20.0403C135.505 19.574 135.333 19.1618 134.984 18.8273C134.642 18.4995 134.226 18.334 133.746 18.334C133.265 18.334 132.845 18.4995 132.493 18.8239C132.135 19.1584 131.955 19.5673 131.955 20.0403C131.955 20.5133 132.135 20.9222 132.49 21.2634C132.842 21.6013 133.265 21.7736 133.746 21.7736Z" stroke="white" stroke-width="0.21" stroke-miterlimit="10"/>
<path d="M190.958 27.494V37.5123H188.257C186.89 37.5123 185.865 37.1846 185.212 36.5392C184.555 35.8938 184.224 34.887 184.224 33.5456C184.224 32.0589 183.861 30.7039 183.154 29.518C182.44 28.3286 181.432 27.3927 180.149 26.7271C178.877 26.0648 177.412 25.7303 175.801 25.7303C173.72 25.7303 171.869 26.2101 170.302 27.1528C169.091 27.8826 168.096 28.8321 167.341 29.9843V25.7303H164.654V37.5123H163.047C161.68 37.5123 160.658 37.1846 160.001 36.5392C159.382 35.931 159.054 34.9985 159.017 33.7652C159.034 33.5489 159.04 33.3293 159.04 33.1063C159.04 31.7311 158.749 30.4674 158.167 29.3524C157.585 28.234 156.76 27.342 155.717 26.7C154.672 26.0547 153.467 25.7303 152.134 25.7303C150.476 25.7303 149.075 26.2337 147.975 27.2271C146.889 28.207 146.093 29.6329 145.613 31.4676C145.447 32.0825 145.308 32.8326 145.203 33.674C145.183 33.7787 145.129 34.1031 145.041 34.6471C144.953 35.1674 144.818 35.6337 144.632 36.0358C144.422 36.4987 144.1 36.8501 143.64 37.1102C143.18 37.3772 142.635 37.5123 142.029 37.5123H142.016C140.655 37.5089 139.637 37.1812 138.984 36.5358C138.331 35.8939 137.999 34.887 137.999 33.5456V24.5342H135.285V25.9432C134.497 25.835 133.752 25.7844 133.062 25.7844C131.407 25.7844 129.898 26.0716 128.575 26.6392C127.238 27.2102 126.169 28.0684 125.397 29.1902C124.622 30.3154 124.233 31.6771 124.233 33.2347C124.233 34.4747 124.501 35.5864 125.029 36.5426C125.56 37.4988 126.301 38.2455 127.231 38.7659C128.162 39.2828 129.214 39.5464 130.362 39.5464C132.984 39.5464 134.852 38.5868 135.918 36.6946C136.365 37.6644 137.041 38.4449 137.942 39.0159C139.035 39.7119 140.408 40.0633 142.029 40.0633H142.344V40.0464C143.308 40.0059 144.182 39.7863 144.926 39.3741C145.647 38.9787 146.229 38.428 146.659 37.7353C147.373 38.4584 148.178 39.0227 149.061 39.4146C150.066 39.8606 151.119 40.0904 152.188 40.0904C153.389 40.0904 154.523 39.8065 155.565 39.249C156.401 38.7997 157.112 38.1881 157.687 37.4245C157.886 37.7894 158.127 38.1171 158.401 38.4077C159.44 39.5058 161.003 40.0633 163.047 40.0633H177.449C178.806 40.0633 179.994 39.8234 180.978 39.3436C181.811 38.9416 182.498 38.3739 183.022 37.6542C184.034 39.2558 185.79 40.0633 188.257 40.0633H193.671V27.494H190.958ZM135.285 31.9643C135.285 32.9644 135.096 33.8598 134.723 34.6268C134.351 35.3836 133.83 35.9817 133.174 36.4041C132.514 36.8298 131.749 37.0427 130.9 37.0427C129.661 37.0427 128.68 36.7115 127.983 36.0527C127.286 35.3904 126.947 34.4883 126.947 33.2854C126.947 32.2515 127.204 31.3426 127.719 30.5823C128.226 29.8288 128.954 29.2375 129.878 28.8287C130.812 28.4131 131.901 28.2036 133.113 28.2036C133.85 28.2036 134.561 28.2712 135.285 28.4063V31.9643ZM155.748 35.5019C155.365 36.1675 154.851 36.6744 154.225 37.019C152.922 37.7252 151.237 37.715 149.667 36.9345C148.895 36.5527 148.188 35.9851 147.559 35.2485L147.772 34.1875C147.897 33.3259 148.066 32.5387 148.276 31.846C148.635 30.6634 149.132 29.7714 149.755 29.2004C150.367 28.6361 151.146 28.3624 152.134 28.3624C153.416 28.3624 154.411 28.7881 155.176 29.6666C155.941 30.5451 156.326 31.7041 156.326 33.1063C156.326 34.0287 156.134 34.8363 155.748 35.5019ZM180.525 36.5493C179.868 37.1879 178.833 37.5123 177.449 37.5123H167.314V35.6844C167.365 34.3531 167.784 33.1198 168.566 32.0149C169.351 30.9033 170.4 30.0079 171.679 29.3524C172.958 28.6935 174.366 28.3624 175.855 28.3624C177.618 28.3624 179.019 28.8388 180.014 29.7815C181.019 30.731 181.51 31.9609 181.51 33.5456C181.51 34.9038 181.178 35.9141 180.525 36.5493Z" fill="white"/>
<path d="M190.958 27.494V37.5123H188.257C186.89 37.5123 185.865 37.1846 185.212 36.5392C184.555 35.8938 184.224 34.887 184.224 33.5456C184.224 32.0589 183.861 30.7039 183.154 29.518C182.44 28.3286 181.432 27.3927 180.149 26.7271C178.877 26.0648 177.412 25.7303 175.801 25.7303C173.72 25.7303 171.869 26.2101 170.302 27.1528C169.091 27.8826 168.096 28.8321 167.341 29.9843V25.7303H164.654V37.5123H163.047C161.68 37.5123 160.658 37.1846 160.001 36.5392C159.382 35.931 159.054 34.9985 159.017 33.7652C159.034 33.5489 159.04 33.3293 159.04 33.1063C159.04 31.7311 158.749 30.4674 158.167 29.3524C157.585 28.234 156.76 27.342 155.717 26.7C154.672 26.0547 153.467 25.7303 152.134 25.7303C150.476 25.7303 149.075 26.2337 147.975 27.2271C146.889 28.207 146.093 29.6329 145.613 31.4676C145.447 32.0825 145.308 32.8326 145.203 33.674C145.183 33.7787 145.129 34.1031 145.041 34.6471C144.953 35.1674 144.818 35.6337 144.632 36.0358C144.422 36.4987 144.1 36.8501 143.64 37.1102C143.18 37.3772 142.635 37.5123 142.029 37.5123H142.016C140.655 37.5089 139.637 37.1812 138.984 36.5358C138.331 35.8939 137.999 34.887 137.999 33.5456V24.5342H135.285V25.9432C134.497 25.835 133.752 25.7844 133.062 25.7844C131.407 25.7844 129.898 26.0716 128.575 26.6392C127.238 27.2102 126.169 28.0684 125.397 29.1902C124.622 30.3154 124.233 31.6771 124.233 33.2347C124.233 34.4747 124.501 35.5864 125.029 36.5426C125.56 37.4988 126.301 38.2455 127.231 38.7659C128.162 39.2828 129.214 39.5464 130.362 39.5464C132.984 39.5464 134.852 38.5868 135.918 36.6946C136.365 37.6644 137.041 38.4449 137.942 39.0159C139.035 39.7119 140.408 40.0633 142.029 40.0633H142.344V40.0464C143.308 40.0059 144.182 39.7863 144.926 39.3741C145.647 38.9787 146.229 38.428 146.659 37.7353C147.373 38.4584 148.178 39.0227 149.061 39.4146C150.066 39.8606 151.119 40.0904 152.188 40.0904C153.389 40.0904 154.523 39.8065 155.565 39.249C156.401 38.7997 157.112 38.1881 157.687 37.4245C157.886 37.7894 158.127 38.1171 158.401 38.4077C159.44 39.5058 161.003 40.0633 163.047 40.0633H177.449C178.806 40.0633 179.994 39.8234 180.978 39.3436C181.811 38.9416 182.498 38.3739 183.022 37.6542C184.034 39.2558 185.79 40.0633 188.257 40.0633H193.671V27.494H190.958ZM135.285 31.9643C135.285 32.9644 135.096 33.8598 134.723 34.6268C134.351 35.3836 133.83 35.9817 133.174 36.4041C132.514 36.8298 131.749 37.0427 130.9 37.0427C129.661 37.0427 128.68 36.7115 127.983 36.0527C127.286 35.3904 126.947 34.4883 126.947 33.2854C126.947 32.2515 127.204 31.3426 127.719 30.5823C128.226 29.8288 128.954 29.2375 129.878 28.8287C130.812 28.4131 131.901 28.2036 133.113 28.2036C133.85 28.2036 134.561 28.2712 135.285 28.4063V31.9643ZM155.748 35.5019C155.365 36.1675 154.851 36.6744 154.225 37.019C152.922 37.7252 151.237 37.715 149.667 36.9345C148.895 36.5527 148.188 35.9851 147.559 35.2485L147.772 34.1875C147.897 33.3259 148.066 32.5387 148.276 31.846C148.635 30.6634 149.132 29.7714 149.755 29.2004C150.367 28.6361 151.146 28.3624 152.134 28.3624C153.416 28.3624 154.411 28.7881 155.176 29.6666C155.941 30.5451 156.326 31.7041 156.326 33.1063C156.326 34.0287 156.134 34.8363 155.748 35.5019ZM180.525 36.5493C179.868 37.1879 178.833 37.5123 177.449 37.5123H167.314V35.6844C167.365 34.3531 167.784 33.1198 168.566 32.0149C169.351 30.9033 170.4 30.0079 171.679 29.3524C172.958 28.6935 174.366 28.3624 175.855 28.3624C177.618 28.3624 179.019 28.8388 180.014 29.7815C181.019 30.731 181.51 31.9609 181.51 33.5456C181.51 34.9038 181.178 35.9141 180.525 36.5493Z" stroke="white" stroke-width="0.21" stroke-miterlimit="10"/>
<path d="M69.5965 54.8019C69.5965 55.1938 69.7014 55.4878 69.9146 55.6837C70.1278 55.8797 70.4019 55.9777 70.7403 55.9777V57.3394C70.1752 57.3394 69.6947 57.2245 69.2987 56.9913C68.9028 56.7582 68.6118 56.4237 68.4291 55.9878C68.0974 56.765 67.4883 57.1569 66.6051 57.1569C66.2498 57.1569 65.9148 57.0623 65.6069 56.8765C65.2956 56.6906 65.0485 56.4271 64.8624 56.0858C64.6763 55.7445 64.5815 55.3594 64.5815 54.9302C64.5815 54.3964 64.7135 53.9267 64.9741 53.5246C65.2346 53.1192 65.5967 52.8083 66.0569 52.5921C66.5171 52.3758 67.0349 52.2643 67.6135 52.2643C67.8335 52.2643 68.0331 52.2779 68.2125 52.3015V51.8792H69.6033V54.8052L69.5965 54.8019ZM66.5645 51.3453C66.348 51.3453 66.1652 51.2676 66.0129 51.1155C65.8607 50.9635 65.7828 50.7776 65.7828 50.5648C65.7828 50.3519 65.8607 50.1661 66.0129 50.014C66.1652 49.862 66.3513 49.7843 66.5645 49.7843C66.7777 49.7843 66.9638 49.862 67.1161 50.014C67.2684 50.1661 67.3462 50.3519 67.3462 50.5648C67.3462 50.7776 67.2684 50.9635 67.1161 51.1155C66.9638 51.2676 66.7777 51.3453 66.5645 51.3453ZM66.9706 55.8155C67.3462 55.8155 67.644 55.6736 67.8673 55.3931C68.0907 55.1127 68.2023 54.7275 68.2023 54.2443V53.6193C67.9993 53.5888 67.82 53.5719 67.6575 53.5719C67.1601 53.5719 66.7506 53.6936 66.4292 53.9369C66.1077 54.1801 65.9453 54.5045 65.9453 54.9167C65.9453 55.2039 66.04 55.4269 66.2295 55.5824C66.419 55.7378 66.666 55.8155 66.9672 55.8155H66.9706ZM68.3986 51.3453C68.182 51.3453 67.9993 51.2676 67.847 51.1155C67.6948 50.9635 67.6169 50.7776 67.6169 50.5648C67.6169 50.3519 67.6948 50.1661 67.847 50.014C67.9993 49.862 68.1854 49.7843 68.3986 49.7843C68.6118 49.7843 68.7979 49.862 68.9502 50.014C69.1025 50.1661 69.1803 50.3519 69.1803 50.5648C69.1803 50.7776 69.1025 50.9635 68.9502 51.1155C68.7979 51.2676 68.6118 51.3453 68.3986 51.3453ZM73.576 55.6398C73.8027 55.8662 74.1784 55.9811 74.6995 55.9811V57.3427C73.7215 57.3427 73.0617 57.0724 72.7199 56.5318C72.4999 56.7886 72.2224 56.988 71.8874 57.1299C71.5524 57.2718 71.17 57.3427 70.7403 57.3427C70.5305 57.3427 70.3579 57.2752 70.2158 57.14C70.0737 57.0049 70.0026 56.8393 70.0026 56.6433C70.0026 56.4473 70.0703 56.2885 70.2056 56.1635C70.341 56.0419 70.5203 55.9811 70.7403 55.9811C71.0787 55.9811 71.3528 55.8831 71.5694 55.6871C71.7825 55.4911 71.8908 55.1972 71.8908 54.8052V52.93H73.2816V54.8052C73.2816 55.1533 73.3798 55.4337 73.576 55.6432V55.6398ZM71.6607 59.7248C71.4441 59.7248 71.2614 59.6471 71.1091 59.4951C70.9569 59.343 70.879 59.1572 70.879 58.9443C70.879 58.7314 70.9569 58.5456 71.1091 58.3936C71.2614 58.2415 71.4475 58.1638 71.6607 58.1638C71.8739 58.1638 72.06 58.2415 72.2123 58.3936C72.3646 58.5456 72.4424 58.7314 72.4424 58.9443C72.4424 59.1572 72.3646 59.343 72.2123 59.4951C72.06 59.6471 71.8739 59.7248 71.6607 59.7248ZM73.4948 59.7248C73.2782 59.7248 73.0955 59.6471 72.9432 59.4951C72.7909 59.343 72.7131 59.1572 72.7131 58.9443C72.7131 58.7314 72.7909 58.5456 72.9432 58.3936C73.0955 58.2415 73.2816 58.1638 73.4948 58.1638C73.708 58.1638 73.8941 58.2415 74.0464 58.3936C74.1987 58.5456 74.2765 58.7314 74.2765 58.9443C74.2765 59.1572 74.1987 59.343 74.0464 59.4951C73.8941 59.6471 73.708 59.7248 73.4948 59.7248ZM73.9652 56.6636C73.9652 56.4676 74.0329 56.3054 74.1716 56.177C74.3103 56.0486 74.4863 55.9844 74.7029 55.9844H76.5437V57.3461H74.7029C74.4897 57.3461 74.3103 57.2819 74.1716 57.1535C74.0329 57.0251 73.9652 56.8629 73.9652 56.667V56.6636ZM79.8972 52.2947C80.3709 52.2947 80.7939 52.4096 81.1729 52.6428C81.5519 52.8759 81.8497 53.1935 82.0663 53.5956C82.2829 53.9977 82.3945 54.4403 82.3945 54.9235C82.3945 55.4067 82.2862 55.8594 82.0731 56.2243C81.8565 56.5893 81.5722 56.8663 81.2169 57.0555C80.8616 57.2447 80.4725 57.3394 80.0461 57.3394C79.7145 57.3394 79.3862 57.2819 79.0648 57.1637C78.7433 57.0488 78.4421 56.8731 78.168 56.6399C77.9853 56.8663 77.7518 57.0386 77.4709 57.1603C77.1901 57.2785 76.8821 57.3394 76.5437 57.3394C76.3339 57.3394 76.1613 57.2718 76.0192 57.1366C75.8771 57.0015 75.806 56.8359 75.806 56.6399C75.806 56.444 75.8737 56.2852 76.0091 56.1601C76.1444 56.0385 76.3238 55.9777 76.5437 55.9777C76.74 55.9777 76.8889 55.9439 76.9938 55.8729C77.0987 55.802 77.1731 55.7074 77.2205 55.5824C77.2679 55.4607 77.3186 55.2681 77.3829 55.0113C77.4438 54.7478 77.4878 54.5755 77.5115 54.4978C77.701 53.7983 78.0022 53.2577 78.4083 52.8692C78.8177 52.484 79.3118 52.2914 79.8972 52.2914V52.2947ZM79.8329 56.0757C80.1713 56.0757 80.4488 55.9777 80.6721 55.7783C80.8921 55.579 81.0037 55.2952 81.0037 54.9269C81.0037 54.5586 80.9022 54.2747 80.6992 54.0382C80.4962 53.8017 80.2288 53.6835 79.8972 53.6835C79.6468 53.6835 79.4404 53.7679 79.2847 53.9369C79.129 54.1058 78.9869 54.3727 78.8651 54.741C78.8042 54.9201 78.7568 55.1059 78.7264 55.3019C78.7128 55.3458 78.7027 55.3965 78.6925 55.454C78.6824 55.5114 78.6654 55.579 78.6418 55.6533C78.8211 55.7952 79.014 55.9 79.2204 55.9709C79.4302 56.0419 79.6332 56.0757 79.8295 56.0757H79.8329ZM82.6788 55.6432C82.9055 55.8696 83.2811 55.9844 83.8022 55.9844V57.3461C82.98 57.3461 82.3878 57.1637 82.0291 56.7954C81.6704 56.4271 81.491 55.8696 81.491 55.1228C81.491 54.9877 81.491 54.8829 81.5012 54.8086H82.3844C82.3844 55.1566 82.4825 55.4371 82.6788 55.6466V55.6432ZM89.291 57.3461H83.8022C83.5891 57.3461 83.4097 57.2819 83.271 57.1569C83.1322 57.0319 83.0646 56.8697 83.0646 56.6737C83.0646 56.4642 83.1322 56.2987 83.2676 56.1737C83.4029 56.0486 83.5823 55.9844 83.8022 55.9844H84.4926C84.3132 55.6466 84.2252 55.2715 84.2252 54.8525C84.2252 54.3998 84.3335 53.9774 84.5535 53.5922C84.7701 53.207 85.1152 52.8928 85.589 52.6529C86.0627 52.413 86.665 52.2947 87.4027 52.2947H89.291V57.3427V57.3461ZM85.9477 51.6629C85.7311 51.6629 85.5484 51.5852 85.3961 51.4331C85.2438 51.2811 85.166 51.0953 85.166 50.8824C85.166 50.6695 85.2438 50.4837 85.3961 50.3316C85.5484 50.1796 85.7345 50.1019 85.9477 50.1019C86.1608 50.1019 86.347 50.1796 86.4992 50.3316C86.6515 50.4837 86.7293 50.6695 86.7293 50.8824C86.7293 51.0953 86.6515 51.2811 86.4992 51.4331C86.347 51.5852 86.1608 51.6629 85.9477 51.6629ZM87.89 53.6868H87.3824C86.7429 53.6868 86.2861 53.7983 86.0086 54.018C85.7311 54.2376 85.5957 54.5147 85.5957 54.8458C85.5957 55.1769 85.7345 55.4506 86.0086 55.6635C86.2861 55.8797 86.7496 55.9844 87.3994 55.9844H87.8866V53.6868H87.89ZM87.7784 51.6629C87.5618 51.6629 87.3791 51.5852 87.2268 51.4331C87.0745 51.2811 86.9967 51.0953 86.9967 50.8824C86.9967 50.6695 87.0745 50.4837 87.2268 50.3316C87.3791 50.1796 87.5652 50.1019 87.7784 50.1019C87.9915 50.1019 88.1777 50.1796 88.3299 50.3316C88.4822 50.4837 88.56 50.6695 88.56 50.8824C88.56 51.0953 88.4822 51.2811 88.3299 51.4331C88.1777 51.5852 87.9915 51.6629 87.7784 51.6629ZM93.6901 55.9844V57.3461H92.7324C92.7324 58.0016 92.5835 58.4983 92.2891 58.8362C91.9947 59.1741 91.5751 59.343 91.0269 59.343C90.6649 59.343 90.2791 59.2754 89.8662 59.1403L90.1336 57.9442C90.4144 58.0117 90.6378 58.0455 90.7968 58.0455C90.9863 58.0455 91.1251 57.9949 91.2097 57.8901C91.2943 57.7854 91.3383 57.6063 91.3383 57.3461V52.93H92.729V55.9844H93.6867H93.6901ZM94.8406 50.5952H96.2314V57.3461H93.6901C93.4769 57.3461 93.2975 57.2819 93.1588 57.1535C93.0201 57.0251 92.9524 56.8629 92.9524 56.667C92.9524 56.471 93.0201 56.3088 93.1588 56.1804C93.2975 56.052 93.4735 55.9878 93.6901 55.9878H94.8406V50.5986V50.5952ZM97.2094 50.5952H98.6002V57.3461H97.2094V50.5952ZM106.437 54.8086C106.437 55.2006 106.542 55.4945 106.755 55.6905C106.969 55.8865 107.243 55.9844 107.581 55.9844V57.3461C107.016 57.3461 106.535 57.2312 106.14 56.9981C105.744 56.765 105.453 56.4305 105.27 55.9946C104.938 56.7717 104.329 57.1637 103.446 57.1637C103.091 57.1637 102.756 57.0691 102.448 56.8832C102.136 56.6974 101.889 56.4338 101.703 56.0926C101.517 55.7513 101.422 55.3661 101.422 54.937C101.422 54.4031 101.554 53.9335 101.815 53.5314C102.075 53.1259 102.438 52.8151 102.898 52.5988C103.358 52.3826 103.876 52.2711 104.454 52.2711C104.674 52.2711 104.874 52.2846 105.053 52.3083V51.8859H106.444V54.812L106.437 54.8086ZM103.405 51.3521C103.189 51.3521 103.006 51.2743 102.854 51.1223C102.701 50.9702 102.624 50.7844 102.624 50.5715C102.624 50.3587 102.701 50.1728 102.854 50.0208C103.006 49.8687 103.192 49.791 103.405 49.791C103.619 49.791 103.805 49.8687 103.957 50.0208C104.109 50.1728 104.187 50.3587 104.187 50.5715C104.187 50.7844 104.109 50.9702 103.957 51.1223C103.805 51.2743 103.619 51.3521 103.405 51.3521ZM103.811 55.8223C104.187 55.8223 104.485 55.6803 104.708 55.3999C104.931 55.1195 105.043 54.7343 105.043 54.2511V53.626C104.84 53.5956 104.661 53.5787 104.498 53.5787C104.001 53.5787 103.591 53.7003 103.27 53.9436C102.949 54.1869 102.786 54.5113 102.786 54.9235C102.786 55.2107 102.881 55.4337 103.07 55.5891C103.26 55.7445 103.507 55.8223 103.808 55.8223H103.811ZM105.239 51.3521C105.023 51.3521 104.84 51.2743 104.688 51.1223C104.536 50.9702 104.458 50.7844 104.458 50.5715C104.458 50.3587 104.536 50.1728 104.688 50.0208C104.84 49.8687 105.026 49.791 105.239 49.791C105.453 49.791 105.639 49.8687 105.791 50.0208C105.943 50.1728 106.021 50.3587 106.021 50.5715C106.021 50.7844 105.943 50.9702 105.791 51.1223C105.639 51.2743 105.453 51.3521 105.239 51.3521ZM114.21 55.9878V57.3495H111.835C111.459 57.3495 111.148 57.1299 110.894 56.6872C110.647 57.1299 110.336 57.3495 109.953 57.3495H107.578C107.368 57.3495 107.195 57.2819 107.053 57.1468C106.911 57.0116 106.84 56.8461 106.84 56.6501C106.84 56.4541 106.908 56.2953 107.043 56.1703C107.178 56.0486 107.358 55.9878 107.578 55.9878H109.117L108.139 55.0046C108.139 54.5011 108.261 54.045 108.505 53.6294C108.749 53.2172 109.08 52.8894 109.5 52.6529C109.919 52.4164 110.386 52.2981 110.894 52.2981C111.402 52.2981 111.879 52.4164 112.298 52.6529C112.718 52.8894 113.05 53.2138 113.293 53.6294C113.537 54.0416 113.659 54.5011 113.659 55.0046L112.674 55.9878H114.214H114.21ZM112.268 54.5991C112.251 54.464 112.18 54.3254 112.055 54.1869C111.933 54.045 111.767 53.9267 111.561 53.8321C111.354 53.7375 111.131 53.6902 110.894 53.6902C110.657 53.6902 110.43 53.7375 110.227 53.8321C110.021 53.9267 109.858 54.045 109.733 54.1869C109.611 54.3288 109.54 54.4673 109.52 54.5991L110.894 56.0047L112.268 54.5991ZM117.564 52.3015C118.037 52.3015 118.46 52.4164 118.839 52.6495C119.218 52.8827 119.516 53.2003 119.733 53.6024C119.949 54.0044 120.061 54.4471 120.061 54.9302C120.061 55.4134 119.953 55.8662 119.74 56.2311C119.523 56.596 119.239 56.8731 118.883 57.0623C118.528 57.2515 118.139 57.3461 117.713 57.3461C117.381 57.3461 117.053 57.2887 116.731 57.1704C116.41 57.0555 116.109 56.8798 115.834 56.6467C115.652 56.8731 115.418 57.0454 115.137 57.167C114.857 57.2853 114.549 57.3461 114.21 57.3461C114 57.3461 113.828 57.2785 113.686 57.1434C113.544 57.0082 113.473 56.8427 113.473 56.6467C113.473 56.4507 113.54 56.2919 113.676 56.1669C113.811 56.0453 113.99 55.9844 114.21 55.9844C114.406 55.9844 114.555 55.9507 114.66 55.8797C114.765 55.8087 114.84 55.7141 114.887 55.5891C114.934 55.4675 114.985 55.2749 115.049 55.0181C115.11 54.7545 115.154 54.5822 115.178 54.5045C115.368 53.8051 115.669 53.2645 116.075 52.8759C116.484 52.4907 116.978 52.2981 117.564 52.2981V52.3015ZM117.499 56.0824C117.838 56.0824 118.115 55.9844 118.339 55.7851C118.559 55.5857 118.67 55.3019 118.67 54.9336C118.67 54.5653 118.569 54.2815 118.366 54.045C118.163 53.8085 117.895 53.6902 117.564 53.6902C117.313 53.6902 117.107 53.7747 116.951 53.9436C116.796 54.1126 116.653 54.3795 116.532 54.7478C116.471 54.9269 116.423 55.1127 116.393 55.3087C116.379 55.3526 116.369 55.4033 116.359 55.4607C116.349 55.5182 116.332 55.5857 116.308 55.6601C116.488 55.802 116.68 55.9067 116.887 55.9777C117.097 56.0486 117.3 56.0824 117.496 56.0824H117.499ZM120.345 55.6499C120.572 55.8763 120.948 55.9912 121.469 55.9912V57.3529C120.646 57.3529 120.054 57.1704 119.696 56.8021C119.337 56.4338 119.158 55.8763 119.158 55.1296C119.158 54.9944 119.158 54.8897 119.168 54.8154H120.051C120.051 55.1634 120.149 55.4438 120.345 55.6533V55.6499ZM131.049 55.9912V57.3529H128.193C127.78 57.3529 127.441 57.2887 127.171 57.1637C126.9 57.0386 126.69 56.8494 126.534 56.5994C126.352 56.8393 126.132 57.0251 125.881 57.1569C125.631 57.2887 125.357 57.3563 125.062 57.3563H121.469C121.256 57.3563 121.076 57.2921 120.937 57.1637C120.799 57.0353 120.731 56.8731 120.731 56.6771C120.731 56.4811 120.799 56.3189 120.937 56.1905C121.076 56.0622 121.252 55.998 121.469 55.998H122.619V52.6124H124.01V55.998H124.876C125.397 55.998 125.658 55.606 125.658 54.8221V52.6157H127.049V54.8221C127.049 55.2276 127.127 55.5249 127.282 55.7141C127.438 55.9033 127.678 55.998 128.006 55.998H128.697V52.3116H130.088V55.998H131.045L131.049 55.9912ZM132.199 50.602H133.59V57.3529H131.049C130.835 57.3529 130.656 57.2887 130.517 57.1603C130.379 57.0319 130.311 56.8697 130.311 56.6737C130.311 56.4778 130.379 56.3156 130.517 56.1872C130.656 56.0588 130.832 55.9946 131.049 55.9946H132.199V50.6053V50.602ZM134.568 50.602H135.959V57.3529H134.568V50.602ZM142.002 57.3529C141.431 57.3529 140.903 57.2414 140.412 57.0218C139.921 56.8021 139.532 56.4845 139.241 56.0757C138.95 55.6635 138.805 55.187 138.805 54.6397C138.805 54.2612 138.889 53.8456 139.055 53.3996H140.354C140.236 53.7848 140.178 54.1193 140.178 54.4032C140.178 54.9066 140.334 55.2952 140.642 55.5756C140.953 55.8561 141.403 55.9946 141.999 55.9946H145.6V52.9401H146.99V57.3563H141.999L142.002 57.3529ZM141.975 52.2947C141.759 52.2947 141.576 52.217 141.424 52.065C141.271 51.9129 141.194 51.7271 141.194 51.5142C141.194 51.3014 141.271 51.1155 141.424 50.9635C141.576 50.8114 141.762 50.7337 141.975 50.7337C142.189 50.7337 142.375 50.8114 142.527 50.9635C142.679 51.1155 142.757 51.3014 142.757 51.5142C142.757 51.7271 142.679 51.9129 142.527 52.065C142.375 52.217 142.189 52.2947 141.975 52.2947ZM143.809 52.2947C143.593 52.2947 143.41 52.217 143.258 52.065C143.106 51.9129 143.028 51.7271 143.028 51.5142C143.028 51.3014 143.106 51.1155 143.258 50.9635C143.41 50.8114 143.596 50.7337 143.809 50.7337C144.023 50.7337 144.209 50.8114 144.361 50.9635C144.513 51.1155 144.591 51.3014 144.591 51.5142C144.591 51.7271 144.513 51.9129 144.361 52.065C144.209 52.217 144.023 52.2947 143.809 52.2947ZM150.506 55.9912V57.3529H147.972V50.602H149.362V55.9912H150.506ZM149.769 56.6704C149.769 56.4744 149.836 56.3122 149.975 56.1838C150.114 56.0554 150.29 55.9912 150.506 55.9912H152.347V57.3529H150.506C150.293 57.3529 150.114 57.2887 149.975 57.1603C149.836 57.0319 149.769 56.8697 149.769 56.6737V56.6704ZM151.609 56.6704C151.609 56.4744 151.677 56.3122 151.816 56.1838C151.955 56.0554 152.13 55.9912 152.347 55.9912H154.188V57.3529H152.347C152.134 57.3529 151.955 57.2887 151.816 57.1603C151.677 57.0319 151.609 56.8697 151.609 56.6737V56.6704ZM157.541 52.3015C158.015 52.3015 158.438 52.4164 158.817 52.6495C159.196 52.8827 159.494 53.2003 159.71 53.6024C159.927 54.0044 160.039 54.4471 160.039 54.9302C160.039 55.4134 159.93 55.8662 159.717 56.2311C159.501 56.596 159.216 56.8731 158.861 57.0623C158.506 57.2515 158.117 57.3461 157.69 57.3461C157.359 57.3461 157.03 57.2887 156.709 57.1704C156.387 57.0555 156.086 56.8798 155.812 56.6467C155.629 56.8731 155.396 57.0454 155.115 57.167C154.834 57.2853 154.526 57.3461 154.188 57.3461C153.978 57.3461 153.806 57.2785 153.663 57.1434C153.521 57.0082 153.45 56.8427 153.45 56.6467C153.45 56.4507 153.518 56.2919 153.653 56.1669C153.789 56.0453 153.968 55.9844 154.188 55.9844C154.384 55.9844 154.533 55.9507 154.638 55.8797C154.743 55.8087 154.817 55.7141 154.865 55.5891C154.912 55.4675 154.963 55.2749 155.027 55.0181C155.088 54.7545 155.132 54.5822 155.156 54.5045C155.345 53.8051 155.646 53.2645 156.052 52.8759C156.462 52.4907 156.956 52.2981 157.541 52.2981V52.3015ZM157.477 56.0824C157.815 56.0824 158.093 55.9844 158.316 55.7851C158.536 55.5857 158.648 55.3019 158.648 54.9336C158.648 54.5653 158.546 54.2815 158.343 54.045C158.14 53.8085 157.873 53.6902 157.541 53.6902C157.291 53.6902 157.085 53.7747 156.929 53.9436C156.773 54.1126 156.631 54.3795 156.509 54.7478C156.448 54.9269 156.401 55.1127 156.371 55.3087C156.357 55.3526 156.347 55.4033 156.337 55.4607C156.327 55.5182 156.31 55.5857 156.286 55.6601C156.465 55.802 156.658 55.9067 156.865 55.9777C157.074 56.0486 157.277 56.0824 157.474 56.0824H157.477ZM160.793 57.9509C161.074 58.0185 161.298 58.0523 161.457 58.0523C161.646 58.0523 161.785 58.0016 161.869 57.8969C161.954 57.7921 161.998 57.613 161.998 57.3529V52.9367H163.389V57.3529C163.389 58.0084 163.24 58.5051 162.946 58.8429C162.651 59.1808 162.232 59.3498 161.683 59.3498C161.321 59.3498 160.935 59.2822 160.523 59.147L160.79 57.9509H160.793ZM162.698 52.1292C162.482 52.1292 162.299 52.0515 162.147 51.8994C161.995 51.7474 161.917 51.5615 161.917 51.3487C161.917 51.1358 161.995 50.95 162.147 50.7979C162.299 50.6459 162.485 50.5682 162.698 50.5682C162.912 50.5682 163.098 50.6459 163.25 50.7979C163.402 50.95 163.48 51.1358 163.48 51.3487C163.48 51.5615 163.402 51.7474 163.25 51.8994C163.098 52.0515 162.912 52.1292 162.698 52.1292ZM166.116 50.4195H164.201V49.8417H164.414C164.272 49.7133 164.201 49.5309 164.201 49.2977C164.201 49.0207 164.306 48.7976 164.516 48.6219C164.725 48.4462 164.979 48.3584 165.28 48.3584C165.514 48.3584 165.744 48.4125 165.971 48.524L165.687 49.0747C165.558 49.0274 165.439 49.0004 165.338 49.0004C165.203 49.0004 165.091 49.0342 165.006 49.0984C164.922 49.1626 164.878 49.2605 164.878 49.3889C164.878 49.5173 164.925 49.6322 165.02 49.7167C165.115 49.7978 165.236 49.8417 165.385 49.8417H166.123V50.4195H166.116ZM164.478 51.1561H165.869V57.3563H164.478V51.1561ZM171.913 59.6167C171.331 59.6167 170.796 59.5153 170.309 59.3092C169.825 59.1031 169.433 58.7821 169.138 58.3429C168.844 57.9036 168.695 57.3529 168.695 56.6906C168.695 56.1872 168.79 55.6162 168.979 54.9708H170.278C170.126 55.5486 170.048 56.0453 170.048 56.4609C170.048 57.6637 170.668 58.2618 171.91 58.2618C172.529 58.2618 172.986 58.0962 173.283 57.7651C173.578 57.434 173.727 56.9204 173.727 56.221V50.602H175.118V56.221C175.118 57.2988 174.837 58.1368 174.278 58.7281C173.72 59.3194 172.931 59.6167 171.91 59.6167H171.913ZM182.017 57.3529H181.039C180.928 58.0996 180.643 58.6672 180.183 59.0491C179.723 59.4309 179.097 59.6235 178.305 59.6235C177.919 59.6235 177.503 59.5829 177.063 59.5052V58.1638C177.463 58.2179 177.808 58.2449 178.106 58.2449C178.529 58.2449 178.867 58.1739 179.114 58.0286C179.361 57.8834 179.534 57.6603 179.625 57.3529H179.239C178.515 57.3529 177.916 57.238 177.449 57.0082C176.979 56.7785 176.637 56.4778 176.424 56.1027C176.207 55.7277 176.102 55.3222 176.102 54.8796C176.102 54.4369 176.214 54.0146 176.434 53.6294C176.654 53.2442 177.002 52.93 177.476 52.6901C177.95 52.4502 178.545 52.3319 179.263 52.3319H181.097V55.9912H182.027V57.3529H182.017ZM177.439 54.8593C177.439 55.1837 177.581 55.454 177.862 55.6702C178.143 55.8865 178.606 55.9912 179.253 55.9912H179.713V53.7206H179.232C178.593 53.7206 178.136 53.8287 177.855 54.0484C177.574 54.2646 177.436 54.5383 177.436 54.8627L177.439 54.8593ZM181.28 56.6704C181.28 56.4744 181.347 56.3122 181.486 56.1838C181.625 56.0554 181.801 55.9912 182.017 55.9912H183.858V57.3529H182.017C181.804 57.3529 181.625 57.2887 181.486 57.1603C181.347 57.0319 181.28 56.8697 181.28 56.6737V56.6704ZM186.694 55.6499C186.921 55.8763 187.296 55.9912 187.817 55.9912V57.3529C186.839 57.3529 186.18 57.0826 185.838 56.542C185.618 56.7987 185.34 56.9981 185.005 57.14C184.67 57.2819 184.288 57.3529 183.858 57.3529C183.645 57.3529 183.466 57.2887 183.327 57.1603C183.188 57.0319 183.12 56.8697 183.12 56.6737C183.12 56.4778 183.188 56.3156 183.327 56.1872C183.466 56.0588 183.642 55.9946 183.858 55.9946C184.197 55.9946 184.471 55.8966 184.687 55.7006C184.904 55.5047 185.009 55.2107 185.009 54.8187V50.6053H186.4V54.8187C186.4 55.1668 186.498 55.4472 186.694 55.6567V55.6499ZM193.225 55.5756C193.249 55.7108 193.293 55.8087 193.353 55.8662C193.414 55.9236 193.489 55.9608 193.58 55.9709C193.668 55.9844 193.81 55.9878 194 55.9878V57.3495H187.828C187.581 57.3495 187.391 57.2819 187.256 57.1468C187.12 57.0116 187.053 56.8528 187.053 56.667C187.053 56.4811 187.12 56.3223 187.256 56.1872C187.391 56.052 187.581 55.9844 187.828 55.9844H191.881C191.875 55.9608 191.868 55.9338 191.865 55.9034C191.858 55.8729 191.851 55.8358 191.848 55.7918C191.766 55.3256 191.662 54.9573 191.53 54.6836C191.398 54.4099 191.228 54.2004 191.019 54.0551C190.596 53.7612 190.068 53.6125 189.435 53.6125C189.09 53.6125 188.748 53.6632 188.403 53.7612L188.247 52.484C188.707 52.3623 189.164 52.3015 189.621 52.3015C190.457 52.3015 191.191 52.5144 191.824 52.9367C192.193 53.1834 192.491 53.5179 192.717 53.947C192.944 54.3761 193.117 54.9201 193.232 55.5756H193.225Z" fill="white"/>
</g>
<defs>
<clipPath id="clip0_458_201">
<rect width="194" height="74" fill="white" transform="translate(0 0.208008)"/>
</clipPath>
</defs>
</svg>
