<svg width="97" height="56" viewBox="0 0 97 56" fill="none" xmlns="http://www.w3.org/2000/svg">
<g clip-path="url(#clip0_161_8836)">
<path d="M4.05235 26.2151C3.80039 26.2151 3.62542 26.1521 3.52743 26.0261C3.42945 25.8862 3.38046 25.7392 3.38046 25.5852V24.5144C3.38046 24.3604 3.42945 24.2204 3.52743 24.0944C3.62542 23.9685 3.80039 23.9055 4.05235 23.9055H5.08118C5.33314 23.9055 5.50811 23.9685 5.6061 24.0944C5.70408 24.2204 5.75307 24.3604 5.75307 24.5144V25.5852C5.75307 25.7392 5.70408 25.8862 5.6061 26.0261C5.50811 26.1521 5.33314 26.2151 5.08118 26.2151H4.05235ZM7.36981 35.2227V26.782C7.36981 26.656 7.41181 26.5161 7.49579 26.3621C7.59378 26.2081 7.77575 26.1311 8.04171 26.1311H8.98655C9.23851 26.1311 9.42048 26.2011 9.53247 26.3411C9.64445 26.4811 9.70044 26.628 9.70044 26.782V35.2227C9.70044 35.7966 9.58846 36.3635 9.36449 36.9234C9.14053 37.4833 8.81858 37.9802 8.39865 38.4141C7.97872 38.8621 7.4678 39.219 6.8659 39.485C6.26399 39.7649 5.5921 39.9049 4.85022 39.9049C4.09434 39.9049 3.41545 39.7719 2.81355 39.506C2.22564 39.24 1.72172 38.8831 1.30179 38.4351C0.881858 38.0012 0.55991 37.5043 0.335946 36.9444C0.111982 36.3845 0 35.8106 0 35.2227V30.5194C0 30.4074 0.0419933 30.2744 0.12598 30.1205C0.209966 29.9665 0.391937 29.8895 0.671892 29.8895H1.63774C1.91769 29.8895 2.09966 29.9665 2.18365 30.1205C2.26764 30.2744 2.30963 30.4074 2.30963 30.5194V35.2227C2.30963 35.5446 2.37262 35.8595 2.4986 36.1675C2.62458 36.4754 2.79955 36.7414 3.02351 36.9654C3.24748 37.2033 3.51343 37.3923 3.82139 37.5323C4.14333 37.6723 4.48628 37.7422 4.85022 37.7422C5.21416 37.7422 5.55011 37.6723 5.85806 37.5323C6.16601 37.3923 6.43197 37.2033 6.65593 36.9654C6.87989 36.7414 7.05487 36.4754 7.18085 36.1675C7.30682 35.8595 7.36981 35.5446 7.36981 35.2227Z" fill="white"/>
<path d="M17.4664 36.3985H16.0806C15.5767 36.3985 15.1358 36.3215 14.7578 36.1675C14.3799 36.0135 14.0649 35.8036 13.813 35.5376C13.575 35.2716 13.3931 34.9637 13.2671 34.6137C13.1411 34.2638 13.0781 33.8929 13.0781 33.5009V21.8898C13.0781 21.7778 13.1201 21.6448 13.2041 21.4909C13.2881 21.3369 13.47 21.2599 13.75 21.2599H14.7158C14.9958 21.2599 15.1778 21.3369 15.2618 21.4909C15.3457 21.6448 15.3877 21.7778 15.3877 21.8898V33.5009C15.3877 33.8509 15.4647 34.0608 15.6187 34.1308C15.7727 34.2008 16.0036 34.2358 16.3116 34.2358H17.4664V36.3985Z" fill="white"/>
<path d="M25.0324 34.2358C25.3823 34.2358 25.7043 34.1728 25.9982 34.0468C26.2922 33.9069 26.5442 33.7249 26.7541 33.5009C26.9781 33.277 27.1531 33.018 27.279 32.7241C27.405 32.4301 27.468 32.1291 27.468 31.8212V30.3304C27.468 30.0225 27.405 29.7285 27.279 29.4486C27.1531 29.1546 26.9781 28.8957 26.7541 28.6717C26.5442 28.4477 26.2922 28.2728 25.9982 28.1468C25.7043 28.0068 25.3823 27.9368 25.0324 27.9368C24.6965 27.9368 24.3815 28.0068 24.0876 28.1468C23.7936 28.2728 23.5346 28.4477 23.3107 28.6717C23.1007 28.8957 22.9327 29.1546 22.8068 29.4486C22.6948 29.7285 22.6388 30.0225 22.6388 30.3304V34.2358H25.0324ZM29.7986 30.3304V31.8212C29.7986 32.3811 29.6867 32.941 29.4627 33.5009C29.2387 34.0468 28.9168 34.5368 28.4968 34.9707C28.0909 35.3906 27.594 35.7336 27.0061 35.9995C26.4182 36.2655 25.7603 36.3985 25.0324 36.3985H16.9487V34.2358H20.3082V30.3304C20.3082 29.6865 20.4341 29.0846 20.6861 28.5247C20.9381 27.9648 21.281 27.4819 21.7149 27.076C22.1489 26.67 22.6528 26.3481 23.2267 26.1101C23.8006 25.8722 24.4025 25.7532 25.0324 25.7532C25.7603 25.7532 26.4182 25.8862 27.0061 26.1521C27.594 26.4181 28.0909 26.768 28.4968 27.2019C28.9168 27.6219 29.2387 28.1048 29.4627 28.6507C29.6867 29.1966 29.7986 29.7565 29.7986 30.3304Z" fill="white"/>
<path d="M35.2727 21.2599C35.5526 21.2599 35.7346 21.3369 35.8186 21.4909C35.9026 21.6448 35.9446 21.7778 35.9446 21.8898V35.7686C35.9446 35.8805 35.9026 36.0135 35.8186 36.1675C35.7346 36.3215 35.5526 36.3985 35.2727 36.3985H34.3068C34.0549 36.3985 33.8729 36.3355 33.7609 36.2095C33.6629 36.0695 33.614 35.9225 33.614 35.7686V21.8898C33.614 21.7498 33.6629 21.6098 33.7609 21.4699C33.8729 21.3299 34.0549 21.2599 34.3068 21.2599H35.2727ZM35.0207 16.9346C34.8248 16.9346 34.6498 17.0116 34.4958 17.1656C34.3558 17.3055 34.2858 17.4735 34.2858 17.6695V18.8873H36.4275C36.5535 18.8873 36.6165 18.9503 36.6165 19.0762V19.5382C36.6165 19.6642 36.5535 19.7271 36.4275 19.7271H32.8581C32.7321 19.7271 32.6691 19.6642 32.6691 19.5382V19.0762C32.6691 18.9503 32.7321 18.8873 32.8581 18.8873H33.446V17.6695C33.446 17.2355 33.6 16.8646 33.9079 16.5567C34.2159 16.2487 34.5868 16.0947 35.0207 16.0947C35.7206 16.0947 36.2035 16.4167 36.4695 17.0606L36.5535 17.2495C36.5675 17.4035 36.5325 17.4945 36.4485 17.5225L36.0286 17.6905H35.9656C35.8676 17.6905 35.8046 17.6555 35.7766 17.5855L35.6926 17.3755C35.5526 17.0816 35.3287 16.9346 35.0207 16.9346Z" fill="white"/>
<path d="M80.8793 42.3695C81.2083 41.8446 81.5022 41.2917 81.7752 40.7528C81.8802 40.5498 81.9921 40.3469 82.0761 40.1369C82.2651 39.71 82.4331 39.276 82.58 38.8351C82.86 37.9742 83.042 37.0854 83.133 36.1895C83.3009 34.4468 83.105 32.6761 82.58 31.0104C82.0621 29.3656 81.2293 27.8119 80.1444 26.4751C79.0596 25.1383 77.7228 24.0045 76.2111 23.1786C74.6573 22.3318 72.9286 21.8278 71.1579 21.7159C69.9681 21.6389 68.7643 21.7438 67.6025 22.0028C60.2676 23.5566 56.2503 30.8634 50.7562 35.3777C48.1526 36.8544 47.3617 33.166 49.5804 31.9762C54.6475 27.6369 58.5739 21.1489 65.2298 19.2033C73.8454 16.3057 83.6439 21.8418 86.1145 30.4994C88.6831 38.9121 82.888 46.2189 76.827 51.3841C75.9521 52.3569 75.0213 53.3088 74.0064 54.1626C73.1736 55.0935 71.9837 56.5772 70.612 55.7654C69.8281 55.1775 69.9541 54.2466 70.353 53.4557C70.9619 52.2449 71.9697 51.2301 72.9146 50.2853C74.1114 49.0954 75.3852 47.9826 76.645 46.8558C77.6598 45.946 78.6957 45.0501 79.6265 44.0493C80.0954 43.5453 80.5084 42.9784 80.8863 42.3765" fill="white"/>
<path d="M70.7309 12.2953C73.7824 12.2043 76.8899 12.9812 79.6405 14.276C82.44 15.5918 84.9526 17.4815 87.0243 19.7771C89.082 22.0587 90.6987 24.7533 91.6716 27.6788C92.3155 29.6175 92.5954 31.6542 92.6444 33.6908C92.6724 35.0346 92.7214 36.3924 92.5954 37.7292C92.4414 39.3459 91.9235 41.5576 89.9009 41.5366C88.711 41.2286 88.5991 39.9268 88.662 38.898C88.718 37.9952 88.949 37.1273 89.124 36.2454C89.3269 35.1956 89.3059 34.1178 89.215 33.054C89.145 32.2281 89.117 31.3952 88.977 30.5763C88.746 29.1976 88.3331 27.8538 87.7522 26.587C86.6044 24.0744 84.8337 21.8628 82.699 20.12C80.5434 18.3633 78.0168 17.0615 75.3362 16.3266C72.6486 15.5918 69.7931 15.4448 67.0565 15.9977C66.2237 16.1657 65.3978 16.3966 64.5999 16.6906C58.5809 18.3843 54.8715 23.7455 50.4622 27.7978C49.3214 29.1346 47.2357 28.0148 47.6836 26.391C50.5602 22.3387 54.5635 18.7553 58.6089 15.8157C62.2063 13.3661 66.3356 12.4283 70.7309 12.2953Z" fill="white"/>
<path d="M76.1624 44.5604C75.1615 45.4492 74.0907 46.2611 73.0689 47.122C72.047 47.9898 71.1092 48.9487 70.2413 49.9705C70.1643 50.0615 70.0803 50.1595 70.0034 50.2505C69.4014 50.9783 68.7925 51.7412 67.9947 52.2731C67.3648 52.6931 66.6229 52.896 65.874 52.6861C60.6039 49.3056 83.3782 40.1791 75.5815 30.6746C73.1668 26.8392 67.6307 27.2942 64.3903 29.7158C62.1506 31.6545 54.3469 41.5159 52.1632 40.585C49.6156 38.2894 54.0599 36.0987 55.3337 34.384C58.8961 31.0176 61.9476 26.4613 66.7839 24.9005C68.4426 24.5016 70.1783 24.3896 71.8581 24.6976C73.3208 24.9635 74.7136 25.5444 75.9174 26.4123C77.0722 27.2382 78.0451 28.309 78.7869 29.5198C79.5288 30.7376 80.0397 32.1024 80.2847 33.5022C80.5367 34.9369 80.5297 36.4137 80.2357 37.8415C79.9348 39.3392 79.3259 40.76 78.465 42.0198C77.8071 42.9786 77.0092 43.7905 76.1624 44.5534" fill="white"/>
<path d="M94.1003 18.5034C94.7722 19.7702 95.3881 20.7291 95.948 21.9469C96.452 23.3956 94.3173 24.6834 93.3025 23.5006C90.7269 19.0773 87.4234 14.941 82.7202 12.4984C77.9469 10.0208 72.2988 9.13892 66.9797 10.1118C62.2275 10.7697 57.8672 12.9393 54.2977 16.0468C52.863 17.3766 51.5542 18.8534 50.0564 20.1062C48.8806 20.96 47.1659 19.5392 47.7258 18.2375C48.3207 17.1316 49.3285 16.2778 50.1404 15.3329C50.1404 15.3329 50.1404 15.3329 50.1474 15.3329C61.9055 2.14004 84.3439 3.73579 94.1003 18.5034Z" fill="white"/>
<path d="M53.57 5.0657C61.6257 -0.00848748 72.082 -1.45026 81.1315 1.55926C86.8776 3.28098 92.0218 6.60545 95.9831 11.1267C97.1029 12.5195 95.2342 14.3182 93.8555 13.2614C92.9876 12.5405 92.2247 11.6936 91.3779 10.9517C82.3003 2.85405 68.3446 1.37029 57.5943 6.77342C55.3197 8.00522 53.304 9.67095 51.1343 11.0427C49.6996 12.0016 48.0408 9.84593 49.0837 8.62812C50.3715 7.19335 52.0162 6.17152 53.577 5.0657" fill="white"/>
<path d="M63.0672 44.3503C64.684 42.2507 74.6854 35.6367 69.6462 33.859C66.0768 33.1521 57.2372 48.9976 55.1375 43.6645C55.8794 40.396 59.9038 38.4713 61.8704 35.7837C64.355 33.796 67.0006 29.2048 70.654 30.7725C79.1577 34.342 71.116 41.3128 67.0986 44.9173C65.8598 46.429 64.383 47.7238 62.9343 49.0396C61.5555 50.2504 59.5608 48.3187 60.7716 46.9189C61.5415 46.1001 62.4374 45.2672 63.0742 44.3573" fill="white"/>
</g>
<defs>
<clipPath id="clip0_161_8836">
<rect width="96.3255" height="56" fill="white"/>
</clipPath>
</defs>
</svg>
