<svg width="154" height="60" viewBox="0 0 154 60" fill="none" xmlns="http://www.w3.org/2000/svg">
<path d="M11.2637 24.6064C11.2637 28.363 9.5026 30.2412 5.98047 30.2412C4.48307 30.2412 3.30794 29.8245 2.45508 28.9912C1.48503 28.0407 1 26.5986 1 24.665C1 23.3564 1.16602 22.0902 1.49805 20.8662L3.40234 20.5049C3.02474 21.8005 2.83594 23.1253 2.83594 24.4795C2.83594 26.042 3.19401 27.1878 3.91016 27.917C4.47656 28.4964 5.22526 28.7861 6.15625 28.7861C8.33073 28.7861 9.41797 27.432 9.41797 24.7236V16.2178H11.2637V24.6064ZM6.09766 18.1611C5.79818 18.1611 5.54427 18.057 5.33594 17.8486C5.1276 17.6403 5.02344 17.3864 5.02344 17.0869C5.02344 16.7809 5.1276 16.5205 5.33594 16.3057C5.54427 16.0908 5.79818 15.9834 6.09766 15.9834C6.40365 15.9834 6.66406 16.0876 6.87891 16.2959C7.09375 16.5107 7.20117 16.7744 7.20117 17.0869C7.20117 17.3799 7.09375 17.6338 6.87891 17.8486C6.66406 18.057 6.40365 18.1611 6.09766 18.1611ZM14.9062 11.5205H16.7422V24.1572H18.9492V25.6221H14.9062V11.5205ZM18.6562 25.6221V24.1572H20.2383C20.7005 24.1572 21.0879 24.193 21.4004 24.2646C20.4108 23.6396 19.916 22.5133 19.916 20.8857C19.916 19.5055 20.3359 18.3662 21.1758 17.4678C22.0807 16.4912 23.3275 16.0029 24.916 16.0029C27.7676 16.0029 29.1934 17.4971 29.1934 20.4854V25.6221H18.6562ZM27.3965 20.7979C27.3965 18.5713 26.5176 17.458 24.7598 17.458C23.8353 17.458 23.1061 17.764 22.5723 18.376C22.0384 18.9684 21.7715 19.7692 21.7715 20.7783C21.7715 23.0309 22.9857 24.1572 25.4141 24.1572H27.3965V20.7979ZM32.4062 12.126H34.2422V25.6221H32.4062V12.126ZM30.707 9.93848C31.2734 9.93848 31.7454 9.97428 32.123 10.0459C31.7259 9.84408 31.5273 9.50228 31.5273 9.02051C31.5273 8.5127 31.7227 8.08626 32.1133 7.74121C32.5755 7.34408 33.2331 7.14551 34.0859 7.14551C34.4375 7.14551 34.7988 7.17806 35.1699 7.24316L34.9844 8.29785C34.6849 8.23275 34.3529 8.2002 33.9883 8.2002C33.2396 8.2002 32.8652 8.48014 32.8652 9.04004C32.8652 9.639 33.3926 9.93848 34.4473 9.93848H35.5508V11.0029H30.707V9.93848ZM46.2051 25.6221C42.709 25.6221 40.9609 24.0693 40.9609 20.9639C40.9609 19.5511 41.3743 18.3923 42.2012 17.4873C43.1061 16.4977 44.3724 16.0029 46 16.0029C47.4648 16.0029 48.806 16.2373 50.0234 16.7061V24.1572H52.2402V25.6221H46.2051ZM48.2168 17.9268C47.5658 17.6143 46.7617 17.458 45.8047 17.458C44.8802 17.458 44.151 17.7607 43.6172 18.3662C43.0833 18.9652 42.8164 19.7627 42.8164 20.7588C42.8164 23.0244 44.0306 24.1572 46.459 24.1572H48.2168V17.9268ZM47.3184 14.3818C47.0189 14.3818 46.765 14.2809 46.5566 14.0791C46.3483 13.8708 46.2441 13.6104 46.2441 13.2979C46.2441 13.0114 46.3483 12.764 46.5566 12.5557C46.765 12.3473 47.0189 12.2432 47.3184 12.2432C47.6113 12.2432 47.8587 12.3441 48.0605 12.5459C48.2624 12.7542 48.3633 13.0049 48.3633 13.2979C48.3633 13.6038 48.2624 13.861 48.0605 14.0693C47.8587 14.2777 47.6113 14.3818 47.3184 14.3818ZM44.3594 14.3818C44.0599 14.3818 43.8092 14.2809 43.6074 14.0791C43.4056 13.8708 43.3047 13.6104 43.3047 13.2979C43.3047 13.0114 43.4056 12.764 43.6074 12.5557C43.8092 12.3473 44.0599 12.2432 44.3594 12.2432C44.6523 12.2432 44.903 12.3441 45.1113 12.5459C45.3197 12.7542 45.4238 13.0049 45.4238 13.2979C45.4238 13.5973 45.3197 13.8545 45.1113 14.0693C44.903 14.2777 44.6523 14.3818 44.3594 14.3818ZM59.5254 25.6221C57.2012 25.6221 55.6615 24.9938 54.9062 23.7373C54.5547 24.9938 53.5358 25.6221 51.8496 25.6221H51.5469V24.1572C52.3542 24.1572 52.9466 23.9456 53.3242 23.5225C53.7799 23.0146 54.0078 22.1357 54.0078 20.8857C54.0078 19.5055 54.4245 18.3662 55.2578 17.4678C56.1693 16.4912 57.4193 16.0029 59.0078 16.0029C61.8594 16.0029 63.2852 17.4971 63.2852 20.4854V24.1572H65.2871V25.6221H59.5254ZM61.4883 20.7979C61.4883 18.5713 60.6094 17.458 58.8516 17.458C57.9271 17.458 57.1979 17.764 56.6641 18.376C56.1302 18.9684 55.8633 19.7692 55.8633 20.7783C55.8633 23.0309 57.0775 24.1572 59.5059 24.1572H61.4883V20.7979ZM64.9844 24.1572H67.8652V16.2178H69.7012V16.999C69.7012 18.3792 69.6296 19.5739 69.4863 20.583H69.5059C69.9616 19.1312 70.7038 17.9919 71.7324 17.165C72.709 16.3903 73.793 16.0029 74.9844 16.0029C76.2669 16.0029 77.2565 16.4033 77.9531 17.2041C78.6432 17.9919 78.9883 19.1051 78.9883 20.5439C78.9883 22.0869 78.5326 23.2913 77.6211 24.1572H80.502V25.6221H64.9844V24.1572ZM73.3438 24.1572C75.8372 24.1572 77.084 22.9984 77.084 20.6807C77.084 18.5322 76.2702 17.458 74.6426 17.458C73.347 17.458 72.2174 18.1709 71.2539 19.5967C70.375 20.8923 69.8444 22.4124 69.6621 24.1572H73.3438ZM80.1016 24.1572H83.0215V16.2178H84.8574V25.6221H80.1016V24.1572ZM82.6016 29.7041C82.3021 29.7041 82.0482 29.5999 81.8398 29.3916C81.625 29.1833 81.5176 28.9261 81.5176 28.6201C81.5176 28.3206 81.625 28.0667 81.8398 27.8584C82.0482 27.6501 82.3021 27.5459 82.6016 27.5459C82.9076 27.5459 83.1647 27.6468 83.373 27.8486C83.5944 28.057 83.7051 28.3141 83.7051 28.6201C83.7051 28.9196 83.5944 29.1768 83.373 29.3916C83.1582 29.5999 82.901 29.7041 82.6016 29.7041Z" fill="white"/>
<path d="M150.667 12.7812L129.316 0.795085C128.401 0.274014 127.367 0 126.314 0C125.262 0 124.227 0.274014 123.313 0.795085L102.002 12.8012C101.077 13.348 100.313 14.1288 99.7859 15.065C99.2589 16.0012 98.988 17.0597 99.0004 18.1339V18.5642C98.9957 26.7201 101.15 34.732 105.245 41.7858C109.339 48.8395 115.228 54.6838 122.312 58.7247L123.233 59.2449C124.156 59.7406 125.187 60 126.234 60C127.282 60 128.313 59.7406 129.236 59.2449L130.146 58.7247C137.272 54.7085 143.203 48.8724 147.334 41.8129C151.465 34.7533 153.647 26.7235 153.658 18.5441V18.1139C153.672 17.0407 153.402 15.9828 152.877 15.0467C152.352 14.1106 151.59 13.3292 150.667 12.7812ZM131.137 10.1799C131.175 10.076 131.233 9.98054 131.308 9.89912C131.383 9.81769 131.473 9.75185 131.573 9.70538C131.674 9.6589 131.782 9.6327 131.893 9.62828C132.003 9.62386 132.114 9.64131 132.217 9.67962C135.116 10.752 137.673 12.5834 139.621 14.9823C139.76 15.1562 139.825 15.3782 139.8 15.5995C139.776 15.8209 139.665 16.0235 139.491 16.1629C139.343 16.2885 139.155 16.356 138.961 16.353C138.836 16.3514 138.714 16.3228 138.602 16.2693C138.489 16.2158 138.39 16.1385 138.31 16.0429C136.557 13.8705 134.247 12.2142 131.627 11.2504C131.421 11.1718 131.255 11.0156 131.163 10.8154C131.071 10.6152 131.062 10.387 131.137 10.1799ZM139.551 22.5862C139.598 22.7954 139.565 23.0148 139.457 23.2003C139.35 23.3858 139.176 23.5239 138.971 23.5867H138.741C138.556 23.5883 138.376 23.5281 138.229 23.4157C138.082 23.3034 137.977 23.1453 137.93 22.9664C137.383 21.1177 136.216 19.5138 134.625 18.4243C133.035 17.3347 131.117 16.8259 129.196 16.9833H128.756C128.533 17.0019 128.312 16.9312 128.141 16.7867C127.97 16.6422 127.864 16.4359 127.845 16.213C127.827 15.9901 127.897 15.7689 128.042 15.5982C128.186 15.4274 128.393 15.3211 128.616 15.3025H129.056C131.377 15.1163 133.692 15.7403 135.605 17.0682C137.519 18.3962 138.913 20.3461 139.551 22.5862ZM128.165 21.8058C127.195 21.8032 126.265 21.4165 125.579 20.7304C124.893 20.0442 124.506 19.1143 124.503 18.1439V14.5721C124.526 14.3637 124.625 14.1711 124.781 14.0311C124.937 13.8912 125.139 13.8138 125.349 13.8138C125.558 13.8138 125.761 13.8912 125.917 14.0311C126.073 14.1711 126.172 14.3637 126.194 14.5721V18.1439C126.194 18.6746 126.405 19.1836 126.78 19.5589C127.156 19.9341 127.665 20.145 128.195 20.145C130.191 20.1476 132.104 20.9408 133.516 22.351C134.928 23.7611 135.724 25.6733 135.729 27.6688V31.6208C135.729 31.8437 135.641 32.0575 135.483 32.2151C135.325 32.3727 135.112 32.4612 134.889 32.4612C134.666 32.4612 134.452 32.3727 134.294 32.2151C134.137 32.0575 134.048 31.8437 134.048 31.6208V27.6488C134.047 26.8785 133.894 26.116 133.597 25.4051C133.3 24.6941 132.866 24.0488 132.32 23.5059C131.773 22.9631 131.125 22.5335 130.412 22.2417C129.699 21.95 128.936 21.8019 128.165 21.8058ZM129.646 26.8884C129.367 26.8884 129.1 26.7777 128.903 26.5807C128.706 26.3837 128.596 26.1165 128.596 25.8379C128.596 25.5592 128.706 25.292 128.903 25.095C129.1 24.898 129.367 24.7873 129.646 24.7873C129.925 24.7873 130.192 24.898 130.389 25.095C130.586 25.292 130.697 25.5592 130.697 25.8379C130.697 26.1165 130.586 26.3837 130.389 26.5807C130.192 26.7777 129.925 26.8884 129.646 26.8884ZM128.646 11.7107C128.908 11.7362 129.151 11.8585 129.328 12.0536C129.505 12.2487 129.603 12.5027 129.603 12.7662C129.603 13.0297 129.505 13.2837 129.328 13.4788C129.151 13.6739 128.908 13.7962 128.646 13.8217C128.383 13.7917 128.142 13.665 127.968 13.4664C127.795 13.2679 127.701 13.0118 127.706 12.748C127.711 12.4843 127.814 12.2318 127.995 12.04C128.176 11.8482 128.423 11.7308 128.686 11.7107H128.646ZM117.83 16.5731C117.551 16.5731 117.284 16.4625 117.087 16.2654C116.89 16.0684 116.779 15.8012 116.779 15.5226C116.779 15.244 116.89 14.9768 117.087 14.7798C117.284 14.5827 117.551 14.4721 117.83 14.4721C118.109 14.4721 118.376 14.5827 118.573 14.7798C118.77 14.9768 118.881 15.244 118.881 15.5226C118.881 15.8012 118.77 16.0684 118.573 16.2654C118.376 16.4625 118.109 16.5731 117.83 16.5731ZM109.206 28.8694C109.206 28.8694 109.206 28.8194 109.206 28.7994V28.5993V25.7178C109.208 22.8331 109.943 19.9963 111.344 17.4743C112.744 14.9522 114.762 12.8276 117.21 11.3004C117.397 11.18 117.624 11.1386 117.842 11.1855C118.059 11.2324 118.249 11.3637 118.37 11.5506C118.49 11.7405 118.53 11.9702 118.482 12.1895C118.433 12.4089 118.299 12.6 118.11 12.7212C114.75 14.8457 112.341 18.1867 111.387 22.0459C112.566 20.4031 114.157 19.0989 115.999 18.264C116.1 18.2187 116.209 18.1937 116.32 18.1906C116.431 18.1874 116.541 18.2061 116.645 18.2456C116.749 18.2851 116.843 18.3446 116.924 18.4207C117.005 18.4968 117.069 18.588 117.115 18.6892C117.16 18.7904 117.185 18.8995 117.188 19.0103C117.191 19.1211 117.173 19.2315 117.133 19.3351C117.094 19.4387 117.034 19.5335 116.958 19.6141C116.882 19.6946 116.791 19.7595 116.689 19.8048C114.99 20.5703 113.544 21.8039 112.519 23.3613C111.495 24.9187 110.936 26.7356 110.906 28.5993V28.7293C110.906 28.9595 110.906 29.1996 110.906 29.4297V29.6098C110.92 29.8322 110.846 30.0512 110.7 30.2195C110.554 30.3879 110.348 30.4923 110.126 30.5103H110.066C109.853 30.5108 109.648 30.4305 109.492 30.2857C109.336 30.1408 109.241 29.9422 109.226 29.7299V29.5498C109.206 29.3196 109.206 29.0895 109.206 28.8694ZM112.737 42.4363C112.225 42.3377 111.746 42.112 111.344 41.7798C110.942 41.4476 110.63 41.0197 110.436 40.5354C109.638 38.537 109.23 36.4041 109.236 34.2522C109.236 34.0293 109.324 33.8155 109.482 33.6579C109.639 33.5003 109.853 33.4117 110.076 33.4117C110.299 33.4117 110.513 33.5003 110.67 33.6579C110.828 33.8155 110.916 34.0293 110.916 34.2522C110.916 34.7724 110.916 35.2527 110.997 35.803C111.258 35.6926 111.481 35.5074 111.638 35.2706C111.794 35.0339 111.878 34.7561 111.877 34.4723V32.7214C111.881 30.6258 112.439 28.5685 113.493 26.7572C114.547 24.946 116.06 23.4451 117.88 22.4061C118.815 21.8672 119.593 21.0917 120.134 20.1574C120.674 19.2231 120.96 18.163 120.962 17.0834V13.8918C120.961 12.5149 121.501 11.1927 122.464 10.2089C123.427 9.22502 124.738 8.65788 126.114 8.62908H126.314C126.537 8.62908 126.751 8.71763 126.909 8.87524C127.066 9.03285 127.155 9.24662 127.155 9.46951C127.155 9.69241 127.066 9.90618 126.909 10.0638C126.751 10.2214 126.537 10.3099 126.314 10.3099H126.114C125.18 10.3334 124.292 10.7212 123.64 11.3903C122.987 12.0595 122.622 12.9572 122.622 13.8918V17.0834C122.622 18.4588 122.258 19.8096 121.568 20.9991C120.877 22.1886 119.885 23.1745 118.69 23.8569C117.133 24.7549 115.839 26.0466 114.938 27.6024C114.037 29.1582 113.561 30.9236 113.558 32.7214V34.4723C113.556 35.1542 113.331 35.8167 112.918 36.3588C112.504 36.9008 111.924 37.2924 111.267 37.4738C111.446 38.3021 111.69 39.1151 111.997 39.905C112.083 40.1192 112.218 40.3099 112.392 40.4613C112.566 40.6127 112.774 40.7204 112.998 40.7755C113.22 40.82 113.45 40.8065 113.665 40.7364C113.881 40.6664 114.075 40.542 114.228 40.3753C115.016 39.5309 115.452 38.4183 115.449 37.2637V33.4017C115.447 32.1453 115.694 30.9009 116.174 29.7399C116.654 28.5788 117.359 27.5238 118.247 26.6354C119.136 25.747 120.191 25.0425 121.352 24.5622C122.513 24.082 123.757 23.8355 125.014 23.8368H126.074C126.297 23.8368 126.511 23.9254 126.668 24.083C126.826 24.2406 126.915 24.4544 126.915 24.6773C126.915 24.9002 126.826 25.1139 126.668 25.2715C126.511 25.4292 126.297 25.5177 126.074 25.5177H125.064C124.028 25.5164 123.003 25.7195 122.047 26.1153C121.09 26.5112 120.221 27.0921 119.489 27.8245C118.758 28.557 118.178 29.4268 117.784 30.3838C117.389 31.3409 117.187 32.3665 117.19 33.4017V37.2737C117.191 38.8563 116.59 40.3801 115.509 41.5359C115.231 41.8462 114.892 42.0953 114.513 42.2676C114.135 42.4398 113.724 42.5314 113.308 42.5364C113.115 42.5232 112.923 42.4897 112.737 42.4363ZM136.68 47.719H133.928C131.821 47.7235 129.76 47.1038 128.005 45.9381C127.973 45.9166 127.934 45.9051 127.895 45.9051C127.856 45.9051 127.818 45.9166 127.785 45.9381C127.751 45.9539 127.722 45.9794 127.703 46.0115C127.683 46.0435 127.674 46.0807 127.675 46.1182V49.62C129.153 49.4971 130.606 49.16 131.987 48.6195C132.192 48.5473 132.417 48.5572 132.615 48.6471C132.812 48.737 132.967 48.9 133.048 49.1017C133.128 49.3035 133.127 49.5286 133.045 49.7296C132.963 49.9307 132.806 50.0922 132.608 50.1803C130.604 50.97 128.468 51.3674 126.314 51.3509C124.307 51.3484 122.316 50.9928 120.431 50.3004H120.381C119.734 50.0595 119.103 49.7788 118.49 49.4599C118.385 49.4114 118.291 49.3416 118.213 49.2549C118.136 49.1681 118.078 49.0664 118.042 48.956C118.006 48.8456 117.994 48.7289 118.005 48.6134C118.017 48.4979 118.052 48.386 118.109 48.2848C118.165 48.1836 118.243 48.0952 118.335 48.0253C118.428 47.9554 118.534 47.9055 118.647 47.8786C118.76 47.8518 118.877 47.8487 118.992 47.8694C119.106 47.8902 119.214 47.9343 119.311 47.9992C119.731 48.2193 120.171 48.4094 120.611 48.5895C121.493 47.7331 122.192 46.7078 122.668 45.575C123.145 44.4421 123.388 43.2249 123.383 41.9961V38.0641C123.383 37.8412 123.471 37.6274 123.629 37.4698C123.787 37.3122 124 37.2237 124.223 37.2237C124.446 37.2237 124.66 37.3122 124.818 37.4698C124.975 37.6274 125.064 37.8412 125.064 38.0641V41.9961C125.048 44.63 124.069 47.1672 122.312 49.1298C123.504 49.4515 124.73 49.6295 125.964 49.66V46.1082C125.957 45.7562 126.047 45.409 126.227 45.1058C126.406 44.8026 126.666 44.5555 126.978 44.3922C127.29 44.2289 127.641 44.156 127.992 44.1816C128.344 44.2073 128.681 44.3305 128.966 44.5374C130.448 45.5209 132.189 46.0431 133.968 46.0382H136.72C136.943 46.0382 137.156 46.1267 137.314 46.2843C137.472 46.4419 137.56 46.6557 137.56 46.8786C137.56 47.1015 137.472 47.3153 137.314 47.4729C137.156 47.6305 136.943 47.719 136.72 47.719H136.68ZM124.223 32.7114C124.502 32.7114 124.769 32.8221 124.966 33.0191C125.163 33.2161 125.274 33.4833 125.274 33.7619C125.274 34.0405 125.163 34.3077 124.966 34.5048C124.769 34.7018 124.502 34.8124 124.223 34.8124C123.985 34.7652 123.77 34.6367 123.616 34.4487C123.461 34.2608 123.377 34.0251 123.377 33.7819C123.377 33.5387 123.461 33.3031 123.616 33.1151C123.77 32.9272 123.985 32.7986 124.223 32.7514V32.7114ZM140.392 43.8271H133.118C131.376 43.8271 129.706 43.1359 128.473 41.9053C127.241 40.6747 126.547 39.0053 126.544 37.2637V33.1816C126.544 32.8728 126.484 32.5671 126.365 32.2819C126.247 31.9966 126.074 31.7374 125.856 31.5191C125.637 31.3007 125.378 31.1275 125.093 31.0094C124.808 30.8912 124.502 30.8304 124.193 30.8304C123.885 30.8304 123.579 30.8912 123.294 31.0094C123.008 31.1275 122.749 31.3007 122.531 31.5191C122.312 31.7374 122.139 31.9966 122.021 32.2819C121.903 32.5671 121.842 32.8728 121.842 33.1816V40.4053C121.845 42.1444 121.159 43.8139 119.935 45.0493C118.711 46.2847 117.048 46.9855 115.309 46.9987C115.086 46.9987 114.872 46.9101 114.714 46.7525C114.557 46.5949 114.468 46.3811 114.468 46.1582C114.468 45.9353 114.557 45.7216 114.714 45.564C114.872 45.4064 115.086 45.3178 115.309 45.3178C116.604 45.3125 117.844 44.7951 118.759 43.8784C119.674 42.9617 120.189 41.7203 120.191 40.4253V33.1816C120.191 32.1096 120.617 31.0815 121.375 30.3234C122.133 29.5654 123.161 29.1396 124.233 29.1396C125.305 29.1396 126.333 29.5654 127.091 30.3234C127.849 31.0815 128.275 32.1096 128.275 33.1816V37.2637C128.278 38.5578 128.793 39.7981 129.708 40.7132C130.623 41.6283 131.864 42.1435 133.158 42.1462H140.432C140.654 42.1462 140.868 42.2347 141.026 42.3923C141.183 42.55 141.272 42.7637 141.272 42.9866C141.272 43.2095 141.183 43.4233 141.026 43.5809C140.868 43.7385 140.654 43.8271 140.432 43.8271H140.392ZM143.393 34.2522C143.409 36.3248 143.046 38.383 142.323 40.3253C142.26 40.4843 142.152 40.6208 142.011 40.7172C141.87 40.8136 141.703 40.8652 141.532 40.8655C141.429 40.865 141.327 40.8446 141.232 40.8055C141.129 40.7667 141.035 40.7079 140.955 40.6324C140.875 40.5569 140.811 40.4662 140.766 40.3657C140.721 40.2651 140.697 40.1567 140.694 40.0467C140.692 39.9367 140.712 39.8274 140.752 39.725L140.842 39.4648H134.549C133.448 39.4622 132.394 39.0239 131.615 38.2458C130.837 37.4677 130.399 36.4131 130.396 35.3127V29.1696C130.396 28.9467 130.485 28.7329 130.643 28.5753C130.8 28.4177 131.014 28.3291 131.237 28.3291C131.46 28.3291 131.674 28.4177 131.831 28.5753C131.989 28.7329 132.077 28.9467 132.077 29.1696V35.3127C132.08 35.9664 132.341 36.5924 132.805 37.0537C133.268 37.515 133.895 37.774 134.549 37.774H141.322C141.412 37.3637 141.492 36.9435 141.562 36.5233H138.16C137.817 36.5249 137.48 36.433 137.185 36.2576C136.89 36.0822 136.649 35.8298 136.486 35.5275C136.324 35.2253 136.247 34.8845 136.263 34.5417C136.28 34.199 136.389 33.8671 136.58 33.5818C137.567 32.1003 138.092 30.3595 138.09 28.5793V25.8379C138.09 25.615 138.179 25.4012 138.337 25.2436C138.494 25.086 138.708 24.9974 138.931 24.9974C139.154 24.9974 139.367 25.086 139.525 25.2436C139.683 25.4012 139.771 25.615 139.771 25.8379V28.5893C139.772 30.6971 139.149 32.7581 137.98 34.5123C137.959 34.545 137.947 34.5832 137.947 34.6224C137.947 34.6615 137.959 34.6997 137.98 34.7324C137.998 34.7673 138.025 34.7963 138.059 34.8159C138.093 34.8354 138.131 34.8447 138.17 34.8425H141.722C141.722 34.6424 141.722 34.4523 141.722 34.2522V25.7278C141.722 25.5049 141.811 25.2912 141.968 25.1335C142.126 24.9759 142.34 24.8874 142.563 24.8874C142.786 24.8874 142.999 24.9759 143.157 25.1335C143.315 25.2912 143.403 25.5049 143.403 25.7278L143.393 34.2522Z" fill="white"/>
<path d="M30.1155 48.4041C30.1155 50.6424 29.0662 51.7615 26.9676 51.7615C26.0754 51.7615 25.3752 51.5133 24.867 51.0167C24.289 50.4504 24 49.5911 24 48.439C24 47.6593 24.0989 46.9048 24.2968 46.1755L25.4314 45.9602C25.2064 46.7322 25.0939 47.5216 25.0939 48.3284C25.0939 49.2595 25.3073 49.9422 25.734 50.3767C26.0715 50.7219 26.5176 50.8945 27.0723 50.8945C28.368 50.8945 29.0158 50.0877 29.0158 48.4739V43.4058H30.1155V48.4041ZM27.0374 44.5637C26.859 44.5637 26.7077 44.5016 26.5835 44.3775C26.4594 44.2534 26.3973 44.1021 26.3973 43.9236C26.3973 43.7413 26.4594 43.5861 26.5835 43.4581C26.7077 43.3301 26.859 43.2661 27.0374 43.2661C27.2197 43.2661 27.3749 43.3282 27.5029 43.4523C27.6309 43.5803 27.6949 43.7374 27.6949 43.9236C27.6949 44.0982 27.6309 44.2495 27.5029 44.3775C27.3749 44.5016 27.2197 44.5637 27.0374 44.5637Z" fill="white"/>
<path d="M32.286 40.6069H33.3799V48.1364H34.6949V49.0092H32.286V40.6069Z" fill="white"/>
<path d="M34.5204 49.0093V48.1365H35.463C35.7384 48.1365 35.9692 48.1579 36.1554 48.2005C35.5658 47.8281 35.271 47.157 35.271 46.1872C35.271 45.3648 35.5212 44.686 36.0216 44.1507C36.5608 43.5688 37.3037 43.2778 38.2502 43.2778C39.9493 43.2778 40.7988 44.1681 40.7988 45.9487V49.0093H34.5204ZM39.7282 46.1349C39.7282 44.8082 39.2045 44.1448 38.1571 44.1448C37.6063 44.1448 37.1718 44.3272 36.8537 44.6918C36.5356 45.0448 36.3766 45.522 36.3766 46.1232C36.3766 47.4654 37.1 48.1365 38.547 48.1365H39.7282V46.1349Z" fill="white"/>
<path d="M42.7132 40.9676H43.8071V49.0091H42.7132V40.9676ZM41.7007 39.6642C42.0382 39.6642 42.3195 39.6855 42.5445 39.7282C42.3078 39.6079 42.1895 39.4043 42.1895 39.1172C42.1895 38.8146 42.3059 38.5605 42.5387 38.3549C42.8141 38.1183 43.2059 38 43.714 38C43.9235 38 44.1388 38.0194 44.3599 38.0582L44.2494 38.6866C44.0709 38.6478 43.8731 38.6284 43.6559 38.6284C43.2098 38.6284 42.9867 38.7952 42.9867 39.1288C42.9867 39.4857 43.3009 39.6642 43.9293 39.6642H44.5869V40.2984H41.7007V39.6642Z" fill="white"/>
<path d="M53.5012 50.7839C53.5012 50.9623 53.4411 51.1136 53.3209 51.2377C53.2006 51.3658 53.0551 51.4298 52.8845 51.4298C52.7021 51.4298 52.5489 51.3677 52.4248 51.2436C52.3006 51.1194 52.2386 50.9662 52.2386 50.7839C52.2386 50.6093 52.3006 50.4619 52.4248 50.3416C52.5528 50.2175 52.706 50.1554 52.8845 50.1554C53.0551 50.1554 53.2006 50.2156 53.3209 50.3358C53.4411 50.4561 53.5012 50.6054 53.5012 50.7839ZM51.7498 50.7839C51.7498 50.9623 51.6877 51.1136 51.5636 51.2377C51.4395 51.3658 51.292 51.4298 51.1214 51.4298C50.939 51.4298 50.7878 51.3677 50.6675 51.2436C50.5472 51.1233 50.4871 50.9701 50.4871 50.7839C50.4871 50.6093 50.5472 50.4619 50.6675 50.3416C50.7916 50.2175 50.9429 50.1554 51.1214 50.1554C51.292 50.1554 51.4395 50.2156 51.5636 50.3358C51.6877 50.4561 51.7498 50.6054 51.7498 50.7839ZM64.1787 46.1347C64.1787 44.808 63.655 44.1446 62.6076 44.1446C62.0568 44.1446 61.6223 44.327 61.3042 44.6916C60.9861 45.0446 60.8271 45.5218 60.8271 46.123C60.8271 47.4652 61.5506 48.1363 62.9975 48.1363H64.1787V46.1347ZM57.1031 49.0091V46.0299C57.1031 45.3549 56.9712 44.872 56.7074 44.581C56.4475 44.2901 56.015 44.1446 55.4098 44.1446C55.084 44.1446 54.7503 44.1776 54.409 44.2436V49.0091H52.192C50.7179 49.0091 49.6434 48.7143 48.9684 48.1247C48.3283 47.5661 48.0083 46.7049 48.0083 45.5411C48.0083 44.7886 48.1402 44.1291 48.404 43.5628L49.5677 43.3591C49.2652 43.9759 49.1139 44.6606 49.1139 45.4131C49.1139 46.3597 49.3369 47.0405 49.783 47.4555C50.2757 47.9094 51.1214 48.1363 52.32 48.1363H53.3325V43.5046C54.0346 43.3533 54.762 43.2776 55.5145 43.2776C56.4727 43.2776 57.1651 43.5085 57.5919 43.9701C57.9798 44.389 58.1737 45.0272 58.1737 45.8845V48.1363H59.9135C60.189 48.1363 60.4198 48.1577 60.606 48.2003C60.0163 47.8279 59.7215 47.1568 59.7215 46.187C59.7215 45.3646 59.9717 44.6858 60.4722 44.1505C61.0114 43.5686 61.7542 43.2776 62.7007 43.2776C64.3998 43.2776 65.2494 44.1679 65.2494 45.9485V49.0091H57.1031ZM62.113 41.9219C61.9889 41.7977 61.9268 41.6464 61.9268 41.468C61.9268 41.2857 61.9889 41.1305 62.113 41.0025C62.2411 40.8745 62.3924 40.8105 62.5669 40.8105C62.7492 40.8105 62.9044 40.8725 63.0324 40.9967C63.1604 41.1247 63.2244 41.2818 63.2244 41.468C63.2244 41.6464 63.1604 41.7977 63.0324 41.9219C62.9044 42.046 62.7492 42.1081 62.5669 42.1081C62.3885 42.1081 62.2372 42.046 62.113 41.9219Z" fill="white"/>
<path d="M71.3184 39.4549L73.9892 39.0708V39.74L71.3184 40.1182V39.4549Z" fill="white"/>
<path d="M78.0507 48.1365H79.3774V49.0093H78.0507V51.8431C76.7473 51.9478 75.5486 52.0002 74.4547 52.0002C72.6237 52.0002 71.3009 51.7131 70.4863 51.139C69.6833 50.5688 69.2818 49.6533 69.2818 48.3926C69.2818 47.6439 69.3807 46.9049 69.5786 46.1756L70.7132 45.9603C70.4882 46.7323 70.3757 47.5023 70.3757 48.2704C70.3757 49.3061 70.6958 50.0412 71.3358 50.4757C71.9759 50.914 73.0621 51.1332 74.5943 51.1332C75.312 51.1332 76.0878 51.1002 76.9219 51.0343V49.0093H75.7756C73.6963 49.0093 72.6567 48.0842 72.6567 46.2338C72.6567 45.392 72.9011 44.7015 73.3899 44.1623C73.9329 43.5727 74.6894 43.2778 75.6592 43.2778C76.532 43.2778 77.3292 43.4175 78.0507 43.6968V48.1365ZM76.98 44.4241C76.5921 44.2379 76.1111 44.1448 75.537 44.1448C74.9939 44.1448 74.5614 44.3252 74.2394 44.686C73.9213 45.0429 73.7623 45.5181 73.7623 46.1116C73.7623 47.4615 74.4857 48.1365 75.9327 48.1365H76.98V44.4241ZM74.6816 42.3119C74.5032 42.3119 74.3519 42.2518 74.2278 42.1315C74.1075 42.0074 74.0474 41.8522 74.0474 41.666C74.0474 41.4954 74.1075 41.3479 74.2278 41.2238C74.3519 41.0997 74.5032 41.0376 74.6816 41.0376C74.8562 41.0376 75.0036 41.0977 75.1239 41.218C75.248 41.3421 75.3101 41.4915 75.3101 41.666C75.3101 41.8445 75.248 41.9977 75.1239 42.1257C74.9997 42.2499 74.8523 42.3119 74.6816 42.3119ZM76.4447 42.3119C76.2624 42.3119 76.1111 42.2518 75.9909 42.1315C75.8628 42.0074 75.7988 41.8522 75.7988 41.666C75.7988 41.4954 75.8628 41.3479 75.9909 41.2238C76.115 41.0997 76.2663 41.0376 76.4447 41.0376C76.6193 41.0376 76.7648 41.0977 76.8811 41.218C77.0014 41.3421 77.0615 41.4915 77.0615 41.666C77.0615 41.8484 77.0014 42.0016 76.8811 42.1257C76.7609 42.2499 76.6154 42.3119 76.4447 42.3119Z" fill="white"/>
<path d="M79.197 48.1364H80.9368V43.4058H82.0308V49.0092H79.197V48.1364ZM80.6866 51.4415C80.5082 51.4415 80.3569 51.3794 80.2327 51.2553C80.1047 51.1312 80.0407 50.9779 80.0407 50.7956C80.0407 50.6172 80.1047 50.4659 80.2327 50.3417C80.3569 50.2176 80.5082 50.1555 80.6866 50.1555C80.8689 50.1555 81.0222 50.2157 81.1463 50.3359C81.2782 50.4601 81.3441 50.6133 81.3441 50.7956C81.3441 50.9741 81.2782 51.1273 81.1463 51.2553C81.0183 51.3794 80.8651 51.4415 80.6866 51.4415Z" fill="white"/>
<path d="M84.2128 40.6069H85.3067V49.0092H84.2128V40.6069Z" fill="white"/>
</svg>
