<svg width="159" height="40" viewBox="0 0 159 40" fill="none" xmlns="http://www.w3.org/2000/svg">
<g clip-path="url(#clip0_161_8849)">
<path d="M2.02805 11.4458C3.0483 8.96496 4.47584 6.8828 6.31068 5.19533C8.14552 3.51188 10.2788 2.22312 12.7064 1.33306C15.134 0.443012 17.723 0 20.4652 0C23.2073 0 25.9052 0.414821 28.3368 1.24849C30.7645 2.08216 32.8897 3.33065 34.7043 4.99799C36.519 6.66532 37.9385 8.74748 38.9587 11.2485C39.979 13.7495 40.4871 16.6653 40.4871 20C40.4871 23.3347 39.975 26.0169 38.9587 28.4978C37.9385 30.9787 36.519 33.0729 34.7043 34.7765C32.8856 36.4801 30.7645 37.7769 28.3368 38.6669C25.9092 39.557 23.284 40 20.4652 40C17.6464 40 15.1905 39.557 12.7588 38.6669C10.3312 37.7769 8.18988 36.4801 6.33488 34.7765C4.47988 33.0729 3.04426 30.9787 2.02401 28.4978C1.00376 26.0169 0.495651 23.1857 0.495651 20C0.495651 16.8143 1.00376 13.9267 2.02401 11.4458H2.02805ZM7.45191 26.3633C8.15762 28.1595 9.13755 29.6698 10.3998 30.8901C11.662 32.1104 13.1621 33.0205 14.9042 33.6126C16.6463 34.2046 18.5013 34.5026 20.4652 34.5026C22.429 34.5026 24.276 34.2086 26.0019 33.6126C27.7279 33.0205 29.228 32.1224 30.5064 30.9182C31.7847 29.7141 32.805 28.1957 33.5671 26.3633C34.3253 24.5308 34.7084 22.4084 34.7084 20.004C34.7084 17.5997 34.3454 15.4289 33.6236 13.6166C32.9018 11.8043 31.8896 10.294 30.5911 9.08981C29.2926 7.88562 27.7803 6.98752 26.0584 6.39549C24.3324 5.80346 22.4895 5.50544 20.5257 5.50544C18.5618 5.50544 16.6664 5.81152 14.9647 6.42368C13.2589 7.03584 11.7668 7.94201 10.4885 9.14619C9.21013 10.3504 8.20601 11.8486 7.48417 13.6448C6.76234 15.441 6.3994 17.5594 6.3994 20.004C6.3994 22.4487 6.75024 24.5671 7.45595 26.3633H7.45191Z" fill="white"/>
<path d="M67.5292 12.7796C67.5292 10.335 66.7872 8.38978 65.3032 6.94798C63.8192 5.50214 61.5932 4.78124 58.6292 4.78124C57.5162 4.78124 56.4597 4.89401 55.4596 5.11551C54.4595 5.33702 53.5844 5.65116 52.8465 6.05792C52.1045 6.46469 51.4915 7.02852 51.0116 7.75345C50.5277 8.47435 50.2898 9.37246 50.2898 10.4478C50.2898 11.5231 50.6124 12.4856 51.2616 13.2267C51.9109 13.9677 52.6892 14.5799 53.5965 15.0591C54.5039 15.5424 55.508 15.929 56.6008 16.2271C57.6937 16.5251 58.722 16.7829 59.6898 17.0044C61.6537 17.5601 63.4805 18.1159 65.1701 18.6717C66.8558 19.2275 68.3237 19.9323 69.5657 20.782C70.8077 21.6359 71.7796 22.691 72.4853 23.9476C73.191 25.2081 73.5419 26.799 73.5419 28.7241C73.5419 30.5001 73.2071 32.0668 72.5418 33.42C71.8764 34.7732 70.9086 35.9572 69.6504 36.9762C68.3882 37.9951 66.8679 38.7522 65.0895 39.2557C63.3111 39.7551 61.3271 40.0048 59.1374 40.0048C56.6896 40.0048 54.52 39.7349 52.6287 39.1993C50.7374 38.6636 49.1607 37.8662 47.8984 36.811C46.6362 35.7559 45.6805 34.4228 45.0353 32.8119C44.386 31.2009 44.0634 29.3402 44.0634 27.2299H49.9591C49.9591 29.7108 50.7011 31.664 52.1851 33.0897C53.6691 34.5154 55.9677 35.2283 59.0809 35.2283C61.8231 35.2283 63.9563 34.6564 65.4766 33.5046C66.9969 32.3568 67.7591 30.7659 67.7591 28.7281C67.7591 27.4313 67.4889 26.3962 66.9526 25.6189C66.4162 24.8417 65.6904 24.2134 64.783 23.7301C63.8757 23.2508 62.807 22.832 61.5851 22.4816C60.3633 22.1312 59.0446 21.7688 57.6372 21.3982C56.0403 20.9552 54.4676 20.5001 52.911 20.037C51.3544 19.5738 49.9712 18.9536 48.7655 18.1763C47.5597 17.399 46.5757 16.3801 45.8176 15.1195C45.0555 13.859 44.6764 12.2682 44.6764 10.3431C44.6764 8.82474 44.9909 7.43529 45.62 6.17472C46.2491 4.91415 47.1564 3.83078 48.3461 2.92462C49.5317 2.01846 50.9874 1.30561 52.7134 0.786075C54.4394 0.266542 56.375 0.00878906 58.5284 0.00878906C61.0125 0.00878906 63.1821 0.306816 65.0371 0.898841C66.8921 1.49087 68.4406 2.34467 69.6826 3.45623C70.9247 4.56779 71.8522 5.90086 72.4651 7.45543C73.0781 9.01 73.3846 10.7901 73.3846 12.7877H67.5454L67.5292 12.7796Z" fill="white"/>
<path d="M79.4348 0.555664H85.1087V39.4441H79.4348V0.555664Z" fill="white"/>
<path d="M93.3371 0.555664H99.011L118.424 28.6668H118.702V0.555664H124.263V39.4441H118.533L99.1199 11.1114H98.8416V39.4441H93.3331V0.555664H93.3371Z" fill="white"/>
<path d="M158.148 0.555664V6.10943H144.074L146.409 4.22058V39.4401H140.57V4.22058L142.739 6.10943H128.722V0.555664H158.148Z" fill="white"/>
</g>
<defs>
<clipPath id="clip0_161_8849">
<rect width="157.647" height="40" fill="white" transform="translate(0.5)"/>
</clipPath>
</defs>
</svg>
