<svg width="249" height="249" viewBox="0 0 249 249" fill="none" xmlns="http://www.w3.org/2000/svg">
<rect width="249" height="249" rx="124.5" fill="url(#paint0_linear_113_3104)" fill-opacity="0.05"/>
<g clip-path="url(#clip0_113_3104)">
<path d="M51.5815 139.863C50.2385 141.687 47.4952 142.996 46.9912 145.214C47.795 147.247 50.0471 144.746 52.2961 142.249C54.0569 140.298 55.8114 138.341 56.8832 138.551C60.322 139.758 53.5019 144.251 52.3981 145.677C51.9675 146.3 51.355 146.866 50.8287 147.419C50.0057 148.375 51.3614 149.684 52.3056 148.861C53.2913 147.975 54.2994 147.091 55.1447 146.062C57.8849 143.615 63.3684 138.881 57.5691 136.454C57.2182 136.305 56.88 136.238 56.5515 136.238C54.5705 136.238 53.0361 138.7 51.5783 139.863M54.9278 132.467C51.6294 133.525 49.5463 136.622 47.1188 138.904C46.2511 140.07 43.2206 141.56 44.956 143.117C46.4521 143.749 51.7665 137.051 53.2977 135.736C55.502 134.087 59.2789 133.782 60.9313 136.384C66.2521 142.84 50.717 149.039 54.3121 151.336C54.8225 151.479 55.3297 151.339 55.7572 151.053C56.3027 150.697 56.7173 150.176 57.1257 149.681C57.1799 149.617 57.2341 149.554 57.2883 149.49C57.8817 148.794 58.5197 148.14 59.2151 147.552C59.9105 146.967 60.6474 146.418 61.3268 145.814C61.9074 145.296 62.4497 144.74 62.8963 144.092C63.4864 143.237 63.8979 142.268 64.1053 141.255C64.2999 140.286 64.3095 139.275 64.1372 138.306C63.9681 137.35 63.6204 136.429 63.1132 135.599C62.6092 134.773 61.9457 134.049 61.1578 133.486C60.3316 132.899 59.381 132.505 58.3857 132.324C57.9359 132.241 57.4829 132.203 57.03 132.203C56.3186 132.203 55.6104 132.295 54.9246 132.467M53.8719 128.587C49.3294 129.909 46.6562 134.319 43.1983 137.264C41.6831 138.071 42.2286 140.581 43.999 139.574C47.7472 136.508 50.4874 131.539 55.4924 130.487C56.2835 130.312 57.1001 130.243 57.9168 130.29C59.1194 130.366 60.3029 130.71 61.3651 131.281C62.3987 131.841 63.3078 132.616 64.0479 133.525C64.7879 134.436 65.3526 135.485 65.7035 136.606C66.0639 137.744 66.1979 138.945 66.0799 140.13C66.0161 140.737 65.8917 141.344 65.7035 141.925C65.611 142.23 65.4929 142.522 65.3621 142.812C65.2983 142.955 65.2282 143.091 65.1548 143.231C64.9666 143.596 64.7656 143.971 64.5455 144.33C64.2935 144.737 64.0064 145.121 63.6842 145.465C63.0494 146.144 62.3444 146.758 61.6522 147.374C60.7909 148.137 59.9264 148.893 59.1066 149.703C58.4623 150.345 57.7764 151.037 57.3585 151.857C57.0906 152.394 57.0013 153.023 57.534 153.427C58.475 153.979 59.2853 152.972 59.8531 152.334C60.5517 151.755 61.1769 151.11 61.7766 150.446C65.914 146.942 69.8664 141.976 68.1119 136.26C66.7306 131.456 62.0127 128.063 57.1257 128.063C56.0379 128.063 54.9373 128.228 53.8687 128.587M57.6169 123.904C54.6184 123.99 51.8016 124.628 49.3454 126.293C46.5892 128.289 43.8554 130.725 41.8968 133.477C41.5874 134.579 43.0133 135.339 43.7916 134.43C46.803 131.682 49.3294 128.038 53.4349 126.887C53.9804 126.684 54.5418 126.528 55.1096 126.414C56.9757 126.042 58.9216 126.141 60.7558 126.64C62.5837 127.138 64.3063 128.022 65.7768 129.216C67.2283 130.401 68.4404 131.901 69.2252 133.61C69.6175 134.475 69.9014 135.386 70.0578 136.317C70.1503 136.877 70.1726 137.439 70.2204 137.998C70.2842 138.722 70.297 139.456 70.1567 140.171C70.0386 140.769 69.8791 141.36 69.8408 141.973C69.7962 142.675 69.8727 143.555 70.683 143.765C72.0642 143.777 72.4183 142.281 72.5204 141.178C72.6065 140.267 72.5746 139.348 72.5587 138.433C72.5268 137.051 72.3322 135.666 71.892 134.351C71.2317 132.365 70.1279 130.538 68.7244 128.984C67.3176 127.428 65.6014 126.138 63.6938 125.248C61.9138 124.416 59.9201 123.898 57.9487 123.898C57.837 123.898 57.7254 123.901 57.6169 123.904ZM43.5747 125.966L43.5715 125.963C43.0133 126.605 42.3274 127.183 41.9223 127.936C41.5395 128.819 42.7102 129.788 43.5109 129.204C44.5381 128.355 45.4281 127.348 46.4106 126.446C48.8445 124.333 51.8176 122.856 55.0554 122.411C58.6887 121.747 62.539 122.354 65.796 124.034C69.0051 125.693 71.2572 128.505 73.0085 131.51C73.7007 132.311 75.1585 131.44 74.814 130.455C74.4312 129.626 74.0133 128.981 73.554 128.114C69.9429 122.674 63.7895 119.866 57.6297 119.866C52.4396 119.866 47.2464 121.861 43.5747 125.966ZM45.913 118.989C44.8507 119.742 43.7278 120.438 42.8506 121.407C42.1392 122.236 43.2653 123.701 44.2478 123.046C45.7247 122.109 47.0996 120.984 48.6563 120.145C55.99 116.482 65.5089 117.483 71.6974 122.986C72.278 123.491 72.7979 124.069 73.3849 124.558C74.3259 125.28 75.5987 124.053 74.8363 123.11C72.1344 120.034 68.6287 117.772 64.7082 116.609C62.5518 115.894 60.2805 115.548 57.9965 115.548C53.7507 115.548 49.4857 116.746 45.9098 118.989M43.6066 149.808C42.7836 149.017 42.0372 148.146 41.3768 147.209C40.7357 146.376 40.1551 145.493 39.6383 144.569C39.4788 144.283 39.3257 143.99 39.179 143.695C39.1215 143.571 39.0609 143.45 39.0035 143.326C38.8695 143.04 38.7355 142.754 38.6143 142.459C38.5729 142.37 38.5378 142.284 38.5059 142.192C38.4612 142.078 38.4166 141.966 38.3751 141.858C38.34 141.773 38.3049 141.69 38.2794 141.598C38.273 141.582 38.2666 141.563 38.2571 141.547C38.1933 141.382 38.1358 141.22 38.0848 141.048C38.072 141.004 38.0497 140.956 38.0369 140.905C38.005 140.813 37.9731 140.718 37.9476 140.626C37.8806 140.416 37.82 140.197 37.7594 139.987C37.7275 139.879 37.6956 139.774 37.6701 139.666C37.6414 139.555 37.6159 139.45 37.5872 139.339C37.5585 139.231 37.5361 139.123 37.5106 139.012C37.4596 138.799 37.4149 138.576 37.3671 138.351C37.3224 138.128 37.2841 137.909 37.249 137.684C37.1948 137.35 37.1438 137.01 37.1055 136.67C37.0927 136.559 37.0768 136.441 37.0704 136.327C37.0449 136.098 37.0289 135.873 37.0162 135.641C37.0002 135.409 36.9874 135.18 36.9811 134.945C36.9747 134.716 36.9715 134.481 36.9715 134.249V117.276C38.6367 116.231 42.8506 113.896 48.9945 112.53C49.1922 112.488 49.3964 112.444 49.5974 112.402H49.6005C49.8111 112.358 50.028 112.317 50.2417 112.279C50.3534 112.253 50.4586 112.237 50.5703 112.215C50.6819 112.193 50.7936 112.174 50.9021 112.158C51.2593 112.094 51.6166 112.037 51.9866 111.986C52.2482 111.945 52.5098 111.91 52.7746 111.875C53.0425 111.843 53.3073 111.812 53.5784 111.783C54.159 111.719 54.746 111.665 55.352 111.627C56.3441 111.554 57.3681 111.516 58.4208 111.516C59.4735 111.516 60.5038 111.554 61.4959 111.627C62.0988 111.665 62.689 111.719 63.2631 111.783C63.5343 111.815 63.8054 111.846 64.067 111.875C64.3318 111.91 64.5934 111.945 64.8517 111.986C64.8517 111.983 64.8549 111.986 64.8581 111.986C65.2218 112.037 65.5822 112.094 65.9395 112.158C66.0512 112.174 66.1628 112.196 66.2745 112.215C66.3829 112.237 66.4914 112.253 66.5998 112.279C66.8136 112.317 67.0305 112.358 67.241 112.402H67.2442C67.4452 112.444 67.6493 112.488 67.8439 112.53C73.991 113.889 78.2049 116.228 79.8701 117.276V134.249C79.8701 134.452 79.8669 134.659 79.8605 134.865C79.8573 135.012 79.8541 135.154 79.8477 135.294C79.8446 135.348 79.8446 135.409 79.8382 135.459C79.8318 135.596 79.8254 135.736 79.8095 135.873C79.8095 135.911 79.8031 135.946 79.8031 135.984C79.7935 136.136 79.7744 136.286 79.7616 136.435C79.7584 136.47 79.7552 136.508 79.7489 136.54C79.7361 136.673 79.7201 136.807 79.7042 136.934C79.701 136.962 79.701 136.985 79.6978 137.007C79.6851 137.099 79.6691 137.194 79.6563 137.283C79.6532 137.321 79.65 137.359 79.6404 137.394C79.634 137.477 79.6181 137.563 79.6053 137.645C79.583 137.776 79.5638 137.906 79.5383 138.036C79.5256 138.103 79.5128 138.163 79.5 138.23C79.4713 138.379 79.4458 138.522 79.4139 138.672C79.331 139.056 79.2416 139.434 79.1396 139.809C79.1045 139.936 79.0694 140.06 79.0311 140.184C79.0215 140.225 79.0088 140.263 78.996 140.305C78.9514 140.454 78.9067 140.6 78.8589 140.753C78.8589 140.759 78.8557 140.769 78.8493 140.781C78.811 140.905 78.7663 141.029 78.7281 141.15C78.6994 141.236 78.6643 141.325 78.6356 141.414C78.5909 141.538 78.5462 141.661 78.4984 141.785C78.4346 141.951 78.3708 142.116 78.3038 142.275C78.3038 142.281 78.3006 142.287 78.3006 142.297C78.2432 142.427 78.189 142.561 78.1315 142.691C78.106 142.748 78.0837 142.808 78.055 142.866C77.9976 142.993 77.9402 143.12 77.8795 143.25C77.8413 143.336 77.803 143.425 77.7583 143.511C77.6786 143.673 77.602 143.828 77.5223 143.987C77.4712 144.079 77.4202 144.178 77.366 144.273C77.3181 144.368 77.2639 144.467 77.2096 144.562C76.3515 146.103 75.3084 147.53 74.1122 148.807C74.1122 148.807 74.1101 148.809 74.1058 148.813C73.8283 149.115 73.5412 149.401 73.2445 149.684C73.538 149.401 73.8283 149.115 74.1058 148.813C73.8315 149.125 73.5444 149.43 73.2445 149.722C72.0642 150.882 70.7276 151.886 69.2603 152.686C69.2284 152.699 69.2029 152.718 69.1678 152.737C67.9428 153.446 66.6477 154.033 65.2824 154.491C64.9889 154.593 64.6922 154.682 64.3956 154.771C63.8884 154.92 63.3748 155.047 62.8516 155.155C62.8516 155.158 62.8484 155.158 62.8453 155.158C62.0541 155.358 61.2439 155.505 60.4177 155.59C59.7669 155.667 59.1066 155.701 58.4335 155.701C57.7605 155.701 57.0906 155.663 56.4334 155.59C55.6423 155.505 54.864 155.365 54.1016 155.177C54.092 155.177 54.0856 155.177 54.0761 155.174C53.5242 155.06 52.9851 154.926 52.4492 154.774C52.3535 154.745 52.2514 154.717 52.1525 154.682C52.0504 154.653 51.9579 154.624 51.8622 154.593C51.7602 154.561 51.6645 154.529 51.5688 154.497C50.3055 154.072 49.0933 153.535 47.9386 152.886C47.9354 152.883 47.9322 152.88 47.929 152.88C47.8142 152.817 47.6993 152.753 47.5877 152.686V152.699C46.1267 151.917 44.7901 150.942 43.6066 149.801M57.9646 90.0064C57.6935 90.0159 57.4255 90.0318 57.1608 90.0477C56.8864 90.0699 56.6153 90.0953 56.3473 90.1303C56.2197 90.1462 56.0825 90.1652 55.9549 90.1843C55.6774 90.2256 55.3999 90.2732 55.1256 90.3304C54.9884 90.359 54.8544 90.3844 54.7236 90.4162C54.6311 90.4385 54.5354 90.4607 54.4461 90.4861C54.1399 90.5592 53.84 90.6418 53.5401 90.7308C53.4572 90.7594 53.3775 90.7816 53.2913 90.8102C52.9468 90.9246 52.6087 91.0453 52.2737 91.1787C52.1685 91.2169 52.0664 91.2614 51.9611 91.3058C51.8558 91.3471 51.7602 91.3916 51.6581 91.4329C51.54 91.4869 51.422 91.5409 51.3072 91.595C51.1828 91.6521 51.0584 91.7157 50.934 91.7792C50.8255 91.8332 50.7266 91.8873 50.6181 91.9445C50.6022 91.9508 50.5799 91.9572 50.5671 91.973C50.3374 92.0938 50.1109 92.2209 49.8876 92.3575C49.7728 92.4242 49.6612 92.4909 49.5527 92.564C49.441 92.6371 49.3262 92.707 49.2209 92.7801C49.1189 92.8468 49.0168 92.9135 48.9179 92.9834C48.9051 92.9929 48.8892 93.0056 48.8764 93.012C48.7743 93.0851 48.6691 93.1613 48.5702 93.2344C48.4617 93.3138 48.3565 93.3933 48.2544 93.4727C48.1491 93.5521 48.047 93.6379 47.9418 93.7173C47.8397 93.7999 47.7376 93.8825 47.6355 93.9715C47.4856 94.0986 47.3389 94.2225 47.1953 94.3591C47.0454 94.4958 46.905 94.6292 46.7615 94.769C46.3883 95.1312 46.0278 95.522 45.6865 95.9255C45.6067 96.0272 45.5206 96.1225 45.444 96.221C45.3005 96.3957 45.1697 96.5705 45.0357 96.7452C44.9687 96.8342 44.9049 96.9263 44.8379 97.0185C44.7741 97.1106 44.7103 97.2027 44.6465 97.2949C44.5827 97.387 44.5221 97.4791 44.4615 97.5713C44.3563 97.7301 44.2606 97.889 44.1585 98.051C44.1106 98.1305 44.0628 98.2099 44.0117 98.2925C43.9256 98.4418 43.8459 98.5943 43.7629 98.7405C43.68 98.8898 43.6034 99.0423 43.5237 99.1917C42.404 101.419 41.7724 103.932 41.7724 106.591V110.534C41.6193 110.588 41.4662 110.649 41.3194 110.706C41.1727 110.763 41.0164 110.823 40.8728 110.881C40.7261 110.938 40.5857 111.001 40.4422 111.055C40.2986 111.119 40.1583 111.173 40.0179 111.236C39.8839 111.29 39.7436 111.354 39.6128 111.408C39.482 111.472 39.348 111.529 39.2204 111.589C39.1088 111.637 38.9971 111.684 38.895 111.738C38.5824 111.881 38.289 112.021 38.0082 112.161C37.8136 112.256 37.6254 112.352 37.4468 112.444C37.3352 112.498 37.2363 112.555 37.131 112.609C37.0257 112.66 36.93 112.717 36.8343 112.768C36.7386 112.819 36.6397 112.873 36.5472 112.924C35.8391 113.308 35.2713 113.651 34.831 113.931C34.7768 113.969 34.7162 114.004 34.662 114.042C34.4738 114.159 34.3143 114.271 34.1899 114.356C34.1548 114.382 34.1197 114.404 34.0846 114.426C34.0048 114.48 33.9378 114.528 33.8932 114.563C33.8804 114.569 33.8677 114.576 33.8581 114.588C33.8294 114.611 33.8102 114.623 33.7943 114.633L33 115.227V134.249C33 134.449 33.0032 134.652 33.0096 134.849V134.875C33.0128 135.066 33.0191 135.259 33.0319 135.447V135.491C33.0383 135.656 33.0542 135.819 33.0638 135.99C33.0638 136.035 33.067 136.079 33.0702 136.124C33.0861 136.308 33.0989 136.492 33.1212 136.676C33.134 136.857 33.1563 137.032 33.1754 137.213C33.1818 137.271 33.185 137.328 33.1978 137.382C33.2073 137.49 33.2233 137.591 33.2392 137.703C33.2488 137.782 33.2616 137.861 33.2743 137.941C33.3062 138.151 33.3381 138.36 33.3764 138.573C33.4019 138.703 33.4211 138.84 33.4466 138.973C33.4594 139.031 33.4721 139.094 33.4849 139.155C33.5104 139.288 33.5359 139.425 33.5646 139.555C33.5742 139.596 33.587 139.631 33.5933 139.666C33.6188 139.781 33.6412 139.895 33.6699 140.009C33.6986 140.13 33.7241 140.251 33.756 140.371C33.7879 140.505 33.8262 140.638 33.8613 140.772C33.9091 140.943 33.9538 141.118 34.008 141.286C34.0176 141.325 34.0304 141.366 34.0399 141.404C34.0846 141.55 34.1292 141.696 34.1739 141.846C34.1867 141.881 34.1994 141.919 34.2122 141.957C34.2632 142.122 34.3175 142.284 34.3749 142.449C34.4227 142.586 34.4706 142.729 34.5248 142.869C34.5567 142.955 34.5918 143.043 34.6205 143.136C34.6556 143.225 34.6907 143.317 34.7258 143.403C34.8916 143.831 35.0671 144.244 35.2521 144.658C35.3255 144.82 35.402 144.978 35.4754 145.137C35.5615 145.306 35.6413 145.48 35.7274 145.646C35.8327 145.849 35.9348 146.046 36.0432 146.246C36.123 146.389 36.1995 146.529 36.2793 146.669C36.3718 146.837 36.4675 147.002 36.5664 147.168C36.6525 147.32 36.7482 147.463 36.8375 147.609C36.863 147.644 36.8822 147.682 36.9045 147.717C36.9938 147.854 37.08 147.994 37.1757 148.127C37.1788 148.137 37.1852 148.143 37.1884 148.156C37.2937 148.311 37.3958 148.467 37.501 148.619C37.6095 148.775 37.7148 148.925 37.8264 149.074C37.8296 149.077 37.8328 149.08 37.836 149.083C37.9444 149.233 38.0497 149.379 38.1645 149.528C38.1709 149.538 38.1805 149.554 38.1901 149.56C38.2826 149.684 38.3783 149.805 38.4708 149.925C38.844 150.396 39.2364 150.853 39.6415 151.298C40.8409 152.61 42.1775 153.792 43.6226 154.831C43.6608 154.863 43.7023 154.885 43.7374 154.914C43.9894 155.095 44.2446 155.266 44.503 155.435C44.621 155.511 44.739 155.59 44.8635 155.667C44.8666 155.67 44.8762 155.676 44.889 155.679C45.0102 155.756 45.1314 155.832 45.2526 155.905C45.444 156.022 45.6386 156.137 45.8332 156.245C45.9417 156.312 46.0469 156.372 46.1618 156.432C46.2766 156.496 46.3915 156.559 46.5063 156.617C46.6084 156.674 46.7041 156.728 46.803 156.775C47.0677 156.912 47.3325 157.049 47.6036 157.173C48.8764 157.77 50.2035 158.269 51.5847 158.65C51.6326 158.666 51.674 158.679 51.7219 158.691C51.808 158.717 51.8941 158.736 51.9771 158.761C52.1238 158.796 52.2642 158.834 52.4109 158.869C52.4269 158.876 52.446 158.879 52.4651 158.885C53.7539 159.196 55.0873 159.409 56.4462 159.511C56.4813 159.514 56.5196 159.517 56.5547 159.521C56.6504 159.527 56.7524 159.536 56.8513 159.536C56.9056 159.543 56.9598 159.543 57.0108 159.546C57.097 159.552 57.1831 159.555 57.2724 159.562C57.349 159.565 57.4287 159.565 57.5053 159.568C57.652 159.571 57.7956 159.578 57.9359 159.578C58.105 159.581 58.2772 159.584 58.4399 159.584C58.6026 159.584 58.7749 159.581 58.9408 159.578C59.0907 159.578 59.2278 159.571 59.3746 159.568C59.4543 159.565 59.5309 159.565 59.6106 159.562C59.6968 159.555 59.7797 159.552 59.8722 159.546C59.9233 159.543 59.9807 159.543 60.0317 159.536C60.1274 159.536 60.2263 159.527 60.322 159.521C60.3603 159.517 60.3986 159.517 60.4368 159.511C61.7958 159.409 63.126 159.196 64.4147 158.885C64.654 158.828 64.89 158.764 65.1229 158.698C65.1644 158.691 65.2058 158.675 65.2441 158.666C65.2664 158.666 65.2824 158.659 65.3015 158.653C66.6796 158.266 68.0098 157.77 69.2794 157.173C69.4166 157.109 69.5506 157.045 69.6813 156.979C69.9429 156.852 70.2013 156.718 70.4533 156.582C70.6256 156.493 70.7978 156.397 70.9605 156.302C71.1902 156.175 71.4103 156.041 71.6336 155.908C71.7612 155.835 71.8856 155.752 72.01 155.676C72.1982 155.559 72.3832 155.438 72.5683 155.314C72.7533 155.19 72.9319 155.066 73.1137 154.942C73.1648 154.907 73.2158 154.872 73.2637 154.837V154.831C74.7119 153.795 76.0453 152.61 77.2447 151.301C77.3277 151.212 77.4106 151.114 77.4936 151.025C77.5605 150.952 77.6243 150.878 77.6881 150.802C77.8827 150.573 78.0773 150.342 78.2687 150.113C78.3357 150.03 78.3995 149.948 78.4665 149.868C78.5112 149.805 78.5558 149.747 78.6005 149.687C78.6643 149.608 78.7281 149.525 78.7887 149.442C78.8812 149.322 78.9737 149.198 79.063 149.077C79.1715 148.925 79.2799 148.775 79.3852 148.623C79.4937 148.47 79.5989 148.314 79.6978 148.159C79.7042 148.152 79.7106 148.143 79.7138 148.133C79.819 147.975 79.9179 147.822 80.02 147.663C80.1221 147.501 80.2242 147.336 80.323 147.171C80.4156 147.012 80.5113 146.847 80.607 146.681C80.607 146.678 80.6101 146.675 80.6101 146.672C80.6963 146.519 80.7824 146.367 80.8621 146.218C80.8909 146.173 80.91 146.125 80.9387 146.081C81.1014 145.773 81.2577 145.461 81.4108 145.147C81.4842 144.988 81.5608 144.829 81.6277 144.667C81.7203 144.47 81.8128 144.27 81.8957 144.07C81.9691 143.901 82.0329 143.723 82.1062 143.555C82.1796 143.374 82.2498 143.193 82.3136 143.009C82.3806 142.827 82.4444 142.646 82.5082 142.462C82.5624 142.297 82.623 142.135 82.674 141.97C82.6836 141.947 82.6868 141.928 82.69 141.912C82.7474 141.725 82.8112 141.541 82.8623 141.353C82.9037 141.21 82.942 141.074 82.9803 140.931C83.0058 140.848 83.0281 140.762 83.0505 140.676C83.1047 140.46 83.1621 140.241 83.2132 140.025C83.2419 139.911 83.2642 139.796 83.2897 139.682C83.2993 139.644 83.3057 139.609 83.3152 139.571C83.3471 139.441 83.3726 139.304 83.3982 139.17C83.4077 139.113 83.4237 139.05 83.4333 138.989C83.462 138.856 83.4843 138.719 83.5034 138.589C83.5417 138.376 83.5768 138.163 83.6087 137.957C83.6215 137.877 83.6342 137.798 83.6438 137.718C83.6566 137.607 83.6725 137.506 83.6853 137.398C83.6916 137.344 83.698 137.286 83.7076 137.229C83.7299 137.048 83.7491 136.873 83.7618 136.692C83.7841 136.508 83.7969 136.324 83.8097 136.139C83.8129 136.095 83.8161 136.047 83.8161 136.006C83.8288 135.838 83.8448 135.676 83.8448 135.507C83.8479 135.491 83.8511 135.479 83.848 135.463C83.8607 135.272 83.8639 135.078 83.8735 134.891V134.865C83.8798 134.668 83.8799 134.465 83.8799 134.265V115.243L83.0855 114.649C83.0855 114.649 83.0536 114.623 83.0281 114.604C83.0186 114.595 83.0058 114.588 82.993 114.579C82.8208 114.452 82.4444 114.188 81.8734 113.832C81.8096 113.791 81.7458 113.753 81.6756 113.712C81.6054 113.667 81.5384 113.626 81.4651 113.581C81.43 113.565 81.3917 113.537 81.3534 113.515C80.4506 112.974 79.2129 112.301 77.6658 111.605C77.535 111.548 77.401 111.487 77.2671 111.424C77.1363 111.37 76.9991 111.306 76.8619 111.252C76.728 111.189 76.5844 111.135 76.4409 111.071C76.2973 111.017 76.157 110.954 76.0102 110.896C75.8603 110.839 75.7136 110.779 75.5636 110.722C75.4137 110.665 75.2606 110.604 75.1075 110.55C73.9049 110.089 72.5746 109.651 71.1264 109.254C70.9031 109.197 70.6798 109.136 70.4565 109.073C70.112 108.987 69.7675 108.901 69.4102 108.819C69.1773 108.765 68.9381 108.707 68.6988 108.66C68.4564 108.606 68.2108 108.555 67.9651 108.504C67.8439 108.479 67.7195 108.456 67.5951 108.431C67.4898 108.406 67.3878 108.39 67.2793 108.374C66.8838 108.298 66.4818 108.228 66.0703 108.164C65.8183 108.126 65.5599 108.088 65.3079 108.05C65.1644 108.034 65.0304 108.008 64.8868 107.996C64.6189 107.958 64.3445 107.923 64.0766 107.891C63.9586 107.878 63.8341 107.862 63.7129 107.85C63.697 107.85 63.6842 107.85 63.6683 107.846C63.5056 107.83 63.3397 107.811 63.1674 107.796C62.9569 107.773 62.7368 107.757 62.5231 107.738C62.2711 107.716 62.0159 107.697 61.7607 107.684C61.6012 107.672 61.4417 107.662 61.2822 107.653C61.0078 107.637 60.7271 107.624 60.4464 107.611C60.3124 107.608 60.1689 107.605 60.0317 107.599C59.9552 107.595 59.8818 107.595 59.8052 107.592C59.7638 107.589 59.7255 107.589 59.684 107.589C59.5086 107.586 59.3267 107.579 59.1545 107.579C58.9184 107.576 58.6856 107.576 58.4495 107.576C58.2134 107.576 57.9806 107.576 57.7509 107.579C57.5691 107.579 57.3936 107.586 57.2214 107.589C57.1767 107.589 57.1384 107.589 57.1001 107.592C57.0236 107.595 56.947 107.595 56.8705 107.599C56.7269 107.605 56.5929 107.608 56.4494 107.611C56.1687 107.624 55.8911 107.637 55.6168 107.653C55.4573 107.662 55.2946 107.668 55.1383 107.684C54.8831 107.697 54.6279 107.719 54.3759 107.738C54.1622 107.761 53.9453 107.776 53.7315 107.796C53.5625 107.811 53.3998 107.83 53.2307 107.846C53.218 107.85 53.202 107.85 53.1861 107.85C53.0648 107.862 52.9436 107.878 52.8224 107.891C52.5481 107.923 52.2769 107.958 52.0153 107.996C51.8718 108.008 51.7346 108.031 51.5911 108.05C51.3359 108.088 51.0807 108.126 50.8287 108.164C50.4204 108.228 50.0184 108.298 49.6197 108.374C49.5144 108.39 49.4091 108.409 49.3039 108.431C49.1795 108.453 49.0551 108.475 48.9307 108.504C48.685 108.555 48.4426 108.606 48.2033 108.66C47.9609 108.711 47.7217 108.765 47.4888 108.819C47.1347 108.901 46.7838 108.987 46.4457 109.073C46.216 109.136 45.9959 109.194 45.7726 109.254V106.604C45.7726 106.099 45.8045 105.606 45.8619 105.114C46.0565 103.462 46.5733 101.911 47.3421 100.513C47.4856 100.262 47.6355 100.015 47.7918 99.7699C47.9482 99.5284 48.114 99.2902 48.2863 99.0582C48.3692 98.9438 48.4585 98.8295 48.5511 98.7183C48.6595 98.5753 48.7743 98.4418 48.8956 98.3084C49.1284 98.0415 49.3709 97.7873 49.6261 97.5395C49.6931 97.476 49.76 97.4124 49.827 97.3489C50.3023 96.9104 50.8127 96.5037 51.3486 96.1415C51.6581 95.935 51.9771 95.7412 52.2993 95.5569C52.3822 95.5125 52.4651 95.4712 52.5481 95.4235C52.6342 95.3822 52.7171 95.3377 52.8001 95.2964C52.966 95.2138 53.135 95.1344 53.3041 95.0613C53.32 95.0518 53.336 95.0454 53.3551 95.0391C53.4285 95.0009 53.5051 94.9692 53.5816 94.9374C53.7124 94.8834 53.8496 94.8262 53.9804 94.7785C54.1143 94.7277 54.2547 94.6769 54.3855 94.6324C54.4812 94.6006 54.5801 94.5688 54.679 94.5402C54.8544 94.483 55.0394 94.4322 55.2213 94.3845C55.3106 94.356 55.4031 94.3369 55.4956 94.3146H55.5084C55.6009 94.2892 55.6934 94.267 55.7859 94.2479C55.8816 94.2257 55.9773 94.2066 56.073 94.1907C56.1559 94.1749 56.2389 94.159 56.3218 94.1463C56.3952 94.1367 56.4685 94.1208 56.5387 94.1113C56.6057 94.105 56.6695 94.0954 56.7365 94.0827C56.8035 94.0732 56.8641 94.0668 56.9311 94.0573C57.0108 94.0478 57.097 94.0414 57.1767 94.0287C57.2628 94.0192 57.349 94.0128 57.4383 94.0033H57.4797C57.5531 93.9938 57.6169 93.9906 57.6871 93.9906C57.9391 93.9747 58.1911 93.9652 58.4431 93.9652C58.6951 93.9652 58.9503 93.9715 59.1991 93.9874C59.2725 93.9906 59.3459 93.9969 59.4161 94.0033H59.4256C59.5181 94.0065 59.617 94.016 59.7095 94.0287C59.7925 94.0382 59.8722 94.0446 59.9583 94.0573C60.0221 94.0637 60.0828 94.07 60.1497 94.0827C60.2167 94.0922 60.2805 94.105 60.3475 94.1113C60.4209 94.1208 60.4943 94.1367 60.5644 94.1463C60.6506 94.159 60.7303 94.1749 60.8133 94.1907C60.9058 94.2066 61.0047 94.2289 61.1004 94.2479C61.1897 94.2638 61.2854 94.2892 61.3747 94.3115C61.3874 94.3146 61.4034 94.3178 61.4162 94.321C61.4991 94.3432 61.5852 94.3591 61.665 94.3845C61.85 94.4322 62.0254 94.4799 62.2073 94.5402C62.303 94.572 62.4019 94.6038 62.4976 94.6324C62.5869 94.6641 62.6794 94.6959 62.7719 94.7245C62.9473 94.7912 63.1292 94.858 63.3046 94.9342C63.3812 94.966 63.4609 95.0009 63.5343 95.0359C63.5502 95.0391 63.5694 95.0454 63.5821 95.0581C63.7512 95.1312 63.9171 95.2074 64.083 95.2932C64.1691 95.3345 64.252 95.379 64.335 95.4203C64.4243 95.4648 64.504 95.5061 64.587 95.5538C64.9124 95.738 65.2313 95.9287 65.5376 96.1384C65.847 96.3449 66.1437 96.5673 66.4276 96.8056C66.7147 97.0343 66.9954 97.279 67.2602 97.5363C67.5122 97.7842 67.7642 98.0415 67.9907 98.3052C68.1087 98.4387 68.2267 98.5753 68.3352 98.7119C68.4245 98.8263 68.5106 98.9407 68.6031 99.055C68.7722 99.287 68.9381 99.5253 69.0976 99.7636C69.2539 100.011 69.4038 100.256 69.541 100.51C70.3193 101.908 70.8297 103.459 71.0243 105.111H71.0275C72.4789 105.473 73.8379 105.88 75.0883 106.305C75.0213 102.502 73.6624 99.0074 71.4358 96.2337C71.3529 96.132 71.2699 96.0303 71.1838 95.9287C71.1009 95.827 71.0147 95.7253 70.9286 95.6268C70.8425 95.5315 70.7564 95.433 70.6639 95.3377C70.482 95.1439 70.3002 94.9533 70.112 94.7722C70.112 94.7722 70.112 94.769 70.1088 94.769C70.0163 94.68 69.9206 94.5879 69.8249 94.4989C69.7292 94.41 69.6335 94.3242 69.5378 94.2289C69.4485 94.1558 69.3623 94.0764 69.2762 94.0033C69.1422 93.8857 69.0051 93.7745 68.8711 93.6633C68.7945 93.6061 68.7212 93.5458 68.6446 93.4886C68.5074 93.3774 68.3607 93.2725 68.214 93.1677C68.1438 93.1168 68.0768 93.066 68.0034 93.012C67.9811 93.0025 67.9683 92.9898 67.9492 92.9802C67.8567 92.9103 67.7578 92.8468 67.6589 92.7801C67.4165 92.6148 67.1677 92.4592 66.9125 92.3098C66.8263 92.259 66.7306 92.205 66.6413 92.1541C66.4914 92.0684 66.3446 91.9858 66.1915 91.9095C66.1086 91.865 66.0257 91.8205 65.9427 91.7792C65.8151 91.7125 65.6875 91.6521 65.5567 91.5918C65.4515 91.5441 65.3462 91.4901 65.2377 91.4425C65.1325 91.3948 65.024 91.3503 64.9155 91.3058C64.7911 91.2518 64.6667 91.1978 64.5359 91.1501C64.453 91.1184 64.3701 91.0834 64.2903 91.058C64.1181 90.9945 63.9458 90.9309 63.7703 90.8706C63.6778 90.8388 63.5821 90.807 63.4896 90.7784C63.1483 90.6704 62.8038 90.5751 62.4561 90.4925C62.354 90.4639 62.2551 90.4385 62.153 90.4162C62.0191 90.3844 61.8851 90.359 61.7543 90.3304C61.0844 90.197 60.4049 90.0985 59.7127 90.0477C59.4448 90.0318 59.1704 90.0127 58.8993 90.0064C58.743 90 58.5899 90 58.4335 90C58.2772 90 58.1177 90 57.9582 90.0064" fill="url(#paint1_linear_113_3104)"/>
<path d="M108.04 120.001C108.04 124.052 106.19 126.022 102.381 126.022C100.738 126.022 99.3665 125.615 98.2947 124.814C97.2484 124.029 96.7189 122.657 96.7189 120.732C96.7189 119.483 96.9741 118.009 97.4717 116.353L97.5865 115.969H94.9995L94.9357 116.185C94.438 117.929 94.186 119.508 94.186 120.878C94.186 123.518 94.9899 125.459 96.5721 126.644C98.1288 127.807 100.084 128.398 102.381 128.398C104.927 128.398 106.955 127.693 108.407 126.301C109.861 124.91 110.598 122.787 110.598 120.001V111.772H108.04V120.001Z" fill="black"/>
<path d="M108.04 120.001C108.04 124.052 106.19 126.022 102.381 126.022C100.738 126.022 99.3665 125.615 98.2947 124.814C97.2484 124.029 96.7189 122.657 96.7189 120.732C96.7189 119.483 96.9741 118.009 97.4717 116.353L97.5865 115.969H94.9995L94.9357 116.185C94.438 117.929 94.186 119.508 94.186 120.878C94.186 123.518 94.9899 125.459 96.5721 126.644C98.1288 127.807 100.084 128.398 102.381 128.398C104.927 128.398 106.955 127.693 108.407 126.301C109.861 124.91 110.598 122.787 110.598 120.001V111.772H108.04V120.001Z" stroke="black" stroke-width="0.21" stroke-miterlimit="10"/>
<path d="M102.805 111.267C103.262 111.267 103.654 111.105 103.979 110.784C104.302 110.463 104.464 110.075 104.464 109.637C104.464 109.198 104.302 108.811 103.973 108.496C103.651 108.188 103.258 108.032 102.805 108.032C102.352 108.032 101.96 108.188 101.625 108.493C101.287 108.807 101.115 109.192 101.115 109.637C101.115 110.082 101.287 110.466 101.622 110.787C101.954 111.105 102.352 111.267 102.805 111.267Z" fill="black"/>
<path d="M102.805 111.267C103.262 111.267 103.654 111.105 103.979 110.784C104.302 110.463 104.464 110.075 104.464 109.637C104.464 109.198 104.302 108.811 103.973 108.496C103.651 108.188 103.258 108.032 102.805 108.032C102.352 108.032 101.96 108.188 101.625 108.493C101.287 108.807 101.115 109.192 101.115 109.637C101.115 110.082 101.287 110.466 101.622 110.787C101.954 111.105 102.352 111.267 102.805 111.267Z" stroke="black" stroke-width="0.21" stroke-miterlimit="10"/>
<path d="M212.999 129.332C212.549 129.332 212.151 129.488 211.822 129.793C211.481 130.107 211.309 130.492 211.309 130.937C211.309 131.382 211.481 131.766 211.816 132.087C212.148 132.405 212.546 132.567 212.999 132.567C213.452 132.567 213.848 132.405 214.173 132.084C214.495 131.763 214.658 131.375 214.658 130.937C214.658 130.498 214.495 130.111 214.167 129.799C213.845 129.488 213.452 129.332 212.999 129.332Z" fill="black"/>
<path d="M212.999 129.332C212.549 129.332 212.151 129.488 211.822 129.793C211.481 130.107 211.309 130.492 211.309 130.937C211.309 131.382 211.481 131.766 211.816 132.087C212.148 132.405 212.546 132.567 212.999 132.567C213.452 132.567 213.848 132.405 214.173 132.084C214.495 131.763 214.658 131.375 214.658 130.937C214.658 130.498 214.495 130.111 214.167 129.799C213.845 129.488 213.452 129.332 212.999 129.332Z" stroke="black" stroke-width="0.21" stroke-miterlimit="10"/>
<path d="M138.574 114.908C137.589 114.304 136.45 113.999 135.196 113.999C133.633 113.999 132.312 114.472 131.276 115.407C130.252 116.328 129.502 117.669 129.049 119.391C128.893 119.972 128.762 120.674 128.663 121.465C128.644 121.564 128.593 121.872 128.51 122.384C128.427 122.87 128.299 123.308 128.124 123.689C127.926 124.122 127.623 124.455 127.189 124.7C126.755 124.951 126.242 125.075 125.671 125.075H115.686V108.973H113.128V127.477H125.971V127.461C126.877 127.423 127.7 127.216 128.401 126.829C129.081 126.454 129.63 125.936 130.035 125.288C130.708 125.968 131.467 126.495 132.296 126.864C133.247 127.286 134.239 127.502 135.247 127.502C136.376 127.502 137.448 127.235 138.431 126.708C139.416 126.18 140.217 125.415 140.81 124.43C141.407 123.442 141.707 122.266 141.707 120.932C141.707 119.597 141.429 118.453 140.884 117.405C140.335 116.35 139.557 115.511 138.574 114.908ZM138.603 123.187C138.242 123.81 137.758 124.29 137.164 124.611C135.939 125.278 134.351 125.265 132.871 124.535C132.143 124.176 131.473 123.642 130.88 122.949L131.084 121.952C131.202 121.141 131.362 120.401 131.56 119.75C131.898 118.638 132.367 117.799 132.954 117.259C133.531 116.731 134.261 116.471 135.196 116.471C136.405 116.471 137.343 116.874 138.064 117.7C138.785 118.527 139.148 119.616 139.148 120.932C139.148 121.802 138.967 122.562 138.603 123.187Z" fill="black"/>
<path d="M138.574 114.908C137.589 114.304 136.45 113.999 135.196 113.999C133.633 113.999 132.312 114.472 131.276 115.407C130.252 116.328 129.502 117.669 129.049 119.391C128.893 119.972 128.762 120.674 128.663 121.465C128.644 121.564 128.593 121.872 128.51 122.384C128.427 122.87 128.299 123.308 128.124 123.689C127.926 124.122 127.623 124.455 127.189 124.7C126.755 124.951 126.242 125.075 125.671 125.075H115.686V108.973H113.128V127.477H125.971V127.461C126.877 127.423 127.7 127.216 128.401 126.829C129.081 126.454 129.63 125.936 130.035 125.288C130.708 125.968 131.467 126.495 132.296 126.864C133.247 127.286 134.239 127.502 135.247 127.502C136.376 127.502 137.448 127.235 138.431 126.708C139.416 126.18 140.217 125.415 140.81 124.43C141.407 123.442 141.707 122.266 141.707 120.932C141.707 119.597 141.429 118.453 140.884 117.405C140.335 116.35 139.557 115.511 138.574 114.908ZM138.603 123.187C138.242 123.81 137.758 124.29 137.164 124.611C135.939 125.278 134.351 125.265 132.871 124.535C132.143 124.176 131.473 123.642 130.88 122.949L131.084 121.952C131.202 121.141 131.362 120.401 131.56 119.75C131.898 118.638 132.367 117.799 132.954 117.259C133.531 116.731 134.261 116.471 135.196 116.471C136.405 116.471 137.343 116.874 138.064 117.7C138.785 118.527 139.148 119.616 139.148 120.932C139.148 121.802 138.967 122.562 138.603 123.187Z" stroke="black" stroke-width="0.21" stroke-miterlimit="10"/>
<path d="M144.275 107.238C144.055 107.057 143.953 106.841 143.953 106.555C143.953 106.313 144.032 106.132 144.205 105.986C144.568 105.675 145.267 105.687 145.908 105.951L146.154 106.05L147.178 104.223L146.884 104.086C146.221 103.778 145.57 103.619 144.951 103.619C144.051 103.619 143.28 103.883 142.661 104.397C142.023 104.925 141.697 105.57 141.697 106.31C141.697 106.771 141.796 107.178 141.994 107.524H141.595V109.56H147.72V107.524H145.155C144.798 107.524 144.511 107.432 144.275 107.238Z" fill="black"/>
<path d="M144.275 107.238C144.055 107.057 143.953 106.841 143.953 106.555C143.953 106.313 144.032 106.132 144.205 105.986C144.568 105.675 145.267 105.687 145.908 105.951L146.154 106.05L147.178 104.223L146.884 104.086C146.221 103.778 145.57 103.619 144.951 103.619C144.051 103.619 143.28 103.883 142.661 104.397C142.023 104.925 141.697 105.57 141.697 106.31C141.697 106.771 141.796 107.178 141.994 107.524H141.595V109.56H147.72V107.524H145.155C144.798 107.524 144.511 107.432 144.275 107.238Z" stroke="black" stroke-width="0.21" stroke-miterlimit="10"/>
<path d="M145.937 110.679H143.378V127.474H145.937V110.679Z" fill="black"/>
<path d="M145.937 110.679H143.378V127.474H145.937V110.679Z" stroke="black" stroke-width="0.21" stroke-miterlimit="10"/>
<path d="M155.041 110.279C155.497 110.279 155.892 110.116 156.215 109.796C156.537 109.472 156.7 109.087 156.7 108.649C156.7 108.21 156.537 107.823 156.208 107.508C155.886 107.2 155.494 107.044 155.041 107.044C154.588 107.044 154.195 107.2 153.86 107.505C153.522 107.819 153.35 108.204 153.35 108.649C153.35 109.093 153.522 109.478 153.857 109.799C154.189 110.116 154.588 110.279 155.041 110.279Z" fill="black"/>
<path d="M155.041 110.279C155.497 110.279 155.892 110.116 156.215 109.796C156.537 109.472 156.7 109.087 156.7 108.649C156.7 108.21 156.537 107.823 156.208 107.508C155.886 107.2 155.494 107.044 155.041 107.044C154.588 107.044 154.195 107.2 153.86 107.505C153.522 107.819 153.35 108.204 153.35 108.649C153.35 109.093 153.522 109.478 153.857 109.799C154.189 110.116 154.588 110.279 155.041 110.279Z" stroke="black" stroke-width="0.21" stroke-miterlimit="10"/>
<path d="M159.079 110.279C159.535 110.279 159.931 110.116 160.253 109.796C160.575 109.475 160.738 109.087 160.738 108.649C160.738 108.21 160.575 107.823 160.247 107.508C159.925 107.2 159.532 107.044 159.079 107.044C158.626 107.044 158.231 107.2 157.899 107.505C157.561 107.819 157.392 108.204 157.392 108.649C157.392 109.093 157.561 109.478 157.896 109.799C158.228 110.116 158.626 110.279 159.079 110.279Z" fill="black"/>
<path d="M159.079 110.279C159.535 110.279 159.931 110.116 160.253 109.796C160.575 109.475 160.738 109.087 160.738 108.649C160.738 108.21 160.575 107.823 160.247 107.508C159.925 107.2 159.532 107.044 159.079 107.044C158.626 107.044 158.231 107.2 157.899 107.505C157.561 107.819 157.392 108.204 157.392 108.649C157.392 109.093 157.561 109.478 157.896 109.799C158.228 110.116 158.626 110.279 159.079 110.279Z" stroke="black" stroke-width="0.21" stroke-miterlimit="10"/>
<path d="M213.012 115.658V125.078H210.466C209.178 125.078 208.211 124.77 207.595 124.163C206.977 123.556 206.664 122.609 206.664 121.348C206.664 119.95 206.323 118.676 205.656 117.561C204.983 116.442 204.032 115.562 202.823 114.936C201.624 114.314 200.243 113.999 198.724 113.999C196.762 113.999 195.017 114.45 193.54 115.337C192.398 116.023 191.461 116.916 190.749 117.999V113.999H188.216V125.078H186.701C185.412 125.078 184.449 124.77 183.83 124.163C183.246 123.591 182.937 122.714 182.902 121.554C182.918 121.351 182.924 121.145 182.924 120.935C182.924 119.642 182.65 118.453 182.101 117.405C181.553 116.353 180.774 115.515 179.792 114.911C178.806 114.304 177.67 113.999 176.414 113.999C174.85 113.999 173.53 114.472 172.493 115.407C171.469 116.328 170.719 117.669 170.266 119.394C170.11 119.972 169.979 120.677 169.88 121.469C169.861 121.567 169.81 121.872 169.727 122.384C169.644 122.873 169.517 123.311 169.341 123.689C169.144 124.125 168.841 124.455 168.407 124.7C167.973 124.951 167.459 125.078 166.888 125.078H166.876C165.593 125.075 164.633 124.767 164.017 124.16C163.402 123.556 163.089 122.609 163.089 121.348V112.874H160.531V114.199C159.787 114.097 159.086 114.05 158.435 114.05C156.875 114.05 155.452 114.32 154.205 114.854C152.945 115.391 151.937 116.198 151.21 117.252C150.479 118.31 150.112 119.591 150.112 121.056C150.112 122.222 150.364 123.267 150.862 124.166C151.363 125.065 152.061 125.767 152.939 126.257C153.816 126.743 154.808 126.991 155.889 126.991C158.362 126.991 160.122 126.088 161.127 124.309C161.548 125.221 162.186 125.955 163.035 126.492C164.065 127.146 165.36 127.477 166.888 127.477H167.185V127.461C168.094 127.423 168.917 127.216 169.619 126.829C170.298 126.457 170.847 125.939 171.252 125.288C171.925 125.968 172.684 126.498 173.517 126.867C174.464 127.286 175.457 127.502 176.465 127.502C177.597 127.502 178.666 127.235 179.648 126.711C180.436 126.288 181.106 125.713 181.648 124.995C181.836 125.338 182.063 125.647 182.321 125.92C183.301 126.952 184.774 127.477 186.701 127.477H200.278C201.557 127.477 202.676 127.251 203.605 126.8C204.389 126.422 205.037 125.888 205.531 125.211C206.485 126.717 208.141 127.477 210.466 127.477H215.57V115.658H213.012ZM160.531 119.861C160.531 120.801 160.352 121.643 160.001 122.365C159.65 123.076 159.159 123.639 158.54 124.036C157.918 124.436 157.197 124.636 156.397 124.636C155.229 124.636 154.304 124.325 153.647 123.705C152.99 123.083 152.671 122.234 152.671 121.103C152.671 120.131 152.913 119.276 153.398 118.561C153.876 117.853 154.562 117.297 155.433 116.913C156.314 116.522 157.341 116.325 158.483 116.325C159.178 116.325 159.848 116.388 160.531 116.515V119.861ZM179.82 123.187C179.46 123.813 178.975 124.29 178.385 124.614C177.157 125.278 175.568 125.269 174.088 124.535C173.361 124.176 172.694 123.642 172.101 122.949L172.302 121.952C172.42 121.141 172.579 120.401 172.777 119.75C173.115 118.638 173.584 117.799 174.171 117.262C174.748 116.731 175.482 116.474 176.414 116.474C177.623 116.474 178.56 116.874 179.281 117.7C180.002 118.527 180.366 119.616 180.366 120.935C180.366 121.802 180.184 122.562 179.82 123.187ZM203.177 124.172C202.558 124.773 201.582 125.078 200.278 125.078H190.724V123.359C190.772 122.107 191.167 120.948 191.904 119.909C192.644 118.863 193.633 118.021 194.839 117.405C196.045 116.785 197.372 116.474 198.775 116.474C200.437 116.474 201.758 116.922 202.696 117.808C203.643 118.701 204.106 119.858 204.106 121.348C204.106 122.625 203.793 123.575 203.177 124.172Z" fill="black"/>
<path d="M213.012 115.658V125.078H210.466C209.178 125.078 208.211 124.77 207.595 124.163C206.977 123.556 206.664 122.609 206.664 121.348C206.664 119.95 206.323 118.676 205.656 117.561C204.983 116.442 204.032 115.562 202.823 114.936C201.624 114.314 200.243 113.999 198.724 113.999C196.762 113.999 195.017 114.45 193.54 115.337C192.398 116.023 191.461 116.916 190.749 117.999V113.999H188.216V125.078H186.701C185.412 125.078 184.449 124.77 183.83 124.163C183.246 123.591 182.937 122.714 182.902 121.554C182.918 121.351 182.924 121.145 182.924 120.935C182.924 119.642 182.65 118.453 182.101 117.405C181.553 116.353 180.774 115.515 179.792 114.911C178.806 114.304 177.67 113.999 176.414 113.999C174.85 113.999 173.53 114.472 172.493 115.407C171.469 116.328 170.719 117.669 170.266 119.394C170.11 119.972 169.979 120.677 169.88 121.469C169.861 121.567 169.81 121.872 169.727 122.384C169.644 122.873 169.517 123.311 169.341 123.689C169.144 124.125 168.841 124.455 168.407 124.7C167.973 124.951 167.459 125.078 166.888 125.078H166.876C165.593 125.075 164.633 124.767 164.017 124.16C163.402 123.556 163.089 122.609 163.089 121.348V112.874H160.531V114.199C159.787 114.097 159.086 114.05 158.435 114.05C156.875 114.05 155.452 114.32 154.205 114.854C152.945 115.391 151.937 116.198 151.21 117.252C150.479 118.31 150.112 119.591 150.112 121.056C150.112 122.222 150.364 123.267 150.862 124.166C151.363 125.065 152.061 125.767 152.939 126.257C153.816 126.743 154.808 126.991 155.889 126.991C158.362 126.991 160.122 126.088 161.127 124.309C161.548 125.221 162.186 125.955 163.035 126.492C164.065 127.146 165.36 127.477 166.888 127.477H167.185V127.461C168.094 127.423 168.917 127.216 169.619 126.829C170.298 126.457 170.847 125.939 171.252 125.288C171.925 125.968 172.684 126.498 173.517 126.867C174.464 127.286 175.457 127.502 176.465 127.502C177.597 127.502 178.666 127.235 179.648 126.711C180.436 126.288 181.106 125.713 181.648 124.995C181.836 125.338 182.063 125.647 182.321 125.92C183.301 126.952 184.774 127.477 186.701 127.477H200.278C201.557 127.477 202.676 127.251 203.605 126.8C204.389 126.422 205.037 125.888 205.531 125.211C206.485 126.717 208.141 127.477 210.466 127.477H215.57V115.658H213.012ZM160.531 119.861C160.531 120.801 160.352 121.643 160.001 122.365C159.65 123.076 159.159 123.639 158.54 124.036C157.918 124.436 157.197 124.636 156.397 124.636C155.229 124.636 154.304 124.325 153.647 123.705C152.99 123.083 152.671 122.234 152.671 121.103C152.671 120.131 152.913 119.276 153.398 118.561C153.876 117.853 154.562 117.297 155.433 116.913C156.314 116.522 157.341 116.325 158.483 116.325C159.178 116.325 159.848 116.388 160.531 116.515V119.861ZM179.82 123.187C179.46 123.813 178.975 124.29 178.385 124.614C177.157 125.278 175.568 125.269 174.088 124.535C173.361 124.176 172.694 123.642 172.101 122.949L172.302 121.952C172.42 121.141 172.579 120.401 172.777 119.75C173.115 118.638 173.584 117.799 174.171 117.262C174.748 116.731 175.482 116.474 176.414 116.474C177.623 116.474 178.56 116.874 179.281 117.7C180.002 118.527 180.366 119.616 180.366 120.935C180.366 121.802 180.184 122.562 179.82 123.187ZM203.177 124.172C202.558 124.773 201.582 125.078 200.278 125.078H190.724V123.359C190.772 122.107 191.167 120.948 191.904 119.909C192.644 118.863 193.633 118.021 194.839 117.405C196.045 116.785 197.372 116.474 198.775 116.474C200.437 116.474 201.758 116.922 202.696 117.808C203.643 118.701 204.106 119.858 204.106 121.348C204.106 122.625 203.793 123.575 203.177 124.172Z" stroke="black" stroke-width="0.21" stroke-miterlimit="10"/>
<path d="M98.6074 141.336C98.6074 141.704 98.7063 141.981 98.9073 142.165C99.1082 142.349 99.3666 142.441 99.6856 142.441V143.722C99.1529 143.722 98.6999 143.614 98.3267 143.395C97.9535 143.175 97.6791 142.861 97.5069 142.451C97.1943 143.182 96.6201 143.55 95.7875 143.55C95.4525 143.55 95.1367 143.461 94.8464 143.287C94.553 143.112 94.3201 142.864 94.1446 142.543C93.9692 142.222 93.8799 141.86 93.8799 141.456C93.8799 140.954 94.0043 140.513 94.2499 140.135C94.4955 139.753 94.8369 139.461 95.2707 139.258C95.7045 139.054 96.1926 138.95 96.7381 138.95C96.9454 138.95 97.1336 138.962 97.3027 138.985V138.587H98.6138V141.339L98.6074 141.336ZM95.7492 138.085C95.545 138.085 95.3728 138.012 95.2292 137.869C95.0857 137.726 95.0123 137.552 95.0123 137.352C95.0123 137.151 95.0857 136.977 95.2292 136.834C95.3728 136.691 95.5482 136.618 95.7492 136.618C95.9502 136.618 96.1256 136.691 96.2692 136.834C96.4127 136.977 96.4861 137.151 96.4861 137.352C96.4861 137.552 96.4127 137.726 96.2692 137.869C96.1256 138.012 95.9502 138.085 95.7492 138.085ZM96.132 142.289C96.4861 142.289 96.7668 142.155 96.9773 141.892C97.1879 141.628 97.2931 141.266 97.2931 140.811V140.224C97.1017 140.195 96.9327 140.179 96.7796 140.179C96.3106 140.179 95.9246 140.294 95.6216 140.522C95.3186 140.751 95.1654 141.056 95.1654 141.444C95.1654 141.714 95.2548 141.924 95.4334 142.07C95.612 142.216 95.8449 142.289 96.1288 142.289H96.132ZM97.4782 138.085C97.274 138.085 97.1017 138.012 96.9582 137.869C96.8146 137.726 96.7413 137.552 96.7413 137.352C96.7413 137.151 96.8146 136.977 96.9582 136.834C97.1017 136.691 97.2772 136.618 97.4782 136.618C97.6791 136.618 97.8546 136.691 97.9981 136.834C98.1417 136.977 98.215 137.151 98.215 137.352C98.215 137.552 98.1417 137.726 97.9981 137.869C97.8546 138.012 97.6791 138.085 97.4782 138.085ZM102.359 142.124C102.573 142.337 102.927 142.445 103.418 142.445V143.725C102.496 143.725 101.874 143.471 101.552 142.962C101.344 143.204 101.083 143.391 100.767 143.525C100.451 143.658 100.091 143.725 99.6856 143.725C99.4878 143.725 99.3251 143.661 99.1912 143.534C99.0572 143.407 98.9902 143.252 98.9902 143.067C98.9902 142.883 99.054 142.734 99.1816 142.616C99.3092 142.502 99.4783 142.445 99.6856 142.445C100.005 142.445 100.263 142.352 100.467 142.168C100.668 141.984 100.77 141.707 100.77 141.339V139.576H102.081V141.339C102.081 141.666 102.174 141.93 102.359 142.127V142.124ZM100.553 145.965C100.349 145.965 100.177 145.892 100.033 145.749C99.8898 145.606 99.8164 145.431 99.8164 145.231C99.8164 145.031 99.8898 144.856 100.033 144.713C100.177 144.57 100.352 144.497 100.553 144.497C100.754 144.497 100.93 144.57 101.073 144.713C101.217 144.856 101.29 145.031 101.29 145.231C101.29 145.431 101.217 145.606 101.073 145.749C100.93 145.892 100.754 145.965 100.553 145.965ZM102.282 145.965C102.078 145.965 101.906 145.892 101.762 145.749C101.619 145.606 101.545 145.431 101.545 145.231C101.545 145.031 101.619 144.856 101.762 144.713C101.906 144.57 102.081 144.497 102.282 144.497C102.483 144.497 102.659 144.57 102.802 144.713C102.946 144.856 103.019 145.031 103.019 145.231C103.019 145.431 102.946 145.606 102.802 145.749C102.659 145.892 102.483 145.965 102.282 145.965ZM102.726 143.086C102.726 142.902 102.789 142.75 102.92 142.629C103.051 142.508 103.217 142.448 103.421 142.448H105.156V143.728H103.421C103.22 143.728 103.051 143.668 102.92 143.547C102.789 143.426 102.726 143.274 102.726 143.09V143.086ZM108.318 138.978C108.764 138.978 109.163 139.086 109.52 139.305C109.878 139.525 110.158 139.823 110.362 140.201C110.567 140.58 110.672 140.996 110.672 141.45C110.672 141.904 110.57 142.33 110.369 142.673C110.165 143.016 109.897 143.277 109.562 143.455C109.227 143.633 108.86 143.722 108.458 143.722C108.145 143.722 107.836 143.668 107.533 143.557C107.23 143.449 106.946 143.283 106.688 143.064C106.515 143.277 106.295 143.439 106.03 143.553C105.766 143.665 105.475 143.722 105.156 143.722C104.959 143.722 104.796 143.658 104.662 143.531C104.528 143.404 104.461 143.248 104.461 143.064C104.461 142.88 104.525 142.731 104.652 142.613C104.78 142.499 104.949 142.441 105.156 142.441C105.341 142.441 105.482 142.41 105.581 142.343C105.68 142.276 105.75 142.187 105.794 142.07C105.839 141.955 105.887 141.774 105.948 141.533C106.005 141.285 106.046 141.123 106.069 141.05C106.247 140.392 106.531 139.884 106.914 139.518C107.3 139.156 107.766 138.975 108.318 138.975V138.978ZM108.257 142.534C108.576 142.534 108.838 142.441 109.048 142.254C109.255 142.066 109.361 141.8 109.361 141.453C109.361 141.107 109.265 140.84 109.074 140.618C108.882 140.395 108.63 140.284 108.318 140.284C108.082 140.284 107.887 140.364 107.74 140.522C107.594 140.681 107.46 140.932 107.345 141.279C107.287 141.447 107.243 141.622 107.214 141.806C107.201 141.847 107.192 141.895 107.182 141.949C107.172 142.003 107.156 142.066 107.134 142.136C107.303 142.27 107.485 142.368 107.68 142.435C107.877 142.502 108.069 142.534 108.254 142.534H108.257ZM110.94 142.127C111.154 142.34 111.508 142.448 111.999 142.448V143.728C111.224 143.728 110.665 143.557 110.327 143.21C109.989 142.864 109.82 142.34 109.82 141.638C109.82 141.51 109.82 141.412 109.83 141.342H110.662C110.662 141.669 110.755 141.933 110.94 142.13V142.127ZM117.173 143.728H111.999C111.798 143.728 111.629 143.668 111.498 143.55C111.367 143.433 111.303 143.28 111.303 143.096C111.303 142.899 111.367 142.743 111.495 142.626C111.622 142.508 111.792 142.448 111.999 142.448H112.65C112.481 142.13 112.398 141.777 112.398 141.383C112.398 140.958 112.5 140.56 112.707 140.198C112.911 139.836 113.237 139.541 113.683 139.315C114.13 139.089 114.698 138.978 115.393 138.978H117.173V143.725V143.728ZM114.021 138.384C113.817 138.384 113.645 138.311 113.501 138.168C113.358 138.025 113.284 137.85 113.284 137.65C113.284 137.45 113.358 137.275 113.501 137.132C113.645 136.989 113.82 136.916 114.021 136.916C114.222 136.916 114.398 136.989 114.541 137.132C114.685 137.275 114.758 137.45 114.758 137.65C114.758 137.85 114.685 138.025 114.541 138.168C114.398 138.311 114.222 138.384 114.021 138.384ZM115.852 140.287H115.374C114.771 140.287 114.34 140.392 114.079 140.599C113.817 140.805 113.69 141.066 113.69 141.377C113.69 141.688 113.82 141.946 114.079 142.146C114.34 142.349 114.777 142.448 115.39 142.448H115.849V140.287H115.852ZM115.747 138.384C115.543 138.384 115.371 138.311 115.227 138.168C115.084 138.025 115.01 137.85 115.01 137.65C115.01 137.45 115.084 137.275 115.227 137.132C115.371 136.989 115.546 136.916 115.747 136.916C115.948 136.916 116.123 136.989 116.267 137.132C116.411 137.275 116.484 137.45 116.484 137.65C116.484 137.85 116.411 138.025 116.267 138.168C116.123 138.311 115.948 138.384 115.747 138.384ZM121.32 142.448V143.728H120.417C120.417 144.345 120.277 144.812 119.999 145.129C119.722 145.447 119.326 145.606 118.809 145.606C118.468 145.606 118.104 145.542 117.715 145.415L117.967 144.291C118.232 144.354 118.443 144.386 118.592 144.386C118.771 144.386 118.902 144.338 118.982 144.24C119.061 144.141 119.103 143.973 119.103 143.728V139.576H120.414V142.448H121.317H121.32ZM122.405 137.38H123.716V143.728H121.32C121.119 143.728 120.95 143.668 120.819 143.547C120.688 143.426 120.625 143.274 120.625 143.09C120.625 142.905 120.688 142.753 120.819 142.632C120.95 142.511 121.116 142.451 121.32 142.451H122.405V137.383V137.38ZM124.637 137.38H125.949V143.728H124.637V137.38ZM133.336 141.342C133.336 141.711 133.435 141.987 133.636 142.171C133.837 142.356 134.096 142.448 134.415 142.448V143.728C133.882 143.728 133.429 143.62 133.056 143.401C132.683 143.182 132.408 142.867 132.236 142.457C131.923 143.188 131.349 143.557 130.517 143.557C130.182 143.557 129.866 143.468 129.576 143.293C129.282 143.118 129.049 142.87 128.874 142.549C128.698 142.229 128.609 141.866 128.609 141.463C128.609 140.961 128.733 140.519 128.979 140.141C129.225 139.76 129.566 139.468 130 139.264C130.434 139.061 130.922 138.956 131.467 138.956C131.675 138.956 131.863 138.969 132.032 138.991V138.594H133.343V141.345L133.336 141.342ZM130.478 138.092C130.274 138.092 130.102 138.019 129.958 137.876C129.815 137.733 129.741 137.558 129.741 137.358C129.741 137.158 129.815 136.983 129.958 136.84C130.102 136.697 130.277 136.624 130.478 136.624C130.679 136.624 130.855 136.697 130.998 136.84C131.142 136.983 131.215 137.158 131.215 137.358C131.215 137.558 131.142 137.733 130.998 137.876C130.855 138.019 130.679 138.092 130.478 138.092ZM130.861 142.295C131.215 142.295 131.496 142.162 131.706 141.898C131.917 141.634 132.022 141.272 132.022 140.818V140.23C131.831 140.201 131.662 140.186 131.509 140.186C131.04 140.186 130.654 140.3 130.351 140.529C130.048 140.757 129.895 141.062 129.895 141.45C129.895 141.72 129.984 141.93 130.162 142.076C130.341 142.222 130.574 142.295 130.858 142.295H130.861ZM132.207 138.092C132.003 138.092 131.831 138.019 131.687 137.876C131.544 137.733 131.47 137.558 131.47 137.358C131.47 137.158 131.544 136.983 131.687 136.84C131.831 136.697 132.006 136.624 132.207 136.624C132.408 136.624 132.584 136.697 132.727 136.84C132.871 136.983 132.944 137.158 132.944 137.358C132.944 137.558 132.871 137.733 132.727 137.876C132.584 138.019 132.408 138.092 132.207 138.092ZM140.664 142.451V143.731H138.424C138.07 143.731 137.777 143.525 137.538 143.109C137.305 143.525 137.011 143.731 136.651 143.731H134.412C134.214 143.731 134.051 143.668 133.917 143.541C133.783 143.414 133.716 143.258 133.716 143.074C133.716 142.889 133.78 142.74 133.907 142.622C134.035 142.508 134.204 142.451 134.412 142.451H135.863L134.941 141.526C134.941 141.053 135.056 140.624 135.286 140.233C135.515 139.846 135.828 139.537 136.223 139.315C136.619 139.093 137.059 138.981 137.538 138.981C138.016 138.981 138.466 139.093 138.862 139.315C139.257 139.537 139.57 139.842 139.799 140.233C140.029 140.621 140.144 141.053 140.144 141.526L139.216 142.451H140.667H140.664ZM138.833 141.145C138.817 141.018 138.75 140.888 138.632 140.757C138.517 140.624 138.361 140.513 138.166 140.424C137.972 140.335 137.761 140.29 137.538 140.29C137.314 140.29 137.101 140.335 136.909 140.424C136.715 140.513 136.562 140.624 136.444 140.757C136.329 140.891 136.262 141.021 136.243 141.145L137.538 142.467L138.833 141.145ZM143.825 138.985C144.272 138.985 144.67 139.093 145.028 139.312C145.385 139.531 145.666 139.83 145.87 140.208C146.074 140.586 146.179 141.002 146.179 141.456C146.179 141.911 146.077 142.337 145.876 142.68C145.672 143.023 145.404 143.283 145.069 143.461C144.734 143.639 144.367 143.728 143.965 143.728C143.653 143.728 143.343 143.674 143.04 143.563C142.737 143.455 142.453 143.29 142.195 143.07C142.023 143.283 141.803 143.445 141.538 143.56C141.273 143.671 140.983 143.728 140.664 143.728C140.466 143.728 140.303 143.665 140.169 143.538C140.035 143.41 139.968 143.255 139.968 143.07C139.968 142.886 140.032 142.737 140.16 142.619C140.287 142.505 140.456 142.448 140.664 142.448C140.849 142.448 140.989 142.416 141.088 142.349C141.187 142.283 141.257 142.194 141.302 142.076C141.346 141.962 141.394 141.781 141.455 141.539C141.512 141.291 141.554 141.129 141.576 141.056C141.755 140.398 142.039 139.89 142.421 139.525C142.807 139.163 143.273 138.981 143.825 138.981V138.985ZM143.764 142.54C144.083 142.54 144.345 142.448 144.556 142.26C144.763 142.073 144.868 141.806 144.868 141.46C144.868 141.113 144.772 140.846 144.581 140.624C144.39 140.402 144.138 140.29 143.825 140.29C143.589 140.29 143.394 140.37 143.248 140.529C143.101 140.688 142.967 140.939 142.852 141.285C142.795 141.453 142.75 141.628 142.721 141.812C142.709 141.854 142.699 141.901 142.689 141.955C142.68 142.009 142.664 142.073 142.642 142.143C142.811 142.276 142.993 142.375 143.187 142.441C143.385 142.508 143.576 142.54 143.761 142.54H143.764ZM146.447 142.133C146.661 142.346 147.015 142.454 147.506 142.454V143.735C146.731 143.735 146.173 143.563 145.835 143.217C145.497 142.87 145.328 142.346 145.328 141.644C145.328 141.517 145.328 141.418 145.337 141.348H146.17C146.17 141.676 146.262 141.939 146.447 142.136V142.133ZM156.537 142.454V143.735H153.845C153.456 143.735 153.137 143.674 152.881 143.557C152.626 143.439 152.428 143.261 152.282 143.026C152.109 143.252 151.902 143.426 151.666 143.55C151.43 143.674 151.172 143.738 150.894 143.738H147.506C147.305 143.738 147.136 143.677 147.005 143.557C146.875 143.436 146.811 143.283 146.811 143.099C146.811 142.915 146.875 142.762 147.005 142.642C147.136 142.521 147.302 142.46 147.506 142.46H148.591V139.277H149.902V142.46H150.719C151.21 142.46 151.455 142.092 151.455 141.355V139.28H152.767V141.355C152.767 141.736 152.84 142.016 152.987 142.194C153.133 142.371 153.36 142.46 153.669 142.46H154.32V138.994H155.631V142.46H156.534L156.537 142.454ZM157.622 137.386H158.933V143.735H156.537C156.336 143.735 156.167 143.674 156.036 143.553C155.905 143.433 155.842 143.28 155.842 143.096C155.842 142.912 155.905 142.759 156.036 142.638C156.167 142.518 156.333 142.457 156.537 142.457H157.622V137.39V137.386ZM159.855 137.386H161.166V143.735H159.855V137.386ZM166.863 143.735C166.324 143.735 165.826 143.63 165.364 143.423C164.901 143.217 164.534 142.918 164.26 142.534C163.986 142.146 163.848 141.698 163.848 141.183C163.848 140.827 163.928 140.437 164.085 140.017H165.309C165.198 140.379 165.144 140.694 165.144 140.961C165.144 141.434 165.29 141.8 165.581 142.063C165.874 142.327 166.298 142.457 166.86 142.457H170.254V139.585H171.565V143.738H166.86L166.863 143.735ZM166.837 138.978C166.633 138.978 166.461 138.905 166.317 138.762C166.174 138.619 166.101 138.444 166.101 138.244C166.101 138.044 166.174 137.869 166.317 137.726C166.461 137.583 166.636 137.51 166.837 137.51C167.038 137.51 167.214 137.583 167.357 137.726C167.501 137.869 167.574 138.044 167.574 138.244C167.574 138.444 167.501 138.619 167.357 138.762C167.214 138.905 167.038 138.978 166.837 138.978ZM168.566 138.978C168.362 138.978 168.19 138.905 168.046 138.762C167.903 138.619 167.83 138.444 167.83 138.244C167.83 138.044 167.903 137.869 168.046 137.726C168.19 137.583 168.365 137.51 168.566 137.51C168.767 137.51 168.943 137.583 169.086 137.726C169.23 137.869 169.303 138.044 169.303 138.244C169.303 138.444 169.23 138.619 169.086 138.762C168.943 138.905 168.767 138.978 168.566 138.978ZM174.879 142.454V143.735H172.49V137.386H173.801V142.454H174.879ZM174.184 143.093C174.184 142.908 174.248 142.756 174.379 142.635C174.509 142.514 174.675 142.454 174.879 142.454H176.615V143.735H174.879C174.678 143.735 174.509 143.674 174.379 143.553C174.248 143.433 174.184 143.28 174.184 143.096V143.093ZM175.919 143.093C175.919 142.908 175.983 142.756 176.114 142.635C176.245 142.514 176.411 142.454 176.615 142.454H178.35V143.735H176.615C176.414 143.735 176.245 143.674 176.114 143.553C175.983 143.433 175.919 143.28 175.919 143.096V143.093ZM181.511 138.985C181.958 138.985 182.357 139.093 182.714 139.312C183.071 139.531 183.352 139.83 183.556 140.208C183.76 140.586 183.865 141.002 183.865 141.456C183.865 141.911 183.763 142.337 183.562 142.68C183.358 143.023 183.09 143.283 182.755 143.461C182.42 143.639 182.054 143.728 181.652 143.728C181.339 143.728 181.03 143.674 180.727 143.563C180.423 143.455 180.14 143.29 179.881 143.07C179.709 143.283 179.489 143.445 179.224 143.56C178.959 143.671 178.669 143.728 178.35 143.728C178.152 143.728 177.99 143.665 177.856 143.538C177.722 143.41 177.655 143.255 177.655 143.07C177.655 142.886 177.718 142.737 177.846 142.619C177.974 142.505 178.143 142.448 178.35 142.448C178.535 142.448 178.675 142.416 178.774 142.349C178.873 142.283 178.943 142.194 178.988 142.076C179.033 141.962 179.081 141.781 179.141 141.539C179.199 141.291 179.24 141.129 179.262 141.056C179.441 140.398 179.725 139.89 180.108 139.525C180.494 139.163 180.959 138.981 181.511 138.981V138.985ZM181.451 142.54C181.77 142.54 182.031 142.448 182.242 142.26C182.449 142.073 182.554 141.806 182.554 141.46C182.554 141.113 182.459 140.846 182.267 140.624C182.076 140.402 181.824 140.29 181.511 140.29C181.275 140.29 181.081 140.37 180.934 140.529C180.787 140.688 180.653 140.939 180.538 141.285C180.481 141.453 180.436 141.628 180.408 141.812C180.395 141.854 180.385 141.901 180.376 141.955C180.366 142.009 180.35 142.073 180.328 142.143C180.497 142.276 180.679 142.375 180.873 142.441C181.071 142.508 181.262 142.54 181.447 142.54H181.451ZM184.577 144.297C184.842 144.36 185.052 144.392 185.202 144.392C185.381 144.392 185.511 144.345 185.591 144.246C185.671 144.148 185.712 143.979 185.712 143.735V139.582H187.024V143.735C187.024 144.351 186.883 144.818 186.606 145.136C186.328 145.453 185.933 145.612 185.416 145.612C185.074 145.612 184.711 145.549 184.322 145.422L184.574 144.297H184.577ZM186.373 138.823C186.169 138.823 185.996 138.749 185.853 138.607C185.709 138.464 185.636 138.289 185.636 138.089C185.636 137.888 185.709 137.714 185.853 137.571C185.996 137.428 186.172 137.355 186.373 137.355C186.574 137.355 186.749 137.428 186.893 137.571C187.036 137.714 187.11 137.888 187.11 138.089C187.11 138.289 187.036 138.464 186.893 138.607C186.749 138.749 186.574 138.823 186.373 138.823ZM189.595 137.215H187.789V136.672H187.99C187.856 136.551 187.789 136.379 187.789 136.16C187.789 135.9 187.888 135.69 188.086 135.525C188.284 135.359 188.523 135.277 188.807 135.277C189.027 135.277 189.244 135.328 189.457 135.432L189.189 135.95C189.068 135.906 188.957 135.88 188.861 135.88C188.733 135.88 188.628 135.912 188.548 135.973C188.469 136.033 188.427 136.125 188.427 136.246C188.427 136.367 188.472 136.475 188.561 136.554C188.65 136.63 188.765 136.672 188.906 136.672H189.601V137.215H189.595ZM188.051 137.908H189.362V143.738H188.051V137.908ZM195.059 145.863C194.51 145.863 194.006 145.768 193.547 145.574C193.091 145.38 192.721 145.078 192.443 144.665C192.166 144.252 192.025 143.735 192.025 143.112C192.025 142.638 192.115 142.101 192.293 141.495H193.518C193.375 142.038 193.301 142.505 193.301 142.896C193.301 144.027 193.885 144.589 195.056 144.589C195.64 144.589 196.07 144.434 196.351 144.122C196.628 143.811 196.769 143.328 196.769 142.67V137.386H198.08V142.67C198.08 143.684 197.815 144.472 197.289 145.028C196.762 145.584 196.019 145.863 195.056 145.863H195.059ZM204.584 143.735H203.662C203.557 144.437 203.289 144.97 202.855 145.329C202.421 145.689 201.831 145.87 201.085 145.87C200.721 145.87 200.329 145.831 199.914 145.758V144.497C200.291 144.548 200.616 144.573 200.897 144.573C201.295 144.573 201.614 144.507 201.847 144.37C202.08 144.233 202.243 144.024 202.329 143.735H201.965C201.283 143.735 200.718 143.627 200.278 143.41C199.834 143.194 199.512 142.912 199.311 142.559C199.107 142.206 199.008 141.825 199.008 141.409C199.008 140.993 199.113 140.595 199.321 140.233C199.528 139.871 199.857 139.576 200.303 139.35C200.75 139.124 201.311 139.013 201.988 139.013H203.717V142.454H204.594V143.735H204.584ZM200.268 141.39C200.268 141.695 200.402 141.949 200.667 142.152C200.932 142.356 201.369 142.454 201.978 142.454H202.412V140.319H201.959C201.356 140.319 200.925 140.421 200.661 140.627C200.396 140.831 200.265 141.088 200.265 141.393L200.268 141.39ZM203.889 143.093C203.889 142.908 203.953 142.756 204.083 142.635C204.214 142.514 204.38 142.454 204.584 142.454H206.32V143.735H204.584C204.383 143.735 204.214 143.674 204.083 143.553C203.953 143.433 203.889 143.28 203.889 143.096V143.093ZM208.993 142.133C209.206 142.346 209.561 142.454 210.052 142.454V143.735C209.13 143.735 208.508 143.48 208.186 142.972C207.978 143.213 207.717 143.401 207.401 143.534C207.085 143.668 206.725 143.735 206.32 143.735C206.119 143.735 205.95 143.674 205.819 143.553C205.688 143.433 205.624 143.28 205.624 143.096C205.624 142.912 205.688 142.759 205.819 142.638C205.95 142.518 206.115 142.457 206.32 142.457C206.639 142.457 206.897 142.365 207.101 142.181C207.305 141.997 207.404 141.72 207.404 141.352V137.39H208.715V141.352C208.715 141.679 208.808 141.943 208.993 142.14V142.133ZM215.149 142.063C215.172 142.19 215.213 142.283 215.271 142.337C215.328 142.391 215.398 142.426 215.484 142.435C215.567 142.448 215.701 142.451 215.88 142.451V143.731H210.061C209.829 143.731 209.65 143.668 209.522 143.541C209.395 143.414 209.331 143.264 209.331 143.09C209.331 142.915 209.395 142.765 209.522 142.638C209.65 142.511 209.829 142.448 210.061 142.448H213.883C213.877 142.426 213.87 142.4 213.867 142.372C213.861 142.343 213.854 142.308 213.851 142.267C213.775 141.828 213.676 141.482 213.551 141.225C213.427 140.967 213.267 140.77 213.07 140.634C212.671 140.357 212.173 140.217 211.577 140.217C211.251 140.217 210.929 140.265 210.604 140.357L210.457 139.156C210.891 139.042 211.321 138.985 211.752 138.985C212.54 138.985 213.232 139.185 213.829 139.582C214.176 139.814 214.457 140.128 214.671 140.532C214.885 140.935 215.047 141.447 215.156 142.063H215.149Z" fill="#059E97"/>
</g>
<defs>
<linearGradient id="paint0_linear_113_3104" x1="0" y1="124.595" x2="247.785" y2="124.595" gradientUnits="userSpaceOnUse">
<stop stop-color="#29295B"/>
<stop offset="1" stop-color="#059E97"/>
</linearGradient>
<linearGradient id="paint1_linear_113_3104" x1="33.0032" y1="124.797" x2="83.8767" y2="124.797" gradientUnits="userSpaceOnUse">
<stop stop-color="#29295B"/>
<stop offset="0.29" stop-color="#1D4F6E"/>
<stop offset="0.74" stop-color="#0B878B"/>
<stop offset="0.96" stop-color="#059E97"/>
<stop offset="1" stop-color="#059E97"/>
</linearGradient>
<clipPath id="clip0_113_3104">
<rect width="182.88" height="69.584" fill="white" transform="translate(33 90)"/>
</clipPath>
</defs>
</svg>
